<svg xmlns="http://www.w3.org/2000/svg" xmlns:xlink="http://www.w3.org/1999/xlink" contentStyleType="text/css" data-diagram-type="ACTIVITY" height="1097px" preserveAspectRatio="none" style="width:663px;height:1097px;background:#FFFFFF;" version="1.1" viewBox="0 0 663 1097" width="663px" zoomAndPan="magnify"><?plantuml $version$?><defs/><g><g class="title" data-source-line="25"><text fill="#000000" font-family="sans-serif" font-size="14" font-weight="700" lengthAdjust="spacing" textLength="223.0737" x="219.1993" y="34.9659">LaTeX validate &#8594; repair pipeline</text><text fill="#000000" font-family="sans-serif" font-size="11" font-style="italic" font-weight="700" lengthAdjust="spacing" textLength="228.5563" x="216.458" y="50.8268">LatexSyntaxLayer.apply over a token lattice</text></g><ellipse cx="263.7032" cy="80.0498" fill="#1565C0" rx="10" ry="10" style="stroke:#222222;stroke-width:1;"/><rect fill="#FFF59D" height="36.3441" rx="12.5" ry="12.5" style="stroke:#F9A825;stroke-width:0.5;" width="166.0562" x="180.6751" y="110.0498"/><text fill="#102027" font-family="sans-serif" font-size="12" lengthAdjust="spacing" textLength="146.0562" x="190.6751" y="132.8779">Input lattice  Lattice&#10216;W, B&#10217;</text><polygon fill="#ECEFF1" points="203.8637,166.3939,323.5428,166.3939,335.5428,178.3939,323.5428,190.3939,203.8637,190.3939,191.8637,178.3939,203.8637,166.3939" style="stroke:#455A64;stroke-width:0.5;stroke-linejoin:miter;stroke-miterlimit:10;"/><text fill="#102027" font-family="sans-serif" font-size="11" lengthAdjust="spacing" textLength="119.6791" x="203.8637" y="182.6619">prune_ungrammatical?</text><text fill="#000000" font-family="sans-serif" font-size="11" lengthAdjust="spacing" textLength="17.0829" x="174.7808" y="175.1709">yes</text><text fill="#000000" font-family="sans-serif" font-size="11" lengthAdjust="spacing" textLength="13.4529" x="335.5428" y="175.1709">no</text><rect fill="#FFF59D" height="69.0323" rx="12.5" ry="12.5" style="stroke:#F9A825;stroke-width:0.5;" width="210.3214" x="70.8291" y="200.3939"/><text fill="#102027" font-family="sans-serif" font-size="12" font-weight="700" lengthAdjust="spacing" textLength="144.7691" x="103.6052" y="223.222">Pass 1 &#8212; Grammar filter</text><text fill="#102027" font-family="sans-serif" font-size="12" lengthAdjust="spacing" textLength="190.3214" x="80.8291" y="239.5661">EarleyParser over LatexGrammar;</text><text fill="#102027" font-family="sans-serif" font-size="12" lengthAdjust="spacing" textLength="153.8531" x="99.0632" y="255.9102">keep only edges on a parse</text><rect fill="#FFF59D" height="36.3441" rx="12.5" ry="12.5" style="stroke:#F9A825;stroke-width:0.5;" width="100.5326" x="301.1504" y="200.3939"/><text fill="#102027" font-family="sans-serif" font-size="12" lengthAdjust="spacing" textLength="80.5326" x="311.1504" y="223.222">keep all edges</text><polygon fill="#ECEFF1" points="263.7032,275.4263,275.7032,287.4263,263.7032,299.4263,251.7032,287.4263,263.7032,275.4263" style="stroke:#455A64;stroke-width:0.5;stroke-linejoin:miter;stroke-miterlimit:10;"/><path d="M410.0381,368.9172 L410.0381,405.3292 L390.0381,409.3292 L410.0381,413.3292 L410.0381,449.7413 A0,0 0 0 0 410.0381,449.7413 L618.4722,449.7413 A0,0 0 0 0 618.4722,449.7413 L618.4722,378.9172 L608.4722,368.9172 L410.0381,368.9172 A0,0 0 0 0 410.0381,368.9172" fill="#ECEFF1" style="stroke:#455A64;stroke-width:0.5;"/><path d="M608.4722,368.9172 L608.4722,378.9172 L618.4722,378.9172 L608.4722,368.9172" fill="#ECEFF1" style="stroke:#455A64;stroke-width:0.5;"/><text fill="#000000" font-family="sans-serif" font-size="13" lengthAdjust="spacing" textLength="172.5231" x="423.4936" y="387.8142">Emits ValidationIssue values</text><text fill="#000000" font-family="sans-serif" font-size="13" lengthAdjust="spacing" textLength="146.8611" x="436.3246" y="405.5202">(UnmatchedOpenBrace,</text><text fill="#000000" font-family="sans-serif" font-size="13" lengthAdjust="spacing" textLength="141.9732" x="440.4586" y="423.2263">EnvironmentMismatch,</text><text fill="#000000" font-family="sans-serif" font-size="13" lengthAdjust="spacing" textLength="184.0542" x="419.4181" y="440.9323">UnmatchedMathDelimiter, &#8230;).</text><rect fill="#FFF59D" height="69.0323" rx="12.5" ry="12.5" style="stroke:#F9A825;stroke-width:0.5;" width="252.6696" x="137.3684" y="374.8131"/><text fill="#102027" font-family="sans-serif" font-size="12" font-weight="700" lengthAdjust="spacing" textLength="178.4173" x="174.4946" y="397.6412">Pass 2 &#8212; Structural validation</text><text fill="#102027" font-family="sans-serif" font-size="12" lengthAdjust="spacing" textLength="181.9933" x="172.7066" y="413.9853">LatexValidator: brace matching &#183;</text><text fill="#102027" font-family="sans-serif" font-size="12" lengthAdjust="spacing" textLength="232.6696" x="147.3684" y="430.3294">environment begin/end &#183; math delimiters</text><polygon fill="#ECEFF1" points="214.9131,319.4263,312.4934,319.4263,324.4934,331.4263,312.4934,343.4263,214.9131,343.4263,202.9131,331.4263,214.9131,319.4263" style="stroke:#455A64;stroke-width:0.5;stroke-linejoin:miter;stroke-miterlimit:10;"/><text fill="#000000" font-family="sans-serif" font-size="11" lengthAdjust="spacing" textLength="17.0829" x="267.7032" y="355.1852">yes</text><text fill="#102027" font-family="sans-serif" font-size="11" lengthAdjust="spacing" textLength="97.5803" x="214.9131" y="335.6942">validate_structure?</text><text fill="#000000" font-family="sans-serif" font-size="11" lengthAdjust="spacing" textLength="13.4529" x="324.4934" y="328.2033">no</text><polygon fill="#ECEFF1" points="263.7032,469.7413,275.7032,481.7413,263.7032,493.7413,251.7032,481.7413,263.7032,469.7413" style="stroke:#455A64;stroke-width:0.5;stroke-linejoin:miter;stroke-miterlimit:10;"/><rect fill="#FFF59D" height="69.0323" rx="12.5" ry="12.5" style="stroke:#F9A825;stroke-width:0.5;" width="183.1532" x="172.1266" y="612.7232"/><text fill="#102027" font-family="sans-serif" font-size="12" font-weight="700" lengthAdjust="spacing" textLength="163.1532" x="182.1266" y="635.5512">Pass 3 &#8212; Repair generation</text><text fill="#102027" font-family="sans-serif" font-size="12" lengthAdjust="spacing" textLength="147.4691" x="189.9687" y="651.8954">CompositeRepairStrategy:</text><text fill="#102027" font-family="sans-serif" font-size="12" lengthAdjust="spacing" textLength="152.9411" x="187.2327" y="668.2395">Brace &#183; Environment &#183; Math</text><rect fill="#FFF59D" height="52.6882" rx="12.5" ry="12.5" style="stroke:#F9A825;stroke-width:0.5;" width="198.6199" x="164.3933" y="701.7555"/><text fill="#102027" font-family="sans-serif" font-size="12" lengthAdjust="spacing" textLength="175.2013" x="176.1026" y="724.5836">sort suggestions by confidence</text><text fill="#102027" font-family="sans-serif" font-size="12" lengthAdjust="spacing" textLength="178.6199" x="174.3933" y="740.9277">(keep &#8804; max_repairs_per_issue)</text><polygon fill="#ECEFF1" points="131.7546,774.4437,395.6519,774.4437,407.6519,786.4437,395.6519,798.4437,131.7546,798.4437,119.7546,786.4437,131.7546,774.4437" style="stroke:#455A64;stroke-width:0.5;stroke-linejoin:miter;stroke-miterlimit:10;"/><text fill="#102027" font-family="sans-serif" font-size="11" lengthAdjust="spacing" textLength="263.8973" x="131.7546" y="790.7117">auto_repair &#8743; confidence &#8805; auto_repair_threshold?</text><text fill="#000000" font-family="sans-serif" font-size="11" lengthAdjust="spacing" textLength="17.0829" x="102.6717" y="783.2208">yes</text><text fill="#000000" font-family="sans-serif" font-size="11" lengthAdjust="spacing" textLength="13.4529" x="407.6519" y="783.2208">no</text><rect fill="#FFF59D" height="52.6882" rx="12.5" ry="12.5" style="stroke:#F9A825;stroke-width:0.5;" width="187.5092" x="16" y="808.4437"/><text fill="#102027" font-family="sans-serif" font-size="12" lengthAdjust="spacing" textLength="167.5092" x="26" y="831.2718">apply high-confidence repairs</text><text fill="#102027" font-family="sans-serif" font-size="12" lengthAdjust="spacing" textLength="80.9766" x="69.2663" y="847.6159">into the lattice</text><rect fill="#FFF59D" height="52.6882" rx="12.5" ry="12.5" style="stroke:#F9A825;stroke-width:0.5;" width="138.8008" x="348.2514" y="808.4437"/><text fill="#102027" font-family="sans-serif" font-size="12" lengthAdjust="spacing" textLength="118.8008" x="358.2514" y="831.2718">stash in last_repairs()</text><text fill="#102027" font-family="sans-serif" font-size="12" lengthAdjust="spacing" textLength="71.5085" x="381.8976" y="847.6159">for the caller</text><polygon fill="#ECEFF1" points="263.7032,867.132,275.7032,879.132,263.7032,891.132,251.7032,879.132,263.7032,867.132" style="stroke:#455A64;stroke-width:0.5;stroke-linejoin:miter;stroke-miterlimit:10;"/><polygon fill="#ECEFF1" points="217.2781,563.2322,310.1284,563.2322,322.1284,575.2322,310.1284,587.2322,217.2781,587.2322,205.2781,575.2322,217.2781,563.2322" style="stroke:#455A64;stroke-width:0.5;stroke-linejoin:miter;stroke-miterlimit:10;"/><text fill="#000000" font-family="sans-serif" font-size="11" lengthAdjust="spacing" textLength="17.0829" x="267.7032" y="598.9911">yes</text><text fill="#102027" font-family="sans-serif" font-size="11" lengthAdjust="spacing" textLength="92.8503" x="217.2781" y="579.5002">generate_repairs?</text><text fill="#000000" font-family="sans-serif" font-size="11" lengthAdjust="spacing" textLength="13.4529" x="322.1284" y="572.0092">no</text><polygon fill="#ECEFF1" points="263.7032,911.132,275.7032,923.132,263.7032,935.132,251.7032,923.132,263.7032,911.132" style="stroke:#455A64;stroke-width:0.5;stroke-linejoin:miter;stroke-miterlimit:10;"/><polygon fill="#ECEFF1" points="228.663,513.7413,298.7435,513.7413,310.7435,525.7413,298.7435,537.7413,228.663,537.7413,216.663,525.7413,228.663,513.7413" style="stroke:#455A64;stroke-width:0.5;stroke-linejoin:miter;stroke-miterlimit:10;"/><text fill="#000000" font-family="sans-serif" font-size="11" lengthAdjust="spacing" textLength="17.0829" x="267.7032" y="549.5002">yes</text><text fill="#102027" font-family="sans-serif" font-size="11" lengthAdjust="spacing" textLength="70.0805" x="228.663" y="530.0092">issues found?</text><text fill="#000000" font-family="sans-serif" font-size="11" lengthAdjust="spacing" textLength="54.3726" x="310.7435" y="522.5183">no &#8212; valid</text><polygon fill="#ECEFF1" points="263.7032,955.132,275.7032,967.132,263.7032,979.132,251.7032,967.132,263.7032,955.132" style="stroke:#455A64;stroke-width:0.5;stroke-linejoin:miter;stroke-miterlimit:10;"/><rect fill="#FFF59D" height="36.3441" rx="12.5" ry="12.5" style="stroke:#F9A825;stroke-width:0.5;" width="215.8894" x="155.7585" y="999.132"/><text fill="#102027" font-family="sans-serif" font-size="12" lengthAdjust="spacing" textLength="195.8894" x="165.7585" y="1021.96">Output lattice + repair suggestions</text><ellipse cx="263.7032" cy="1066.4761" fill="none" rx="11" ry="11" style="stroke:#222222;stroke-width:1;"/><ellipse cx="263.7032" cy="1066.4761" fill="#222222" rx="6" ry="6" style="stroke:#222222;stroke-width:1;"/><line style="stroke:#607D8B;stroke-width:1.3;" x1="263.7032" x2="263.7032" y1="90.0498" y2="110.0498"/><polygon fill="#607D8B" points="259.7032,100.0498,263.7032,110.0498,267.7032,100.0498,263.7032,104.0498" style="stroke:#607D8B;stroke-width:1;stroke-linejoin:miter;stroke-miterlimit:10;"/><line style="stroke:#607D8B;stroke-width:1.3;" x1="191.8637" x2="175.9897" y1="178.3939" y2="178.3939"/><line style="stroke:#607D8B;stroke-width:1.3;" x1="175.9897" x2="175.9897" y1="178.3939" y2="200.3939"/><polygon fill="#607D8B" points="171.9897,190.3939,175.9897,200.3939,179.9897,190.3939,175.9897,194.3939" style="stroke:#607D8B;stroke-width:1;stroke-linejoin:miter;stroke-miterlimit:10;"/><line style="stroke:#607D8B;stroke-width:1.3;" x1="335.5428" x2="351.4167" y1="178.3939" y2="178.3939"/><line style="stroke:#607D8B;stroke-width:1.3;" x1="351.4167" x2="351.4167" y1="178.3939" y2="200.3939"/><polygon fill="#607D8B" points="347.4167,190.3939,351.4167,200.3939,355.4167,190.3939,351.4167,194.3939" style="stroke:#607D8B;stroke-width:1;stroke-linejoin:miter;stroke-miterlimit:10;"/><line style="stroke:#607D8B;stroke-width:1.3;" x1="175.9897" x2="175.9897" y1="269.4263" y2="287.4263"/><line style="stroke:#607D8B;stroke-width:1.3;" x1="175.9897" x2="251.7032" y1="287.4263" y2="287.4263"/><polygon fill="#607D8B" points="241.7032,283.4263,251.7032,287.4263,241.7032,291.4263,245.7032,287.4263" style="stroke:#607D8B;stroke-width:1;stroke-linejoin:miter;stroke-miterlimit:10;"/><line style="stroke:#607D8B;stroke-width:1.3;" x1="351.4167" x2="351.4167" y1="236.738" y2="287.4263"/><line style="stroke:#607D8B;stroke-width:1.3;" x1="351.4167" x2="275.7032" y1="287.4263" y2="287.4263"/><polygon fill="#607D8B" points="285.7032,283.4263,275.7032,287.4263,285.7032,291.4263,281.7032,287.4263" style="stroke:#607D8B;stroke-width:1;stroke-linejoin:miter;stroke-miterlimit:10;"/><line style="stroke:#607D8B;stroke-width:1.3;" x1="263.7032" x2="263.7032" y1="146.3939" y2="166.3939"/><polygon fill="#607D8B" points="259.7032,156.3939,263.7032,166.3939,267.7032,156.3939,263.7032,160.3939" style="stroke:#607D8B;stroke-width:1;stroke-linejoin:miter;stroke-miterlimit:10;"/><line style="stroke:#607D8B;stroke-width:1.3;" x1="263.7032" x2="263.7032" y1="343.4263" y2="374.8131"/><polygon fill="#607D8B" points="259.7032,364.8131,263.7032,374.8131,267.7032,364.8131,263.7032,368.8131" style="stroke:#607D8B;stroke-width:1;stroke-linejoin:miter;stroke-miterlimit:10;"/><line style="stroke:#607D8B;stroke-width:1.3;" x1="324.4934" x2="628.4722" y1="331.4263" y2="331.4263"/><polygon fill="#607D8B" points="624.4722,399.3292,628.4722,409.3292,632.4722,399.3292,628.4722,403.3292" style="stroke:#607D8B;stroke-width:1.3;stroke-linejoin:miter;stroke-miterlimit:10;"/><line style="stroke:#607D8B;stroke-width:1.3;" x1="628.4722" x2="628.4722" y1="331.4263" y2="481.7413"/><line style="stroke:#607D8B;stroke-width:1.3;" x1="628.4722" x2="275.7032" y1="481.7413" y2="481.7413"/><polygon fill="#607D8B" points="285.7032,477.7413,275.7032,481.7413,285.7032,485.7413,281.7032,481.7413" style="stroke:#607D8B;stroke-width:1;stroke-linejoin:miter;stroke-miterlimit:10;"/><line style="stroke:#607D8B;stroke-width:1.3;" x1="263.7032" x2="263.7032" y1="443.8454" y2="469.7413"/><polygon fill="#607D8B" points="259.7032,459.7413,263.7032,469.7413,267.7032,459.7413,263.7032,463.7413" style="stroke:#607D8B;stroke-width:1;stroke-linejoin:miter;stroke-miterlimit:10;"/><line style="stroke:#607D8B;stroke-width:1.3;" x1="263.7032" x2="263.7032" y1="299.4263" y2="319.4263"/><polygon fill="#607D8B" points="259.7032,309.4263,263.7032,319.4263,267.7032,309.4263,263.7032,313.4263" style="stroke:#607D8B;stroke-width:1;stroke-linejoin:miter;stroke-miterlimit:10;"/><line style="stroke:#607D8B;stroke-width:1.3;" x1="263.7032" x2="263.7032" y1="681.7555" y2="701.7555"/><polygon fill="#607D8B" points="259.7032,691.7555,263.7032,701.7555,267.7032,691.7555,263.7032,695.7555" style="stroke:#607D8B;stroke-width:1;stroke-linejoin:miter;stroke-miterlimit:10;"/><line style="stroke:#607D8B;stroke-width:1.3;" x1="119.7546" x2="109.7546" y1="786.4437" y2="786.4437"/><line style="stroke:#607D8B;stroke-width:1.3;" x1="109.7546" x2="109.7546" y1="786.4437" y2="808.4437"/><polygon fill="#607D8B" points="105.7546,798.4437,109.7546,808.4437,113.7546,798.4437,109.7546,802.4437" style="stroke:#607D8B;stroke-width:1;stroke-linejoin:miter;stroke-miterlimit:10;"/><line style="stroke:#607D8B;stroke-width:1.3;" x1="407.6519" x2="417.6519" y1="786.4437" y2="786.4437"/><line style="stroke:#607D8B;stroke-width:1.3;" x1="417.6519" x2="417.6519" y1="786.4437" y2="808.4437"/><polygon fill="#607D8B" points="413.6519,798.4437,417.6519,808.4437,421.6519,798.4437,417.6519,802.4437" style="stroke:#607D8B;stroke-width:1;stroke-linejoin:miter;stroke-miterlimit:10;"/><line style="stroke:#607D8B;stroke-width:1.3;" x1="109.7546" x2="109.7546" y1="861.132" y2="879.132"/><line style="stroke:#607D8B;stroke-width:1.3;" x1="109.7546" x2="251.7032" y1="879.132" y2="879.132"/><polygon fill="#607D8B" points="241.7032,875.132,251.7032,879.132,241.7032,883.132,245.7032,879.132" style="stroke:#607D8B;stroke-width:1;stroke-linejoin:miter;stroke-miterlimit:10;"/><line style="stroke:#607D8B;stroke-width:1.3;" x1="417.6519" x2="417.6519" y1="861.132" y2="879.132"/><line style="stroke:#607D8B;stroke-width:1.3;" x1="417.6519" x2="275.7032" y1="879.132" y2="879.132"/><polygon fill="#607D8B" points="285.7032,875.132,275.7032,879.132,285.7032,883.132,281.7032,879.132" style="stroke:#607D8B;stroke-width:1;stroke-linejoin:miter;stroke-miterlimit:10;"/><line style="stroke:#607D8B;stroke-width:1.3;" x1="263.7032" x2="263.7032" y1="754.4437" y2="774.4437"/><polygon fill="#607D8B" points="259.7032,764.4437,263.7032,774.4437,267.7032,764.4437,263.7032,768.4437" style="stroke:#607D8B;stroke-width:1;stroke-linejoin:miter;stroke-miterlimit:10;"/><line style="stroke:#607D8B;stroke-width:1.3;" x1="263.7032" x2="263.7032" y1="587.2322" y2="612.7232"/><polygon fill="#607D8B" points="259.7032,602.7232,263.7032,612.7232,267.7032,602.7232,263.7032,606.7232" style="stroke:#607D8B;stroke-width:1;stroke-linejoin:miter;stroke-miterlimit:10;"/><line style="stroke:#607D8B;stroke-width:1.3;" x1="322.1284" x2="507.0523" y1="575.2322" y2="575.2322"/><polygon fill="#607D8B" points="503.0523,741.9276,507.0523,751.9276,511.0523,741.9276,507.0523,745.9276" style="stroke:#607D8B;stroke-width:1.3;stroke-linejoin:miter;stroke-miterlimit:10;"/><line style="stroke:#607D8B;stroke-width:1.3;" x1="507.0523" x2="507.0523" y1="575.2322" y2="923.132"/><line style="stroke:#607D8B;stroke-width:1.3;" x1="507.0523" x2="275.7032" y1="923.132" y2="923.132"/><polygon fill="#607D8B" points="285.7032,919.132,275.7032,923.132,285.7032,927.132,281.7032,923.132" style="stroke:#607D8B;stroke-width:1;stroke-linejoin:miter;stroke-miterlimit:10;"/><line style="stroke:#607D8B;stroke-width:1.3;" x1="263.7032" x2="263.7032" y1="891.132" y2="911.132"/><polygon fill="#607D8B" points="259.7032,901.132,263.7032,911.132,267.7032,901.132,263.7032,905.132" style="stroke:#607D8B;stroke-width:1;stroke-linejoin:miter;stroke-miterlimit:10;"/><line style="stroke:#607D8B;stroke-width:1.3;" x1="263.7032" x2="263.7032" y1="537.7413" y2="563.2322"/><polygon fill="#607D8B" points="259.7032,553.2322,263.7032,563.2322,267.7032,553.2322,263.7032,557.2322" style="stroke:#607D8B;stroke-width:1;stroke-linejoin:miter;stroke-miterlimit:10;"/><line style="stroke:#607D8B;stroke-width:1.3;" x1="310.7435" x2="529.0523" y1="525.7413" y2="525.7413"/><polygon fill="#607D8B" points="525.0523,741.9276,529.0523,751.9276,533.0523,741.9276,529.0523,745.9276" style="stroke:#607D8B;stroke-width:1.3;stroke-linejoin:miter;stroke-miterlimit:10;"/><line style="stroke:#607D8B;stroke-width:1.3;" x1="529.0523" x2="529.0523" y1="525.7413" y2="967.132"/><line style="stroke:#607D8B;stroke-width:1.3;" x1="529.0523" x2="275.7032" y1="967.132" y2="967.132"/><polygon fill="#607D8B" points="285.7032,963.132,275.7032,967.132,285.7032,971.132,281.7032,967.132" style="stroke:#607D8B;stroke-width:1;stroke-linejoin:miter;stroke-miterlimit:10;"/><line style="stroke:#607D8B;stroke-width:1.3;" x1="263.7032" x2="263.7032" y1="935.132" y2="955.132"/><polygon fill="#607D8B" points="259.7032,945.132,263.7032,955.132,267.7032,945.132,263.7032,949.132" style="stroke:#607D8B;stroke-width:1;stroke-linejoin:miter;stroke-miterlimit:10;"/><line style="stroke:#607D8B;stroke-width:1.3;" x1="263.7032" x2="263.7032" y1="493.7413" y2="513.7413"/><polygon fill="#607D8B" points="259.7032,503.7413,263.7032,513.7413,267.7032,503.7413,263.7032,507.7413" style="stroke:#607D8B;stroke-width:1;stroke-linejoin:miter;stroke-miterlimit:10;"/><line style="stroke:#607D8B;stroke-width:1.3;" x1="263.7032" x2="263.7032" y1="979.132" y2="999.132"/><polygon fill="#607D8B" points="259.7032,989.132,263.7032,999.132,267.7032,989.132,263.7032,993.132" style="stroke:#607D8B;stroke-width:1;stroke-linejoin:miter;stroke-miterlimit:10;"/><line style="stroke:#607D8B;stroke-width:1.3;" x1="263.7032" x2="263.7032" y1="1035.4761" y2="1055.4761"/><polygon fill="#607D8B" points="259.7032,1045.4761,263.7032,1055.4761,267.7032,1045.4761,263.7032,1049.4761" style="stroke:#607D8B;stroke-width:1;stroke-linejoin:miter;stroke-miterlimit:10;"/><?plantuml-src TLNDRXit4BxlKmpGGoJKaImviXD9KI5BSX30HepOJNiG852xerr25BaWkPRL8a1EGNCjUi-blq_GUnz5Jz8XgHNMYkE38Svy_EQRuSpi4xXa5kzlDjAo-qksGTrWUIusaFCS1PVOXGdJ0ZUGQhPQCGqBBYngs7xy5OpLHMmBpGJSCS4JPhcIqHEepJMBqK0JKDvnhUGAfNN75RCP9CIxuiHXwfv5OywuXXGbQizm16jEE2P1vUxC176omggdEoZHopW3cp4BJYsdMAP8KpGERc2TAOCGAxdW2SeOOVlf3q9hD9aIIOFOHafhZ1qQBATiNW9RpL7tI5pCZITvIHbJsWbdAoKJqtD793Zg5IT9v5U5pGiRw2XK2Wl1KbAIgRK4fh5QsXB1KIIc0TTCeBLKt4J5faanN7LDy-raEBwQD5QaqIovp1bPOSxYPQfL8PEH4ah3DnV-hu8m6KlKcalYPy9WnPFWWXN2tkAz7GgU-eU0cFwXhg26MglrZlpq-6py_FpGUPlnU2dH66WrJYfEHZMyutO3FqS0vuy8xRmOEu_I2UhI-cBulDqXwuMITcTh7RUFssTa6uToVq4r6KqkBbeLG9NnMQSpF7r6pXlBz9woSzeP7PDniYTfJyx69-teVIK1gIm-BduVyR5GxwF8SYiG-lF19Rl57yi1m6fBbpFKRyu7Kzat_2Vijbg3FXzyPUZK7VKY0wkMr6c2MSjZkim7_QQxEuWYunACkgybDLu90DTdxiVsyzy_7C7vzlC_lIZY2wZbkf0uAsGONO8myLsT1e78QniqTKgkImbSC_UkiFtm6xnwCEH1TvZ_QwODYVCAlVeTj3ULIyGSb2JzcD0Cqa_A8NVuNeJKZr2JoiVoG2P4m95J9dmHf9RbcvKx1R-gjEsLtZosUu9WB-zTC2hT1R-DtEw9CpSZ__qxbPMz17DCkMoI5l8SRgWU1VOjedcQMJfGEv77mBjzpDV65EWq56WyeFQzzB4mUPEZF7V1Zxo3Ed4VzOeR3zfvzbUkAFwu37z4cVvPRn34gNCwAlMi58yx2GOMhdiFo-RykzMAiz2NvX1JAUw9B-xRmvKS2ZjIgrmPKXRyz0H4ccwwqv2bgrybHNTqwVH21AEqVR2bvvlAYfxAck-ExQVVwGtkIwMp7FNCfrSFD2uTzodO0M3xor-7YxxYdksN_fSfawGmT1azxTCAnoxqL79fbRjL3bfGKEtea9Xb9WFk1jROKdYjFfKBMXZkEesTe6zBkErVxI5Bi9KM_m2-fVTlt7tZlpJxWV-sN32LSlPeDwWy-Xy0?></g></svg>