<svg xmlns="http://www.w3.org/2000/svg" xmlns:xlink="http://www.w3.org/1999/xlink" contentStyleType="text/css" data-diagram-type="ACTIVITY" height="767px" preserveAspectRatio="none" style="width:1758px;height:767px;background:#FFFFFF;" version="1.1" viewBox="0 0 1758 767" width="1758px" zoomAndPan="magnify"><?plantuml $version$?><defs/><g><g class="title" data-source-line="25"><text fill="#000000" font-family="sans-serif" font-size="14" font-weight="700" lengthAdjust="spacing" textLength="173.2914" x="791.8501" y="34.9659">Correction-layer pipeline</text><text fill="#000000" font-family="sans-serif" font-size="11" font-style="italic" font-weight="700" lengthAdjust="spacing" textLength="521.7923" x="617.5996" y="50.8268">LayerPipeline.apply: each CorrectionLayer maps Lattice&#10216;W,B&#10217; &#8594; Lattice&#10216;W,B&#10217;, composed left to right</text></g><rect fill="none" height="24.5158" style="stroke:none;stroke-width:1;" width="1711.9915" x="20" y="73.8238"/><rect fill="#ECEFF1" height="672.4334" style="stroke:#ECEFF1;stroke-width:1;" width="382.8914" x="20" y="73.8238"/><ellipse cx="113.8462" cy="113.3396" fill="#1565C0" rx="10" ry="10" style="stroke:#222222;stroke-width:1;"/><path d="M216.8743,133.3396 L216.8743,160.8986 L196.8743,164.8986 L216.8743,168.8986 L216.8743,196.4577 A0,0 0 0 0 216.8743,196.4577 L397.8914,196.4577 A0,0 0 0 0 397.8914,196.4577 L397.8914,143.3396 L387.8914,133.3396 L216.8743,133.3396 A0,0 0 0 0 216.8743,133.3396" fill="#ECEFF1" style="stroke:#455A64;stroke-width:0.5;"/><path d="M387.8914,133.3396 L387.8914,143.3396 L397.8914,143.3396 L387.8914,133.3396" fill="#ECEFF1" style="stroke:#455A64;stroke-width:0.5;"/><text fill="#000000" font-family="sans-serif" font-size="13" lengthAdjust="spacing" textLength="153.2441" x="226.2608" y="152.2366">A weighted DAG of token</text><text fill="#000000" font-family="sans-serif" font-size="13" lengthAdjust="spacing" textLength="160.0172" x="222.8743" y="169.9426">alternatives (the WFSA the</text><text fill="#000000" font-family="sans-serif" font-size="13" lengthAdjust="spacing" textLength="152.1391" x="226.8133" y="187.6487">earlier stages produced).</text><rect fill="#FFF59D" height="36.3441" rx="12.5" ry="12.5" style="stroke:#F9A825;stroke-width:0.5;" width="166.0562" x="30.818" y="146.7266"/><text fill="#102027" font-family="sans-serif" font-size="12" lengthAdjust="spacing" textLength="146.0562" x="40.818" y="169.5547">Input lattice  Lattice&#10216;W, B&#10217;</text><rect fill="#FFF59D" height="52.6882" rx="12.5" ry="12.5" style="stroke:#F9A825;stroke-width:0.5;" width="175.6923" x="26" y="651.5689"/><text fill="#102027" font-family="sans-serif" font-size="12" lengthAdjust="spacing" textLength="155.6923" x="36" y="674.397">Output lattice  Lattice&#10216;W, B&#10217;</text><text fill="#102027" font-family="sans-serif" font-size="12" lengthAdjust="spacing" textLength="127.0449" x="50.3237" y="690.7411">(filtered &amp; reweighted)</text><ellipse cx="113.8462" cy="735.2572" fill="none" rx="11" ry="11" style="stroke:#222222;stroke-width:1;"/><ellipse cx="113.8462" cy="735.2572" fill="#222222" rx="6" ry="6" style="stroke:#222222;stroke-width:1;"/><line style="stroke:#000000;stroke-width:1.5;" x1="20" x2="20" y1="73.8238" y2="746.2572"/><rect fill="#FFF59D" height="672.4334" style="stroke:#FFF59D;stroke-width:1;" width="242.6655" x="402.8914" y="73.8238"/><rect fill="#FFF59D" height="85.3765" rx="12.5" ry="12.5" style="stroke:#F9A825;stroke-width:0.5;" width="232.6655" x="408.8914" y="216.4577"/><text fill="#102027" font-family="sans-serif" font-size="12" font-weight="700" lengthAdjust="spacing" textLength="108.3248" x="418.8914" y="239.2858">EditDistanceLayer</text><text fill="#102027" font-family="sans-serif" font-size="12" lengthAdjust="spacing" textLength="4.464" x="530.3362" y="239.2858">/</text><text fill="#102027" font-family="sans-serif" font-size="12" font-weight="700" lengthAdjust="spacing" textLength="93.6366" x="537.9203" y="239.2858">ConfusionLayer</text><text fill="#102027" font-family="sans-serif" font-size="12" lengthAdjust="spacing" textLength="174.5772" x="437.9356" y="255.6299">Lexical pruning &amp; expansion &#8212;</text><text fill="#102027" font-family="sans-serif" font-size="12" lengthAdjust="spacing" textLength="205.5134" x="422.4675" y="271.974">Levenshtein distance to a dictionary,</text><text fill="#102027" font-family="sans-serif" font-size="12" lengthAdjust="spacing" textLength="172.4892" x="438.9796" y="288.3181">confusion-matrix substitutions</text><line style="stroke:#000000;stroke-width:1.5;" x1="402.8914" x2="402.8914" y1="73.8238" y2="746.2572"/><rect fill="#FFF59D" height="672.4334" style="stroke:#FFF59D;stroke-width:1;" width="260.5336" x="645.5569" y="73.8238"/><rect fill="#FFF59D" height="69.0323" rx="12.5" ry="12.5" style="stroke:#F9A825;stroke-width:0.5;" width="250.5336" x="651.5569" y="321.8341"/><text fill="#102027" font-family="sans-serif" font-size="12" font-weight="700" lengthAdjust="spacing" textLength="84.6966" x="734.4754" y="344.6622">CfgFilterLayer</text><text fill="#102027" font-family="sans-serif" font-size="12" lengthAdjust="spacing" textLength="171.7572" x="690.9451" y="361.0063">Keep only paths a context-free</text><text fill="#102027" font-family="sans-serif" font-size="12" lengthAdjust="spacing" textLength="230.5336" x="661.5569" y="377.3504">grammar accepts (Earley over the lattice)</text><line style="stroke:#000000;stroke-width:1.5;" x1="645.5569" x2="645.5569" y1="73.8238" y2="746.2572"/><rect fill="#FFF59D" height="672.4334" style="stroke:#FFF59D;stroke-width:1;" width="213.5413" x="906.0906" y="73.8238"/><rect fill="#FFF59D" height="69.0323" rx="12.5" ry="12.5" style="stroke:#F9A825;stroke-width:0.5;" width="203.5413" x="912.0906" y="410.8665"/><text fill="#102027" font-family="sans-serif" font-size="12" font-weight="700" lengthAdjust="spacing" textLength="129.4329" x="949.1447" y="433.6946">LanguageModelLayer</text><text fill="#102027" font-family="sans-serif" font-size="12" lengthAdjust="spacing" textLength="178.1293" x="924.7966" y="450.0387">Reweight surviving edges by an</text><text fill="#102027" font-family="sans-serif" font-size="12" lengthAdjust="spacing" textLength="183.5413" x="922.0906" y="466.3828">n-gram / neural language model</text><line style="stroke:#000000;stroke-width:1.5;" x1="906.0906" x2="906.0906" y1="73.8238" y2="746.2572"/><rect fill="#FFF59D" height="672.4334" style="stroke:#FFF59D;stroke-width:1;" width="611.0197" x="1119.6318" y="73.8238"/><polygon fill="#ECEFF1" points="1172.0769,499.8988,1277.8081,499.8988,1289.8081,511.8988,1277.8081,523.8988,1172.0769,523.8988,1160.0769,511.8988,1172.0769,499.8988" style="stroke:#455A64;stroke-width:0.5;stroke-linejoin:miter;stroke-miterlimit:10;"/><text fill="#000000" font-family="sans-serif" font-size="11" lengthAdjust="spacing" textLength="32.1418" x="1228.9425" y="535.6577">[code]</text><text fill="#102027" font-family="sans-serif" font-size="11" lengthAdjust="spacing" textLength="105.7312" x="1172.0769" y="516.1668">which domain layer?</text><rect fill="#FFF59D" height="52.6882" rx="12.5" ry="12.5" style="stroke:#F9A825;stroke-width:0.5;" width="198.6213" x="1125.6318" y="558.8807"/><text fill="#102027" font-family="sans-serif" font-size="12" font-weight="700" lengthAdjust="spacing" textLength="126.6129" x="1161.636" y="581.7088">CodeCorrectionLayer</text><text fill="#102027" font-family="sans-serif" font-size="12" lengthAdjust="spacing" textLength="178.6213" x="1135.6318" y="598.0529">syntax recovery + pattern boost</text><polygon fill="#ECEFF1" points="1418.7944,499.8988,1456.7331,499.8988,1468.7331,511.8988,1456.7331,523.8988,1418.7944,523.8988,1406.7944,511.8988,1418.7944,499.8988" style="stroke:#455A64;stroke-width:0.5;stroke-linejoin:miter;stroke-miterlimit:10;"/><text fill="#102027" font-family="sans-serif" font-size="11" lengthAdjust="spacing" textLength="37.9387" x="1418.7944" y="516.1668">[LaTeX]</text><text fill="#000000" font-family="sans-serif" font-size="11" lengthAdjust="spacing" textLength="49.8956" x="1468.7331" y="508.6758">[MathML]</text><rect fill="#FFF59D" height="52.6882" rx="12.5" ry="12.5" style="stroke:#F9A825;stroke-width:0.5;" width="207.0213" x="1334.2531" y="543.8988"/><text fill="#102027" font-family="sans-serif" font-size="12" font-weight="700" lengthAdjust="spacing" textLength="107.0768" x="1384.2254" y="566.7269">LatexSyntaxLayer</text><text fill="#102027" font-family="sans-serif" font-size="12" lengthAdjust="spacing" textLength="187.0213" x="1344.2531" y="583.071">grammar filter + validate + repair</text><rect fill="#FFF59D" height="52.6882" rx="12.5" ry="12.5" style="stroke:#F9A825;stroke-width:0.5;" width="175.3771" x="1551.2744" y="554.3898"/><text fill="#102027" font-family="sans-serif" font-size="12" font-weight="700" lengthAdjust="spacing" textLength="138.265" x="1569.8305" y="577.2178">MathMLSemanticLayer</text><text fill="#102027" font-family="sans-serif" font-size="12" lengthAdjust="spacing" textLength="155.3771" x="1561.2744" y="593.562">homoglyph + type checking</text><line style="stroke:#000000;stroke-width:1.5;" x1="1119.6318" x2="1119.6318" y1="73.8238" y2="746.2572"/><line style="stroke:#000000;stroke-width:1.5;" x1="1730.6515" x2="1730.6515" y1="73.8238" y2="746.2572"/><line style="stroke:#607D8B;stroke-width:1.3;" x1="113.8462" x2="113.8462" y1="123.3396" y2="146.7266"/><polygon fill="#607D8B" points="109.8462,136.7266,113.8462,146.7266,117.8462,136.7266,113.8462,140.7266" style="stroke:#607D8B;stroke-width:1;stroke-linejoin:miter;stroke-miterlimit:10;"/><line style="stroke:#607D8B;stroke-width:1.3;" x1="113.8462" x2="113.8462" y1="704.2572" y2="724.2572"/><polygon fill="#607D8B" points="109.8462,714.2572,113.8462,724.2572,117.8462,714.2572,113.8462,718.2572" style="stroke:#607D8B;stroke-width:1;stroke-linejoin:miter;stroke-miterlimit:10;"/><line style="stroke:#607D8B;stroke-width:1.3;" x1="1224.9425" x2="1224.9425" y1="523.8988" y2="558.8807"/><polygon fill="#607D8B" points="1220.9425,548.8807,1224.9425,558.8807,1228.9425,548.8807,1224.9425,552.8807" style="stroke:#607D8B;stroke-width:1;stroke-linejoin:miter;stroke-miterlimit:10;"/><line style="stroke:#607D8B;stroke-width:1.3;" x1="1224.9425" x2="1224.9425" y1="611.5689" y2="631.5689"/><polygon fill="#607D8B" points="1220.9425,621.5689,1224.9425,631.5689,1228.9425,621.5689,1224.9425,625.5689" style="stroke:#607D8B;stroke-width:1;stroke-linejoin:miter;stroke-miterlimit:10;"/><line style="stroke:#607D8B;stroke-width:1.3;" x1="1437.7638" x2="1437.7638" y1="523.8988" y2="543.8988"/><polygon fill="#607D8B" points="1433.7638,533.8988,1437.7638,543.8988,1441.7638,533.8988,1437.7638,537.8988" style="stroke:#607D8B;stroke-width:1;stroke-linejoin:miter;stroke-miterlimit:10;"/><line style="stroke:#607D8B;stroke-width:1.3;" x1="1437.7638" x2="1437.7638" y1="596.587" y2="631.5689"/><polygon fill="#607D8B" points="1433.7638,621.5689,1437.7638,631.5689,1441.7638,621.5689,1437.7638,625.5689" style="stroke:#607D8B;stroke-width:1;stroke-linejoin:miter;stroke-miterlimit:10;"/><line style="stroke:#607D8B;stroke-width:1.3;" x1="1289.8081" x2="1406.7944" y1="511.8988" y2="511.8988"/><polygon fill="#607D8B" points="1396.7944,507.8988,1406.7944,511.8988,1396.7944,515.8988,1400.7944,511.8988" style="stroke:#607D8B;stroke-width:1;stroke-linejoin:miter;stroke-miterlimit:10;"/><line style="stroke:#607D8B;stroke-width:1.3;" x1="1013.8612" x2="1013.8612" y1="479.8988" y2="484.8988"/><line style="stroke:#607D8B;stroke-width:1.3;" x1="1013.8612" x2="1224.9425" y1="484.8988" y2="484.8988"/><line style="stroke:#607D8B;stroke-width:1.3;" x1="1224.9425" x2="1224.9425" y1="484.8988" y2="499.8988"/><polygon fill="#607D8B" points="1220.9425,489.8988,1224.9425,499.8988,1228.9425,489.8988,1224.9425,493.8988" style="stroke:#607D8B;stroke-width:1;stroke-linejoin:miter;stroke-miterlimit:10;"/><line style="stroke:#607D8B;stroke-width:1.3;" x1="1468.7331" x2="1638.963" y1="511.8988" y2="511.8988"/><line style="stroke:#607D8B;stroke-width:1.3;" x1="1638.963" x2="1638.963" y1="511.8988" y2="554.3898"/><polygon fill="#607D8B" points="1634.963,544.3898,1638.963,554.3898,1642.963,544.3898,1638.963,548.3898" style="stroke:#607D8B;stroke-width:1;stroke-linejoin:miter;stroke-miterlimit:10;"/><line style="stroke:#607D8B;stroke-width:1.3;" x1="1638.963" x2="1638.963" y1="607.078" y2="631.5689"/><polygon fill="#607D8B" points="1634.963,621.5689,1638.963,631.5689,1642.963,621.5689,1638.963,625.5689" style="stroke:#607D8B;stroke-width:1;stroke-linejoin:miter;stroke-miterlimit:10;"/><line style="stroke:#607D8B;stroke-width:1.3;" x1="1224.9425" x2="1638.963" y1="631.5689" y2="631.5689"/><line style="stroke:#607D8B;stroke-width:1.3;" x1="113.8462" x2="113.8462" y1="183.0707" y2="201.4577"/><line style="stroke:#607D8B;stroke-width:1.3;" x1="113.8462" x2="525.2242" y1="201.4577" y2="201.4577"/><line style="stroke:#607D8B;stroke-width:1.3;" x1="525.2242" x2="525.2242" y1="201.4577" y2="216.4577"/><polygon fill="#607D8B" points="521.2242,206.4577,525.2242,216.4577,529.2242,206.4577,525.2242,210.4577" style="stroke:#607D8B;stroke-width:1;stroke-linejoin:miter;stroke-miterlimit:10;"/><line style="stroke:#607D8B;stroke-width:1.3;" x1="525.2242" x2="525.2242" y1="301.8341" y2="306.8341"/><line style="stroke:#607D8B;stroke-width:1.3;" x1="525.2242" x2="776.8237" y1="306.8341" y2="306.8341"/><line style="stroke:#607D8B;stroke-width:1.3;" x1="776.8237" x2="776.8237" y1="306.8341" y2="321.8341"/><polygon fill="#607D8B" points="772.8237,311.8341,776.8237,321.8341,780.8237,311.8341,776.8237,315.8341" style="stroke:#607D8B;stroke-width:1;stroke-linejoin:miter;stroke-miterlimit:10;"/><line style="stroke:#607D8B;stroke-width:1.3;" x1="776.8237" x2="776.8237" y1="390.8665" y2="395.8665"/><line style="stroke:#607D8B;stroke-width:1.3;" x1="776.8237" x2="1013.8612" y1="395.8665" y2="395.8665"/><line style="stroke:#607D8B;stroke-width:1.3;" x1="1013.8612" x2="1013.8612" y1="395.8665" y2="410.8665"/><polygon fill="#607D8B" points="1009.8612,400.8665,1013.8612,410.8665,1017.8612,400.8665,1013.8612,404.8665" style="stroke:#607D8B;stroke-width:1;stroke-linejoin:miter;stroke-miterlimit:10;"/><line style="stroke:#607D8B;stroke-width:1.3;" x1="1426.1417" x2="1426.1417" y1="631.5689" y2="636.5689"/><line style="stroke:#607D8B;stroke-width:1.3;" x1="1426.1417" x2="113.8462" y1="636.5689" y2="636.5689"/><line style="stroke:#607D8B;stroke-width:1.3;" x1="113.8462" x2="113.8462" y1="636.5689" y2="651.5689"/><polygon fill="#607D8B" points="109.8462,641.5689,113.8462,651.5689,117.8462,641.5689,113.8462,645.5689" style="stroke:#607D8B;stroke-width:1;stroke-linejoin:miter;stroke-miterlimit:10;"/><text fill="#000000" font-family="sans-serif" font-size="18" lengthAdjust="spacing" textLength="20.1599" x="201.3658" y="93.0657">IO</text><text fill="#000000" font-family="sans-serif" font-size="18" lengthAdjust="spacing" textLength="134.2251" x="457.1116" y="93.0657">filtering (lexical)</text><text fill="#000000" font-family="sans-serif" font-size="18" lengthAdjust="spacing" textLength="115.7032" x="717.9721" y="93.0657">filtering (CFG)</text><text fill="#000000" font-family="sans-serif" font-size="18" lengthAdjust="spacing" textLength="121.2473" x="952.2376" y="93.0657">rescoring (LM)</text><text fill="#000000" font-family="sans-serif" font-size="18" lengthAdjust="spacing" textLength="142.7391" x="1353.7721" y="93.0657">custom (domain)</text><?plantuml-src VLLDRnit4BtlhnWWW2CXjcGxaPt8gWf57u5HgJPY0oaGvq3jZYJ2N791ScsfTO2U-WEAtdDj_vP_IHztL-xQTUk3TvT3lfbvdFVqafIIUhcdbD1BYesr77jfz9uI6xQKoOmHPqJIp3WPGYqQq3H4pxT1aMLAiYFfNVIIvcRD2GqVe8gz26eoDW7c_Qz_aEArZ8MY-zz-f-7aG_6Spef7d3jlKafCAd14bOTn1iWiuXKgqIvFKJC9bE6zZBdtQVTzduHEoBBFhIw33R_9GXAr8PVYmRRvw40BYFzKsVvnUavUehxlIAHpF1iBgHIzc4mcdNSZQgElelmNatU3juUTvWbfphr54wTdEBEql0c8vqAnzqmxeT0RrW7RTT5ExDg954ihKjV-E1wCPkDMchGYTorr9h1ASn5VBwt9TJ8qojWYC_vgEznA9EOsTBSGod4jal12vCfVyjeFb5pg58afnZ-sjLq3Qyrj1NwqVpnw-_vfy78buslDpj51wtKjAC3HZVGR-YKYUlzCeQ0eH0gAjgi5JrYT6EshjOFzm_t3OwoDf4YDJlu5DHwE9vE3seOwufjEPt3q1i4BB-m3PEUeCzp7ulW1v71yF7fz67sjDQ0DxkJPuXyoFfVgQnHvwHLJRzuV_fSuUkrv_qhtdFoPkmS7_PxiFv97AyXZqosdzuaiA1MPsqxb_RS_CPVtt_ugvV1aSRVI8BIbUE796x9okVAzjkptsY5vFuhkgdRkJi_k8XTOYhgdEiizX5J0qIDS2i0dKK5E0GOQ1dJBuHLvHeCFP1R8TCqQ4Q4mJbfW4g3rXbynVPfS30Wl2BAmAgW7IPS8PzOaUSn9inKnT1aoXEhAIRc3iW0L1hbHEK7pBkg2ut4Y_KW2GyTS41IuXVOA-lKYTrlYIiwdbOraDYz4lqEypeGEku9bX0sGe4Cpi9AamWtC2NmLjo3iPlTAnrlilLHuAzVayhd3nUU5Ua-Uhno-LLKzN2mdnNgjj1-OCp8QvfC9ltB8Y2GU-jnRMEOh7OmW5HRAYZdpu7CC0db3vWOa1cwh2slMirjsiEWY-tHM9P_2k7DmFZC9gre17xcyH_HYRo1U7E8aNCry0wkyqdelb01kOMF1nLI5Gsa0gcUj7BbHMZBIoWKrRk4KgqSk_NqprAsfyJa6mfScXg8W1nzFfhuiq6sq5sjOTXnwtj2hm5IOC3YjSVuaOdXSIFLvAYxvfoybV8MAAURrHO5GWzoIMjuI46-4aWcsujLo9gGjKO4vmwtCfWzLbfyNd0euTbo3N9dKBDKcMm42FoZu9Lnn35jPdeJ1beidckkUvVx_vNQb6sLv4DWEgjgg3HSDchFeRm00?></g></svg>