<svg xmlns="http://www.w3.org/2000/svg" xmlns:xlink="http://www.w3.org/1999/xlink" contentStyleType="text/css" data-diagram-type="STATE" height="672px" preserveAspectRatio="none" style="width:1419px;height:672px;background:#FFFFFF;" version="1.1" viewBox="0 0 1419 672" width="1419px" zoomAndPan="magnify"><?plantuml $version$?><defs/><g><g class="title" data-source-line="20"><text fill="#000000" font-family="sans-serif" font-size="14" font-weight="700" lengthAdjust="spacing" textLength="216.2432" x="394.1352" y="24.9659">Syntax-recovery state machine</text><text fill="#000000" font-family="sans-serif" font-size="14" font-weight="700" lengthAdjust="spacing" textLength="401.0845" x="617.6583" y="24.9659">&#8212;  green marks acceptance (a parseable token sequence)</text></g><g class="entity" data-qualified-name="Scanning" data-source-line="24" id="ent0001"><rect fill="#FFF59D" height="77.2038" rx="12.5" ry="12.5" style="stroke:#F9A825;stroke-width:0.5;" width="157.1575" x="618.52" y="145.0679"/><line style="stroke:#F9A825;stroke-width:0.5;" x1="618.52" x2="775.6775" y1="174.1358" y2="174.1358"/><text fill="#102027" font-family="sans-serif" font-size="14" lengthAdjust="spacing" textLength="60.4378" x="666.8799" y="165.0339">Scanning</text><text fill="#102027" font-family="sans-serif" font-size="14" lengthAdjust="spacing" textLength="107.7296" x="643.234" y="194.1018">read next token;</text><text fill="#102027" font-family="sans-serif" font-size="14" lengthAdjust="spacing" textLength="137.1575" x="628.52" y="213.1697">update bracket stack</text></g><g class="entity" data-qualified-name="Ins" data-source-line="25" id="ent0002"><rect fill="#FFF59D" height="77.2038" rx="12.5" ry="12.5" style="stroke:#F9A825;stroke-width:0.5;" width="160.1535" x="90.02" y="328.8079"/><line style="stroke:#F9A825;stroke-width:0.5;" x1="90.02" x2="250.1735" y1="357.8758" y2="357.8758"/><text fill="#102027" font-family="sans-serif" font-size="14" lengthAdjust="spacing" textLength="59.5698" x="140.3118" y="348.7739">Insertion</text><text fill="#102027" font-family="sans-serif" font-size="14" lengthAdjust="spacing" textLength="140.1535" x="100.02" y="377.8418">emit insertable token</text><text fill="#102027" font-family="sans-serif" font-size="14" lengthAdjust="spacing" textLength="108.0096" x="116.0919" y="396.9097">(+insertion_cost)</text></g><g class="entity" data-qualified-name="Del" data-source-line="26" id="ent0003"><rect fill="#FFF59D" height="77.2038" rx="12.5" ry="12.5" style="stroke:#F9A825;stroke-width:0.5;" width="156.6815" x="351.76" y="328.8079"/><line style="stroke:#F9A825;stroke-width:0.5;" x1="351.76" x2="508.4415" y1="357.8758" y2="357.8758"/><text fill="#102027" font-family="sans-serif" font-size="14" lengthAdjust="spacing" textLength="55.4118" x="402.3948" y="348.7739">Deletion</text><text fill="#102027" font-family="sans-serif" font-size="14" lengthAdjust="spacing" textLength="136.6815" x="361.76" y="377.8418">skip token via &#949; edge</text><text fill="#102027" font-family="sans-serif" font-size="14" lengthAdjust="spacing" textLength="103.3756" x="378.4129" y="396.9097">(+deletion_cost)</text></g><g class="entity" data-qualified-name="Rep" data-source-line="27" id="ent0004"><rect fill="#FFF59D" height="96.2717" rx="12.5" ry="12.5" style="stroke:#F9A825;stroke-width:0.5;" width="160.4335" x="748.88" y="319.2679"/><line style="stroke:#F9A825;stroke-width:0.5;" x1="748.88" x2="909.3135" y1="348.3358" y2="348.3358"/><text fill="#102027" font-family="sans-serif" font-size="14" lengthAdjust="spacing" textLength="85.9877" x="786.1029" y="339.2339">Replacement</text><text fill="#102027" font-family="sans-serif" font-size="14" lengthAdjust="spacing" textLength="109.5636" x="774.3149" y="368.3018">swap token for a</text><text fill="#102027" font-family="sans-serif" font-size="14" lengthAdjust="spacing" textLength="140.4335" x="758.88" y="387.3697">bracket-matched one</text><text fill="#102027" font-family="sans-serif" font-size="14" lengthAdjust="spacing" textLength="132.6355" x="762.779" y="406.4376">(+replacement_cost)</text></g><g class="entity" data-qualified-name="Bal" data-source-line="28" id="ent0005"><rect fill="#FFF59D" height="96.2717" rx="12.5" ry="12.5" style="stroke:#F9A825;stroke-width:0.5;" width="172.2354" x="1011.98" y="319.2679"/><line style="stroke:#F9A825;stroke-width:0.5;" x1="1011.98" x2="1184.2154" y1="348.3358" y2="348.3358"/><text fill="#102027" font-family="sans-serif" font-size="14" lengthAdjust="spacing" textLength="64.6657" x="1065.7648" y="339.2339">Balancing</text><text fill="#102027" font-family="sans-serif" font-size="14" lengthAdjust="spacing" textLength="152.2354" x="1021.98" y="368.3018">pop unmatched opens,</text><text fill="#102027" font-family="sans-serif" font-size="14" lengthAdjust="spacing" textLength="134.3995" x="1030.898" y="387.3697">append their closers</text><text fill="#102027" font-family="sans-serif" font-size="14" lengthAdjust="spacing" textLength="142.7714" x="1026.712" y="406.4376">(+insertion_cost each)</text></g><g class="entity" data-qualified-name="Done" data-source-line="29" id="ent0006"><rect fill="#C8E6C9" height="58.1358" rx="12.5" ry="12.5" style="stroke:#F9A825;stroke-width:0.5;" width="151.4875" x="1241.35" y="505.8879"/><line style="stroke:#F9A825;stroke-width:0.5;" x1="1241.35" x2="1392.8375" y1="534.9558" y2="534.9558"/><text fill="#102027" font-family="sans-serif" font-size="14" lengthAdjust="spacing" textLength="69.0897" x="1282.5489" y="525.8539">Recovered</text><text fill="#102027" font-family="sans-serif" font-size="14" lengthAdjust="spacing" textLength="131.4875" x="1251.35" y="554.9218">parseable sequence</text></g><g class="start_entity" data-qualified-name=".start." data-source-line="22" id="ent0007"><ellipse cx="697.1" cy="56.0679" fill="#222222" rx="10" ry="10" style="stroke:#222222;stroke-width:1;"/></g><g class="end_entity" data-qualified-name=".end." data-source-line="43" id="ent0019"><ellipse cx="1317.1" cy="647.3679" fill="none" rx="11" ry="11" style="stroke:#222222;stroke-width:1;"/><ellipse cx="1317.1" cy="647.3679" fill="#222222" rx="6" ry="6" style="stroke:#222222;stroke-width:1;"/></g><g class="entity" data-qualified-name="GMN21" data-source-line="46" id="ent0022"><path d="M939.39,494.5479 L939.39,575.372 A0,0 0 0 0 939.39,575.372 L1206.8052,575.372 A0,0 0 0 0 1206.8052,575.372 L1206.8052,504.5479 L1196.8052,494.5479 L1083.12,494.5479 L1090.93,415.8479 L1075.12,494.5479 L939.39,494.5479 A0,0 0 0 0 939.39,494.5479" fill="#FEFFDD" style="stroke:#181818;stroke-width:0.5;"/><path d="M1196.8052,494.5479 L1196.8052,504.5479 L1206.8052,504.5479 L1196.8052,494.5479" fill="#FEFFDD" style="stroke:#181818;stroke-width:0.5;"/><text fill="#000000" font-family="sans-serif" font-size="13" lengthAdjust="spacing" textLength="204.9192" x="966.138" y="513.4449">Lower total cost = preferred path:</text><text fill="#000000" font-family="sans-serif" font-size="13" lengthAdjust="spacing" textLength="234.8972" x="951.149" y="531.1509">cost = original_cost + &#931; recovery_costs.</text><text fill="#000000" font-family="sans-serif" font-size="13" lengthAdjust="spacing" textLength="219.1022" x="959.0465" y="548.857">Each repair is a parallel lattice edge,</text><text fill="#000000" font-family="sans-serif" font-size="13" lengthAdjust="spacing" textLength="246.4152" x="945.39" y="566.563">so all candidates coexist for later stages.</text></g><!--link *start* to Scanning--><g class="link" data-entity-1="ent0007" data-entity-2="ent0001" data-link-type="dependency" data-source-line="22" id="lnk8"><path d="M697.1,66.5079 C697.1,82.8779 697.1,112.3979 697.1,139.5779" fill="none" id="*start*-to-Scanning" style="stroke:#607D8B;stroke-width:1.3;"/><polygon fill="#607D8B" points="697.1,144.5779,701.1,135.5779,697.1,139.5779,693.1,135.5779,697.1,144.5779" style="stroke:#607D8B;stroke-width:1.3;stroke-linejoin:miter;stroke-miterlimit:10;"/><text fill="#000000" font-family="sans-serif" font-size="13" lengthAdjust="spacing" textLength="103.2213" x="698.1" y="110.9649">begin / stack = &#8709;</text></g><!--link Scanning to Ins--><g class="link" data-entity-1="ent0001" data-entity-2="ent0002" data-link-type="dependency" data-source-line="31" id="lnk9"><path d="M618.24,186.8979 C450.95,192.4479 72.63,209.6079 34.1,252.2679 C6,283.3779 41.6532,311.4414 85.4532,332.9814" fill="none" id="Scanning-to-Ins" style="stroke:#607D8B;stroke-width:1.3;"/><polygon fill="#607D8B" points="89.94,335.1879,83.629,327.6268,85.4532,332.9814,80.0986,334.8056,89.94,335.1879" style="stroke:#607D8B;stroke-width:1.3;stroke-linejoin:miter;stroke-miterlimit:10;"/><text fill="#000000" font-family="sans-serif" font-size="13" lengthAdjust="spacing" textLength="138.1913" x="45.4145" y="267.1649">[Insertion &#8712; strategies</text><text fill="#000000" font-family="sans-serif" font-size="13" lengthAdjust="spacing" textLength="158.8203" x="35.1" y="284.8709">&#8743; count &lt; max_insertions]</text></g><!--link Ins to Scanning--><g class="link" data-entity-1="ent0002" data-entity-2="ent0001" data-link-type="dependency" data-source-line="34" id="lnk12"><path d="M189.35,328.3079 C204.44,302.5479 227.93,270.0879 258.1,252.2679 C317.61,217.1279 504.0243,198.4352 613.4443,190.1552" fill="none" id="Ins-to-Scanning" style="stroke:#607D8B;stroke-width:1.3;"/><polygon fill="#607D8B" points="618.43,189.7779,609.1538,186.4684,613.4443,190.1552,609.7575,194.4456,618.43,189.7779" style="stroke:#607D8B;stroke-width:1.3;stroke-linejoin:miter;stroke-miterlimit:10;"/><text fill="#000000" font-family="sans-serif" font-size="13" lengthAdjust="spacing" textLength="85.8001" x="259.1" y="276.1649">token emitted</text></g><!--link Scanning to Del--><g class="link" data-entity-1="ent0001" data-entity-2="ent0003" data-link-type="dependency" data-source-line="32" id="lnk10"><path d="M618.09,189.3079 C529.18,196.3679 392.95,213.3679 361.1,252.2679 C341.81,275.8279 357.0292,301.7378 379.8092,324.8378" fill="none" id="Scanning-to-Del" style="stroke:#607D8B;stroke-width:1.3;"/><polygon fill="#607D8B" points="383.32,328.3979,379.8487,319.1811,379.8092,324.8378,374.1525,324.7984,383.32,328.3979" style="stroke:#607D8B;stroke-width:1.3;stroke-linejoin:miter;stroke-miterlimit:10;"/><text fill="#000000" font-family="sans-serif" font-size="13" lengthAdjust="spacing" textLength="134.3303" x="408.6711" y="267.1649">[Deletion &#8712; strategies</text><text fill="#000000" font-family="sans-serif" font-size="13" lengthAdjust="spacing" textLength="227.4725" x="362.1" y="284.8709">&#8743; deletable &#8743; count &lt; max_deletions]</text></g><!--link Del to Scanning--><g class="link" data-entity-1="ent0003" data-entity-2="ent0001" data-link-type="dependency" data-source-line="35" id="lnk13"><path d="M508.72,336.2079 C536.86,323.6779 568.04,307.7379 594.1,289.2679 C620.92,270.2679 643.548,247.5948 662.688,226.0648" fill="none" id="Del-to-Scanning" style="stroke:#607D8B;stroke-width:1.3;"/><polygon fill="#607D8B" points="666.01,222.3279,657.0409,226.3966,662.688,226.0648,663.0198,231.7119,666.01,222.3279" style="stroke:#607D8B;stroke-width:1.3;stroke-linejoin:miter;stroke-miterlimit:10;"/><text fill="#000000" font-family="sans-serif" font-size="13" lengthAdjust="spacing" textLength="86.0861" x="637.98" y="276.1649">token skipped</text></g><!--link Scanning to Rep--><g class="link" data-entity-1="ent0001" data-entity-2="ent0004" data-link-type="dependency" data-source-line="33" id="lnk11"><path d="M716.68,222.6979 C727.82,243.1079 742.61,268.2979 758.1,289.2679 C765.45,299.2279 770.5709,305.6074 779.0309,315.0874" fill="none" id="Scanning-to-Rep" style="stroke:#607D8B;stroke-width:1.3;"/><polygon fill="#607D8B" points="782.36,318.8179,779.352,309.4397,779.0309,315.0874,773.3831,314.7663,782.36,318.8179" style="stroke:#607D8B;stroke-width:1.3;stroke-linejoin:miter;stroke-miterlimit:10;"/><text fill="#000000" font-family="sans-serif" font-size="13" lengthAdjust="spacing" textLength="162.7224" x="759.1" y="267.1649">[Replacement &#8712; strategies</text><text fill="#000000" font-family="sans-serif" font-size="13" lengthAdjust="spacing" textLength="135.9272" x="772.4976" y="284.8709">&#8743; wrong bracket type]</text></g><!--link Rep to Scanning--><g class="link" data-entity-1="ent0004" data-entity-2="ent0001" data-link-type="dependency" data-source-line="36" id="lnk14"><path d="M905.42,318.9079 C928.14,298.8179 942.99,274.8679 926.1,252.2679 C907.82,227.8279 839.7173,210.0962 780.9773,198.6262" fill="none" id="Rep-to-Scanning" style="stroke:#607D8B;stroke-width:1.3;"/><polygon fill="#607D8B" points="776.07,197.6679,784.1366,203.3186,780.9773,198.6262,785.6698,195.4669,776.07,197.6679" style="stroke:#607D8B;stroke-width:1.3;stroke-linejoin:miter;stroke-miterlimit:10;"/><text fill="#000000" font-family="sans-serif" font-size="13" lengthAdjust="spacing" textLength="91.1561" x="934.35" y="276.1649">token replaced</text></g><!--link Scanning to Scanning--><g class="link" data-entity-1="ent0001" data-entity-2="ent0001" data-link-type="dependency" data-source-line="37" id="lnk15"><path d="M775.92,169.2179 C795.79,170.1979 810.68,175.0179 810.68,183.6679 C810.68,192.3279 800.7839,196.9016 780.9139,197.8816" fill="none" id="Scanning-to-Scanning" style="stroke:#607D8B;stroke-width:1.3;"/><polygon fill="#607D8B" points="775.92,198.1279,785.1061,201.6797,780.9139,197.8816,784.712,193.6894,775.92,198.1279" style="stroke:#607D8B;stroke-width:1.3;stroke-linejoin:miter;stroke-miterlimit:10;"/><text fill="#000000" font-family="sans-serif" font-size="13" lengthAdjust="spacing" textLength="90.1551" x="852.0921" y="180.0649">ordinary token</text><text fill="#000000" font-family="sans-serif" font-size="13" lengthAdjust="spacing" textLength="160.9792" x="816.68" y="197.7709">(push '(' / pop matching ')')</text></g><!--link Scanning to Bal--><g class="link" data-entity-1="ent0001" data-entity-2="ent0005" data-link-type="dependency" data-source-line="39" id="lnk16"><path d="M775.97,192.8279 C862.28,203.0679 993.74,222.9179 1034.1,252.2679 C1056.6,268.6379 1070.2354,290.8887 1080.4154,314.4287" fill="none" id="Scanning-to-Bal" style="stroke:#2E7D32;stroke-width:2;"/><polygon fill="#2E7D32" points="1082.4,319.0179,1082.499,309.1696,1080.4154,314.4287,1075.1562,312.345,1082.4,319.0179" style="stroke:#2E7D32;stroke-width:2;stroke-linejoin:miter;stroke-miterlimit:10;"/><text fill="#000000" font-family="sans-serif" font-size="13" lengthAdjust="spacing" textLength="74.5681" x="1128.009" y="267.1649">end of input</text><text fill="#000000" font-family="sans-serif" font-size="13" lengthAdjust="spacing" textLength="194.9462" x="1067.82" y="284.8709">&#8743; balance_brackets &#8743; stack &#8800; &#8709;</text></g><!--link Scanning to Done--><g class="link" data-entity-1="ent0001" data-entity-2="ent0006" data-link-type="dependency" data-source-line="40" id="lnk17"><path d="M775.89,188.7479 C924.83,197.1879 1235.95,218.6579 1271.1,252.2679 C1341.11,319.2279 1331.7599,443.2545 1323.0799,500.4745" fill="none" id="Scanning-to-Done" style="stroke:#2E7D32;stroke-width:2;"/><polygon fill="#2E7D32" points="1322.33,505.4179,1327.6346,497.1196,1323.0799,500.4745,1319.7251,495.9198,1322.33,505.4179" style="stroke:#2E7D32;stroke-width:2;stroke-linejoin:miter;stroke-miterlimit:10;"/><text fill="#000000" font-family="sans-serif" font-size="13" lengthAdjust="spacing" textLength="74.5681" x="1329.31" y="363.8049">end of input</text><text fill="#000000" font-family="sans-serif" font-size="13" lengthAdjust="spacing" textLength="69.8104" x="1331.6888" y="381.5109">&#8743; stack = &#8709;</text></g><!--link Bal to Done--><g class="link" data-entity-1="ent0005" data-entity-2="ent0006" data-link-type="dependency" data-source-line="41" id="lnk18"><path d="M1148.51,415.8779 C1166.48,431.9779 1187.2,449.6479 1207.1,464.5479 C1226.44,479.0279 1244.5692,490.9116 1264.0792,502.8916" fill="none" id="Bal-to-Done" style="stroke:#2E7D32;stroke-width:2;"/><polygon fill="#2E7D32" points="1268.34,505.5079,1262.7636,497.3898,1264.0792,502.8916,1258.5774,504.2072,1268.34,505.5079" style="stroke:#2E7D32;stroke-width:2;stroke-linejoin:miter;stroke-miterlimit:10;"/><text fill="#000000" font-family="sans-serif" font-size="13" lengthAdjust="spacing" textLength="82.1471" x="1208.1" y="460.4449">stack drained</text></g><!--link Done to *end*--><g class="link" data-entity-1="ent0006" data-entity-2="ent0019" data-link-type="dependency" data-source-line="43" id="lnk20"><path d="M1317.1,564.3879 C1317.1,587.7779 1317.1,614.6179 1317.1,630.8779" fill="none" id="Done-to-*end*" style="stroke:#607D8B;stroke-width:1.3;"/><polygon fill="#607D8B" points="1317.1,635.8779,1321.1,626.8779,1317.1,630.8779,1313.1,626.8779,1317.1,635.8779" style="stroke:#607D8B;stroke-width:1.3;stroke-linejoin:miter;stroke-miterlimit:10;"/></g><?plantuml-src VLLBRYCt4DttAGep2zaPIVPeuFy7i6KD46062EpPsOP1DKijGjqaGr8Z2q60R09uzZb0W2noWbnZ3g6Jf8hzSSkHuuNWBXOVgrZlFNRWPgc3UEoXSyQ1mzHyHRS47qH0A4GwLHfXGajbtdMLy4aiqVNX9XLQAvs1W61cg9CExNGeYYuWxGLhl0hAQ49QGX0p1A7XH-tHnUWEN66ErR_NQ7EHOe4wK1rMA4TemGbTGMnbL9A4yHBg8cveDM2s9509OOfWqVLy7KoD3zjTHaXdiKIkpbZKlJ67C72JwUm4H00a03C1fUqyKE8IvZhDZUVZobmFmY6CHIvqYh9FI4FZwBPYPK6XWpCGnHZT2KoK5dbrWMUGEKGDqip7EOAZElhmaw2U0nvJDFKxKedCYSBlN8ykhZwF-WMXUohO2ehIYUaiSsQkvT3aD8Mt7-DVAyDFXJGBRd0YSe-j5OaJCS_35tmC5xdATBpPb7xGjR8kQF2B2dn_z-3gyFBbufUfIcSQlOVt_G_jasEBloG0bnkgt3kwuXNZ9BewUdHnEDYZw4UZGnLxlplO7HnGx2O8rmJtzlU6knGSDOY3qS7LXq7oQp9L4W4B6vRKe4-TiZo390agq0sVZiyhGc-cykdE-1nWzTiVK4sc46v6mqrJj85d2ri2g3sFWWSMIGqUVvuZhMqdoUqFzz3hdJyJ_nZ6c2dcRsGJJNprz7kIb8U-gTFUWF3jFIGH2Pe6KvvmSgVdLlAEDMhMA8rW8Wnz4G8MAX1VUU6vqZkzzKxLoGzH03L6BRG8GHy4GPEqLOTVbO3l_m3A31b3Lidh42s1HXJwPfI5g57O9iIThdhe5IAaKvAGqH7KFMzVnxsCggflYRu8rHfB6cmGIBM-UwU5jLXANJc80dN-lpr7wsbL7Nc0ikoSYe6tmyFH_l28ZsacNSyuIPenyPpvie4IRvzDQ_Nq19N9AAJZLqz_azVCILkdnAR7XwOOVx-EnRSUiHhJsmGLxpwMz1AudifBN9v3n6qxw2ReXJEqfQPOM5gyJxZ1DK8pKZbEfXWvRi9rlvB25BAKmYMyabADNQxNtD82EGGv9Wcrfh2T-obqjZgaAQP1906dThOxs-tnt5Qcq1sRNDuJQ4cTjfUNVLUs_T1uEGTBkQw-_Ha5-p-eaJARODk2vwDVtLecIYV8W6IIn2XV0fb9acZ3iZSXc8Bn2OXyxvDPq9CIJ23OIEapi0udz4YJ6gm8qsDAgXQCKna_EINtty7tlvfdF8PydusKN-FoLGL5ViVC5tbEayr528fyZxNVfKnlW1Q0xaCgjYHFv-2Z8cYMDsLJOTHGXeJBTyBr_mi0?></g></svg>