<?xml version="1.0" encoding="UTF-8" standalone="no"?>
<!DOCTYPE svg PUBLIC "-//W3C//DTD SVG 1.1//EN"
 "http://www.w3.org/Graphics/SVG/1.1/DTD/svg11.dtd">
<!-- Generated by graphviz version 14.1.5 (0)
 -->
<!-- Title: weak_supervision_bypass Pages: 1 -->
<svg width="758pt" height="125pt"
 viewBox="0.00 0.00 758.00 125.00" xmlns="http://www.w3.org/2000/svg" xmlns:xlink="http://www.w3.org/1999/xlink">
<g id="graph0" class="graph" transform="scale(1 1) rotate(0) translate(4 120.63)">
<title>weak_supervision_bypass</title>
<polygon fill="#ffffff" stroke="none" points="-4,4 -4,-120.63 753.97,-120.63 753.97,4 -4,4"/>
<text xml:space="preserve" text-anchor="start" x="58.86" y="-101.28" font-family="Helvetica,sans-Serif" font-weight="bold" font-size="13.00">WST training graph</text>
<text xml:space="preserve" text-anchor="start" x="200.61" y="-101.28" font-family="Helvetica,sans-Serif" font-size="13.00"> — solid = token arcs; dashed grey = ε bypass / blank arcs for noisy &quot;cat&quot;</text>
<!-- __start__ -->
<g id="node1" class="node">
<title>__start__</title>
<ellipse fill="#bbdefb" stroke="#1565c0" stroke-width="1.4" cx="0.36" cy="-31.63" rx="0.36" ry="0.36"/>
</g>
<!-- q0 -->
<g id="node2" class="node">
<title>q0</title>
<ellipse fill="#bbdefb" stroke="#1565c0" stroke-width="1.4" cx="55.72" cy="-31.63" rx="18" ry="18"/>
<text xml:space="preserve" text-anchor="middle" x="55.72" y="-26.96" font-family="Helvetica,sans-Serif" font-size="14.00" fill="#102027">0</text>
</g>
<!-- __start__&#45;&gt;q0 -->
<g id="edge1" class="edge">
<title>__start__&#45;&gt;q0</title>
<path fill="none" stroke="#607d8b" stroke-width="1.3" d="M1.33,-31.63C3.91,-31.63 14.4,-31.63 25.4,-31.63"/>
<polygon fill="#607d8b" stroke="#607d8b" stroke-width="1.3" points="25.22,-35.13 35.22,-31.63 25.22,-28.13 25.22,-35.13"/>
</g>
<!-- q0&#45;&gt;q0 -->
<g id="edge7" class="edge">
<title>q0&#45;&gt;q0</title>
<path fill="none" stroke="#9e9e9e" stroke-width="1.3" stroke-dasharray="5,2" d="M49.2,-49.04C47.99,-58.72 50.16,-67.63 55.72,-67.63 58.76,-67.63 60.79,-64.97 61.8,-60.97"/>
<polygon fill="#9e9e9e" stroke="#9e9e9e" stroke-width="1.3" points="65.3,-61.13 62.16,-51.01 58.3,-60.87 65.3,-61.13"/>
<text xml:space="preserve" text-anchor="middle" x="55.72" y="-70.68" font-family="Helvetica,sans-Serif" font-size="11.00" fill="#37474f">␣ &#160;blank / β=0.5</text>
</g>
<!-- q1 -->
<g id="node3" class="node">
<title>q1</title>
<ellipse fill="#bbdefb" stroke="#1565c0" stroke-width="1.4" cx="207.97" cy="-31.63" rx="18" ry="18"/>
<text xml:space="preserve" text-anchor="middle" x="207.97" y="-26.96" font-family="Helvetica,sans-Serif" font-size="14.00" fill="#102027">1</text>
</g>
<!-- q0&#45;&gt;q1 -->
<g id="edge2" class="edge">
<title>q0&#45;&gt;q1</title>
<path fill="none" stroke="#2e7d32" stroke-width="2" d="M74.25,-31.63C99.36,-31.63 145.91,-31.63 176.67,-31.63"/>
<polygon fill="#2e7d32" stroke="#2e7d32" stroke-width="2" points="176.52,-35.13 186.52,-31.63 176.52,-28.13 176.52,-35.13"/>
<text xml:space="preserve" text-anchor="middle" x="131.85" y="-34.68" font-family="Helvetica,sans-Serif" font-size="11.00" fill="#1b5e20">the / conf 0.95</text>
</g>
<!-- q1&#45;&gt;q1 -->
<g id="edge8" class="edge">
<title>q1&#45;&gt;q1</title>
<path fill="none" stroke="#9e9e9e" stroke-width="1.3" stroke-dasharray="5,2" d="M195.7,-45.3C190.8,-56.29 194.89,-67.63 207.97,-67.63 216.35,-67.63 221.04,-62.98 222.04,-56.74"/>
<polygon fill="#9e9e9e" stroke="#9e9e9e" stroke-width="1.3" points="225.56,-56.58 220.54,-47.24 218.64,-57.67 225.56,-56.58"/>
<text xml:space="preserve" text-anchor="middle" x="207.97" y="-70.68" font-family="Helvetica,sans-Serif" font-size="11.00" fill="#37474f">␣ &#160;blank / β=0.5</text>
</g>
<!-- q2 -->
<g id="node4" class="node">
<title>q2</title>
<ellipse fill="#bbdefb" stroke="#1565c0" stroke-width="1.4" cx="507.22" cy="-42.63" rx="18" ry="18"/>
<text xml:space="preserve" text-anchor="middle" x="507.22" y="-37.96" font-family="Helvetica,sans-Serif" font-size="14.00" fill="#102027">2</text>
</g>
<!-- q1&#45;&gt;q2 -->
<g id="edge3" class="edge">
<title>q1&#45;&gt;q2</title>
<path fill="none" stroke="#607d8b" stroke-width="1.3" d="M226.24,-32.27C275.17,-34.08 415.18,-39.26 476.67,-41.54"/>
<polygon fill="#607d8b" stroke="#607d8b" stroke-width="1.3" points="476.44,-45.03 486.57,-41.9 476.7,-38.04 476.44,-45.03"/>
<text xml:space="preserve" text-anchor="middle" x="324.97" y="-41.81" font-family="Helvetica,sans-Serif" font-size="11.00" fill="#37474f">cat / conf 0.30</text>
</g>
<!-- q1&#45;&gt;q2 -->
<g id="edge5" class="edge">
<title>q1&#45;&gt;q2</title>
<path fill="none" stroke="#9e9e9e" stroke-width="1.3" stroke-dasharray="5,2" d="M224.12,-22.7C230.1,-19.67 237.15,-16.66 243.97,-15.13 314.23,0.6 334.61,-5.52 405.97,-15.13 431,-18.5 458.63,-26.41 478.53,-32.88"/>
<polygon fill="#9e9e9e" stroke="#9e9e9e" stroke-width="1.3" points="477.37,-36.18 487.96,-36.05 479.6,-29.55 477.37,-36.18"/>
<text xml:space="preserve" text-anchor="middle" x="324.97" y="-18.18" font-family="Helvetica,sans-Serif" font-size="11.00" fill="#37474f">ε &#160;(bypass cat, 2.0·0.7 = 1.4)</text>
</g>
<!-- q3 -->
<g id="node5" class="node">
<title>q3</title>
<ellipse fill="#c8e6c9" stroke="#2e7d32" stroke-width="1.4" cx="727.97" cy="-42.63" rx="18" ry="18"/>
<ellipse fill="none" stroke="#2e7d32" stroke-width="1.4" cx="727.97" cy="-42.63" rx="22" ry="22"/>
<text xml:space="preserve" text-anchor="middle" x="727.97" y="-37.96" font-family="Helvetica,sans-Serif" font-size="14.00" fill="#102027">3</text>
</g>
<!-- q1&#45;&gt;q3 -->
<g id="edge6" class="edge">
<title>q1&#45;&gt;q3</title>
<path fill="none" stroke="#9e9e9e" stroke-width="1.3" stroke-dasharray="5,2" d="M220.48,-18.05C226.71,-11.76 234.96,-4.96 243.97,-1.63 250.77,0.88 576.82,-0.13 590.47,-2.13 627.54,-7.57 668.56,-20.76 695.86,-30.63"/>
<polygon fill="#9e9e9e" stroke="#9e9e9e" stroke-width="1.3" points="694.59,-33.88 705.18,-34.07 697.01,-27.32 694.59,-33.88"/>
<text xml:space="preserve" text-anchor="middle" x="507.22" y="-5.18" font-family="Helvetica,sans-Serif" font-size="11.00" fill="#37474f">ε &#160;(multi&#45;bypass span, cost ↑)</text>
</g>
<!-- q2&#45;&gt;q2 -->
<g id="edge9" class="edge">
<title>q2&#45;&gt;q2</title>
<path fill="none" stroke="#9e9e9e" stroke-width="1.3" stroke-dasharray="5,2" d="M490.6,-50.77C473.31,-63.09 478.85,-78.63 507.22,-78.63 529.16,-78.63 537.44,-69.34 532.07,-59.42"/>
<polygon fill="#9e9e9e" stroke="#9e9e9e" stroke-width="1.3" points="534.63,-57.03 525.2,-52.19 529.55,-61.85 534.63,-57.03"/>
<text xml:space="preserve" text-anchor="middle" x="507.22" y="-81.68" font-family="Helvetica,sans-Serif" font-size="11.00" fill="#37474f">␣ &#160;blank / β=0.5</text>
</g>
<!-- q2&#45;&gt;q3 -->
<g id="edge4" class="edge">
<title>q2&#45;&gt;q3</title>
<path fill="none" stroke="#2e7d32" stroke-width="2" d="M525.75,-42.63C561.92,-42.63 645.39,-42.63 692.68,-42.63"/>
<polygon fill="#2e7d32" stroke="#2e7d32" stroke-width="2" points="692.51,-46.13 702.51,-42.63 692.51,-39.13 692.51,-46.13"/>
<text xml:space="preserve" text-anchor="middle" x="648.22" y="-45.68" font-family="Helvetica,sans-Serif" font-size="11.00" fill="#1b5e20">sat / conf 0.90</text>
</g>
</g>
</svg>
