<svg xmlns="http://www.w3.org/2000/svg" xmlns:xlink="http://www.w3.org/1999/xlink" contentStyleType="text/css" data-diagram-type="ACTIVITY" height="1196px" preserveAspectRatio="none" style="width:590px;height:1196px;background:#FFFFFF;" version="1.1" viewBox="0 0 590 1196" width="590px" zoomAndPan="magnify"><?plantuml $version$?><defs/><g><g class="title" data-source-line="25"><text fill="#000000" font-family="sans-serif" font-size="14" font-weight="700" lengthAdjust="spacing" textLength="295.8608" x="146.0848" y="34.9659">MathML check / homoglyph normalization</text><text fill="#000000" font-family="sans-serif" font-size="11" font-style="italic" font-weight="700" lengthAdjust="spacing" textLength="255.6711" x="166.1797" y="50.8268">MathMLSemanticLayer.apply over a token lattice</text></g><ellipse cx="148.1154" cy="80.0498" fill="#1565C0" rx="10" ry="10" style="stroke:#222222;stroke-width:1;"/><rect fill="#FFF59D" height="36.3441" rx="12.5" ry="12.5" style="stroke:#F9A825;stroke-width:0.5;" width="166.0562" x="65.0873" y="110.0498"/><text fill="#102027" font-family="sans-serif" font-size="12" lengthAdjust="spacing" textLength="146.0562" x="75.0873" y="132.8779">Input lattice  Lattice&#10216;W, B&#10217;</text><path d="M293.2022,227.695 L293.2022,246.401 L273.2022,250.401 L293.2022,254.401 L293.2022,273.1071 A0,0 0 0 0 293.2022,273.1071 L545.0304,273.1071 A0,0 0 0 0 545.0304,273.1071 L545.0304,237.695 L535.0304,227.695 L293.2022,227.695 A0,0 0 0 0 293.2022,227.695" fill="#ECEFF1" style="stroke:#455A64;stroke-width:0.5;"/><path d="M535.0304,227.695 L535.0304,237.695 L545.0304,237.695 L535.0304,227.695" fill="#ECEFF1" style="stroke:#455A64;stroke-width:0.5;"/><text fill="#000000" font-family="sans-serif" font-size="13" lengthAdjust="spacing" textLength="124.5401" x="352.3462" y="246.592">e.g. '&#215;' vs 'x', '&#8722;' vs '-',</text><text fill="#000000" font-family="sans-serif" font-size="13" lengthAdjust="spacing" textLength="230.8282" x="299.2022" y="264.298">prev_was_operator, in_math_mode, &#8230;</text><rect fill="#FFF59D" height="69.0323" rx="12.5" ry="12.5" style="stroke:#F9A825;stroke-width:0.5;" width="250.1737" x="23.0285" y="215.8849"/><text fill="#102027" font-family="sans-serif" font-size="12" font-weight="700" lengthAdjust="spacing" textLength="230.1737" x="33.0285" y="238.713">Phase 1 &#8212; Homoglyph disambiguation</text><text fill="#102027" font-family="sans-serif" font-size="12" lengthAdjust="spacing" textLength="219.2896" x="38.4706" y="255.0571">HomoglyphDisambiguator scores each</text><text fill="#102027" font-family="sans-serif" font-size="12" lengthAdjust="spacing" textLength="217.2975" x="39.4666" y="271.4012">confusable glyph against MathContext</text><rect fill="#FFF59D" height="52.6882" rx="12.5" ry="12.5" style="stroke:#F9A825;stroke-width:0.5;" width="221.9374" x="37.1467" y="354.4081"/><text fill="#102027" font-family="sans-serif" font-size="12" lengthAdjust="spacing" textLength="201.9374" x="47.1467" y="377.2362">replace glyphs with canonical forms</text><text fill="#102027" font-family="sans-serif" font-size="12" lengthAdjust="spacing" textLength="91.6658" x="102.2825" y="393.5804">('&#215;' &#8594; 'x', '&#8722;' &#8594; '-')</text><polygon fill="#ECEFF1" points="85.3168,304.9172,210.9139,304.9172,222.9139,316.9172,210.9139,328.9172,85.3168,328.9172,73.3168,316.9172,85.3168,304.9172" style="stroke:#455A64;stroke-width:0.5;stroke-linejoin:miter;stroke-miterlimit:10;"/><text fill="#000000" font-family="sans-serif" font-size="11" lengthAdjust="spacing" textLength="17.0829" x="152.1154" y="340.6761">yes</text><text fill="#102027" font-family="sans-serif" font-size="11" lengthAdjust="spacing" textLength="125.5971" x="85.3168" y="321.1852">normalize_homoglyphs?</text><text fill="#000000" font-family="sans-serif" font-size="11" lengthAdjust="spacing" textLength="13.4529" x="222.9139" y="313.6942">no</text><polygon fill="#ECEFF1" points="148.1154,432.5873,160.1154,444.5873,148.1154,456.5873,136.1154,444.5873,148.1154,432.5873" style="stroke:#455A64;stroke-width:0.5;stroke-linejoin:miter;stroke-miterlimit:10;"/><rect fill="#FFF59D" height="36.3441" rx="12.5" ry="12.5" style="stroke:#F9A825;stroke-width:0.5;" width="189.4292" x="53.4008" y="526.0783"/><text fill="#102027" font-family="sans-serif" font-size="12" lengthAdjust="spacing" textLength="169.4292" x="63.4008" y="548.9064">record AmbiguousGlyph issue</text><polygon fill="#ECEFF1" points="43.5941,476.5873,252.6366,476.5873,264.6366,488.5873,252.6366,500.5873,43.5941,500.5873,31.5941,488.5873,43.5941,476.5873" style="stroke:#455A64;stroke-width:0.5;stroke-linejoin:miter;stroke-miterlimit:10;"/><text fill="#000000" font-family="sans-serif" font-size="11" lengthAdjust="spacing" textLength="17.0829" x="152.1154" y="512.3462">yes</text><text fill="#102027" font-family="sans-serif" font-size="11" lengthAdjust="spacing" textLength="209.0425" x="43.5941" y="492.8553">confidence &lt; disambiguation_threshold?</text><text fill="#000000" font-family="sans-serif" font-size="11" lengthAdjust="spacing" textLength="13.4529" x="264.6366" y="485.3643">no</text><polygon fill="#ECEFF1" points="148.1154,582.4224,160.1154,594.4224,148.1154,606.4224,136.1154,594.4224,148.1154,582.4224" style="stroke:#455A64;stroke-width:0.5;stroke-linejoin:miter;stroke-miterlimit:10;"/><polygon fill="#ECEFF1" points="75.6479,166.3939,220.5829,166.3939,232.5829,178.3939,220.5829,190.3939,75.6479,190.3939,63.6479,178.3939,75.6479,166.3939" style="stroke:#455A64;stroke-width:0.5;stroke-linejoin:miter;stroke-miterlimit:10;"/><text fill="#000000" font-family="sans-serif" font-size="11" lengthAdjust="spacing" textLength="17.0829" x="152.1154" y="202.1528">yes</text><text fill="#102027" font-family="sans-serif" font-size="11" lengthAdjust="spacing" textLength="144.935" x="75.6479" y="182.6619">disambiguate_homoglyphs?</text><text fill="#000000" font-family="sans-serif" font-size="11" lengthAdjust="spacing" textLength="13.4529" x="232.5829" y="175.1709">no</text><polygon fill="#ECEFF1" points="148.1154,626.4224,160.1154,638.4224,148.1154,650.4224,136.1154,638.4224,148.1154,626.4224" style="stroke:#455A64;stroke-width:0.5;stroke-linejoin:miter;stroke-miterlimit:10;"/><rect fill="#FFF59D" height="69.0323" rx="12.5" ry="12.5" style="stroke:#F9A825;stroke-width:0.5;" width="234.0695" x="31.0806" y="719.9133"/><text fill="#102027" font-family="sans-serif" font-size="12" font-weight="700" lengthAdjust="spacing" textLength="149.2571" x="73.4868" y="742.7414">Phase 2 &#8212; Type checking</text><text fill="#102027" font-family="sans-serif" font-size="12" lengthAdjust="spacing" textLength="214.0695" x="41.0806" y="759.0855">MathTypeChecker: signature lookup +</text><text fill="#102027" font-family="sans-serif" font-size="12" lengthAdjust="spacing" textLength="145.717" x="75.2569" y="775.4296">Hindley-Milner unification</text><path d="M291.1502,812.5838 L291.1502,831.2898 L271.1502,835.2898 L291.1502,839.2898 L291.1502,857.9958 A0,0 0 0 0 291.1502,857.9958 L544.9284,857.9958 A0,0 0 0 0 544.9284,857.9958 L544.9284,822.5838 L534.9284,812.5838 L291.1502,812.5838 A0,0 0 0 0 291.1502,812.5838" fill="#ECEFF1" style="stroke:#455A64;stroke-width:0.5;"/><path d="M534.9284,812.5838 L534.9284,822.5838 L544.9284,822.5838 L534.9284,812.5838" fill="#ECEFF1" style="stroke:#455A64;stroke-width:0.5;"/><text fill="#000000" font-family="sans-serif" font-size="13" lengthAdjust="spacing" textLength="232.7782" x="297.1502" y="831.4808">Issues: TypeMismatch, ArityMismatch,</text><text fill="#000000" font-family="sans-serif" font-size="13" lengthAdjust="spacing" textLength="215.5532" x="305.7627" y="849.1868">UndefinedVariable, DivisionByZero.</text><rect fill="#FFF59D" height="52.6882" rx="12.5" ry="12.5" style="stroke:#F9A825;stroke-width:0.5;" width="246.0696" x="25.0806" y="808.9457"/><text fill="#102027" font-family="sans-serif" font-size="12" lengthAdjust="spacing" textLength="208.0575" x="44.0866" y="831.7738">validate arity &#183; detect division by zero</text><text fill="#102027" font-family="sans-serif" font-size="12" lengthAdjust="spacing" textLength="226.0696" x="35.0806" y="848.1179">&#183; infer/bind variables (TypeEnvironment)</text><rect fill="#FFF59D" height="36.3441" rx="12.5" ry="12.5" style="stroke:#F9A825;stroke-width:0.5;" width="155.685" x="70.2729" y="937.9276"/><text fill="#102027" font-family="sans-serif" font-size="12" lengthAdjust="spacing" textLength="135.685" x="80.2729" y="960.7556">drop the offending path</text><polygon fill="#ECEFF1" points="37,888.4366,259.2307,888.4366,271.2307,900.4366,259.2307,912.4366,37,912.4366,25,900.4366,37,888.4366" style="stroke:#455A64;stroke-width:0.5;stroke-linejoin:miter;stroke-miterlimit:10;"/><text fill="#000000" font-family="sans-serif" font-size="11" lengthAdjust="spacing" textLength="17.0829" x="152.1154" y="924.1955">yes</text><text fill="#102027" font-family="sans-serif" font-size="11" lengthAdjust="spacing" textLength="222.2307" x="37" y="904.7046">prune_type_errors &#8743; path has a type Error?</text><text fill="#000000" font-family="sans-serif" font-size="11" lengthAdjust="spacing" textLength="55.2196" x="271.2307" y="897.2136">no &#8212; keep</text><polygon fill="#ECEFF1" points="148.1154,994.2717,160.1154,1006.2717,148.1154,1018.2717,136.1154,1006.2717,148.1154,994.2717" style="stroke:#455A64;stroke-width:0.5;stroke-linejoin:miter;stroke-miterlimit:10;"/><polygon fill="#ECEFF1" points="114.6591,670.4224,181.5716,670.4224,193.5716,682.4224,181.5716,694.4224,114.6591,694.4224,102.6591,682.4224,114.6591,670.4224" style="stroke:#455A64;stroke-width:0.5;stroke-linejoin:miter;stroke-miterlimit:10;"/><text fill="#000000" font-family="sans-serif" font-size="11" lengthAdjust="spacing" textLength="17.0829" x="152.1154" y="706.1813">yes</text><text fill="#102027" font-family="sans-serif" font-size="11" lengthAdjust="spacing" textLength="66.9125" x="114.6591" y="686.6903">check_types?</text><text fill="#000000" font-family="sans-serif" font-size="11" lengthAdjust="spacing" textLength="13.4529" x="193.5716" y="679.1994">no</text><polygon fill="#ECEFF1" points="148.1154,1038.2717,160.1154,1050.2717,148.1154,1062.2717,136.1154,1050.2717,148.1154,1038.2717" style="stroke:#455A64;stroke-width:0.5;stroke-linejoin:miter;stroke-miterlimit:10;"/><rect fill="#FFF59D" height="52.6882" rx="12.5" ry="12.5" style="stroke:#F9A825;stroke-width:0.5;" width="243.8256" x="26.2026" y="1082.2717"/><text fill="#102027" font-family="sans-serif" font-size="12" lengthAdjust="spacing" textLength="177.3252" x="59.4528" y="1105.0998">Output lattice + SemanticResult</text><text fill="#102027" font-family="sans-serif" font-size="12" lengthAdjust="spacing" textLength="223.8256" x="36.2026" y="1121.4439">(inferred_type, issues, disambiguations)</text><ellipse cx="148.1154" cy="1165.9599" fill="none" rx="11" ry="11" style="stroke:#222222;stroke-width:1;"/><ellipse cx="148.1154" cy="1165.9599" fill="#222222" rx="6" ry="6" style="stroke:#222222;stroke-width:1;"/><line style="stroke:#607D8B;stroke-width:1.3;" x1="148.1154" x2="148.1154" y1="90.0498" y2="110.0498"/><polygon fill="#607D8B" points="144.1154,100.0498,148.1154,110.0498,152.1154,100.0498,148.1154,104.0498" style="stroke:#607D8B;stroke-width:1;stroke-linejoin:miter;stroke-miterlimit:10;"/><line style="stroke:#607D8B;stroke-width:1.3;" x1="148.1154" x2="148.1154" y1="328.9172" y2="354.4081"/><polygon fill="#607D8B" points="144.1154,344.4081,148.1154,354.4081,152.1154,344.4081,148.1154,348.4081" style="stroke:#607D8B;stroke-width:1;stroke-linejoin:miter;stroke-miterlimit:10;"/><line style="stroke:#607D8B;stroke-width:1.3;" x1="222.9139" x2="269.0841" y1="316.9172" y2="316.9172"/><polygon fill="#607D8B" points="265.0841,370.7523,269.0841,380.7523,273.0841,370.7523,269.0841,374.7523" style="stroke:#607D8B;stroke-width:1.3;stroke-linejoin:miter;stroke-miterlimit:10;"/><line style="stroke:#607D8B;stroke-width:1.3;" x1="269.0841" x2="269.0841" y1="316.9172" y2="444.5873"/><line style="stroke:#607D8B;stroke-width:1.3;" x1="269.0841" x2="160.1154" y1="444.5873" y2="444.5873"/><polygon fill="#607D8B" points="170.1154,440.5873,160.1154,444.5873,170.1154,448.5873,166.1154,444.5873" style="stroke:#607D8B;stroke-width:1;stroke-linejoin:miter;stroke-miterlimit:10;"/><line style="stroke:#607D8B;stroke-width:1.3;" x1="148.1154" x2="148.1154" y1="407.0964" y2="432.5873"/><polygon fill="#607D8B" points="144.1154,422.5873,148.1154,432.5873,152.1154,422.5873,148.1154,426.5873" style="stroke:#607D8B;stroke-width:1;stroke-linejoin:miter;stroke-miterlimit:10;"/><line style="stroke:#607D8B;stroke-width:1.3;" x1="148.1154" x2="148.1154" y1="284.9172" y2="304.9172"/><polygon fill="#607D8B" points="144.1154,294.9172,148.1154,304.9172,152.1154,294.9172,148.1154,298.9172" style="stroke:#607D8B;stroke-width:1;stroke-linejoin:miter;stroke-miterlimit:10;"/><line style="stroke:#607D8B;stroke-width:1.3;" x1="148.1154" x2="148.1154" y1="500.5873" y2="526.0783"/><polygon fill="#607D8B" points="144.1154,516.0783,148.1154,526.0783,152.1154,516.0783,148.1154,520.0783" style="stroke:#607D8B;stroke-width:1;stroke-linejoin:miter;stroke-miterlimit:10;"/><line style="stroke:#607D8B;stroke-width:1.3;" x1="264.6366" x2="276.6366" y1="488.5873" y2="488.5873"/><polygon fill="#607D8B" points="272.6366,534.2503,276.6366,544.2503,280.6366,534.2503,276.6366,538.2503" style="stroke:#607D8B;stroke-width:1.3;stroke-linejoin:miter;stroke-miterlimit:10;"/><line style="stroke:#607D8B;stroke-width:1.3;" x1="276.6366" x2="276.6366" y1="488.5873" y2="594.4224"/><line style="stroke:#607D8B;stroke-width:1.3;" x1="276.6366" x2="160.1154" y1="594.4224" y2="594.4224"/><polygon fill="#607D8B" points="170.1154,590.4224,160.1154,594.4224,170.1154,598.4224,166.1154,594.4224" style="stroke:#607D8B;stroke-width:1;stroke-linejoin:miter;stroke-miterlimit:10;"/><line style="stroke:#607D8B;stroke-width:1.3;" x1="148.1154" x2="148.1154" y1="562.4224" y2="582.4224"/><polygon fill="#607D8B" points="144.1154,572.4224,148.1154,582.4224,152.1154,572.4224,148.1154,576.4224" style="stroke:#607D8B;stroke-width:1;stroke-linejoin:miter;stroke-miterlimit:10;"/><line style="stroke:#607D8B;stroke-width:1.3;" x1="148.1154" x2="148.1154" y1="456.5873" y2="476.5873"/><polygon fill="#607D8B" points="144.1154,466.5873,148.1154,476.5873,152.1154,466.5873,148.1154,470.5873" style="stroke:#607D8B;stroke-width:1;stroke-linejoin:miter;stroke-miterlimit:10;"/><line style="stroke:#607D8B;stroke-width:1.3;" x1="148.1154" x2="148.1154" y1="190.3939" y2="215.8849"/><polygon fill="#607D8B" points="144.1154,205.8849,148.1154,215.8849,152.1154,205.8849,148.1154,209.8849" style="stroke:#607D8B;stroke-width:1;stroke-linejoin:miter;stroke-miterlimit:10;"/><line style="stroke:#607D8B;stroke-width:1.3;" x1="232.5829" x2="555.0304" y1="178.3939" y2="178.3939"/><polygon fill="#607D8B" points="551.0304,403.8991,555.0304,413.8991,559.0304,403.8991,555.0304,407.8991" style="stroke:#607D8B;stroke-width:1.3;stroke-linejoin:miter;stroke-miterlimit:10;"/><line style="stroke:#607D8B;stroke-width:1.3;" x1="555.0304" x2="555.0304" y1="178.3939" y2="638.4224"/><line style="stroke:#607D8B;stroke-width:1.3;" x1="555.0304" x2="160.1154" y1="638.4224" y2="638.4224"/><polygon fill="#607D8B" points="170.1154,634.4224,160.1154,638.4224,170.1154,642.4224,166.1154,638.4224" style="stroke:#607D8B;stroke-width:1;stroke-linejoin:miter;stroke-miterlimit:10;"/><line style="stroke:#607D8B;stroke-width:1.3;" x1="148.1154" x2="148.1154" y1="606.4224" y2="626.4224"/><polygon fill="#607D8B" points="144.1154,616.4224,148.1154,626.4224,152.1154,616.4224,148.1154,620.4224" style="stroke:#607D8B;stroke-width:1;stroke-linejoin:miter;stroke-miterlimit:10;"/><line style="stroke:#607D8B;stroke-width:1.3;" x1="148.1154" x2="148.1154" y1="146.3939" y2="166.3939"/><polygon fill="#607D8B" points="144.1154,156.3939,148.1154,166.3939,152.1154,156.3939,148.1154,160.3939" style="stroke:#607D8B;stroke-width:1;stroke-linejoin:miter;stroke-miterlimit:10;"/><line style="stroke:#607D8B;stroke-width:1.3;" x1="148.1154" x2="148.1154" y1="788.9457" y2="808.9457"/><polygon fill="#607D8B" points="144.1154,798.9457,148.1154,808.9457,152.1154,798.9457,148.1154,802.9457" style="stroke:#607D8B;stroke-width:1;stroke-linejoin:miter;stroke-miterlimit:10;"/><line style="stroke:#607D8B;stroke-width:1.3;" x1="148.1154" x2="148.1154" y1="912.4366" y2="937.9276"/><polygon fill="#607D8B" points="144.1154,927.9276,148.1154,937.9276,152.1154,927.9276,148.1154,931.9276" style="stroke:#607D8B;stroke-width:1;stroke-linejoin:miter;stroke-miterlimit:10;"/><line style="stroke:#607D8B;stroke-width:1.3;" x1="271.2307" x2="283.2307" y1="900.4366" y2="900.4366"/><polygon fill="#607D8B" points="279.2307,946.0996,283.2307,956.0996,287.2307,946.0996,283.2307,950.0996" style="stroke:#607D8B;stroke-width:1.3;stroke-linejoin:miter;stroke-miterlimit:10;"/><line style="stroke:#607D8B;stroke-width:1.3;" x1="283.2307" x2="283.2307" y1="900.4366" y2="1006.2717"/><line style="stroke:#607D8B;stroke-width:1.3;" x1="283.2307" x2="160.1154" y1="1006.2717" y2="1006.2717"/><polygon fill="#607D8B" points="170.1154,1002.2717,160.1154,1006.2717,170.1154,1010.2717,166.1154,1006.2717" style="stroke:#607D8B;stroke-width:1;stroke-linejoin:miter;stroke-miterlimit:10;"/><line style="stroke:#607D8B;stroke-width:1.3;" x1="148.1154" x2="148.1154" y1="974.2717" y2="994.2717"/><polygon fill="#607D8B" points="144.1154,984.2717,148.1154,994.2717,152.1154,984.2717,148.1154,988.2717" style="stroke:#607D8B;stroke-width:1;stroke-linejoin:miter;stroke-miterlimit:10;"/><line style="stroke:#607D8B;stroke-width:1.3;" x1="148.1154" x2="148.1154" y1="861.6339" y2="888.4366"/><polygon fill="#607D8B" points="144.1154,878.4366,148.1154,888.4366,152.1154,878.4366,148.1154,882.4366" style="stroke:#607D8B;stroke-width:1;stroke-linejoin:miter;stroke-miterlimit:10;"/><line style="stroke:#607D8B;stroke-width:1.3;" x1="148.1154" x2="148.1154" y1="694.4224" y2="719.9133"/><polygon fill="#607D8B" points="144.1154,709.9133,148.1154,719.9133,152.1154,709.9133,148.1154,713.9133" style="stroke:#607D8B;stroke-width:1;stroke-linejoin:miter;stroke-miterlimit:10;"/><line style="stroke:#607D8B;stroke-width:1.3;" x1="193.5716" x2="554.9284" y1="682.4224" y2="682.4224"/><polygon fill="#607D8B" points="550.9284,858.4366,554.9284,868.4366,558.9284,858.4366,554.9284,862.4366" style="stroke:#607D8B;stroke-width:1.3;stroke-linejoin:miter;stroke-miterlimit:10;"/><line style="stroke:#607D8B;stroke-width:1.3;" x1="554.9284" x2="554.9284" y1="682.4224" y2="1050.2717"/><line style="stroke:#607D8B;stroke-width:1.3;" x1="554.9284" x2="160.1154" y1="1050.2717" y2="1050.2717"/><polygon fill="#607D8B" points="170.1154,1046.2717,160.1154,1050.2717,170.1154,1054.2717,166.1154,1050.2717" style="stroke:#607D8B;stroke-width:1;stroke-linejoin:miter;stroke-miterlimit:10;"/><line style="stroke:#607D8B;stroke-width:1.3;" x1="148.1154" x2="148.1154" y1="1018.2717" y2="1038.2717"/><polygon fill="#607D8B" points="144.1154,1028.2717,148.1154,1038.2717,152.1154,1028.2717,148.1154,1032.2717" style="stroke:#607D8B;stroke-width:1;stroke-linejoin:miter;stroke-miterlimit:10;"/><line style="stroke:#607D8B;stroke-width:1.3;" x1="148.1154" x2="148.1154" y1="650.4224" y2="670.4224"/><polygon fill="#607D8B" points="144.1154,660.4224,148.1154,670.4224,152.1154,660.4224,148.1154,664.4224" style="stroke:#607D8B;stroke-width:1;stroke-linejoin:miter;stroke-miterlimit:10;"/><line style="stroke:#607D8B;stroke-width:1.3;" x1="148.1154" x2="148.1154" y1="1062.2717" y2="1082.2717"/><polygon fill="#607D8B" points="144.1154,1072.2717,148.1154,1082.2717,152.1154,1072.2717,148.1154,1076.2717" style="stroke:#607D8B;stroke-width:1;stroke-linejoin:miter;stroke-miterlimit:10;"/><line style="stroke:#607D8B;stroke-width:1.3;" x1="148.1154" x2="148.1154" y1="1134.9599" y2="1154.9599"/><polygon fill="#607D8B" points="144.1154,1144.9599,148.1154,1154.9599,152.1154,1144.9599,148.1154,1148.9599" style="stroke:#607D8B;stroke-width:1;stroke-linejoin:miter;stroke-miterlimit:10;"/><?plantuml-src VLNDRjj64BxpAGOe44emBLbAP2UogaAMv2I0ZGI9smA50M553ic5g5rYToc7BWBq5EGS5EWnj_uyGU_jc-X9EhkK5DQHxOEXdHdEVlFDpBS-N3AJNbwynIKJXeSNh4JLOdcUbP3p73Cki0-lKwOHEf3AfKooCayXufejvpmfcE5IG2EKmk0xu_cWGwcuIE00P6vzB8EG2IbuIB-4L4kMyLltLHFM7pvjSdV1b3b2c6Aui5ytD4y4CuL2Ifb9kIZo05vm4MLO7bxoJA22Gl2OijfK0J35JGcF2DYAQx8Spil3MrIoIgcRmGvELbBAND7NT4zErMimAJE4KgcoWe5AIQLRC9OYvWd46KiqtO1toDgwEMQHRb7MiLGAGyU8uOJmMo2IK9r2XA53fScKA2m99bjA4UbJUqGAHxNa1Au5hrc6nX3faGnrc-8InPQw_MOwcbnEMykevMbYA6TaXJaB5ucIXOZ6CfCAlZbtVxK8dR98tjXAOvPfh7aYZ5cHcIlgsYWZifSeY0FwXweMDI8cRZR9ZuzE9a_FxZglKXuk16eDdTRZcfCH3olRavyzWBCzG7lF9jOZLOHgQtqsUjhjaVMSncbZwnnrZxedP9jKb7sLQZgUdfztQW7rZ4zwlT7n4tA-DKpjKlQEU-CZCavtIRhJaydZhlU-Le2G1lU3tzsuxwhtdcUuoH06ys4rBjK8GhksFl_RWq5xFhmM0yrliT_f30TyUFzEoXMD5GCZ5pGq6JFana6R3mTj-_dGyxIjq-k_57bXjW405zMFzUS_VmpWRFtvhrFFup4qQckCinqy_LsJLe8kQ9IecrHddshPQi3wbr_XnJqwK5Moyqw-E8aWAmoe0LcONWlIYxZGR4uyLObOmhZGnctOk1AJKxhPDK7n93Lq0C1MqWB_tzzyM6dmt_a1-EkFdwhJeH-u6F-eEh_otGBRJ7tQTrpDRfYUYS9kP1MvCyeSbSKO01Up9I6OBMM40TNwEmMYY1mE-cavs_Rk8SA8CeLvni9DUHfkk4bhGXXJ4dqj6guMAuErOjpnq6_Q-f6MrbxPh73mU0F2yiSZ57J1u4uJPYObdbEPHNjHKHSY6BbmMUZdZdokTO7xh_jYgSvkRDn0pwnKFZ0gNJSgLtLPh-R3jjYQnzQAgWyxhTyeFHpG4DshzHPdVqKTY6XeDxh_pz-aPuQaTwV_C2_1wl-r81yNCQhsd5B2YZwmOwUXOJ5CnOehwSIlkMVUNbfYTDzLSSarZKQO1gHxTEVkw0A_5wIdz5P6Fspo1oH75PApyYV2qVfwaEmRX8x5MVNWmFhZ7-v50YBGRhdbRcfTUpePAPbR8yWujgtPF6RrBhe6B13p1zhPVrMOkbGSm5Pstg2czu5crB6dC79GWsfOT71dwZJHfutClVy0?></g></svg>