<?xml version="1.0" encoding="UTF-8" standalone="no"?>
<!DOCTYPE svg PUBLIC "-//W3C//DTD SVG 1.1//EN"
 "http://www.w3.org/Graphics/SVG/1.1/DTD/svg11.dtd">
<!-- Generated by graphviz version 14.1.5 (0)
 -->
<!-- Title: composition_product Pages: 1 -->
<svg width="737pt" height="643pt"
 viewBox="0.00 0.00 737.00 643.00" xmlns="http://www.w3.org/2000/svg" xmlns:xlink="http://www.w3.org/1999/xlink">
<g id="graph0" class="graph" transform="scale(1 1) rotate(0) translate(4 638.5)">
<title>composition_product</title>
<polygon fill="#ffffff" stroke="none" points="-4,4 -4,-638.5 733.25,-638.5 733.25,4 -4,4"/>
<text xml:space="preserve" text-anchor="start" x="8" y="-619.15" font-family="Helvetica,sans-Serif" font-weight="bold" font-size="13.00">Composition</text>
<text xml:space="preserve" text-anchor="start" x="98.75" y="-619.15" font-family="Helvetica,sans-Serif" font-size="13.00"> T₁ ∘ T₂ — operands (top) and the lazy product with ε&#45;filter (bottom); green = composed path</text>
<g id="clust1" class="cluster">
<title>cluster_t1</title>
<path fill="#e3f2fd" stroke="#1565c0" d="M160.84,-8C160.84,-8 614.37,-8 614.37,-8 620.37,-8 626.37,-14 626.37,-20 626.37,-20 626.37,-81 626.37,-81 626.37,-87 620.37,-93 614.37,-93 614.37,-93 160.84,-93 160.84,-93 154.84,-93 148.84,-87 148.84,-81 148.84,-81 148.84,-20 148.84,-20 148.84,-14 154.84,-8 160.84,-8"/>
<text xml:space="preserve" text-anchor="start" x="311.48" y="-77.65" font-family="Helvetica,sans-Serif" font-weight="bold" font-size="13.00" fill="#0d47a1">T₁</text>
<text xml:space="preserve" text-anchor="start" x="326.48" y="-77.65" font-family="Helvetica,sans-Serif" font-size="13.00" fill="#0d47a1"> (input a → output x)</text>
</g>
<g id="clust2" class="cluster">
<title>cluster_t2</title>
<path fill="#e3f2fd" stroke="#1565c0" d="M160.84,-101C160.84,-101 614.37,-101 614.37,-101 620.37,-101 626.37,-107 626.37,-113 626.37,-113 626.37,-174 626.37,-174 626.37,-180 620.37,-186 614.37,-186 614.37,-186 160.84,-186 160.84,-186 154.84,-186 148.84,-180 148.84,-174 148.84,-174 148.84,-113 148.84,-113 148.84,-107 154.84,-101 160.84,-101"/>
<text xml:space="preserve" text-anchor="start" x="311.48" y="-170.65" font-family="Helvetica,sans-Serif" font-weight="bold" font-size="13.00" fill="#0d47a1">T₂</text>
<text xml:space="preserve" text-anchor="start" x="326.48" y="-170.65" font-family="Helvetica,sans-Serif" font-size="13.00" fill="#0d47a1"> (input x → output p)</text>
</g>
<g id="clust3" class="cluster">
<title>cluster_prod</title>
<path fill="#e8f5e9" stroke="#2e7d32" d="M160.84,-194C160.84,-194 641.27,-194 641.27,-194 647.27,-194 653.27,-200 653.27,-206 653.27,-206 653.27,-320 653.27,-320 653.27,-326 647.27,-332 641.27,-332 641.27,-332 160.84,-332 160.84,-332 154.84,-332 148.84,-326 148.84,-320 148.84,-320 148.84,-206 148.84,-206 148.84,-200 154.84,-194 160.84,-194"/>
<text xml:space="preserve" text-anchor="start" x="231.18" y="-316.65" font-family="Helvetica,sans-Serif" font-weight="bold" font-size="13.00" fill="#1b5e20">T₁ ∘ T₂</text>
<text xml:space="preserve" text-anchor="start" x="278.43" y="-316.65" font-family="Helvetica,sans-Serif" font-size="13.00" fill="#1b5e20"> &#160;product states (s₁, s₂, φ); &#160;φ = ε&#45;filter state</text>
</g>
<g id="clust4" class="cluster">
<title>cluster_filter</title>
<path fill="#fafafa" stroke="#9e9e9e" stroke-dasharray="5,2" d="M79.98,-340C79.98,-340 446.23,-340 446.23,-340 452.23,-340 458.23,-346 458.23,-352 458.23,-352 458.23,-590 458.23,-590 458.23,-596 452.23,-602 446.23,-602 446.23,-602 79.98,-602 79.98,-602 73.98,-602 67.98,-596 67.98,-590 67.98,-590 67.98,-352 67.98,-352 67.98,-346 73.98,-340 79.98,-340"/>
<text xml:space="preserve" text-anchor="start" x="75.98" y="-586.65" font-family="Helvetica,sans-Serif" font-weight="bold" font-size="13.00" fill="#424242">ε&#45;filter</text>
<text xml:space="preserve" text-anchor="start" x="124.73" y="-586.65" font-family="Helvetica,sans-Serif" font-size="13.00" fill="#424242"> (sequencing) — admits each ε&#45;interleaving once</text>
</g>
<!-- a0 -->
<g id="node1" class="node">
<title>a0</title>
<ellipse fill="#bbdefb" stroke="#1565c0" stroke-width="1.4" cx="369.07" cy="-38" rx="18" ry="18"/>
<text xml:space="preserve" text-anchor="middle" x="369.07" y="-33.33" font-family="Helvetica,sans-Serif" font-size="14.00" fill="#102027">0</text>
</g>
<!-- a1 -->
<g id="node2" class="node">
<title>a1</title>
<ellipse fill="#c8e6c9" stroke="#2e7d32" stroke-width="1.4" cx="596.37" cy="-38" rx="18" ry="18"/>
<ellipse fill="none" stroke="#2e7d32" stroke-width="1.4" cx="596.37" cy="-38" rx="22" ry="22"/>
<text xml:space="preserve" text-anchor="middle" x="596.37" y="-33.33" font-family="Helvetica,sans-Serif" font-size="14.00" fill="#102027">1</text>
</g>
<!-- a0&#45;&gt;a1 -->
<g id="edge2" class="edge">
<title>a0&#45;&gt;a1</title>
<path fill="none" stroke="#607d8b" stroke-width="1.3" d="M387.75,-38C425.35,-38 513.76,-38 562.2,-38"/>
<polygon fill="#607d8b" stroke="#607d8b" stroke-width="1.3" points="561.92,-41.5 571.92,-38 561.92,-34.5 561.92,-41.5"/>
<text xml:space="preserve" text-anchor="middle" x="502.86" y="-41.05" font-family="Helvetica,sans-Serif" font-size="11.00" fill="#37474f">a : x / 1.0</text>
</g>
<!-- sa -->
<g id="node3" class="node">
<title>sa</title>
<ellipse fill="#bbdefb" stroke="#1565c0" stroke-width="1.4" cx="157.2" cy="-38" rx="0.36" ry="0.36"/>
</g>
<!-- sa&#45;&gt;a0 -->
<g id="edge1" class="edge">
<title>sa&#45;&gt;a0</title>
<path fill="none" stroke="#607d8b" stroke-width="1.3" d="M158.35,-38C163.19,-38 282.62,-38 339.05,-38"/>
<polygon fill="#607d8b" stroke="#607d8b" stroke-width="1.3" points="338.72,-41.5 348.72,-38 338.72,-34.5 338.72,-41.5"/>
</g>
<!-- b0 -->
<g id="node4" class="node">
<title>b0</title>
<ellipse fill="#bbdefb" stroke="#1565c0" stroke-width="1.4" cx="369.07" cy="-131" rx="18" ry="18"/>
<text xml:space="preserve" text-anchor="middle" x="369.07" y="-126.33" font-family="Helvetica,sans-Serif" font-size="14.00" fill="#102027">0</text>
</g>
<!-- b1 -->
<g id="node5" class="node">
<title>b1</title>
<ellipse fill="#c8e6c9" stroke="#2e7d32" stroke-width="1.4" cx="596.37" cy="-131" rx="18" ry="18"/>
<ellipse fill="none" stroke="#2e7d32" stroke-width="1.4" cx="596.37" cy="-131" rx="22" ry="22"/>
<text xml:space="preserve" text-anchor="middle" x="596.37" y="-126.33" font-family="Helvetica,sans-Serif" font-size="14.00" fill="#102027">1</text>
</g>
<!-- b0&#45;&gt;b1 -->
<g id="edge4" class="edge">
<title>b0&#45;&gt;b1</title>
<path fill="none" stroke="#607d8b" stroke-width="1.3" d="M387.75,-131C425.35,-131 513.76,-131 562.2,-131"/>
<polygon fill="#607d8b" stroke="#607d8b" stroke-width="1.3" points="561.92,-134.5 571.92,-131 561.92,-127.5 561.92,-134.5"/>
<text xml:space="preserve" text-anchor="middle" x="502.86" y="-134.05" font-family="Helvetica,sans-Serif" font-size="11.00" fill="#37474f">x : p / 0.5</text>
</g>
<!-- sb -->
<g id="node6" class="node">
<title>sb</title>
<ellipse fill="#bbdefb" stroke="#1565c0" stroke-width="1.4" cx="157.2" cy="-131" rx="0.36" ry="0.36"/>
</g>
<!-- sb&#45;&gt;b0 -->
<g id="edge3" class="edge">
<title>sb&#45;&gt;b0</title>
<path fill="none" stroke="#607d8b" stroke-width="1.3" d="M158.35,-131C163.19,-131 282.62,-131 339.05,-131"/>
<polygon fill="#607d8b" stroke="#607d8b" stroke-width="1.3" points="338.72,-134.5 348.72,-131 338.72,-127.5 338.72,-134.5"/>
</g>
<!-- p00 -->
<g id="node7" class="node">
<title>p00</title>
<ellipse fill="#c8e6c9" stroke="#2e7d32" stroke-width="1.4" cx="369.07" cy="-251" rx="44.89" ry="44.89"/>
<text xml:space="preserve" text-anchor="middle" x="369.07" y="-246.32" font-family="Helvetica,sans-Serif" font-size="14.00" fill="#102027">(0,0,N)</text>
</g>
<!-- p11 -->
<g id="node8" class="node">
<title>p11</title>
<ellipse fill="#c8e6c9" stroke="#2e7d32" stroke-width="1.4" cx="596.37" cy="-251" rx="44.89" ry="44.89"/>
<ellipse fill="none" stroke="#2e7d32" stroke-width="1.4" cx="596.37" cy="-251" rx="48.89" ry="48.89"/>
<text xml:space="preserve" text-anchor="middle" x="596.37" y="-246.32" font-family="Helvetica,sans-Serif" font-size="14.00" fill="#102027">(1,1,N)</text>
</g>
<!-- p00&#45;&gt;p11 -->
<g id="edge6" class="edge">
<title>p00&#45;&gt;p11</title>
<path fill="none" stroke="#2e7d32" stroke-width="2" d="M414.58,-251C448.77,-251 496.36,-251 534.14,-251"/>
<polygon fill="#2e7d32" stroke="#2e7d32" stroke-width="2" points="534.03,-254.5 544.03,-251 534.03,-247.5 534.03,-254.5"/>
<text xml:space="preserve" text-anchor="middle" x="502.86" y="-254.05" font-family="Helvetica,sans-Serif" font-size="11.00" fill="#1b5e20">a : p / 1.5</text>
</g>
<!-- sp -->
<g id="node9" class="node">
<title>sp</title>
<ellipse fill="#c8e6c9" stroke="#2e7d32" stroke-width="1.4" cx="157.2" cy="-251" rx="0.36" ry="0.36"/>
</g>
<!-- sp&#45;&gt;p00 -->
<g id="edge5" class="edge">
<title>sp&#45;&gt;p00</title>
<path fill="none" stroke="#607d8b" stroke-width="1.3" d="M158.35,-251C162.51,-251 251.09,-251 311.78,-251"/>
<polygon fill="#607d8b" stroke="#607d8b" stroke-width="1.3" points="311.55,-254.5 321.55,-251 311.55,-247.5 311.55,-254.5"/>
</g>
<!-- fN -->
<g id="node10" class="node">
<title>fN</title>
<ellipse fill="#eceff1" stroke="#455a64" stroke-width="1.4" cx="157.2" cy="-444" rx="36.48" ry="36.48"/>
<text xml:space="preserve" text-anchor="middle" x="157.2" y="-439.32" font-family="Helvetica,sans-Serif" font-size="14.00" fill="#102027">None</text>
</g>
<!-- f1 -->
<g id="node11" class="node">
<title>f1</title>
<ellipse fill="#eceff1" stroke="#455a64" stroke-width="1.4" cx="369.07" cy="-383" rx="35.42" ry="35.42"/>
<text xml:space="preserve" text-anchor="middle" x="369.07" y="-378.32" font-family="Helvetica,sans-Serif" font-size="14.00" fill="#102027">Eps1</text>
</g>
<!-- fN&#45;&gt;f1 -->
<g id="edge7" class="edge">
<title>fN&#45;&gt;f1</title>
<path fill="none" stroke="#9e9e9e" stroke-width="1.3" stroke-dasharray="5,2" d="M179.55,-414.52C188.32,-404.76 199.32,-394.99 211.67,-389.5 246.24,-374.14 289.47,-373.56 321.7,-376.23"/>
<polygon fill="#9e9e9e" stroke="#9e9e9e" stroke-width="1.3" points="321.23,-379.7 331.52,-377.2 321.92,-372.74 321.23,-379.7"/>
<text xml:space="preserve" text-anchor="middle" x="258.92" y="-392.55" font-family="Helvetica,sans-Serif" font-size="11.00" fill="#37474f">x:ε &#160;(advance T₁)</text>
</g>
<!-- f2 -->
<g id="node12" class="node">
<title>f2</title>
<ellipse fill="#eceff1" stroke="#455a64" stroke-width="1.4" cx="369.07" cy="-503" rx="35.42" ry="35.42"/>
<text xml:space="preserve" text-anchor="middle" x="369.07" y="-498.32" font-family="Helvetica,sans-Serif" font-size="14.00" fill="#102027">Eps2</text>
</g>
<!-- fN&#45;&gt;f2 -->
<g id="edge8" class="edge">
<title>fN&#45;&gt;f2</title>
<path fill="none" stroke="#9e9e9e" stroke-width="1.3" stroke-dasharray="5,2" d="M194.1,-445.63C224.66,-447.92 269.33,-453.39 306.17,-466.5 313.92,-469.26 321.78,-473.02 329.19,-477.08"/>
<polygon fill="#9e9e9e" stroke="#9e9e9e" stroke-width="1.3" points="327.18,-479.96 337.59,-481.96 330.7,-473.91 327.18,-479.96"/>
<text xml:space="preserve" text-anchor="middle" x="258.92" y="-469.55" font-family="Helvetica,sans-Serif" font-size="11.00" fill="#37474f">ε:x &#160;(advance T₂)</text>
</g>
<!-- f1&#45;&gt;fN -->
<g id="edge9" class="edge">
<title>f1&#45;&gt;fN</title>
<path fill="none" stroke="#9e9e9e" stroke-width="1.3" stroke-dasharray="5,2" d="M334.74,-394.05C325.51,-397.04 315.47,-400.21 306.17,-403 287.16,-408.7 240.21,-421.64 204.25,-431.47"/>
<polygon fill="#9e9e9e" stroke="#9e9e9e" stroke-width="1.3" points="203.63,-428.01 194.91,-434.02 205.48,-434.76 203.63,-428.01"/>
<text xml:space="preserve" text-anchor="middle" x="258.92" y="-432.37" font-family="Helvetica,sans-Serif" font-size="11.00" fill="#37474f">x:x &#160;(match)</text>
</g>
<!-- f1&#45;&gt;f1 -->
<g id="edge11" class="edge">
<title>f1&#45;&gt;f1</title>
<path fill="none" stroke="#9e9e9e" stroke-width="1.3" stroke-dasharray="5,2" d="M348.66,-412.67C346.99,-425.47 353.79,-436.42 369.07,-436.42 379.33,-436.42 385.77,-431.48 388.38,-424.35"/>
<polygon fill="#9e9e9e" stroke="#9e9e9e" stroke-width="1.3" points="391.84,-424.91 389.29,-414.63 384.87,-424.26 391.84,-424.91"/>
<text xml:space="preserve" text-anchor="middle" x="369.07" y="-439.47" font-family="Helvetica,sans-Serif" font-size="11.00" fill="#37474f">x:ε</text>
</g>
<!-- f2&#45;&gt;fN -->
<g id="edge10" class="edge">
<title>f2&#45;&gt;fN</title>
<path fill="none" stroke="#9e9e9e" stroke-width="1.3" stroke-dasharray="5,2" d="M333.08,-502.27C300.62,-500.58 251.47,-495.4 211.67,-480 206.53,-478.01 201.38,-475.45 196.43,-472.62"/>
<polygon fill="#9e9e9e" stroke="#9e9e9e" stroke-width="1.3" points="198.6,-469.85 188.26,-467.55 194.91,-475.79 198.6,-469.85"/>
<text xml:space="preserve" text-anchor="middle" x="258.92" y="-502.99" font-family="Helvetica,sans-Serif" font-size="11.00" fill="#37474f">x:x &#160;(match)</text>
</g>
<!-- f2&#45;&gt;f2 -->
<g id="edge12" class="edge">
<title>f2&#45;&gt;f2</title>
<path fill="none" stroke="#9e9e9e" stroke-width="1.3" stroke-dasharray="5,2" d="M348.66,-532.67C346.99,-545.47 353.79,-556.42 369.07,-556.42 379.33,-556.42 385.77,-551.48 388.38,-544.35"/>
<polygon fill="#9e9e9e" stroke="#9e9e9e" stroke-width="1.3" points="391.84,-544.91 389.29,-534.63 384.87,-544.26 391.84,-544.91"/>
<text xml:space="preserve" text-anchor="middle" x="369.07" y="-559.47" font-family="Helvetica,sans-Serif" font-size="11.00" fill="#37474f">ε:x</text>
</g>
</g>
</svg>
