<?xml version="1.0" encoding="UTF-8" standalone="no"?>
<!DOCTYPE svg PUBLIC "-//W3C//DTD SVG 1.1//EN"
 "http://www.w3.org/Graphics/SVG/1.1/DTD/svg11.dtd">
<!-- Generated by graphviz version 14.1.5 (0)
 -->
<!-- Title: determinize_before_after Pages: 1 -->
<svg width="794pt" height="330pt"
 viewBox="0.00 0.00 794.00 330.00" xmlns="http://www.w3.org/2000/svg" xmlns:xlink="http://www.w3.org/1999/xlink">
<g id="graph0" class="graph" transform="scale(1 1) rotate(0) translate(4 325.5)">
<title>determinize_before_after</title>
<polygon fill="#ffffff" stroke="none" points="-4,4 -4,-325.5 789.5,-325.5 789.5,4 -4,4"/>
<text xml:space="preserve" text-anchor="start" x="8" y="-306.15" font-family="Helvetica,sans-Serif" font-weight="bold" font-size="13.00">Determinization</text>
<text xml:space="preserve" text-anchor="start" x="125.75" y="-306.15" font-family="Helvetica,sans-Serif" font-size="13.00"> — non&#45;deterministic (left) → weighted&#45;subset deterministic (right); arc weight = factored&#45;out min</text>
<g id="clust1" class="cluster">
<title>cluster_before</title>
<path fill="#ffebee" stroke="#b71c1c" d="M157.58,-8C157.58,-8 597.92,-8 597.92,-8 603.92,-8 609.92,-14 609.92,-20 609.92,-20 609.92,-127 609.92,-127 609.92,-133 603.92,-139 597.92,-139 597.92,-139 157.58,-139 157.58,-139 151.58,-139 145.58,-133 145.58,-127 145.58,-127 145.58,-20 145.58,-20 145.58,-14 151.58,-8 157.58,-8"/>
<text xml:space="preserve" text-anchor="start" x="192.88" y="-123.65" font-family="Helvetica,sans-Serif" font-weight="bold" font-size="13.00" fill="#b71c1c">before</text>
<text xml:space="preserve" text-anchor="start" x="241.63" y="-123.65" font-family="Helvetica,sans-Serif" font-size="13.00" fill="#b71c1c"> — two &#39;a&#39; arcs leave state 0 (non&#45;deterministic)</text>
</g>
<g id="clust2" class="cluster">
<title>cluster_after</title>
<path fill="#e8f5e9" stroke="#2e7d32" d="M141,-147C141,-147 644.5,-147 644.5,-147 650.5,-147 656.5,-153 656.5,-159 656.5,-159 656.5,-277 656.5,-277 656.5,-283 650.5,-289 644.5,-289 644.5,-289 141,-289 141,-289 135,-289 129,-283 129,-277 129,-277 129,-159 129,-159 129,-153 135,-147 141,-147"/>
<text xml:space="preserve" text-anchor="start" x="137" y="-273.65" font-family="Helvetica,sans-Serif" font-weight="bold" font-size="13.00" fill="#1b5e20">after</text>
<text xml:space="preserve" text-anchor="start" x="173.75" y="-273.65" font-family="Helvetica,sans-Serif" font-size="13.00" fill="#1b5e20"> — one &#39;a&#39; arc to weighted subset {(1,0̄),(2,1.0)}; arc carries min = 1.0</text>
</g>
<!-- n0 -->
<g id="node1" class="node">
<title>n0</title>
<ellipse fill="#bbdefb" stroke="#1565c0" stroke-width="1.4" cx="238.3" cy="-60" rx="18" ry="18"/>
<text xml:space="preserve" text-anchor="middle" x="238.3" y="-55.33" font-family="Helvetica,sans-Serif" font-size="14.00" fill="#102027">0</text>
</g>
<!-- n1 -->
<g id="node2" class="node">
<title>n1</title>
<ellipse fill="#bbdefb" stroke="#1565c0" stroke-width="1.4" cx="407.11" cy="-34" rx="18" ry="18"/>
<text xml:space="preserve" text-anchor="middle" x="407.11" y="-29.32" font-family="Helvetica,sans-Serif" font-size="14.00" fill="#102027">1</text>
</g>
<!-- n0&#45;&gt;n1 -->
<g id="edge2" class="edge">
<title>n0&#45;&gt;n1</title>
<path fill="none" stroke="#607d8b" stroke-width="1.3" d="M256.63,-56.31C269.48,-53.65 287.44,-50.09 303.3,-47.5 328.02,-43.47 356.24,-39.83 376.85,-37.35"/>
<polygon fill="#607d8b" stroke="#607d8b" stroke-width="1.3" points="377.12,-40.84 386.64,-36.19 376.3,-33.89 377.12,-40.84"/>
<text xml:space="preserve" text-anchor="middle" x="320.93" y="-50.55" font-family="Helvetica,sans-Serif" font-size="11.00" fill="#37474f">a / 1.0</text>
</g>
<!-- n2 -->
<g id="node3" class="node">
<title>n2</title>
<ellipse fill="#bbdefb" stroke="#1565c0" stroke-width="1.4" cx="407.11" cy="-88" rx="18" ry="18"/>
<text xml:space="preserve" text-anchor="middle" x="407.11" y="-83.33" font-family="Helvetica,sans-Serif" font-size="14.00" fill="#102027">2</text>
</g>
<!-- n0&#45;&gt;n2 -->
<g id="edge3" class="edge">
<title>n0&#45;&gt;n2</title>
<path fill="none" stroke="#607d8b" stroke-width="1.3" d="M256.53,-62.89C284.99,-67.67 342.17,-77.27 377,-83.11"/>
<polygon fill="#607d8b" stroke="#607d8b" stroke-width="1.3" points="376.35,-86.55 386.79,-84.76 377.51,-79.65 376.35,-86.55"/>
<text xml:space="preserve" text-anchor="middle" x="320.93" y="-79.56" font-family="Helvetica,sans-Serif" font-size="11.00" fill="#37474f">a / 2.0</text>
</g>
<!-- n3 -->
<g id="node4" class="node">
<title>n3</title>
<ellipse fill="#c8e6c9" stroke="#2e7d32" stroke-width="1.4" cx="579.92" cy="-59" rx="18" ry="18"/>
<ellipse fill="none" stroke="#2e7d32" stroke-width="1.4" cx="579.92" cy="-59" rx="22" ry="22"/>
<text xml:space="preserve" text-anchor="middle" x="579.92" y="-54.33" font-family="Helvetica,sans-Serif" font-size="14.00" fill="#102027">3</text>
</g>
<!-- n1&#45;&gt;n3 -->
<g id="edge4" class="edge">
<title>n1&#45;&gt;n3</title>
<path fill="none" stroke="#607d8b" stroke-width="1.3" d="M425.65,-35.21C446.17,-36.76 481.14,-39.82 510.92,-44.5 522.56,-46.33 535.22,-48.88 546.42,-51.32"/>
<polygon fill="#607d8b" stroke="#607d8b" stroke-width="1.3" points="545.45,-54.69 555.97,-53.47 546.98,-47.86 545.45,-54.69"/>
<text xml:space="preserve" text-anchor="middle" x="493.29" y="-47.55" font-family="Helvetica,sans-Serif" font-size="11.00" fill="#37474f">b / 1.0</text>
</g>
<!-- n2&#45;&gt;n3 -->
<g id="edge5" class="edge">
<title>n2&#45;&gt;n3</title>
<path fill="none" stroke="#607d8b" stroke-width="1.3" d="M425.43,-85.06C453.7,-80.26 510.21,-70.67 546.21,-64.55"/>
<polygon fill="#607d8b" stroke="#607d8b" stroke-width="1.3" points="546.35,-68.08 555.63,-62.95 545.18,-61.18 546.35,-68.08"/>
<text xml:space="preserve" text-anchor="middle" x="493.29" y="-79.15" font-family="Helvetica,sans-Serif" font-size="11.00" fill="#37474f">b / 1.0</text>
</g>
<!-- s0 -->
<g id="node5" class="node">
<title>s0</title>
<ellipse fill="#bbdefb" stroke="#1565c0" stroke-width="1.4" cx="153.94" cy="-60" rx="0.36" ry="0.36"/>
</g>
<!-- s0&#45;&gt;n0 -->
<g id="edge1" class="edge">
<title>s0&#45;&gt;n0</title>
<path fill="none" stroke="#607d8b" stroke-width="1.3" d="M154.83,-60C158.94,-60 186.08,-60 208.13,-60"/>
<polygon fill="#607d8b" stroke="#607d8b" stroke-width="1.3" points="208.02,-63.5 218.02,-60 208.02,-56.5 208.02,-63.5"/>
</g>
<!-- d0 -->
<g id="node6" class="node">
<title>d0</title>
<ellipse fill="#c8e6c9" stroke="#2e7d32" stroke-width="1.4" cx="238.3" cy="-206" rx="47" ry="47"/>
<text xml:space="preserve" text-anchor="middle" x="238.3" y="-201.32" font-family="Helvetica,sans-Serif" font-size="14.00" fill="#102027">{(0,0̄)}</text>
</g>
<!-- d1 -->
<g id="node7" class="node">
<title>d1</title>
<ellipse fill="#c8e6c9" stroke="#2e7d32" stroke-width="1.4" cx="407.11" cy="-206" rx="50.56" ry="50.56"/>
<text xml:space="preserve" text-anchor="middle" x="407.11" y="-209.95" font-family="Helvetica,sans-Serif" font-size="14.00" fill="#102027">{(1,0̄),</text>
<text xml:space="preserve" text-anchor="middle" x="407.11" y="-192.7" font-family="Helvetica,sans-Serif" font-size="14.00" fill="#102027">(2,1.0)}</text>
</g>
<!-- d0&#45;&gt;d1 -->
<g id="edge7" class="edge">
<title>d0&#45;&gt;d1</title>
<path fill="none" stroke="#2e7d32" stroke-width="2" d="M285.77,-206C303.55,-206 324.13,-206 343.2,-206"/>
<polygon fill="#2e7d32" stroke="#2e7d32" stroke-width="2" points="343.07,-209.5 353.07,-206 343.07,-202.5 343.07,-209.5"/>
<text xml:space="preserve" text-anchor="middle" x="320.93" y="-209.05" font-family="Helvetica,sans-Serif" font-size="11.00" fill="#1b5e20">a / 1.0</text>
</g>
<!-- d3 -->
<g id="node8" class="node">
<title>d3</title>
<ellipse fill="#c8e6c9" stroke="#2e7d32" stroke-width="1.4" cx="579.92" cy="-206" rx="47" ry="47"/>
<ellipse fill="none" stroke="#2e7d32" stroke-width="1.4" cx="579.92" cy="-206" rx="51" ry="51"/>
<text xml:space="preserve" text-anchor="middle" x="579.92" y="-201.32" font-family="Helvetica,sans-Serif" font-size="14.00" fill="#102027">{(3,0̄)}</text>
</g>
<!-- d1&#45;&gt;d3 -->
<g id="edge8" class="edge">
<title>d1&#45;&gt;d3</title>
<path fill="none" stroke="#2e7d32" stroke-width="2" d="M457.97,-206C475.98,-206 496.54,-206 515.54,-206"/>
<polygon fill="#2e7d32" stroke="#2e7d32" stroke-width="2" points="515.37,-209.5 525.37,-206 515.37,-202.5 515.37,-209.5"/>
<text xml:space="preserve" text-anchor="middle" x="493.29" y="-209.05" font-family="Helvetica,sans-Serif" font-size="11.00" fill="#1b5e20">b / 1.0</text>
</g>
<!-- sd -->
<g id="node9" class="node">
<title>sd</title>
<ellipse fill="#c8e6c9" stroke="#2e7d32" stroke-width="1.4" cx="153.94" cy="-206" rx="0.36" ry="0.36"/>
</g>
<!-- sd&#45;&gt;d0 -->
<g id="edge6" class="edge">
<title>sd&#45;&gt;d0</title>
<path fill="none" stroke="#607d8b" stroke-width="1.3" d="M154.83,-206C157.18,-206 167.06,-206 179.21,-206"/>
<polygon fill="#607d8b" stroke="#607d8b" stroke-width="1.3" points="178.88,-209.5 188.88,-206 178.88,-202.5 178.88,-209.5"/>
</g>
</g>
</svg>
