<?xml version="1.0" encoding="UTF-8" standalone="no"?>
<!DOCTYPE svg PUBLIC "-//W3C//DTD SVG 1.1//EN"
 "http://www.w3.org/Graphics/SVG/1.1/DTD/svg11.dtd">
<!-- Generated by graphviz version 14.1.5 (0)
 -->
<!-- Title: earley_forest Pages: 1 -->
<svg width="739pt" height="291pt"
 viewBox="0.00 0.00 739.00 291.00" xmlns="http://www.w3.org/2000/svg" xmlns:xlink="http://www.w3.org/1999/xlink">
<g id="graph0" class="graph" transform="scale(1 1) rotate(0) translate(4 287)">
<title>earley_forest</title>
<polygon fill="#ffffff" stroke="none" points="-4,4 -4,-287 734.75,-287 734.75,4 -4,4"/>
<text xml:space="preserve" text-anchor="start" x="8" y="-267.65" font-family="Helvetica,sans-Serif" font-weight="bold" font-size="13.00">Packed parse forest</text>
<text xml:space="preserve" text-anchor="start" x="154.25" y="-267.65" font-family="Helvetica,sans-Serif" font-size="13.00"> — S → NP VP over &quot;the dog barked&quot;; ellipse = non&#45;terminal [i,j), box = terminal edge</text>
<!-- S -->
<g id="node1" class="node">
<title>S</title>
<ellipse fill="#b2dfdb" stroke="#00695c" stroke-width="2" cx="423.98" cy="-240.5" rx="43.84" ry="18"/>
<text xml:space="preserve" text-anchor="middle" x="423.98" y="-235.82" font-family="Helvetica,sans-Serif" font-size="14.00" fill="#102027">S [0,3)</text>
</g>
<!-- NP -->
<g id="node2" class="node">
<title>NP</title>
<ellipse fill="#b2dfdb" stroke="#00695c" stroke-width="1.4" cx="364.98" cy="-168.5" rx="50.68" ry="18"/>
<text xml:space="preserve" text-anchor="middle" x="364.98" y="-163.82" font-family="Helvetica,sans-Serif" font-size="14.00" fill="#102027">NP [0,2)</text>
</g>
<!-- S&#45;&gt;NP -->
<g id="edge1" class="edge">
<title>S&#45;&gt;NP</title>
<path fill="none" stroke="#00695c" stroke-width="1.3" d="M409.7,-222.55C402.81,-214.39 394.4,-204.41 386.75,-195.32"/>
<polygon fill="#00695c" stroke="#00695c" stroke-width="1.3" points="389.52,-193.18 380.4,-187.79 384.17,-197.7 389.52,-193.18"/>
</g>
<!-- VP -->
<g id="node3" class="node">
<title>VP</title>
<ellipse fill="#b2dfdb" stroke="#00695c" stroke-width="1.4" cx="483.98" cy="-168.5" rx="50.16" ry="18"/>
<text xml:space="preserve" text-anchor="middle" x="483.98" y="-163.82" font-family="Helvetica,sans-Serif" font-size="14.00" fill="#102027">VP [2,3)</text>
</g>
<!-- S&#45;&gt;VP -->
<g id="edge2" class="edge">
<title>S&#45;&gt;VP</title>
<path fill="none" stroke="#00695c" stroke-width="1.3" d="M438.5,-222.55C445.51,-214.39 454.06,-204.41 461.84,-195.32"/>
<polygon fill="#00695c" stroke="#00695c" stroke-width="1.3" points="464.46,-197.65 468.31,-187.78 459.14,-193.1 464.46,-197.65"/>
</g>
<!-- Det -->
<g id="node4" class="node">
<title>Det</title>
<ellipse fill="#b2dfdb" stroke="#00695c" stroke-width="1.4" cx="250.98" cy="-96.5" rx="54.36" ry="18"/>
<text xml:space="preserve" text-anchor="middle" x="250.98" y="-91.83" font-family="Helvetica,sans-Serif" font-size="14.00" fill="#102027">Det [0,1)</text>
</g>
<!-- NP&#45;&gt;Det -->
<g id="edge3" class="edge">
<title>NP&#45;&gt;Det</title>
<path fill="none" stroke="#00695c" stroke-width="1.3" d="M340.24,-152.31C324.37,-142.56 303.51,-129.76 285.96,-118.98"/>
<polygon fill="#00695c" stroke="#00695c" stroke-width="1.3" points="288.09,-116.18 277.74,-113.93 284.43,-122.15 288.09,-116.18"/>
</g>
<!-- N -->
<g id="node5" class="node">
<title>N</title>
<ellipse fill="#b2dfdb" stroke="#00695c" stroke-width="1.4" cx="367.98" cy="-96.5" rx="44.89" ry="18"/>
<text xml:space="preserve" text-anchor="middle" x="367.98" y="-91.83" font-family="Helvetica,sans-Serif" font-size="14.00" fill="#102027">N [1,2)</text>
</g>
<!-- NP&#45;&gt;N -->
<g id="edge4" class="edge">
<title>NP&#45;&gt;N</title>
<path fill="none" stroke="#00695c" stroke-width="1.3" d="M365.74,-149.84C366.04,-142.82 366.39,-134.56 366.73,-126.7"/>
<polygon fill="#00695c" stroke="#00695c" stroke-width="1.3" points="370.22,-127.02 367.15,-116.88 363.22,-126.72 370.22,-127.02"/>
</g>
<!-- V -->
<g id="node6" class="node">
<title>V</title>
<ellipse fill="#b2dfdb" stroke="#00695c" stroke-width="1.4" cx="483.98" cy="-96.5" rx="44.37" ry="18"/>
<text xml:space="preserve" text-anchor="middle" x="483.98" y="-91.83" font-family="Helvetica,sans-Serif" font-size="14.00" fill="#102027">V [2,3)</text>
</g>
<!-- VP&#45;&gt;V -->
<g id="edge5" class="edge">
<title>VP&#45;&gt;V</title>
<path fill="none" stroke="#00695c" stroke-width="1.3" d="M483.98,-149.84C483.98,-142.82 483.98,-134.56 483.98,-126.7"/>
<polygon fill="#00695c" stroke="#00695c" stroke-width="1.3" points="487.48,-126.88 483.98,-116.88 480.48,-126.88 487.48,-126.88"/>
</g>
<!-- t_the -->
<g id="node7" class="node">
<title>t_the</title>
<polygon fill="#eceff1" stroke="#455a64" stroke-width="1.4" points="298.73,-42.5 203.23,-42.5 203.23,0 298.73,0 298.73,-42.5"/>
<text xml:space="preserve" text-anchor="middle" x="250.98" y="-25.2" font-family="Helvetica,sans-Serif" font-size="14.00" fill="#102027">the</text>
<text xml:space="preserve" text-anchor="middle" x="250.98" y="-7.95" font-family="Helvetica,sans-Serif" font-size="14.00" fill="#102027">(edge 0→1)</text>
</g>
<!-- Det&#45;&gt;t_the -->
<g id="edge6" class="edge">
<title>Det&#45;&gt;t_the</title>
<path fill="none" stroke="#00695c" stroke-width="1.3" d="M250.98,-78.14C250.98,-71.17 250.98,-62.91 250.98,-54.89"/>
<polygon fill="#00695c" stroke="#00695c" stroke-width="1.3" points="254.48,-55.1 250.98,-45.1 247.48,-55.1 254.48,-55.1"/>
</g>
<!-- t_dog -->
<g id="node8" class="node">
<title>t_dog</title>
<polygon fill="#eceff1" stroke="#455a64" stroke-width="1.4" points="415.73,-42.5 320.23,-42.5 320.23,0 415.73,0 415.73,-42.5"/>
<text xml:space="preserve" text-anchor="middle" x="367.98" y="-25.2" font-family="Helvetica,sans-Serif" font-size="14.00" fill="#102027">dog</text>
<text xml:space="preserve" text-anchor="middle" x="367.98" y="-7.95" font-family="Helvetica,sans-Serif" font-size="14.00" fill="#102027">(edge 1→2)</text>
</g>
<!-- N&#45;&gt;t_dog -->
<g id="edge7" class="edge">
<title>N&#45;&gt;t_dog</title>
<path fill="none" stroke="#00695c" stroke-width="1.3" d="M367.98,-78.14C367.98,-71.17 367.98,-62.91 367.98,-54.89"/>
<polygon fill="#00695c" stroke="#00695c" stroke-width="1.3" points="371.48,-55.1 367.98,-45.1 364.48,-55.1 371.48,-55.1"/>
</g>
<!-- t_barked -->
<g id="node9" class="node">
<title>t_barked</title>
<polygon fill="#eceff1" stroke="#455a64" stroke-width="1.4" points="531.73,-42.5 436.23,-42.5 436.23,0 531.73,0 531.73,-42.5"/>
<text xml:space="preserve" text-anchor="middle" x="483.98" y="-25.2" font-family="Helvetica,sans-Serif" font-size="14.00" fill="#102027">barked</text>
<text xml:space="preserve" text-anchor="middle" x="483.98" y="-7.95" font-family="Helvetica,sans-Serif" font-size="14.00" fill="#102027">(edge 2→3)</text>
</g>
<!-- V&#45;&gt;t_barked -->
<g id="edge8" class="edge">
<title>V&#45;&gt;t_barked</title>
<path fill="none" stroke="#00695c" stroke-width="1.3" d="M483.98,-78.14C483.98,-71.17 483.98,-62.91 483.98,-54.89"/>
<polygon fill="#00695c" stroke="#00695c" stroke-width="1.3" points="487.48,-55.1 483.98,-45.1 480.48,-55.1 487.48,-55.1"/>
</g>
</g>
</svg>
