<?xml version="1.0" encoding="UTF-8" standalone="no"?>
<!DOCTYPE svg PUBLIC "-//W3C//DTD SVG 1.1//EN"
 "http://www.w3.org/Graphics/SVG/1.1/DTD/svg11.dtd">
<!-- Generated by graphviz version 14.1.5 (0)
 -->
<!-- Title: epsilon_removal Pages: 1 -->
<svg width="719pt" height="227pt"
 viewBox="0.00 0.00 719.00 227.00" xmlns="http://www.w3.org/2000/svg" xmlns:xlink="http://www.w3.org/1999/xlink">
<g id="graph0" class="graph" transform="scale(1 1) rotate(0) translate(4 222.5)">
<title>epsilon_removal</title>
<polygon fill="#ffffff" stroke="none" points="-4,4 -4,-222.5 714.75,-222.5 714.75,4 -4,4"/>
<text xml:space="preserve" text-anchor="start" x="91.38" y="-203.15" font-family="Helvetica,sans-Serif" font-weight="bold" font-size="13.00">ε&#45;removal</text>
<text xml:space="preserve" text-anchor="start" x="164.12" y="-203.15" font-family="Helvetica,sans-Serif" font-size="13.00"> — grey dashed ε arcs (left) folded into real arcs via ε&#45;closure (right)</text>
<g id="clust1" class="cluster">
<title>cluster_before</title>
<path fill="#e3f2fd" stroke="#1565c0" d="M149.51,-8C149.51,-8 690.75,-8 690.75,-8 696.75,-8 702.75,-14 702.75,-20 702.75,-20 702.75,-81 702.75,-81 702.75,-87 696.75,-93 690.75,-93 690.75,-93 149.51,-93 149.51,-93 143.51,-93 137.51,-87 137.51,-81 137.51,-81 137.51,-20 137.51,-20 137.51,-14 143.51,-8 149.51,-8"/>
<text xml:space="preserve" text-anchor="start" x="255.88" y="-77.65" font-family="Helvetica,sans-Serif" font-weight="bold" font-size="13.00" fill="#0d47a1">before</text>
<text xml:space="preserve" text-anchor="start" x="304.63" y="-77.65" font-family="Helvetica,sans-Serif" font-size="13.00" fill="#0d47a1"> — 0 ─ε/1.0→ 1 ─a/2.0→ 2 ─ε/0.5→ 3 (final)</text>
</g>
<g id="clust2" class="cluster">
<title>cluster_after</title>
<path fill="#e8f5e9" stroke="#2e7d32" d="M12,-101C12,-101 469,-101 469,-101 475,-101 481,-107 481,-113 481,-113 481,-174 481,-174 481,-180 475,-186 469,-186 469,-186 12,-186 12,-186 6,-186 0,-180 0,-174 0,-174 0,-113 0,-113 0,-107 6,-101 12,-101"/>
<text xml:space="preserve" text-anchor="start" x="8" y="-170.65" font-family="Helvetica,sans-Serif" font-weight="bold" font-size="13.00" fill="#1b5e20">after</text>
<text xml:space="preserve" text-anchor="start" x="44.75" y="-170.65" font-family="Helvetica,sans-Serif" font-size="13.00" fill="#1b5e20"> — 0 ─a/(1.0⊗2.0⊗0.5)=3.5→ (final); state 0 now final&#45;reachable</text>
</g>
<!-- e0 -->
<g id="node1" class="node">
<title>e0</title>
<ellipse fill="#bbdefb" stroke="#1565c0" stroke-width="1.4" cx="201.24" cy="-38" rx="18" ry="18"/>
<text xml:space="preserve" text-anchor="middle" x="201.24" y="-33.33" font-family="Helvetica,sans-Serif" font-size="14.00" fill="#102027">0</text>
</g>
<!-- e1 -->
<g id="node2" class="node">
<title>e1</title>
<ellipse fill="#bbdefb" stroke="#1565c0" stroke-width="1.4" cx="312.49" cy="-38" rx="18" ry="18"/>
<text xml:space="preserve" text-anchor="middle" x="312.49" y="-33.33" font-family="Helvetica,sans-Serif" font-size="14.00" fill="#102027">1</text>
</g>
<!-- e0&#45;&gt;e1 -->
<g id="edge2" class="edge">
<title>e0&#45;&gt;e1</title>
<path fill="none" stroke="#9e9e9e" stroke-width="1.3" stroke-dasharray="5,2" d="M219.79,-38C236.59,-38 262.26,-38 282.17,-38"/>
<polygon fill="#9e9e9e" stroke="#9e9e9e" stroke-width="1.3" points="282.01,-41.5 292.01,-38 282.01,-34.5 282.01,-41.5"/>
<text xml:space="preserve" text-anchor="middle" x="254.86" y="-41.05" font-family="Helvetica,sans-Serif" font-size="11.00" fill="#616161">ε / 1.0</text>
</g>
<!-- e2 -->
<g id="node3" class="node">
<title>e2</title>
<ellipse fill="#bbdefb" stroke="#1565c0" stroke-width="1.4" cx="562.25" cy="-38" rx="18" ry="18"/>
<text xml:space="preserve" text-anchor="middle" x="562.25" y="-33.33" font-family="Helvetica,sans-Serif" font-size="14.00" fill="#102027">2</text>
</g>
<!-- e1&#45;&gt;e2 -->
<g id="edge3" class="edge">
<title>e1&#45;&gt;e2</title>
<path fill="none" stroke="#607d8b" stroke-width="1.3" d="M330.91,-38C372.93,-38 480.24,-38 532.19,-38"/>
<polygon fill="#607d8b" stroke="#607d8b" stroke-width="1.3" points="531.88,-41.5 541.88,-38 531.88,-34.5 531.88,-41.5"/>
<text xml:space="preserve" text-anchor="middle" x="508.62" y="-41.05" font-family="Helvetica,sans-Serif" font-size="11.00" fill="#37474f">a / 2.0</text>
</g>
<!-- e3 -->
<g id="node4" class="node">
<title>e3</title>
<ellipse fill="#c8e6c9" stroke="#2e7d32" stroke-width="1.4" cx="672.75" cy="-38" rx="18" ry="18"/>
<ellipse fill="none" stroke="#2e7d32" stroke-width="1.4" cx="672.75" cy="-38" rx="22" ry="22"/>
<text xml:space="preserve" text-anchor="middle" x="672.75" y="-33.33" font-family="Helvetica,sans-Serif" font-size="14.00" fill="#102027">3</text>
</g>
<!-- e2&#45;&gt;e3 -->
<g id="edge4" class="edge">
<title>e2&#45;&gt;e3</title>
<path fill="none" stroke="#9e9e9e" stroke-width="1.3" stroke-dasharray="5,2" d="M580.68,-38C596.21,-38 619.36,-38 638.43,-38"/>
<polygon fill="#9e9e9e" stroke="#9e9e9e" stroke-width="1.3" points="638.29,-41.5 648.29,-38 638.29,-34.5 638.29,-41.5"/>
<text xml:space="preserve" text-anchor="middle" x="615.5" y="-41.05" font-family="Helvetica,sans-Serif" font-size="11.00" fill="#616161">ε / 0.5</text>
</g>
<!-- s0 -->
<g id="node5" class="node">
<title>s0</title>
<ellipse fill="#bbdefb" stroke="#1565c0" stroke-width="1.4" cx="145.88" cy="-38" rx="0.36" ry="0.36"/>
</g>
<!-- s0&#45;&gt;e0 -->
<g id="edge1" class="edge">
<title>s0&#45;&gt;e0</title>
<path fill="none" stroke="#607d8b" stroke-width="1.3" d="M146.84,-38C149.43,-38 159.91,-38 170.91,-38"/>
<polygon fill="#607d8b" stroke="#607d8b" stroke-width="1.3" points="170.74,-41.5 180.74,-38 170.74,-34.5 170.74,-41.5"/>
</g>
<!-- f0 -->
<g id="node6" class="node">
<title>f0</title>
<ellipse fill="#bbdefb" stroke="#1565c0" stroke-width="1.4" cx="201.24" cy="-131" rx="18" ry="18"/>
<text xml:space="preserve" text-anchor="middle" x="201.24" y="-126.33" font-family="Helvetica,sans-Serif" font-size="14.00" fill="#102027">0</text>
</g>
<!-- f3 -->
<g id="node7" class="node">
<title>f3</title>
<ellipse fill="#c8e6c9" stroke="#2e7d32" stroke-width="1.4" cx="312.49" cy="-131" rx="18" ry="18"/>
<ellipse fill="none" stroke="#2e7d32" stroke-width="1.4" cx="312.49" cy="-131" rx="22" ry="22"/>
<text xml:space="preserve" text-anchor="middle" x="312.49" y="-126.33" font-family="Helvetica,sans-Serif" font-size="14.00" fill="#102027">3</text>
</g>
<!-- f0&#45;&gt;f3 -->
<g id="edge6" class="edge">
<title>f0&#45;&gt;f3</title>
<path fill="none" stroke="#2e7d32" stroke-width="2" d="M219.79,-131C235.13,-131 257.85,-131 276.83,-131"/>
<polygon fill="#2e7d32" stroke="#2e7d32" stroke-width="2" points="276.81,-134.5 286.81,-131 276.81,-127.5 276.81,-134.5"/>
<text xml:space="preserve" text-anchor="middle" x="254.86" y="-134.05" font-family="Helvetica,sans-Serif" font-size="11.00" fill="#1b5e20">a / 3.5</text>
</g>
<!-- sf -->
<g id="node8" class="node">
<title>sf</title>
<ellipse fill="#bbdefb" stroke="#1565c0" stroke-width="1.4" cx="145.88" cy="-131" rx="0.36" ry="0.36"/>
</g>
<!-- sf&#45;&gt;f0 -->
<g id="edge5" class="edge">
<title>sf&#45;&gt;f0</title>
<path fill="none" stroke="#607d8b" stroke-width="1.3" d="M146.84,-131C149.43,-131 159.91,-131 170.91,-131"/>
<polygon fill="#607d8b" stroke="#607d8b" stroke-width="1.3" points="170.74,-134.5 180.74,-131 170.74,-127.5 170.74,-134.5"/>
</g>
</g>
</svg>
