<?xml version="1.0" encoding="UTF-8" standalone="no"?>
<!DOCTYPE svg PUBLIC "-//W3C//DTD SVG 1.1//EN"
 "http://www.w3.org/Graphics/SVG/1.1/DTD/svg11.dtd">
<!-- Generated by graphviz version 14.1.5 (0)
 -->
<!-- Title: minimize_before_after Pages: 1 -->
<svg width="631pt" height="332pt"
 viewBox="0.00 0.00 631.00 332.00" xmlns="http://www.w3.org/2000/svg" xmlns:xlink="http://www.w3.org/1999/xlink">
<g id="graph0" class="graph" transform="scale(1 1) rotate(0) translate(4 327.5)">
<title>minimize_before_after</title>
<polygon fill="#ffffff" stroke="none" points="-4,4 -4,-327.5 626.75,-327.5 626.75,4 -4,4"/>
<text xml:space="preserve" text-anchor="start" x="8" y="-308.15" font-family="Helvetica,sans-Serif" font-weight="bold" font-size="13.00">Minimization</text>
<text xml:space="preserve" text-anchor="start" x="101.75" y="-308.15" font-family="Helvetica,sans-Serif" font-size="13.00"> — equivalent states {1,2} and {3,4} (left) merge into one class each (right)</text>
<g id="clust1" class="cluster">
<title>cluster_before</title>
<path fill="#e3f2fd" stroke="#1565c0" d="M110.52,-8C110.52,-8 490.27,-8 490.27,-8 496.27,-8 502.27,-14 502.27,-20 502.27,-20 502.27,-143 502.27,-143 502.27,-149 496.27,-155 490.27,-155 490.27,-155 110.52,-155 110.52,-155 104.52,-155 98.52,-149 98.52,-143 98.52,-143 98.52,-20 98.52,-20 98.52,-14 104.52,-8 110.52,-8"/>
<text xml:space="preserve" text-anchor="start" x="106.52" y="-139.65" font-family="Helvetica,sans-Serif" font-weight="bold" font-size="13.00" fill="#0d47a1">before</text>
<text xml:space="preserve" text-anchor="start" x="155.27" y="-139.65" font-family="Helvetica,sans-Serif" font-size="13.00" fill="#0d47a1"> — 5 states; {1,2} share future, {3,4} share future</text>
</g>
<g id="clust2" class="cluster">
<title>cluster_after</title>
<path fill="#e8f5e9" stroke="#2e7d32" d="M103.88,-163C103.88,-163 518.88,-163 518.88,-163 524.88,-163 530.88,-169 530.88,-175 530.88,-175 530.88,-279 530.88,-279 530.88,-285 524.88,-291 518.88,-291 518.88,-291 103.88,-291 103.88,-291 97.88,-291 91.88,-285 91.88,-279 91.88,-279 91.88,-175 91.88,-175 91.88,-169 97.88,-163 103.88,-163"/>
<text xml:space="preserve" text-anchor="start" x="99.88" y="-275.65" font-family="Helvetica,sans-Serif" font-weight="bold" font-size="13.00" fill="#1b5e20">after</text>
<text xml:space="preserve" text-anchor="start" x="136.62" y="-275.65" font-family="Helvetica,sans-Serif" font-size="13.00" fill="#1b5e20"> — 3 states (40% fewer); class A = {1,2}, class B = {3,4}</text>
</g>
<!-- m0 -->
<g id="node1" class="node">
<title>m0</title>
<ellipse fill="#bbdefb" stroke="#1565c0" stroke-width="1.4" cx="174.58" cy="-68" rx="18" ry="18"/>
<text xml:space="preserve" text-anchor="middle" x="174.58" y="-63.33" font-family="Helvetica,sans-Serif" font-size="14.00" fill="#102027">0</text>
</g>
<!-- m1 -->
<g id="node2" class="node">
<title>m1</title>
<ellipse fill="#fff59d" stroke="#f9a825" stroke-width="1.4" cx="303.78" cy="-40" rx="18" ry="18"/>
<text xml:space="preserve" text-anchor="middle" x="303.78" y="-35.33" font-family="Helvetica,sans-Serif" font-size="14.00" fill="#102027">1</text>
</g>
<!-- m0&#45;&gt;m1 -->
<g id="edge2" class="edge">
<title>m0&#45;&gt;m1</title>
<path fill="none" stroke="#607d8b" stroke-width="1.3" d="M191.78,-61.54C197.63,-59.39 204.34,-57.13 210.58,-55.5 231.38,-50.08 255.34,-46.12 273.62,-43.56"/>
<polygon fill="#607d8b" stroke="#607d8b" stroke-width="1.3" points="273.86,-47.06 283.31,-42.27 272.93,-40.12 273.86,-47.06"/>
<text xml:space="preserve" text-anchor="middle" x="228.21" y="-58.55" font-family="Helvetica,sans-Serif" font-size="11.00" fill="#37474f">a / 1.0</text>
</g>
<!-- m2 -->
<g id="node3" class="node">
<title>m2</title>
<ellipse fill="#fff59d" stroke="#f9a825" stroke-width="1.4" cx="303.78" cy="-98" rx="18" ry="18"/>
<text xml:space="preserve" text-anchor="middle" x="303.78" y="-93.33" font-family="Helvetica,sans-Serif" font-size="14.00" fill="#102027">2</text>
</g>
<!-- m0&#45;&gt;m2 -->
<g id="edge3" class="edge">
<title>m0&#45;&gt;m2</title>
<path fill="none" stroke="#607d8b" stroke-width="1.3" d="M192.74,-72.05C213.72,-76.99 249.52,-85.44 274.58,-91.35"/>
<polygon fill="#607d8b" stroke="#607d8b" stroke-width="1.3" points="273.45,-94.68 283.99,-93.57 275.06,-87.86 273.45,-94.68"/>
<text xml:space="preserve" text-anchor="middle" x="228.21" y="-86.95" font-family="Helvetica,sans-Serif" font-size="11.00" fill="#37474f">c / 1.0</text>
</g>
<!-- m3 -->
<g id="node4" class="node">
<title>m3</title>
<ellipse fill="#c8e6c9" stroke="#2e7d32" stroke-width="1.4" cx="458.94" cy="-38" rx="18" ry="18"/>
<ellipse fill="none" stroke="#2e7d32" stroke-width="1.4" cx="458.94" cy="-38" rx="22" ry="22"/>
<text xml:space="preserve" text-anchor="middle" x="458.94" y="-33.33" font-family="Helvetica,sans-Serif" font-size="14.00" fill="#102027">3</text>
</g>
<!-- m1&#45;&gt;m3 -->
<g id="edge4" class="edge">
<title>m1&#45;&gt;m3</title>
<path fill="none" stroke="#607d8b" stroke-width="1.3" d="M322.35,-39.77C347.25,-39.45 393.28,-38.84 424.73,-38.43"/>
<polygon fill="#607d8b" stroke="#607d8b" stroke-width="1.3" points="424.49,-41.94 434.44,-38.31 424.39,-34.94 424.49,-41.94"/>
<text xml:space="preserve" text-anchor="middle" x="379.36" y="-42.29" font-family="Helvetica,sans-Serif" font-size="11.00" fill="#37474f">b / 1.0</text>
</g>
<!-- m4 -->
<g id="node5" class="node">
<title>m4</title>
<ellipse fill="#c8e6c9" stroke="#2e7d32" stroke-width="1.4" cx="458.94" cy="-100" rx="18" ry="18"/>
<ellipse fill="none" stroke="#2e7d32" stroke-width="1.4" cx="458.94" cy="-100" rx="22" ry="22"/>
<text xml:space="preserve" text-anchor="middle" x="458.94" y="-95.33" font-family="Helvetica,sans-Serif" font-size="14.00" fill="#102027">4</text>
</g>
<!-- m2&#45;&gt;m4 -->
<g id="edge5" class="edge">
<title>m2&#45;&gt;m4</title>
<path fill="none" stroke="#607d8b" stroke-width="1.3" d="M322.35,-98.23C347.25,-98.55 393.28,-99.16 424.73,-99.57"/>
<polygon fill="#607d8b" stroke="#607d8b" stroke-width="1.3" points="424.39,-103.06 434.44,-99.69 424.49,-96.06 424.39,-103.06"/>
<text xml:space="preserve" text-anchor="middle" x="379.36" y="-102.23" font-family="Helvetica,sans-Serif" font-size="11.00" fill="#37474f">b / 1.0</text>
</g>
<!-- s0 -->
<g id="node6" class="node">
<title>s0</title>
<ellipse fill="#bbdefb" stroke="#1565c0" stroke-width="1.4" cx="119.22" cy="-68" rx="0.36" ry="0.36"/>
</g>
<!-- s0&#45;&gt;m0 -->
<g id="edge1" class="edge">
<title>s0&#45;&gt;m0</title>
<path fill="none" stroke="#607d8b" stroke-width="1.3" d="M120.19,-68C122.78,-68 133.26,-68 144.26,-68"/>
<polygon fill="#607d8b" stroke="#607d8b" stroke-width="1.3" points="144.08,-71.5 154.08,-68 144.08,-64.5 144.08,-71.5"/>
</g>
<!-- q0 -->
<g id="node7" class="node">
<title>q0</title>
<ellipse fill="#bbdefb" stroke="#1565c0" stroke-width="1.4" cx="174.58" cy="-216" rx="18" ry="18"/>
<text xml:space="preserve" text-anchor="middle" x="174.58" y="-211.32" font-family="Helvetica,sans-Serif" font-size="14.00" fill="#102027">0</text>
</g>
<!-- qA -->
<g id="node8" class="node">
<title>qA</title>
<ellipse fill="#fff59d" stroke="#f9a825" stroke-width="1.4" cx="303.78" cy="-215" rx="39.95" ry="39.95"/>
<text xml:space="preserve" text-anchor="middle" x="303.78" y="-218.95" font-family="Helvetica,sans-Serif" font-size="14.00" fill="#102027">A</text>
<text xml:space="preserve" text-anchor="middle" x="303.78" y="-201.7" font-family="Helvetica,sans-Serif" font-size="14.00" fill="#102027">{1,2}</text>
</g>
<!-- q0&#45;&gt;qA -->
<g id="edge7" class="edge">
<title>q0&#45;&gt;qA</title>
<path fill="none" stroke="#607d8b" stroke-width="1.3" d="M190.74,-207.07C196.71,-204.04 203.76,-201.03 210.58,-199.5 224.57,-196.37 239.87,-197.24 253.92,-199.73"/>
<polygon fill="#607d8b" stroke="#607d8b" stroke-width="1.3" points="252.94,-203.1 263.45,-201.74 254.38,-196.25 252.94,-203.1"/>
<text xml:space="preserve" text-anchor="middle" x="228.21" y="-202.55" font-family="Helvetica,sans-Serif" font-size="11.00" fill="#37474f">a / 1.0</text>
</g>
<!-- q0&#45;&gt;qA -->
<g id="edge8" class="edge">
<title>q0&#45;&gt;qA</title>
<path fill="none" stroke="#b0bec5" stroke-width="1.3" d="M193.27,-215.86C208.33,-215.74 230.76,-215.57 251.4,-215.4"/>
<polygon fill="#b0bec5" stroke="#b0bec5" stroke-width="1.3" points="251.34,-218.9 261.31,-215.33 251.28,-211.9 251.34,-218.9"/>
<text xml:space="preserve" text-anchor="middle" x="228.21" y="-218.75" font-family="Helvetica,sans-Serif" font-size="11.00" fill="#37474f">c / 1.0</text>
</g>
<!-- qB -->
<g id="node9" class="node">
<title>qB</title>
<ellipse fill="#c8e6c9" stroke="#2e7d32" stroke-width="1.4" cx="458.94" cy="-215" rx="39.95" ry="39.95"/>
<ellipse fill="none" stroke="#2e7d32" stroke-width="1.4" cx="458.94" cy="-215" rx="43.95" ry="43.95"/>
<text xml:space="preserve" text-anchor="middle" x="458.94" y="-218.95" font-family="Helvetica,sans-Serif" font-size="14.00" fill="#102027">B</text>
<text xml:space="preserve" text-anchor="middle" x="458.94" y="-201.7" font-family="Helvetica,sans-Serif" font-size="14.00" fill="#102027">{3,4}</text>
</g>
<!-- qA&#45;&gt;qB -->
<g id="edge9" class="edge">
<title>qA&#45;&gt;qB</title>
<path fill="none" stroke="#2e7d32" stroke-width="2" d="M344.22,-215C361.65,-215 382.46,-215 401.49,-215"/>
<polygon fill="#2e7d32" stroke="#2e7d32" stroke-width="2" points="401.29,-218.5 411.29,-215 401.29,-211.5 401.29,-218.5"/>
<text xml:space="preserve" text-anchor="middle" x="379.36" y="-218.05" font-family="Helvetica,sans-Serif" font-size="11.00" fill="#1b5e20">b / 1.0</text>
</g>
<!-- sq -->
<g id="node10" class="node">
<title>sq</title>
<ellipse fill="#bbdefb" stroke="#1565c0" stroke-width="1.4" cx="119.22" cy="-216" rx="0.36" ry="0.36"/>
</g>
<!-- sq&#45;&gt;q0 -->
<g id="edge6" class="edge">
<title>sq&#45;&gt;q0</title>
<path fill="none" stroke="#607d8b" stroke-width="1.3" d="M120.19,-216C122.78,-216 133.26,-216 144.26,-216"/>
<polygon fill="#607d8b" stroke="#607d8b" stroke-width="1.3" points="144.08,-219.5 154.08,-216 144.08,-212.5 144.08,-219.5"/>
</g>
</g>
</svg>
