<?xml version="1.0" encoding="UTF-8" standalone="no"?>
<!DOCTYPE svg PUBLIC "-//W3C//DTD SVG 1.1//EN"
 "http://www.w3.org/Graphics/SVG/1.1/DTD/svg11.dtd">
<!-- Generated by graphviz version 14.1.5 (0)
 -->
<!-- Title: nbest_beam Pages: 1 -->
<svg width="780pt" height="105pt"
 viewBox="0.00 0.00 780.00 105.00" xmlns="http://www.w3.org/2000/svg" xmlns:xlink="http://www.w3.org/1999/xlink">
<g id="graph0" class="graph" transform="scale(1 1) rotate(0) translate(4 100.5)">
<title>nbest_beam</title>
<polygon fill="#ffffff" stroke="none" points="-4,4 -4,-100.5 776,-100.5 776,4 -4,4"/>
<text xml:space="preserve" text-anchor="start" x="23.38" y="-81.15" font-family="Helvetica,sans-Serif" font-weight="bold" font-size="13.00">N&#45;best / beam over a lattice</text>
<text xml:space="preserve" text-anchor="start" x="227.38" y="-81.15" font-family="Helvetica,sans-Serif" font-size="13.00"> — green = Viterbi best; amber dashed = beam frontier keeping top&#45;B partials</text>
<!-- n0 -->
<g id="node1" class="node">
<title>n0</title>
<ellipse fill="#bbdefb" stroke="#1565c0" stroke-width="1.4" cx="243.5" cy="-18" rx="18" ry="18"/>
<text xml:space="preserve" text-anchor="middle" x="243.5" y="-13.32" font-family="Helvetica,sans-Serif" font-size="14.00" fill="#102027">0</text>
</g>
<!-- n1 -->
<g id="node2" class="node">
<title>n1</title>
<ellipse fill="#bbdefb" stroke="#1565c0" stroke-width="1.4" cx="362" cy="-18" rx="18" ry="18"/>
<text xml:space="preserve" text-anchor="middle" x="362" y="-13.32" font-family="Helvetica,sans-Serif" font-size="14.00" fill="#102027">1</text>
</g>
<!-- n0&#45;&gt;n1 -->
<g id="edge2" class="edge">
<title>n0&#45;&gt;n1</title>
<path fill="none" stroke="#2e7d32" stroke-width="2" d="M261.89,-20.98C267.5,-21.81 273.74,-22.59 279.5,-23 300.11,-24.47 305.39,-24.47 326,-23 327.62,-22.88 329.28,-22.74 330.95,-22.57"/>
<polygon fill="#2e7d32" stroke="#2e7d32" stroke-width="2" points="331.12,-26.08 340.6,-21.36 330.24,-19.13 331.12,-26.08"/>
<text xml:space="preserve" text-anchor="middle" x="302.75" y="-27.15" font-family="Helvetica,sans-Serif" font-size="11.00" fill="#1b5e20">the / 0.2</text>
</g>
<!-- n0&#45;&gt;n1 -->
<g id="edge6" class="edge">
<title>n0&#45;&gt;n1</title>
<path fill="none" stroke="#b0bec5" stroke-width="1.3" d="M260.57,-10.96C266.41,-8.75 273.14,-6.6 279.5,-5.5 299.86,-1.97 305.64,-1.97 326,-5.5 328.58,-5.95 331.23,-6.57 333.85,-7.29"/>
<polygon fill="#b0bec5" stroke="#b0bec5" stroke-width="1.3" points="332.47,-10.52 343.06,-10.34 334.67,-3.88 332.47,-10.52"/>
<text xml:space="preserve" text-anchor="middle" x="302.75" y="-8.55" font-family="Helvetica,sans-Serif" font-size="11.00" fill="#37474f">teh / 0.9</text>
</g>
<!-- n2 -->
<g id="node3" class="node">
<title>n2</title>
<ellipse fill="#bbdefb" stroke="#1565c0" stroke-width="1.4" cx="491" cy="-26" rx="18" ry="18"/>
<text xml:space="preserve" text-anchor="middle" x="491" y="-21.32" font-family="Helvetica,sans-Serif" font-size="14.00" fill="#102027">2</text>
</g>
<!-- n1&#45;&gt;n2 -->
<g id="edge3" class="edge">
<title>n1&#45;&gt;n2</title>
<path fill="none" stroke="#2e7d32" stroke-width="2" d="M380.4,-20.87C386.01,-21.69 392.25,-22.5 398,-23 418.45,-24.79 441.54,-25.54 459.48,-25.84"/>
<polygon fill="#2e7d32" stroke="#2e7d32" stroke-width="2" points="459.26,-29.34 469.3,-25.96 459.35,-22.34 459.26,-29.34"/>
<text xml:space="preserve" text-anchor="middle" x="426.5" y="-28.8" font-family="Helvetica,sans-Serif" font-size="11.00" fill="#1b5e20">quick / 0.3</text>
</g>
<!-- n1&#45;&gt;n2 -->
<g id="edge7" class="edge">
<title>n1&#45;&gt;n2</title>
<path fill="none" stroke="#b0bec5" stroke-width="1.3" d="M379.07,-10.96C384.91,-8.75 391.64,-6.6 398,-5.5 422.96,-1.18 430.55,1.13 455,-5.5 458.56,-6.46 462.12,-7.89 465.54,-9.55"/>
<polygon fill="#b0bec5" stroke="#b0bec5" stroke-width="1.3" points="463.65,-12.5 474.08,-14.39 467.11,-6.42 463.65,-12.5"/>
<text xml:space="preserve" text-anchor="middle" x="426.5" y="-8.55" font-family="Helvetica,sans-Serif" font-size="11.00" fill="#37474f">quik / 0.8</text>
</g>
<!-- n3 -->
<g id="node4" class="node">
<title>n3</title>
<ellipse fill="#bbdefb" stroke="#1565c0" stroke-width="1.4" cx="625.25" cy="-26" rx="18" ry="18"/>
<text xml:space="preserve" text-anchor="middle" x="625.25" y="-21.32" font-family="Helvetica,sans-Serif" font-size="14.00" fill="#102027">3</text>
</g>
<!-- n2&#45;&gt;n3 -->
<g id="edge4" class="edge">
<title>n2&#45;&gt;n3</title>
<path fill="none" stroke="#2e7d32" stroke-width="2" d="M509.56,-26C531,-26 567.63,-26 593.72,-26"/>
<polygon fill="#2e7d32" stroke="#2e7d32" stroke-width="2" points="593.59,-29.5 603.59,-26 593.59,-22.5 593.59,-29.5"/>
<text xml:space="preserve" text-anchor="middle" x="558.12" y="-29.05" font-family="Helvetica,sans-Serif" font-size="11.00" fill="#1b5e20">brown / 0.1</text>
</g>
<!-- n2&#45;&gt;n3 -->
<g id="edge8" class="edge">
<title>n2&#45;&gt;n3</title>
<path fill="none" stroke="#b0bec5" stroke-width="1.3" d="M507.09,-16.53C513.06,-13.32 520.12,-10.12 527,-8.5 553.93,-2.14 562.32,-2.14 589.25,-8.5 592.37,-9.24 595.52,-10.29 598.59,-11.53"/>
<polygon fill="#b0bec5" stroke="#b0bec5" stroke-width="1.3" points="596.84,-14.57 607.38,-15.69 599.84,-8.25 596.84,-14.57"/>
<text xml:space="preserve" text-anchor="middle" x="558.12" y="-11.55" font-family="Helvetica,sans-Serif" font-size="11.00" fill="#37474f">brow / 0.7</text>
</g>
<!-- n4 -->
<g id="node5" class="node">
<title>n4</title>
<ellipse fill="#c8e6c9" stroke="#2e7d32" stroke-width="1.4" cx="750" cy="-26" rx="18" ry="18"/>
<ellipse fill="none" stroke="#2e7d32" stroke-width="1.4" cx="750" cy="-26" rx="22" ry="22"/>
<text xml:space="preserve" text-anchor="middle" x="750" y="-21.32" font-family="Helvetica,sans-Serif" font-size="14.00" fill="#102027">4</text>
</g>
<!-- n3&#45;&gt;n4 -->
<g id="edge5" class="edge">
<title>n3&#45;&gt;n4</title>
<path fill="none" stroke="#2e7d32" stroke-width="2" d="M643.84,-26C662.15,-26 691.31,-26 714.29,-26"/>
<polygon fill="#2e7d32" stroke="#2e7d32" stroke-width="2" points="714.28,-29.5 724.28,-26 714.28,-22.5 714.28,-29.5"/>
<text xml:space="preserve" text-anchor="middle" x="685.62" y="-29.05" font-family="Helvetica,sans-Serif" font-size="11.00" fill="#1b5e20">fox / 0.2</text>
</g>
<!-- n3&#45;&gt;n4 -->
<g id="edge9" class="edge">
<title>n3&#45;&gt;n4</title>
<path fill="none" stroke="#b0bec5" stroke-width="1.3" d="M641.34,-16.53C647.31,-13.32 654.37,-10.12 661.25,-8.5 682.34,-3.52 688.81,-3.96 710,-8.5 713.09,-9.16 716.23,-10.09 719.32,-11.17"/>
<polygon fill="#b0bec5" stroke="#b0bec5" stroke-width="1.3" points="717.71,-14.29 728.29,-14.85 720.37,-7.82 717.71,-14.29"/>
<text xml:space="preserve" text-anchor="middle" x="685.62" y="-11.55" font-family="Helvetica,sans-Serif" font-size="11.00" fill="#37474f">box / 0.9</text>
</g>
<!-- s0 -->
<g id="node6" class="node">
<title>s0</title>
<ellipse fill="#bbdefb" stroke="#1565c0" stroke-width="1.4" cx="94.25" cy="-18" rx="0.36" ry="0.36"/>
</g>
<!-- s0&#45;&gt;n0 -->
<g id="edge1" class="edge">
<title>s0&#45;&gt;n0</title>
<path fill="none" stroke="#607d8b" stroke-width="1.3" d="M95.36,-18C98.51,-18 170.96,-18 213,-18"/>
<polygon fill="#607d8b" stroke="#607d8b" stroke-width="1.3" points="212.99,-21.5 222.99,-18 212.99,-14.5 212.99,-21.5"/>
</g>
<!-- frontier -->
<g id="node7" class="node">
<title>frontier</title>
<polygon fill="#bbdefb" stroke="none" stroke-width="1.4" points="188.5,-72 0,-72 0,-36 188.5,-36 188.5,-72"/>
<text xml:space="preserve" text-anchor="start" x="15.12" y="-55.7" font-family="Helvetica,sans-Serif" font-weight="bold" font-size="14.00" fill="#f9a825">beam frontier (B=2)</text>
<text xml:space="preserve" text-anchor="start" x="8" y="-41.7" font-family="Helvetica,sans-Serif" font-style="italic" font-size="14.00" fill="#f9a825">rank partials, keep top&#45;B</text>
</g>
<!-- frontier&#45;&gt;n2 -->
<g id="edge10" class="edge">
<title>frontier&#45;&gt;n2</title>
<path fill="none" stroke="#f9a825" stroke-width="1.3" stroke-dasharray="5,2" d="M188.37,-61.73C261.86,-65.32 366.42,-64.81 455,-43 461.82,-41.32 468.88,-38.2 474.85,-35.09"/>
</g>
</g>
</svg>
