<?xml version="1.0" encoding="UTF-8" standalone="no"?>
<!DOCTYPE svg PUBLIC "-//W3C//DTD SVG 1.1//EN"
 "http://www.w3.org/Graphics/SVG/1.1/DTD/svg11.dtd">
<!-- Generated by graphviz version 14.1.5 (0)
 -->
<!-- Title: path_sampling Pages: 1 -->
<svg width="669pt" height="194pt"
 viewBox="0.00 0.00 669.00 194.00" xmlns="http://www.w3.org/2000/svg" xmlns:xlink="http://www.w3.org/1999/xlink">
<g id="graph0" class="graph" transform="scale(1 1) rotate(0) translate(4 190.37)">
<title>path_sampling</title>
<polygon fill="#ffffff" stroke="none" points="-4,4 -4,-190.37 665,-190.37 665,4 -4,4"/>
<text xml:space="preserve" text-anchor="start" x="8" y="-171.02" font-family="Helvetica,sans-Serif" font-weight="bold" font-size="13.00">Forward path sampling</text>
<text xml:space="preserve" text-anchor="start" x="176.75" y="-171.02" font-family="Helvetica,sans-Serif" font-size="13.00"> — random walk drawing each arc ∝ weight; green = one sampled path</text>
<!-- q0 -->
<g id="node1" class="node">
<title>q0</title>
<ellipse fill="#bbdefb" stroke="#1565c0" stroke-width="1.4" cx="355.62" cy="-80" rx="18" ry="18"/>
<text xml:space="preserve" text-anchor="middle" x="355.62" y="-75.33" font-family="Helvetica,sans-Serif" font-size="14.00" fill="#102027">0</text>
</g>
<!-- q1 -->
<g id="node2" class="node">
<title>q1</title>
<ellipse fill="#bbdefb" stroke="#1565c0" stroke-width="1.4" cx="486.12" cy="-130" rx="18" ry="18"/>
<text xml:space="preserve" text-anchor="middle" x="486.12" y="-125.33" font-family="Helvetica,sans-Serif" font-size="14.00" fill="#102027">1</text>
</g>
<!-- q0&#45;&gt;q1 -->
<g id="edge2" class="edge">
<title>q0&#45;&gt;q1</title>
<path fill="none" stroke="#2e7d32" stroke-width="2" d="M372.99,-86.6C378.86,-88.95 385.53,-91.61 391.62,-94 413.36,-102.53 438.01,-112.01 456.54,-119.1"/>
<polygon fill="#2e7d32" stroke="#2e7d32" stroke-width="2" points="455.13,-122.31 465.72,-122.61 457.63,-115.77 455.13,-122.31"/>
<text xml:space="preserve" text-anchor="middle" x="417.12" y="-116.75" font-family="Helvetica,sans-Serif" font-size="11.00" fill="#1b5e20">a / P=0.3</text>
</g>
<!-- q2 -->
<g id="node3" class="node">
<title>q2</title>
<ellipse fill="#c8e6c9" stroke="#2e7d32" stroke-width="1.4" cx="620.62" cy="-96" rx="18" ry="18"/>
<ellipse fill="none" stroke="#2e7d32" stroke-width="1.4" cx="620.62" cy="-96" rx="22" ry="22"/>
<text xml:space="preserve" text-anchor="middle" x="620.62" y="-91.33" font-family="Helvetica,sans-Serif" font-size="14.00" fill="#102027">2</text>
</g>
<!-- q0&#45;&gt;q2 -->
<g id="edge3" class="edge">
<title>q0&#45;&gt;q2</title>
<path fill="none" stroke="#b0bec5" stroke-width="1.3" d="M374.29,-81.07C417.65,-83.71 529.92,-90.54 586.29,-93.97"/>
<polygon fill="#b0bec5" stroke="#b0bec5" stroke-width="1.3" points="585.91,-97.46 596.11,-94.57 586.34,-90.47 585.91,-97.46"/>
<text xml:space="preserve" text-anchor="middle" x="486.12" y="-92.38" font-family="Helvetica,sans-Serif" font-size="11.00" fill="#37474f">b / P=0.5</text>
</g>
<!-- q3 -->
<g id="node4" class="node">
<title>q3</title>
<ellipse fill="#c8e6c9" stroke="#2e7d32" stroke-width="1.4" cx="486.12" cy="-22" rx="18" ry="18"/>
<ellipse fill="none" stroke="#2e7d32" stroke-width="1.4" cx="486.12" cy="-22" rx="22" ry="22"/>
<text xml:space="preserve" text-anchor="middle" x="486.12" y="-17.32" font-family="Helvetica,sans-Serif" font-size="14.00" fill="#102027">3</text>
</g>
<!-- q0&#45;&gt;q3 -->
<g id="edge4" class="edge">
<title>q0&#45;&gt;q3</title>
<path fill="none" stroke="#b0bec5" stroke-width="1.3" d="M369.81,-67.83C376.06,-62.56 383.85,-56.65 391.62,-52.5 410.9,-42.2 434.27,-34.58 452.82,-29.53"/>
<polygon fill="#b0bec5" stroke="#b0bec5" stroke-width="1.3" points="453.51,-32.97 462.32,-27.07 451.76,-26.19 453.51,-32.97"/>
<text xml:space="preserve" text-anchor="middle" x="417.12" y="-55.55" font-family="Helvetica,sans-Serif" font-size="11.00" fill="#37474f">c / P=0.2</text>
</g>
<!-- q1&#45;&gt;q2 -->
<g id="edge5" class="edge">
<title>q1&#45;&gt;q2</title>
<path fill="none" stroke="#2e7d32" stroke-width="2" d="M504.18,-125.62C524.86,-120.32 560.22,-111.24 586.36,-104.53"/>
<polygon fill="#2e7d32" stroke="#2e7d32" stroke-width="2" points="586.97,-107.99 595.78,-102.12 585.23,-101.21 586.97,-107.99"/>
<text xml:space="preserve" text-anchor="middle" x="555.12" y="-122.05" font-family="Helvetica,sans-Serif" font-size="11.00" fill="#1b5e20">d / P=1.0</text>
</g>
<!-- s0 -->
<g id="node5" class="node">
<title>s0</title>
<ellipse fill="#bbdefb" stroke="#1565c0" stroke-width="1.4" cx="159.5" cy="-80" rx="0.36" ry="0.36"/>
</g>
<!-- s0&#45;&gt;q0 -->
<g id="edge1" class="edge">
<title>s0&#45;&gt;q0</title>
<path fill="none" stroke="#607d8b" stroke-width="1.3" d="M160.64,-80C165.05,-80 272.14,-80 325.27,-80"/>
<polygon fill="#607d8b" stroke="#607d8b" stroke-width="1.3" points="325.26,-83.5 335.26,-80 325.26,-76.5 325.26,-83.5"/>
</g>
<!-- stop -->
<g id="node6" class="node">
<title>stop</title>
<polygon fill="#bbdefb" stroke="none" stroke-width="1.4" points="300.62,-134 18.38,-134 18.38,-98 300.62,-98 300.62,-134"/>
<text xml:space="preserve" text-anchor="start" x="26.38" y="-112.33" font-family="Helvetica,sans-Serif" font-weight="bold" font-size="14.00" fill="#2e7d32">stop?</text>
<text xml:space="preserve" text-anchor="start" x="69.12" y="-112.33" font-family="Helvetica,sans-Serif" font-size="14.00" fill="#2e7d32"> P(stop)=ρ ∕ (ρ ⊕ Σ out&#45;weights)</text>
</g>
<!-- stop&#45;&gt;q2 -->
<g id="edge6" class="edge">
<title>stop&#45;&gt;q2</title>
<path fill="none" stroke="#2e7d32" stroke-width="1.3" stroke-dasharray="1,5" d="M226.96,-133.95C297.67,-150.66 412.73,-171.04 511.62,-157 543.24,-152.51 553.34,-153.59 580.62,-137 590.53,-130.98 599.59,-121.8 606.48,-113.65"/>
</g>
</g>
</svg>
