<svg xmlns="http://www.w3.org/2000/svg" xmlns:xlink="http://www.w3.org/1999/xlink" contentStyleType="text/css" data-diagram-type="ACTIVITY" height="492px" preserveAspectRatio="none" style="width:582px;height:492px;background:#FFFFFF;" version="1.1" viewBox="0 0 582 492" width="582px" zoomAndPan="magnify"><?plantuml $version$?><defs/><g><g class="title" data-source-line="18"><text fill="#000000" font-family="sans-serif" font-size="14" font-weight="700" lengthAdjust="spacing" textLength="183.4973" x="198.3049" y="34.9659">Queue-discipline selection</text><text fill="#000000" font-family="sans-serif" font-size="11" font-style="italic" font-weight="700" lengthAdjust="spacing" textLength="339.4893" x="120.3089" y="50.8268">single-source shortest-distance: structure + semiring &#8594; discipline</text></g><rect fill="#FFFFCC" height="18.62" rx="2.5" ry="2.5" style="stroke:#FFDD88;stroke-width:3;" width="551.1071" x="13" y="68.0498"/><text fill="#000000" font-family="monospace" font-size="10" lengthAdjust="spacing" textLength="534" x="20" y="80.6698">This&#160;syntax&#160;is&#160;deprecated,&#160;you&#160;must&#160;add&#160;&lt;&lt;#C8E6C9&gt;&gt;&#160;at&#160;the&#160;end&#160;of&#160;the&#160;line,&#160;after&#160;the&#160;';'</text><ellipse cx="238.7498" cy="103.6698" fill="#222222" rx="10" ry="10" style="stroke:#222222;stroke-width:1;"/><polygon fill="#FFF59D" points="202.7635,133.6698,274.736,133.6698,286.736,145.6698,274.736,157.6698,202.7635,157.6698,190.7635,145.6698,202.7635,133.6698" style="stroke:#F9A825;stroke-width:0.5;stroke-linejoin:miter;stroke-miterlimit:10;"/><text fill="#5D4037" font-family="sans-serif" font-size="11" lengthAdjust="spacing" textLength="71.9725" x="202.7635" y="149.9378">graph acyclic?</text><text fill="#000000" font-family="sans-serif" font-size="11" lengthAdjust="spacing" textLength="17.0829" x="173.6807" y="142.4468">yes</text><text fill="#000000" font-family="sans-serif" font-size="11" lengthAdjust="spacing" textLength="13.4529" x="286.736" y="142.4468">no</text><rect fill="#BBDEFB" height="69.0323" rx="12.5" ry="12.5" style="stroke:#1565C0;stroke-width:0.5;" width="154.773" x="16" y="167.6698"/><text fill="#102027" font-family="sans-serif" font-size="12" font-weight="700" lengthAdjust="spacing" textLength="109.3447" x="38.7141" y="190.4979">Topological queue</text><text fill="#102027" font-family="sans-serif" font-size="12" lengthAdjust="spacing" textLength="134.773" x="26" y="206.842">process each state once</text><text fill="#102027" font-family="sans-serif" font-size="12" lengthAdjust="spacing" textLength="69.7203" x="58.5263" y="223.1861">O(&#8739;Q&#8739; + &#8739;E&#8739;)</text><ellipse cx="93.3865" cy="282.7021" fill="none" rx="11" ry="11" style="stroke:#222222;stroke-width:1;"/><ellipse cx="93.3865" cy="282.7021" fill="#222222" rx="6" ry="6" style="stroke:#222222;stroke-width:1;"/><polygon fill="#FFF59D" points="314.5056,167.6698,453.7206,167.6698,465.7206,179.6698,453.7206,191.6698,314.5056,191.6698,302.5056,179.6698,314.5056,167.6698" style="stroke:#F9A825;stroke-width:0.5;stroke-linejoin:miter;stroke-miterlimit:10;"/><text fill="#5D4037" font-family="sans-serif" font-size="11" lengthAdjust="spacing" textLength="139.215" x="314.5056" y="183.9378">tropical + nonneg weights?</text><text fill="#000000" font-family="sans-serif" font-size="11" lengthAdjust="spacing" textLength="17.0829" x="285.4227" y="176.4468">yes</text><text fill="#000000" font-family="sans-serif" font-size="11" lengthAdjust="spacing" textLength="13.4529" x="465.7206" y="176.4468">no</text><rect fill="#BBDEFB" height="69.0323" rx="12.5" ry="12.5" style="stroke:#1565C0;stroke-width:0.5;" width="176.0131" x="200.773" y="201.6698"/><text fill="#102027" font-family="sans-serif" font-size="12" font-weight="700" lengthAdjust="spacing" textLength="137.977" x="219.791" y="224.4979">Shortest-first (Dijkstra)</text><text fill="#102027" font-family="sans-serif" font-size="12" lengthAdjust="spacing" textLength="156.0131" x="210.773" y="240.842">min-distance priority queue</text><text fill="#102027" font-family="sans-serif" font-size="12" lengthAdjust="spacing" textLength="115.0686" x="231.2452" y="257.1861">O(&#8739;E&#8739; + &#8739;Q&#8739; log &#8739;Q&#8739;)</text><ellipse cx="288.7795" cy="316.7021" fill="none" rx="11" ry="11" style="stroke:#222222;stroke-width:1;"/><ellipse cx="288.7795" cy="316.7021" fill="#222222" rx="6" ry="6" style="stroke:#222222;stroke-width:1;"/><rect fill="#BBDEFB" height="69.0323" rx="12.5" ry="12.5" style="stroke:#1565C0;stroke-width:0.5;" width="165.3211" x="396.7861" y="201.6698"/><text fill="#102027" font-family="sans-serif" font-size="12" font-weight="700" lengthAdjust="spacing" textLength="67.9685" x="445.4624" y="224.4979">FIFO queue</text><text fill="#102027" font-family="sans-serif" font-size="12" lengthAdjust="spacing" textLength="145.3211" x="406.7861" y="240.842">general k-closed semiring</text><text fill="#102027" font-family="sans-serif" font-size="12" lengthAdjust="spacing" textLength="52.2843" x="453.3045" y="257.1861">O(C &#183; &#8739;E&#8739;)</text><ellipse cx="479.4466" cy="316.7021" fill="none" rx="11" ry="11" style="stroke:#222222;stroke-width:1;"/><ellipse cx="479.4466" cy="316.7021" fill="#222222" rx="6" ry="6" style="stroke:#222222;stroke-width:1;"/><line style="stroke:#607D8B;stroke-width:1.3;" x1="93.3865" x2="93.3865" y1="236.7021" y2="271.7021"/><polygon fill="#607D8B" points="89.3865,261.7021,93.3865,271.7021,97.3865,261.7021,93.3865,265.7021" style="stroke:#607D8B;stroke-width:1;stroke-linejoin:miter;stroke-miterlimit:10;"/><line style="stroke:#607D8B;stroke-width:1.3;" x1="288.7795" x2="288.7795" y1="270.7021" y2="305.7021"/><polygon fill="#607D8B" points="284.7795,295.7021,288.7795,305.7021,292.7795,295.7021,288.7795,299.7021" style="stroke:#607D8B;stroke-width:1;stroke-linejoin:miter;stroke-miterlimit:10;"/><line style="stroke:#607D8B;stroke-width:1.3;" x1="479.4466" x2="479.4466" y1="270.7021" y2="305.7021"/><polygon fill="#607D8B" points="475.4466,295.7021,479.4466,305.7021,483.4466,295.7021,479.4466,299.7021" style="stroke:#607D8B;stroke-width:1;stroke-linejoin:miter;stroke-miterlimit:10;"/><line style="stroke:#607D8B;stroke-width:1.3;" x1="302.5056" x2="288.7795" y1="179.6698" y2="179.6698"/><line style="stroke:#607D8B;stroke-width:1.3;" x1="288.7795" x2="288.7795" y1="179.6698" y2="201.6698"/><polygon fill="#607D8B" points="284.7795,191.6698,288.7795,201.6698,292.7795,191.6698,288.7795,195.6698" style="stroke:#607D8B;stroke-width:1;stroke-linejoin:miter;stroke-miterlimit:10;"/><line style="stroke:#607D8B;stroke-width:1.3;" x1="465.7206" x2="479.4466" y1="179.6698" y2="179.6698"/><line style="stroke:#607D8B;stroke-width:1.3;" x1="479.4466" x2="479.4466" y1="179.6698" y2="201.6698"/><polygon fill="#607D8B" points="475.4466,191.6698,479.4466,201.6698,483.4466,191.6698,479.4466,195.6698" style="stroke:#607D8B;stroke-width:1;stroke-linejoin:miter;stroke-miterlimit:10;"/><line style="stroke:#607D8B;stroke-width:1.3;" x1="190.7635" x2="93.3865" y1="145.6698" y2="145.6698"/><line style="stroke:#607D8B;stroke-width:1.3;" x1="93.3865" x2="93.3865" y1="145.6698" y2="167.6698"/><polygon fill="#607D8B" points="89.3865,157.6698,93.3865,167.6698,97.3865,157.6698,93.3865,161.6698" style="stroke:#607D8B;stroke-width:1;stroke-linejoin:miter;stroke-miterlimit:10;"/><line style="stroke:#607D8B;stroke-width:1.3;" x1="286.736" x2="384.1131" y1="145.6698" y2="145.6698"/><line style="stroke:#607D8B;stroke-width:1.3;" x1="384.1131" x2="384.1131" y1="145.6698" y2="167.6698"/><polygon fill="#607D8B" points="380.1131,157.6698,384.1131,167.6698,388.1131,157.6698,384.1131,161.6698" style="stroke:#607D8B;stroke-width:1;stroke-linejoin:miter;stroke-miterlimit:10;"/><line style="stroke:#607D8B;stroke-width:1.3;" x1="238.7498" x2="238.7498" y1="113.6698" y2="133.6698"/><polygon fill="#607D8B" points="234.7498,123.6698,238.7498,133.6698,242.7498,123.6698,238.7498,127.6698" style="stroke:#607D8B;stroke-width:1;stroke-linejoin:miter;stroke-miterlimit:10;"/><g class="legend" data-source-line="34"><rect fill="none" height="119.3396" rx="7.5" ry="7.5" style="stroke:#000000;stroke-width:1;" width="357.8007" x="200.3065" y="348.7021"/><text fill="#000000" font-family="sans-serif" font-size="14" lengthAdjust="spacing" textLength="63.2517" x="284.7212" y="370.6681">Discipline</text><text fill="#000000" font-family="sans-serif" font-size="14" lengthAdjust="spacing" textLength="38.2198" x="377.7788" y="370.6681">When</text><rect fill="#C8E6C9" height="19.0679" style="stroke:none;stroke-width:1;" width="93.0577" x="281.0812" y="374.7701"/><text fill="#000000" font-family="sans-serif" font-size="14" lengthAdjust="spacing" textLength="75.8237" x="284.7212" y="389.736">Topological</text><text fill="#000000" font-family="sans-serif" font-size="14" lengthAdjust="spacing" textLength="95.0596" x="377.7788" y="389.736">DAGs / lattices</text><rect fill="#C8E6C9" height="19.0679" style="stroke:none;stroke-width:1;" width="93.0577" x="281.0812" y="393.838"/><text fill="#000000" font-family="sans-serif" font-size="14" lengthAdjust="spacing" textLength="85.7777" x="284.7212" y="408.8039">Shortest-first</text><text fill="#000000" font-family="sans-serif" font-size="14" lengthAdjust="spacing" textLength="95.1281" x="377.7788" y="408.8039">tropical, w &#8805; 0</text><rect fill="#C8E6C9" height="19.0679" style="stroke:none;stroke-width:1;" width="93.0577" x="281.0812" y="412.9059"/><text fill="#000000" font-family="sans-serif" font-size="14" lengthAdjust="spacing" textLength="30.2119" x="284.7212" y="427.8718">FIFO</text><text fill="#000000" font-family="sans-serif" font-size="14" lengthAdjust="spacing" textLength="95.9136" x="377.7788" y="427.8718">cyclic, k-closed</text><line style="stroke:#000000;stroke-width:1;" x1="281.0812" x2="477.3324" y1="355.7021" y2="355.7021"/><line style="stroke:#000000;stroke-width:1;" x1="281.0812" x2="477.3324" y1="374.7701" y2="374.7701"/><line style="stroke:#000000;stroke-width:1;" x1="281.0812" x2="477.3324" y1="393.838" y2="393.838"/><line style="stroke:#000000;stroke-width:1;" x1="281.0812" x2="477.3324" y1="412.9059" y2="412.9059"/><line style="stroke:#000000;stroke-width:1;" x1="281.0812" x2="477.3324" y1="431.9738" y2="431.9738"/><line style="stroke:#000000;stroke-width:1;" x1="281.0812" x2="281.0812" y1="355.7021" y2="431.9738"/><line style="stroke:#000000;stroke-width:1;" x1="374.1388" x2="374.1388" y1="355.7021" y2="431.9738"/><line style="stroke:#000000;stroke-width:1;" x1="477.3324" x2="477.3324" y1="355.7021" y2="431.9738"/><line style="stroke:#000000;stroke-width:1;" x1="200.3065" x2="558.1071" y1="438.9738" y2="438.9738"/><text fill="#000000" font-family="sans-serif" font-size="14" lengthAdjust="spacing" textLength="347.8007" x="205.3065" y="458.9397">Auto picks Topological if a topo-sort exists, else FIFO.</text></g><?plantuml-src RLJBSjem5DtxA-vC5W4INad9Wp1q04EdYqwQDZFTP2FaYwqYIwuabz3IRQVTzXSw_ORk-odvabuP20uJprY0xlNHEUSUSmWXSc65LZ2JUW4pRI0JV2vK32v1i8as3gshHy8wfZZ2fnnp1Fh9HIQ5maPm21ETguWvGgbF9LMfrRWhO3BMHhWajVNO82fmQ5AXc2mzRgajdQA1QCF3Ui2tJA9ps8L8SzkC18iDIstptNWGlXatqgWHMAAOCTg5AUFps7W68os9_i6ak4eTDc6HNdX9CoOjbYeHpbWktItUku4KiKfHEU2qe2br3OpHYmtuMUiyl1Zk5syJyep4M6WtJaj5nftuBDmIlWO0mtsYms4udWnzHPi8pMQttJdhZ5gqEz7ARVTQ9wsJSzeB1KkrYeRFQEvSXgM6CkBaSd1nqjaLIy2Ty4Nhz3pu5WHEE8dGc_Pl_83hkmc1HOdS3xVNdFRlLC-ABzXjj_izqRTagiIwrRdXpuIbIqamENUvGJWYd5GOFuM7xxzA2UWrHR_NzA3z82YI4uWPL6ZYMK86BhaK_6NLfr51POcsIa8EHXVZiz5bjrQxrHafYGMdL1NHhDNkL6OqzyD0nXCVHeUWYSwTkguy_FXzGpVHeNLCT_MAyApJMO2K3QWexG_m39pHMO5x14ehXJ4iKCI9i_jiodpURpsO2MCTL4BnSKuciAhdHU7VlKYP4VxjMAvfRxYD7xaLB4dPzdl1SyCKeCorVFpazUHwvqEC2Wq9cDUvr1QZnn7uqqRmx-yJ4tRWAXApOBq64Wab0kELKsr58NfCnWe-U1zMVh-t8T67yaYeVV3AGXCaSqxGKFQRz_nQmTRrOrZ0myy_qDf_ef2uWdKmZdVQV5kTBleOv4uNVsFs2HaQAWEIg2cmnW7UqoZiyTfBZzhmcjTw_mC0?></g></svg>