<?xml version="1.0" encoding="UTF-8" standalone="no"?>
<!DOCTYPE svg PUBLIC "-//W3C//DTD SVG 1.1//EN"
 "http://www.w3.org/Graphics/SVG/1.1/DTD/svg11.dtd">
<!-- Generated by graphviz version 14.1.5 (0)
 -->
<!-- Title: shortest_distance_relax Pages: 1 -->
<svg width="662pt" height="521pt"
 viewBox="0.00 0.00 662.00 521.00" xmlns="http://www.w3.org/2000/svg" xmlns:xlink="http://www.w3.org/1999/xlink">
<g id="graph0" class="graph" transform="scale(1 1) rotate(0) translate(4 517.47)">
<title>shortest_distance_relax</title>
<polygon fill="#ffffff" stroke="none" points="-4,4 -4,-517.47 657.5,-517.47 657.5,4 -4,4"/>
<text xml:space="preserve" text-anchor="start" x="8" y="-498.12" font-family="Helvetica,sans-Serif" font-weight="bold" font-size="13.00">Relaxation step</text>
<text xml:space="preserve" text-anchor="start" x="122" y="-498.12" font-family="Helvetica,sans-Serif" font-size="13.00"> — pop s, push remainder r[s] along arcs: d[t] ⊕= r[s]⊗w(e), r[t] ⊕= r[s]⊗w(e)</text>
<g id="clust1" class="cluster">
<title>cluster_q</title>
<path fill="#eceff1" stroke="#455a64" stroke-dasharray="5,2" d="M43.85,-217.48C43.85,-217.48 273.6,-217.48 273.6,-217.48 279.6,-217.48 285.6,-223.48 285.6,-229.48 285.6,-229.48 285.6,-283.48 285.6,-283.48 285.6,-289.48 279.6,-295.48 273.6,-295.48 273.6,-295.48 43.85,-295.48 43.85,-295.48 37.85,-295.48 31.85,-289.48 31.85,-283.48 31.85,-283.48 31.85,-229.48 31.85,-229.48 31.85,-223.48 37.85,-217.48 43.85,-217.48"/>
<text xml:space="preserve" text-anchor="start" x="39.85" y="-280.13" font-family="Helvetica,sans-Serif" font-weight="bold" font-size="13.00" fill="#455a64">queue</text>
<text xml:space="preserve" text-anchor="start" x="84.85" y="-280.13" font-family="Helvetica,sans-Serif" font-size="13.00" fill="#455a64"> (discipline&#45;dependent order)</text>
</g>
<!-- s -->
<g id="node1" class="node">
<title>s</title>
<ellipse fill="#c8e6c9" stroke="#2e7d32" stroke-width="2" cx="377.52" cy="-244.48" rx="43.66" ry="43.66"/>
<text xml:space="preserve" text-anchor="middle" x="377.52" y="-248.43" font-family="Helvetica,sans-Serif" font-size="14.00" fill="#102027">s</text>
<text xml:space="preserve" text-anchor="middle" x="377.52" y="-231.18" font-family="Helvetica,sans-Serif" font-size="14.00" fill="#102027">r[s]=R</text>
</g>
<!-- t1 -->
<g id="node2" class="node">
<title>t1</title>
<ellipse fill="#bbdefb" stroke="#1565c0" stroke-width="1.4" cx="546.16" cy="-413.48" rx="75.48" ry="75.48"/>
<text xml:space="preserve" text-anchor="middle" x="546.16" y="-417.43" font-family="Helvetica,sans-Serif" font-size="14.00" fill="#102027">t₁</text>
<text xml:space="preserve" text-anchor="middle" x="546.16" y="-400.18" font-family="Helvetica,sans-Serif" font-size="14.00" fill="#102027">d,r ⊕= R⊗w₁</text>
</g>
<!-- s&#45;&gt;t1 -->
<g id="edge2" class="edge">
<title>s&#45;&gt;t1</title>
<path fill="none" stroke="#2e7d32" stroke-width="2" d="M409.08,-275.48C429.84,-296.54 458.03,-325.12 483.36,-350.81"/>
<polygon fill="#2e7d32" stroke="#2e7d32" stroke-width="2" points="480.55,-352.94 490.06,-357.61 485.53,-348.03 480.55,-352.94"/>
<text xml:space="preserve" text-anchor="middle" x="445.93" y="-321.92" font-family="Helvetica,sans-Serif" font-size="11.00" fill="#1b5e20">w₁</text>
</g>
<!-- t2 -->
<g id="node3" class="node">
<title>t2</title>
<ellipse fill="#bbdefb" stroke="#1565c0" stroke-width="1.4" cx="546.16" cy="-244.48" rx="75.48" ry="75.48"/>
<text xml:space="preserve" text-anchor="middle" x="546.16" y="-248.43" font-family="Helvetica,sans-Serif" font-size="14.00" fill="#102027">t₂</text>
<text xml:space="preserve" text-anchor="middle" x="546.16" y="-231.18" font-family="Helvetica,sans-Serif" font-size="14.00" fill="#102027">d,r ⊕= R⊗w₂</text>
</g>
<!-- s&#45;&gt;t2 -->
<g id="edge3" class="edge">
<title>s&#45;&gt;t2</title>
<path fill="none" stroke="#2e7d32" stroke-width="2" d="M421.87,-244.48C432.82,-244.48 444.98,-244.48 457.27,-244.48"/>
<polygon fill="#2e7d32" stroke="#2e7d32" stroke-width="2" points="457.05,-247.98 467.05,-244.48 457.05,-240.98 457.05,-247.98"/>
<text xml:space="preserve" text-anchor="middle" x="445.93" y="-247.53" font-family="Helvetica,sans-Serif" font-size="11.00" fill="#1b5e20">w₂</text>
</g>
<!-- t3 -->
<g id="node4" class="node">
<title>t3</title>
<ellipse fill="#bbdefb" stroke="#1565c0" stroke-width="1.4" cx="546.16" cy="-75.48" rx="75.48" ry="75.48"/>
<text xml:space="preserve" text-anchor="middle" x="546.16" y="-79.43" font-family="Helvetica,sans-Serif" font-size="14.00" fill="#102027">t₃</text>
<text xml:space="preserve" text-anchor="middle" x="546.16" y="-62.18" font-family="Helvetica,sans-Serif" font-size="14.00" fill="#102027">d,r ⊕= R⊗w₃</text>
</g>
<!-- s&#45;&gt;t3 -->
<g id="edge4" class="edge">
<title>s&#45;&gt;t3</title>
<path fill="none" stroke="#2e7d32" stroke-width="2" d="M409.08,-213.49C429.84,-192.43 458.03,-163.85 483.36,-138.16"/>
<polygon fill="#2e7d32" stroke="#2e7d32" stroke-width="2" points="485.53,-140.94 490.06,-131.36 480.55,-136.03 485.53,-140.94"/>
<text xml:space="preserve" text-anchor="middle" x="445.93" y="-183.14" font-family="Helvetica,sans-Serif" font-size="11.00" fill="#1b5e20">w₃</text>
</g>
<!-- Q -->
<g id="node5" class="node">
<title>Q</title>
<polygon fill="#eceff1" stroke="#455a64" stroke-width="1.4" points="104.85,-226.48 104.85,-262.48 211.6,-262.48 211.6,-226.48 104.85,-226.48"/>
<text xml:space="preserve" text-anchor="middle" x="116.6" y="-240.18" font-family="Helvetica,sans-Serif" font-size="14.00" fill="#102027">s</text>
<polyline fill="none" stroke="#455a64" stroke-width="1.4" points="128.35,-227.23 128.35,-262.48"/>
<text xml:space="preserve" text-anchor="middle" x="143.48" y="-240.18" font-family="Helvetica,sans-Serif" font-size="14.00" fill="#102027">…</text>
<polyline fill="none" stroke="#455a64" stroke-width="1.4" points="158.6,-227.23 158.6,-262.48"/>
<text xml:space="preserve" text-anchor="middle" x="171.85" y="-240.18" font-family="Helvetica,sans-Serif" font-size="14.00" fill="#102027">t₂</text>
<polyline fill="none" stroke="#455a64" stroke-width="1.4" points="185.1,-227.23 185.1,-262.48"/>
<text xml:space="preserve" text-anchor="middle" x="198.35" y="-240.18" font-family="Helvetica,sans-Serif" font-size="14.00" fill="#102027">t₁</text>
</g>
<!-- t1&#45;&gt;Q -->
<g id="edge5" class="edge">
<title>t1&#45;&gt;Q</title>
<path fill="none" stroke="#455a64" stroke-width="1.3" stroke-dasharray="1,5" d="M471.12,-403.3C429.56,-395.88 377.45,-383.69 333.85,-364.48 278.86,-340.26 222.94,-298.08 189.67,-270.73"/>
<polygon fill="#455a64" stroke="#455a64" stroke-width="1.3" points="191.94,-268.06 182.01,-264.35 187.46,-273.44 191.94,-268.06"/>
<text xml:space="preserve" text-anchor="middle" x="377.52" y="-395.26" font-family="Helvetica,sans-Serif" font-size="11.00" fill="#37474f">update</text>
</g>
<!-- t2&#45;&gt;Q -->
<g id="edge6" class="edge">
<title>t2&#45;&gt;Q</title>
<path fill="none" stroke="#455a64" stroke-width="1.3" stroke-dasharray="1,5" d="M498.76,-303.75C485.41,-316.63 469.77,-328.48 452.68,-335.48 361.14,-372.97 248.22,-308.38 192.94,-269.94"/>
<polygon fill="#455a64" stroke="#455a64" stroke-width="1.3" points="195.09,-267.18 184.91,-264.24 191.04,-272.89 195.09,-267.18"/>
<text xml:space="preserve" text-anchor="middle" x="377.52" y="-349.83" font-family="Helvetica,sans-Serif" font-size="11.00" fill="#37474f">update</text>
</g>
<!-- Q&#45;&gt;s -->
<g id="edge1" class="edge">
<title>Q&#45;&gt;s</title>
<path fill="none" stroke="#455a64" stroke-width="1.3" stroke-dasharray="1,5" d="M212.1,-244.48C245.11,-244.48 287.54,-244.48 321.02,-244.48"/>
<polygon fill="#455a64" stroke="#455a64" stroke-width="1.3" points="320.95,-247.98 330.95,-244.48 320.95,-240.98 320.95,-247.98"/>
<text xml:space="preserve" text-anchor="middle" x="305.73" y="-247.53" font-family="Helvetica,sans-Serif" font-size="11.00" fill="#37474f">pop</text>
</g>
</g>
</svg>
