<?xml version="1.0" encoding="UTF-8" standalone="no"?>
<!DOCTYPE svg PUBLIC "-//W3C//DTD SVG 1.1//EN"
 "http://www.w3.org/Graphics/SVG/1.1/DTD/svg11.dtd">
<!-- Generated by graphviz version 14.1.5 (0)
 -->
<!-- Title: synchronization Pages: 1 -->
<svg width="904pt" height="270pt"
 viewBox="0.00 0.00 904.00 270.00" xmlns="http://www.w3.org/2000/svg" xmlns:xlink="http://www.w3.org/1999/xlink">
<g id="graph0" class="graph" transform="scale(1 1) rotate(0) translate(4 265.5)">
<title>synchronization</title>
<polygon fill="#ffffff" stroke="none" points="-4,4 -4,-265.5 899.97,-265.5 899.97,4 -4,4"/>
<text xml:space="preserve" text-anchor="start" x="82.74" y="-246.15" font-family="Helvetica,sans-Serif" font-weight="bold" font-size="13.00">Synchronization</text>
<text xml:space="preserve" text-anchor="start" x="199.74" y="-246.15" font-family="Helvetica,sans-Serif" font-size="13.00"> — residual delay tracked in state (q, in∣out); draining tail flushes leftovers at the final state</text>
<g id="clust1" class="cluster">
<title>cluster_before</title>
<path fill="#e0f2f1" stroke="#00695c" d="M20,-8C20,-8 539.71,-8 539.71,-8 545.71,-8 551.71,-14 551.71,-20 551.71,-20 551.71,-81 551.71,-81 551.71,-87 545.71,-93 539.71,-93 539.71,-93 20,-93 20,-93 14,-93 8,-87 8,-81 8,-81 8,-20 8,-20 8,-14 14,-8 20,-8"/>
<text xml:space="preserve" text-anchor="start" x="68.36" y="-77.65" font-family="Helvetica,sans-Serif" font-weight="bold" font-size="13.00" fill="#004d40">before</text>
<text xml:space="preserve" text-anchor="start" x="117.11" y="-77.65" font-family="Helvetica,sans-Serif" font-size="13.00" fill="#004d40"> — a:ε (input ahead), then b:x, c:y; delay swings −1 → 0</text>
</g>
<g id="clust2" class="cluster">
<title>cluster_after</title>
<path fill="#e8f5e9" stroke="#2e7d32" d="M20,-101C20,-101 875.97,-101 875.97,-101 881.97,-101 887.97,-107 887.97,-113 887.97,-113 887.97,-217 887.97,-217 887.97,-223 881.97,-229 875.97,-229 875.97,-229 20,-229 20,-229 14,-229 8,-223 8,-217 8,-217 8,-113 8,-113 8,-107 14,-101 20,-101"/>
<text xml:space="preserve" text-anchor="start" x="200.49" y="-213.65" font-family="Helvetica,sans-Serif" font-weight="bold" font-size="13.00" fill="#1b5e20">after</text>
<text xml:space="preserve" text-anchor="start" x="237.24" y="-213.65" font-family="Helvetica,sans-Serif" font-size="13.00" fill="#1b5e20"> — synchronized: states carry (state, delay); draining emits residuals</text>
</g>
<!-- b0 -->
<g id="node1" class="node">
<title>b0</title>
<ellipse fill="#b2dfdb" stroke="#00695c" stroke-width="1.4" cx="84.94" cy="-38" rx="18" ry="18"/>
<text xml:space="preserve" text-anchor="middle" x="84.94" y="-33.33" font-family="Helvetica,sans-Serif" font-size="14.00" fill="#102027">0</text>
</g>
<!-- b1 -->
<g id="node2" class="node">
<title>b1</title>
<ellipse fill="#b2dfdb" stroke="#00695c" stroke-width="1.4" cx="232.73" cy="-38" rx="18" ry="18"/>
<text xml:space="preserve" text-anchor="middle" x="232.73" y="-33.33" font-family="Helvetica,sans-Serif" font-size="14.00" fill="#102027">1</text>
</g>
<!-- b0&#45;&gt;b1 -->
<g id="edge2" class="edge">
<title>b0&#45;&gt;b1</title>
<path fill="none" stroke="#9e9e9e" stroke-width="1.3" stroke-dasharray="5,2" d="M103.52,-38C128.04,-38 172.82,-38 202.43,-38"/>
<polygon fill="#9e9e9e" stroke="#9e9e9e" stroke-width="1.3" points="202.12,-41.5 212.12,-38 202.12,-34.5 202.12,-41.5"/>
<text xml:space="preserve" text-anchor="middle" x="155.15" y="-41.05" font-family="Helvetica,sans-Serif" font-size="11.00" fill="#616161">a : ε / 0</text>
</g>
<!-- b2 -->
<g id="node3" class="node">
<title>b2</title>
<ellipse fill="#b2dfdb" stroke="#00695c" stroke-width="1.4" cx="381.28" cy="-38" rx="18" ry="18"/>
<text xml:space="preserve" text-anchor="middle" x="381.28" y="-33.33" font-family="Helvetica,sans-Serif" font-size="14.00" fill="#102027">2</text>
</g>
<!-- b1&#45;&gt;b2 -->
<g id="edge3" class="edge">
<title>b1&#45;&gt;b2</title>
<path fill="none" stroke="#607d8b" stroke-width="1.3" d="M251.41,-38C276.19,-38 321.55,-38 351.3,-38"/>
<polygon fill="#607d8b" stroke="#607d8b" stroke-width="1.3" points="351.03,-41.5 361.03,-38 351.03,-34.5 351.03,-41.5"/>
<text xml:space="preserve" text-anchor="middle" x="310.69" y="-41.05" font-family="Helvetica,sans-Serif" font-size="11.00" fill="#37474f">b : x / 0</text>
</g>
<!-- b3 -->
<g id="node4" class="node">
<title>b3</title>
<ellipse fill="#c8e6c9" stroke="#2e7d32" stroke-width="1.4" cx="521.71" cy="-38" rx="18" ry="18"/>
<ellipse fill="none" stroke="#2e7d32" stroke-width="1.4" cx="521.71" cy="-38" rx="22" ry="22"/>
<text xml:space="preserve" text-anchor="middle" x="521.71" y="-33.33" font-family="Helvetica,sans-Serif" font-size="14.00" fill="#102027">3</text>
</g>
<!-- b2&#45;&gt;b3 -->
<g id="edge4" class="edge">
<title>b2&#45;&gt;b3</title>
<path fill="none" stroke="#607d8b" stroke-width="1.3" d="M399.81,-38C421.77,-38 459.84,-38 487.41,-38"/>
<polygon fill="#607d8b" stroke="#607d8b" stroke-width="1.3" points="487.27,-41.5 497.27,-38 487.27,-34.5 487.27,-41.5"/>
<text xml:space="preserve" text-anchor="middle" x="451.5" y="-41.05" font-family="Helvetica,sans-Serif" font-size="11.00" fill="#37474f">c : y / 0</text>
</g>
<!-- s0 -->
<g id="node5" class="node">
<title>s0</title>
<ellipse fill="#b2dfdb" stroke="#00695c" stroke-width="1.4" cx="16.36" cy="-38" rx="0.36" ry="0.36"/>
</g>
<!-- s0&#45;&gt;b0 -->
<g id="edge1" class="edge">
<title>s0&#45;&gt;b0</title>
<path fill="none" stroke="#607d8b" stroke-width="1.3" d="M17.15,-38C20.14,-38 38.19,-38 54.77,-38"/>
<polygon fill="#607d8b" stroke="#607d8b" stroke-width="1.3" points="54.38,-41.5 64.38,-38 54.38,-34.5 54.38,-41.5"/>
</g>
<!-- a0 -->
<g id="node6" class="node">
<title>a0</title>
<ellipse fill="#b2dfdb" stroke="#00695c" stroke-width="1.4" cx="84.94" cy="-153" rx="31.22" ry="31.22"/>
<text xml:space="preserve" text-anchor="middle" x="84.94" y="-148.32" font-family="Helvetica,sans-Serif" font-size="14.00" fill="#102027">(0,·)</text>
</g>
<!-- a1 -->
<g id="node7" class="node">
<title>a1</title>
<ellipse fill="#b2dfdb" stroke="#00695c" stroke-width="1.4" cx="232.73" cy="-153" rx="38.58" ry="38.58"/>
<text xml:space="preserve" text-anchor="middle" x="232.73" y="-148.32" font-family="Helvetica,sans-Serif" font-size="14.00" fill="#102027">(1,a∣)</text>
</g>
<!-- a0&#45;&gt;a1 -->
<g id="edge6" class="edge">
<title>a0&#45;&gt;a1</title>
<path fill="none" stroke="#9e9e9e" stroke-width="1.3" stroke-dasharray="5,2" d="M116.5,-153C135.45,-153 160.25,-153 181.98,-153"/>
<polygon fill="#9e9e9e" stroke="#9e9e9e" stroke-width="1.3" points="181.71,-156.5 191.71,-153 181.71,-149.5 181.71,-156.5"/>
<text xml:space="preserve" text-anchor="middle" x="155.15" y="-156.05" font-family="Helvetica,sans-Serif" font-size="11.00" fill="#616161">a : ε / 0</text>
</g>
<!-- a2 -->
<g id="node8" class="node">
<title>a2</title>
<ellipse fill="#b2dfdb" stroke="#00695c" stroke-width="1.4" cx="381.28" cy="-153" rx="31.22" ry="31.22"/>
<text xml:space="preserve" text-anchor="middle" x="381.28" y="-148.32" font-family="Helvetica,sans-Serif" font-size="14.00" fill="#102027">(2,·)</text>
</g>
<!-- a1&#45;&gt;a2 -->
<g id="edge7" class="edge">
<title>a1&#45;&gt;a2</title>
<path fill="none" stroke="#2e7d32" stroke-width="2" d="M271.85,-153C291.75,-153 316.18,-153 336.81,-153"/>
<polygon fill="#2e7d32" stroke="#2e7d32" stroke-width="2" points="336.7,-156.5 346.7,-153 336.7,-149.5 336.7,-156.5"/>
<text xml:space="preserve" text-anchor="middle" x="310.69" y="-156.05" font-family="Helvetica,sans-Serif" font-size="11.00" fill="#1b5e20">b : a / 0</text>
</g>
<!-- a3 -->
<g id="node9" class="node">
<title>a3</title>
<ellipse fill="#b2dfdb" stroke="#00695c" stroke-width="1.4" cx="521.71" cy="-153" rx="31.22" ry="31.22"/>
<text xml:space="preserve" text-anchor="middle" x="521.71" y="-148.32" font-family="Helvetica,sans-Serif" font-size="14.00" fill="#102027">(3,·)</text>
</g>
<!-- a2&#45;&gt;a3 -->
<g id="edge8" class="edge">
<title>a2&#45;&gt;a3</title>
<path fill="none" stroke="#2e7d32" stroke-width="2" d="M413,-153C431.91,-153 456.44,-153 477.31,-153"/>
<polygon fill="#2e7d32" stroke="#2e7d32" stroke-width="2" points="477.05,-156.5 487.05,-153 477.05,-149.5 477.05,-156.5"/>
<text xml:space="preserve" text-anchor="middle" x="451.5" y="-156.05" font-family="Helvetica,sans-Serif" font-size="11.00" fill="#1b5e20">c : x / 0</text>
</g>
<!-- aD -->
<g id="node10" class="node">
<title>aD</title>
<ellipse fill="#fff59d" stroke="#f9a825" stroke-width="1.4" cx="673.19" cy="-153" rx="42.26" ry="42.26"/>
<text xml:space="preserve" text-anchor="middle" x="673.19" y="-148.32" font-family="Helvetica,sans-Serif" font-size="14.00" fill="#102027">DRAIN</text>
</g>
<!-- a3&#45;&gt;aD -->
<g id="edge9" class="edge">
<title>a3&#45;&gt;aD</title>
<path fill="none" stroke="#9e9e9e" stroke-width="1.3" stroke-dasharray="5,2" d="M553.32,-153C572.06,-153 596.56,-153 618.45,-153"/>
<polygon fill="#9e9e9e" stroke="#9e9e9e" stroke-width="1.3" points="618.32,-156.5 628.32,-153 618.32,-149.5 618.32,-156.5"/>
<text xml:space="preserve" text-anchor="middle" x="591.93" y="-156.05" font-family="Helvetica,sans-Serif" font-size="11.00" fill="#616161">ε : y / 0</text>
</g>
<!-- aF -->
<g id="node11" class="node">
<title>aF</title>
<ellipse fill="#c8e6c9" stroke="#2e7d32" stroke-width="1.4" cx="836.34" cy="-153" rx="39.63" ry="39.63"/>
<ellipse fill="none" stroke="#2e7d32" stroke-width="1.4" cx="836.34" cy="-153" rx="43.63" ry="43.63"/>
<text xml:space="preserve" text-anchor="middle" x="836.34" y="-148.32" font-family="Helvetica,sans-Serif" font-size="14.00" fill="#102027">FINAL</text>
</g>
<!-- aD&#45;&gt;aF -->
<g id="edge10" class="edge">
<title>aD&#45;&gt;aF</title>
<path fill="none" stroke="#9e9e9e" stroke-width="1.3" stroke-dasharray="5,2" d="M716.11,-153C735.77,-153 759.45,-153 780.51,-153"/>
<polygon fill="#9e9e9e" stroke="#9e9e9e" stroke-width="1.3" points="780.26,-156.5 790.26,-153 780.26,-149.5 780.26,-156.5"/>
<text xml:space="preserve" text-anchor="middle" x="754.08" y="-156.05" font-family="Helvetica,sans-Serif" font-size="11.00" fill="#616161">ε : ε / 0</text>
</g>
<!-- sa -->
<g id="node12" class="node">
<title>sa</title>
<ellipse fill="#b2dfdb" stroke="#00695c" stroke-width="1.4" cx="16.36" cy="-153" rx="0.36" ry="0.36"/>
</g>
<!-- sa&#45;&gt;a0 -->
<g id="edge5" class="edge">
<title>sa&#45;&gt;a0</title>
<path fill="none" stroke="#607d8b" stroke-width="1.3" d="M17.15,-153C19.34,-153 29.59,-153 41.43,-153"/>
<polygon fill="#607d8b" stroke="#607d8b" stroke-width="1.3" points="41.1,-156.5 51.1,-153 41.1,-149.5 41.1,-156.5"/>
</g>
</g>
</svg>
