<?xml version="1.0" encoding="UTF-8" standalone="no"?>
<!DOCTYPE svg PUBLIC "-//W3C//DTD SVG 1.1//EN"
 "http://www.w3.org/Graphics/SVG/1.1/DTD/svg11.dtd">
<!-- Generated by graphviz version 14.1.5 (0)
 -->
<!-- Title: topological_sort Pages: 1 -->
<svg width="679pt" height="191pt"
 viewBox="0.00 0.00 679.00 191.00" xmlns="http://www.w3.org/2000/svg" xmlns:xlink="http://www.w3.org/1999/xlink">
<g id="graph0" class="graph" transform="scale(1 1) rotate(0) translate(4 186.86)">
<title>topological_sort</title>
<polygon fill="#ffffff" stroke="none" points="-4,4 -4,-186.86 674.75,-186.86 674.75,4 -4,4"/>
<text xml:space="preserve" text-anchor="start" x="8" y="-167.51" font-family="Helvetica,sans-Serif" font-weight="bold" font-size="13.00">Topological sort</text>
<text xml:space="preserve" text-anchor="start" x="124.25" y="-167.51" font-family="Helvetica,sans-Serif" font-size="13.00"> (Kahn) — peel in&#45;degree&#45;0 nodes; annotation = in&#45;degree; green = a valid order</text>
<!-- A -->
<g id="node1" class="node">
<title>A</title>
<ellipse fill="#c8e6c9" stroke="#2e7d32" stroke-width="1.4" cx="348.27" cy="-79.18" rx="35.18" ry="35.18"/>
<text xml:space="preserve" text-anchor="middle" x="348.27" y="-83.13" font-family="Helvetica,sans-Serif" font-size="14.00" fill="#102027">0</text>
<text xml:space="preserve" text-anchor="middle" x="348.27" y="-65.88" font-family="Helvetica,sans-Serif" font-size="14.00" fill="#102027">in=0</text>
</g>
<!-- B -->
<g id="node2" class="node">
<title>B</title>
<ellipse fill="#bbdefb" stroke="#1565c0" stroke-width="1.4" cx="454.62" cy="-123.18" rx="35.18" ry="35.18"/>
<text xml:space="preserve" text-anchor="middle" x="454.62" y="-127.13" font-family="Helvetica,sans-Serif" font-size="14.00" fill="#102027">1</text>
<text xml:space="preserve" text-anchor="middle" x="454.62" y="-109.88" font-family="Helvetica,sans-Serif" font-size="14.00" fill="#102027">in=1</text>
</g>
<!-- A&#45;&gt;B -->
<g id="edge2" class="edge">
<title>A&#45;&gt;B</title>
<path fill="none" stroke="#2e7d32" stroke-width="2" d="M381.43,-92.74C390.44,-96.54 400.39,-100.73 409.95,-104.76"/>
<polygon fill="#2e7d32" stroke="#2e7d32" stroke-width="2" points="408.38,-107.9 418.96,-108.56 411.1,-101.45 408.38,-107.9"/>
</g>
<!-- C -->
<g id="node3" class="node">
<title>C</title>
<ellipse fill="#bbdefb" stroke="#1565c0" stroke-width="1.4" cx="454.62" cy="-35.18" rx="35.18" ry="35.18"/>
<text xml:space="preserve" text-anchor="middle" x="454.62" y="-39.13" font-family="Helvetica,sans-Serif" font-size="14.00" fill="#102027">2</text>
<text xml:space="preserve" text-anchor="middle" x="454.62" y="-21.88" font-family="Helvetica,sans-Serif" font-size="14.00" fill="#102027">in=1</text>
</g>
<!-- A&#45;&gt;C -->
<g id="edge3" class="edge">
<title>A&#45;&gt;C</title>
<path fill="none" stroke="#b0bec5" stroke-width="1.3" d="M381.43,-65.62C390.74,-61.69 401.06,-57.34 410.9,-53.19"/>
<polygon fill="#b0bec5" stroke="#b0bec5" stroke-width="1.3" points="412.08,-56.49 419.94,-49.38 409.36,-50.04 412.08,-56.49"/>
</g>
<!-- D -->
<g id="node4" class="node">
<title>D</title>
<ellipse fill="#c8e6c9" stroke="#2e7d32" stroke-width="1.4" cx="564.98" cy="-79.18" rx="35.18" ry="35.18"/>
<ellipse fill="none" stroke="#2e7d32" stroke-width="1.4" cx="564.98" cy="-79.18" rx="39.18" ry="39.18"/>
<text xml:space="preserve" text-anchor="middle" x="564.98" y="-83.13" font-family="Helvetica,sans-Serif" font-size="14.00" fill="#102027">3</text>
<text xml:space="preserve" text-anchor="middle" x="564.98" y="-65.88" font-family="Helvetica,sans-Serif" font-size="14.00" fill="#102027">in=2</text>
</g>
<!-- B&#45;&gt;D -->
<g id="edge4" class="edge">
<title>B&#45;&gt;D</title>
<path fill="none" stroke="#2e7d32" stroke-width="2" d="M487.84,-110.1C496.7,-106.5 506.51,-102.52 516.05,-98.64"/>
<polygon fill="#2e7d32" stroke="#2e7d32" stroke-width="2" points="517.15,-101.97 525.1,-94.97 514.52,-95.49 517.15,-101.97"/>
</g>
<!-- C&#45;&gt;D -->
<g id="edge5" class="edge">
<title>C&#45;&gt;D</title>
<path fill="none" stroke="#b0bec5" stroke-width="1.3" d="M487.84,-48.26C497,-51.98 507.16,-56.11 517,-60.1"/>
<polygon fill="#b0bec5" stroke="#b0bec5" stroke-width="1.3" points="515.5,-63.27 526.08,-63.79 518.13,-56.78 515.5,-63.27"/>
</g>
<!-- s0 -->
<g id="node5" class="node">
<title>s0</title>
<ellipse fill="#bbdefb" stroke="#1565c0" stroke-width="1.4" cx="171.84" cy="-79.18" rx="0.36" ry="0.36"/>
</g>
<!-- s0&#45;&gt;A -->
<g id="edge1" class="edge">
<title>s0&#45;&gt;A</title>
<path fill="none" stroke="#607d8b" stroke-width="1.3" d="M172.97,-79.18C176.43,-79.18 250.13,-79.18 300.57,-79.18"/>
<polygon fill="#607d8b" stroke="#607d8b" stroke-width="1.3" points="300.56,-82.68 310.56,-79.18 300.56,-75.68 300.56,-82.68"/>
</g>
<!-- order -->
<g id="node6" class="node">
<title>order</title>
<polygon fill="#eceff1" stroke="#455a64" stroke-width="1.4" points="66.59,-98.18 66.59,-134.18 277.09,-134.18 277.09,-98.18 66.59,-98.18"/>
<text xml:space="preserve" text-anchor="middle" x="121.84" y="-111.88" font-family="Helvetica,sans-Serif" font-size="14.00" fill="#102027">emitted order</text>
<polyline fill="none" stroke="#455a64" stroke-width="1.4" points="177.09,-98.93 177.09,-134.18"/>
<text xml:space="preserve" text-anchor="middle" x="189.59" y="-111.88" font-family="Helvetica,sans-Serif" font-size="14.00" fill="#102027">0</text>
<polyline fill="none" stroke="#455a64" stroke-width="1.4" points="202.09,-98.93 202.09,-134.18"/>
<text xml:space="preserve" text-anchor="middle" x="214.59" y="-111.88" font-family="Helvetica,sans-Serif" font-size="14.00" fill="#102027">1</text>
<polyline fill="none" stroke="#455a64" stroke-width="1.4" points="227.09,-98.93 227.09,-134.18"/>
<text xml:space="preserve" text-anchor="middle" x="239.59" y="-111.88" font-family="Helvetica,sans-Serif" font-size="14.00" fill="#102027">2</text>
<polyline fill="none" stroke="#455a64" stroke-width="1.4" points="252.09,-98.93 252.09,-134.18"/>
<text xml:space="preserve" text-anchor="middle" x="264.59" y="-111.88" font-family="Helvetica,sans-Serif" font-size="14.00" fill="#102027">3</text>
</g>
</g>
</svg>
