<?xml version="1.0" encoding="UTF-8" standalone="no"?>
<!DOCTYPE svg PUBLIC "-//W3C//DTD SVG 1.1//EN"
 "http://www.w3.org/Graphics/SVG/1.1/DTD/svg11.dtd">
<!-- Generated by graphviz version 14.1.5 (0)
 -->
<!-- Title: weight_pushing Pages: 1 -->
<svg width="676pt" height="279pt"
 viewBox="0.00 0.00 676.00 279.00" xmlns="http://www.w3.org/2000/svg" xmlns:xlink="http://www.w3.org/1999/xlink">
<g id="graph0" class="graph" transform="scale(1 1) rotate(0) translate(4 274.5)">
<title>weight_pushing</title>
<polygon fill="#ffffff" stroke="none" points="-4,4 -4,-274.5 671.75,-274.5 671.75,4 -4,4"/>
<text xml:space="preserve" text-anchor="start" x="8" y="-255.15" font-family="Helvetica,sans-Serif" font-weight="bold" font-size="13.00">Weight pushing</text>
<text xml:space="preserve" text-anchor="start" x="121.25" y="-255.15" font-family="Helvetica,sans-Serif" font-size="13.00"> (backward, tropical) — reweight by potential V(q); path totals unchanged, ρ → 1̄</text>
<g id="clust1" class="cluster">
<title>cluster_before</title>
<path fill="#e3f2fd" stroke="#1565c0" d="M64.12,-8C64.12,-8 603.62,-8 603.62,-8 609.62,-8 615.62,-14 615.62,-20 615.62,-20 615.62,-130 615.62,-130 615.62,-136 609.62,-142 603.62,-142 603.62,-142 64.12,-142 64.12,-142 58.12,-142 52.12,-136 52.12,-130 52.12,-130 52.12,-20 52.12,-20 52.12,-14 58.12,-8 64.12,-8"/>
<text xml:space="preserve" text-anchor="start" x="60.12" y="-126.65" font-family="Helvetica,sans-Serif" font-weight="bold" font-size="13.00" fill="#0d47a1">before</text>
<text xml:space="preserve" text-anchor="start" x="108.88" y="-126.65" font-family="Helvetica,sans-Serif" font-size="13.00" fill="#0d47a1"> — path 0→1→2 = 1.0 ⊗ 2.0 ⊗ ρ(0.5) = 3.5; &#160;V(2)=0.5, V(1)=2.5, V(0)=3.5</text>
</g>
<g id="clust2" class="cluster">
<title>cluster_after</title>
<path fill="#e8f5e9" stroke="#2e7d32" d="M50.62,-150C50.62,-150 617.12,-150 617.12,-150 623.12,-150 629.12,-156 629.12,-162 629.12,-162 629.12,-226 629.12,-226 629.12,-232 623.12,-238 617.12,-238 617.12,-238 50.62,-238 50.62,-238 44.62,-238 38.62,-232 38.62,-226 38.62,-226 38.62,-162 38.62,-162 38.62,-156 44.62,-150 50.62,-150"/>
<text xml:space="preserve" text-anchor="start" x="46.62" y="-222.65" font-family="Helvetica,sans-Serif" font-weight="bold" font-size="13.00" fill="#1b5e20">after</text>
<text xml:space="preserve" text-anchor="start" x="83.38" y="-222.65" font-family="Helvetica,sans-Serif" font-size="13.00" fill="#1b5e20"> — w&#39;(e)=V(t)⊗w(e)⊗V(s)⁻¹; &#160;0→1 = 3.5−2.5... mass pulled to the start; ρ → 1̄=0</text>
</g>
<!-- b0 -->
<g id="node1" class="node">
<title>b0</title>
<ellipse fill="#bbdefb" stroke="#1565c0" stroke-width="1.4" cx="143.42" cy="-63" rx="42.6" ry="42.6"/>
<text xml:space="preserve" text-anchor="middle" x="143.42" y="-66.95" font-family="Helvetica,sans-Serif" font-size="14.00" fill="#102027">0</text>
<text xml:space="preserve" text-anchor="middle" x="143.42" y="-49.7" font-family="Helvetica,sans-Serif" font-size="14.00" fill="#102027">V=3.5</text>
</g>
<!-- b1 -->
<g id="node2" class="node">
<title>b1</title>
<ellipse fill="#bbdefb" stroke="#1565c0" stroke-width="1.4" cx="299.88" cy="-63" rx="42.6" ry="42.6"/>
<text xml:space="preserve" text-anchor="middle" x="299.88" y="-66.95" font-family="Helvetica,sans-Serif" font-size="14.00" fill="#102027">1</text>
<text xml:space="preserve" text-anchor="middle" x="299.88" y="-49.7" font-family="Helvetica,sans-Serif" font-size="14.00" fill="#102027">V=2.5</text>
</g>
<!-- b0&#45;&gt;b1 -->
<g id="edge2" class="edge">
<title>b0&#45;&gt;b1</title>
<path fill="none" stroke="#607d8b" stroke-width="1.3" d="M186.62,-63C204.59,-63 225.76,-63 244.84,-63"/>
<polygon fill="#607d8b" stroke="#607d8b" stroke-width="1.3" points="244.75,-66.5 254.75,-63 244.75,-59.5 244.75,-66.5"/>
<text xml:space="preserve" text-anchor="middle" x="221.65" y="-66.05" font-family="Helvetica,sans-Serif" font-size="11.00" fill="#37474f">a / 1.0</text>
</g>
<!-- b2 -->
<g id="node3" class="node">
<title>b2</title>
<ellipse fill="#c8e6c9" stroke="#2e7d32" stroke-width="1.4" cx="460.33" cy="-63" rx="42.6" ry="42.6"/>
<ellipse fill="none" stroke="#2e7d32" stroke-width="1.4" cx="460.33" cy="-63" rx="46.6" ry="46.6"/>
<text xml:space="preserve" text-anchor="middle" x="460.33" y="-66.95" font-family="Helvetica,sans-Serif" font-size="14.00" fill="#102027">2</text>
<text xml:space="preserve" text-anchor="middle" x="460.33" y="-49.7" font-family="Helvetica,sans-Serif" font-size="14.00" fill="#102027">V=0.5</text>
</g>
<!-- b1&#45;&gt;b2 -->
<g id="edge3" class="edge">
<title>b1&#45;&gt;b2</title>
<path fill="none" stroke="#607d8b" stroke-width="1.3" d="M342.92,-63C360.84,-63 382.04,-63 401.41,-63"/>
<polygon fill="#607d8b" stroke="#607d8b" stroke-width="1.3" points="401.22,-66.5 411.22,-63 401.22,-59.5 401.22,-66.5"/>
<text xml:space="preserve" text-anchor="middle" x="378.1" y="-66.05" font-family="Helvetica,sans-Serif" font-size="11.00" fill="#37474f">b / 2.0</text>
</g>
<!-- bf0 -->
<g id="node5" class="node">
<title>bf0</title>
<ellipse fill="#bbdefb" stroke="#2e7d32" stroke-width="1.4" cx="603.29" cy="-63" rx="0.36" ry="0.36"/>
</g>
<!-- b2&#45;&gt;bf0 -->
<g id="edge4" class="edge">
<title>b2&#45;&gt;bf0</title>
<path fill="none" stroke="#2e7d32" stroke-width="1.3" stroke-dasharray="5,2" d="M507.31,-63C546.07,-63 596.2,-63 602.31,-63"/>
<text xml:space="preserve" text-anchor="middle" x="554.93" y="-66.05" font-family="Helvetica,sans-Serif" font-size="11.00" fill="#1b5e20">ρ = 0.5</text>
</g>
<!-- s0 -->
<g id="node4" class="node">
<title>s0</title>
<ellipse fill="#bbdefb" stroke="#1565c0" stroke-width="1.4" cx="63.46" cy="-63" rx="0.36" ry="0.36"/>
</g>
<!-- s0&#45;&gt;b0 -->
<g id="edge1" class="edge">
<title>s0&#45;&gt;b0</title>
<path fill="none" stroke="#607d8b" stroke-width="1.3" d="M64.32,-63C66.6,-63 76.37,-63 88.28,-63"/>
<polygon fill="#607d8b" stroke="#607d8b" stroke-width="1.3" points="88.21,-66.5 98.21,-63 88.21,-59.5 88.21,-66.5"/>
</g>
<!-- a0 -->
<g id="node6" class="node">
<title>a0</title>
<ellipse fill="#bbdefb" stroke="#1565c0" stroke-width="1.4" cx="143.42" cy="-182" rx="19.8" ry="19.8"/>
<text xml:space="preserve" text-anchor="middle" x="143.42" y="-177.32" font-family="Helvetica,sans-Serif" font-size="14.00" fill="#102027">0</text>
</g>
<!-- a1 -->
<g id="node7" class="node">
<title>a1</title>
<ellipse fill="#bbdefb" stroke="#1565c0" stroke-width="1.4" cx="299.88" cy="-182" rx="19.8" ry="19.8"/>
<text xml:space="preserve" text-anchor="middle" x="299.88" y="-177.32" font-family="Helvetica,sans-Serif" font-size="14.00" fill="#102027">1</text>
</g>
<!-- a0&#45;&gt;a1 -->
<g id="edge6" class="edge">
<title>a0&#45;&gt;a1</title>
<path fill="none" stroke="#2e7d32" stroke-width="2" d="M163.67,-182C189.45,-182 235.55,-182 266.67,-182"/>
<polygon fill="#2e7d32" stroke="#2e7d32" stroke-width="2" points="266.36,-185.5 276.36,-182 266.36,-178.5 266.36,-185.5"/>
<text xml:space="preserve" text-anchor="middle" x="221.65" y="-185.05" font-family="Helvetica,sans-Serif" font-size="11.00" fill="#1b5e20">a / 0.0</text>
</g>
<!-- a2 -->
<g id="node8" class="node">
<title>a2</title>
<ellipse fill="#c8e6c9" stroke="#2e7d32" stroke-width="1.4" cx="460.33" cy="-182" rx="19.8" ry="19.8"/>
<ellipse fill="none" stroke="#2e7d32" stroke-width="1.4" cx="460.33" cy="-182" rx="23.8" ry="23.8"/>
<text xml:space="preserve" text-anchor="middle" x="460.33" y="-177.32" font-family="Helvetica,sans-Serif" font-size="14.00" fill="#102027">2</text>
</g>
<!-- a1&#45;&gt;a2 -->
<g id="edge7" class="edge">
<title>a1&#45;&gt;a2</title>
<path fill="none" stroke="#2e7d32" stroke-width="2" d="M320.3,-182C345.83,-182 391.16,-182 423.1,-182"/>
<polygon fill="#2e7d32" stroke="#2e7d32" stroke-width="2" points="422.85,-185.5 432.85,-182 422.85,-178.5 422.85,-185.5"/>
<text xml:space="preserve" text-anchor="middle" x="378.1" y="-185.05" font-family="Helvetica,sans-Serif" font-size="11.00" fill="#1b5e20">b / 0.0</text>
</g>
<!-- af0 -->
<g id="node10" class="node">
<title>af0</title>
<ellipse fill="#bbdefb" stroke="#2e7d32" stroke-width="1.4" cx="603.29" cy="-182" rx="0.36" ry="0.36"/>
</g>
<!-- a2&#45;&gt;af0 -->
<g id="edge8" class="edge">
<title>a2&#45;&gt;af0</title>
<path fill="none" stroke="#2e7d32" stroke-width="1.3" stroke-dasharray="5,2" d="M484.71,-182C523.05,-182 595.7,-182 602.43,-182"/>
<text xml:space="preserve" text-anchor="middle" x="554.93" y="-185.05" font-family="Helvetica,sans-Serif" font-size="11.00" fill="#1b5e20">ρ = 0.0 (1̄)</text>
</g>
<!-- sa -->
<g id="node9" class="node">
<title>sa</title>
<ellipse fill="#bbdefb" stroke="#1565c0" stroke-width="1.4" cx="63.46" cy="-182" rx="0.36" ry="0.36"/>
</g>
<!-- sa&#45;&gt;a0 -->
<g id="edge5" class="edge">
<title>sa&#45;&gt;a0</title>
<path fill="none" stroke="#607d8b" stroke-width="1.3" d="M64.32,-182C67.98,-182 90.98,-182 111.08,-182"/>
<polygon fill="#607d8b" stroke="#607d8b" stroke-width="1.3" points="111.05,-185.5 121.05,-182 111.05,-178.5 111.05,-185.5"/>
</g>
</g>
</svg>
