<svg xmlns="http://www.w3.org/2000/svg" xmlns:xlink="http://www.w3.org/1999/xlink" contentStyleType="text/css" data-diagram-type="STATE" height="115px" preserveAspectRatio="none" style="width:731px;height:115px;background:#FFFFFF;" version="1.1" viewBox="0 0 731 115" width="731px" zoomAndPan="magnify"><?plantuml $version$?><defs/><g><g class="title" data-source-line="17"><text fill="#000000" font-family="sans-serif" font-size="14" font-weight="700" lengthAdjust="spacing" textLength="122.0655" x="163.7468" y="24.9659">Correction lattice</text><text fill="#000000" font-family="sans-serif" font-size="14" font-weight="700" lengthAdjust="spacing" textLength="267.1609" x="293.0923" y="24.9659">&#8212;  green marks the best (Viterbi) path</text></g><rect fill="#BBDEFB" height="40" rx="12.5" ry="12.5" style="stroke:#1565C0;stroke-width:0.5;" width="50" x="87" y="47.0679"/><text fill="#102027" font-family="sans-serif" font-size="14" font-weight="700" lengthAdjust="spacing" textLength="8.008" x="107.996" y="72.4999">0</text><rect fill="#BBDEFB" height="40" rx="12.5" ry="12.5" style="stroke:#1565C0;stroke-width:0.5;" width="50" x="249" y="47.0679"/><text fill="#102027" font-family="sans-serif" font-size="14" font-weight="700" lengthAdjust="spacing" textLength="8.008" x="269.996" y="72.4999">1</text><rect fill="#BBDEFB" height="40" rx="12.5" ry="12.5" style="stroke:#1565C0;stroke-width:0.5;" width="50" x="423" y="47.0679"/><text fill="#102027" font-family="sans-serif" font-size="14" font-weight="700" lengthAdjust="spacing" textLength="8.008" x="443.996" y="72.4999">2</text><rect fill="#C8E6C9" height="40" rx="12.5" ry="12.5" style="stroke:#1565C0;stroke-width:0.5;" width="50" x="584" y="47.0679"/><text fill="#102027" font-family="sans-serif" font-size="14" font-weight="700" lengthAdjust="spacing" textLength="8.008" x="604.996" y="72.4999">3</text><g class="start_entity" data-qualified-name=".start." data-source-line="19" id="ent0005"><ellipse cx="16" cy="67.0679" fill="#222222" rx="10" ry="10" style="stroke:#222222;stroke-width:1;"/></g><g class="end_entity" data-qualified-name=".end." data-source-line="30" id="ent0012"><ellipse cx="706" cy="67.0679" fill="none" rx="11" ry="11" style="stroke:#222222;stroke-width:1;"/><ellipse cx="706" cy="67.0679" fill="#222222" rx="6" ry="6" style="stroke:#222222;stroke-width:1;"/></g><!--link *start* to s0--><g class="link" data-entity-1="ent0005" data-entity-2="ent0001" data-link-type="dependency" data-source-line="19" id="lnk6"><path d="M26.36,67.0679 C40.29,67.0679 61.95,67.0679 81.65,67.0679" fill="none" id="*start*-to-s0" style="stroke:#607D8B;stroke-width:1.3;"/><polygon fill="#607D8B" points="86.65,67.0679,77.65,63.0679,81.65,67.0679,77.65,71.0679,86.65,67.0679" style="stroke:#607D8B;stroke-width:1.3;stroke-linejoin:miter;stroke-miterlimit:10;"/></g><!--link s0 to s1--><g class="link" data-entity-1="ent0001" data-entity-2="ent0002" data-link-type="dependency" data-source-line="25" id="lnk7"><path d="M137.3,67.0679 C167.46,67.0679 213.59,67.0679 243.73,67.0679" fill="none" id="s0-to-s1" style="stroke:#2E7D32;stroke-width:2;"/><polygon fill="#2E7D32" points="248.73,67.0679,239.73,63.0679,243.73,67.0679,239.73,71.0679,248.73,67.0679" style="stroke:#2E7D32;stroke-width:2;stroke-linejoin:miter;stroke-miterlimit:10;"/><text fill="#000000" font-family="sans-serif" font-size="13" lengthAdjust="spacing" textLength="50.011" x="168" y="62.9649">the / 0.5</text></g><!--link s0 to s1--><g class="link" data-entity-1="ent0001" data-entity-2="ent0002" data-link-type="dependency" data-source-line="26" id="lnk8"><path d="M137.35,82.2379 C146.33,87.0079 156.8,91.6579 167,94.0679 C189.49,99.3779 196.51,99.3779 219,94.0679 C229.2,91.6579 235.2543,89.3535 244.2343,84.5835" fill="none" id="s0-to-s1-1" style="stroke:#B0BEC5;stroke-width:1.3;"/><polygon fill="#B0BEC5" points="248.65,82.2379,238.8253,82.9273,244.2343,84.5835,242.5782,89.9924,248.65,82.2379" style="stroke:#B0BEC5;stroke-width:1.3;stroke-linejoin:miter;stroke-miterlimit:10;"/><text fill="#000000" font-family="sans-serif" font-size="13" lengthAdjust="spacing" textLength="50.011" x="168" y="89.9649">teh / 1.0</text></g><!--link s1 to s2--><g class="link" data-entity-1="ent0002" data-entity-2="ent0003" data-link-type="dependency" data-source-line="27" id="lnk9"><path d="M299.28,67.0679 C331.97,67.0679 384.8,67.0679 417.57,67.0679" fill="none" id="s1-to-s2" style="stroke:#2E7D32;stroke-width:2;"/><polygon fill="#2E7D32" points="422.57,67.0679,413.57,63.0679,417.57,67.0679,413.57,71.0679,422.57,67.0679" style="stroke:#2E7D32;stroke-width:2;stroke-linejoin:miter;stroke-miterlimit:10;"/><text fill="#000000" font-family="sans-serif" font-size="13" lengthAdjust="spacing" textLength="62.5171" x="330" y="62.9649">quick / 0.5</text></g><!--link s1 to s2--><g class="link" data-entity-1="ent0002" data-entity-2="ent0003" data-link-type="dependency" data-source-line="28" id="lnk10"><path d="M299.35,82.2379 C308.33,87.0079 318.8,91.6579 329,94.0679 C356.68,100.5979 365.32,100.5979 393,94.0679 C403.2,91.6579 409.2543,89.3535 418.2343,84.5835" fill="none" id="s1-to-s2-1" style="stroke:#B0BEC5;stroke-width:1.3;"/><polygon fill="#B0BEC5" points="422.65,82.2379,412.8253,82.9273,418.2343,84.5835,416.5782,89.9924,422.65,82.2379" style="stroke:#B0BEC5;stroke-width:1.3;stroke-linejoin:miter;stroke-miterlimit:10;"/><text fill="#000000" font-family="sans-serif" font-size="13" lengthAdjust="spacing" textLength="56.2771" x="333" y="89.9649">quik / 1.0</text></g><!--link s2 to s3--><g class="link" data-entity-1="ent0003" data-entity-2="ent0004" data-link-type="dependency" data-source-line="29" id="lnk11"><path d="M473.5,67.0679 C503.46,67.0679 548.88,67.0679 578.74,67.0679" fill="none" id="s2-to-s3" style="stroke:#2E7D32;stroke-width:2;"/><polygon fill="#2E7D32" points="583.74,67.0679,574.74,63.0679,578.74,67.0679,574.74,71.0679,583.74,67.0679" style="stroke:#2E7D32;stroke-width:2;stroke-linejoin:miter;stroke-miterlimit:10;"/><text fill="#000000" font-family="sans-serif" font-size="13" lengthAdjust="spacing" textLength="49.166" x="504" y="62.9649">fox / 0.0</text></g><!--link s3 to *end*--><g class="link" data-entity-1="ent0004" data-entity-2="ent0012" data-link-type="dependency" data-source-line="30" id="lnk13"><path d="M634.46,67.0679 C654.04,67.0679 675.49,67.0679 689.8,67.0679" fill="none" id="s3-to-*end*" style="stroke:#607D8B;stroke-width:1.3;"/><polygon fill="#607D8B" points="694.8,67.0679,685.8,63.0679,689.8,67.0679,685.8,71.0679,694.8,67.0679" style="stroke:#607D8B;stroke-width:1.3;stroke-linejoin:miter;stroke-miterlimit:10;"/></g><?plantuml-src TLBBRjim4BppAnRn8MrHEPG4sscH6B1aEn-Ge3a4EL3IMY8aaGgvHXmK1V8H-S9-IQaNOYGk3oHcPpGBpUuvt6jJOkRXGTHDXP1gOp0bgHLKWaYc2CA2W0ftv97sZCmBWlljxMhApk7682eG9hLm3LGW96W9lloIX2QHNw4HLFpiY0jusikqTEzE7vpOd_8fQqs1DFIccHmwCrjArGWZQaX4MkP6xrKMwqeRc6oxSwImXSZqirGvx4HbyOZ9S2Vs5TtXWLQLp5MDYY1r5vhZxqaGmcy647ti5KNhpJPg6MqoD4FLdyrdCNVLhLOqrdZ0WyLGkwKN5sIYgupzEMgqCaO_3_evNwmleu_aNU4IKcYjIoTaXSmGi6xenVs9JOrikcmOINBsLyao_ZIgguja2V3tzGqWxoPJ2rFQ_ms6iOTlZ-1vIx2SzJ6SyRDstE_Oxx4_ug37mOZ37eSmYIyty_W7OvQ3zp09Dejr67nlGtXi6_WmhW6VpWPDnADDF6lfxlGQB9p6BGTpy8HFu3JZ8dLE_YcdGLMELi4fgz29sbriZPmcx99mYVm3?></g></svg>