<?xml version="1.0" encoding="UTF-8" standalone="no"?>
<!DOCTYPE svg PUBLIC "-//W3C//DTD SVG 1.1//EN"
 "http://www.w3.org/Graphics/SVG/1.1/DTD/svg11.dtd">
<!-- Generated by graphviz version 14.1.5 (0)
 -->
<!-- Title: cascade_lg_composition Pages: 1 -->
<svg width="620pt" height="402pt"
 viewBox="0.00 0.00 620.00 402.00" xmlns="http://www.w3.org/2000/svg" xmlns:xlink="http://www.w3.org/1999/xlink">
<g id="graph0" class="graph" transform="scale(1 1) rotate(0) translate(4 397.5)">
<title>cascade_lg_composition</title>
<polygon fill="#ffffff" stroke="none" points="-4,4 -4,-397.5 615.5,-397.5 615.5,4 -4,4"/>
<text xml:space="preserve" text-anchor="start" x="8" y="-378.15" font-family="Helvetica,sans-Serif" font-weight="bold" font-size="13.00">L ∘ G label flow</text>
<text xml:space="preserve" text-anchor="start" x="119.75" y="-378.15" font-family="Helvetica,sans-Serif" font-size="13.00"> — phone → word_id (L), word_id → word_id (G), phone → word_id (L ∘ G)</text>
<g id="clust1" class="cluster">
<title>cluster_L</title>
<path fill="#fff3e0" stroke="#e65100" d="M123.04,-107C123.04,-107 488.46,-107 488.46,-107 494.46,-107 500.46,-113 500.46,-119 500.46,-119 500.46,-213 500.46,-213 500.46,-219 494.46,-225 488.46,-225 488.46,-225 123.04,-225 123.04,-225 117.04,-225 111.04,-219 111.04,-213 111.04,-213 111.04,-119 111.04,-119 111.04,-113 117.04,-107 123.04,-107"/>
<text xml:space="preserve" text-anchor="start" x="204.5" y="-209.65" font-family="Helvetica,sans-Serif" font-weight="bold" font-size="13.00" fill="#e65100">L</text>
<text xml:space="preserve" text-anchor="start" x="212.75" y="-209.65" font-family="Helvetica,sans-Serif" font-size="13.00" fill="#e65100"> — lexicon : phone → word_id</text>
</g>
<g id="clust2" class="cluster">
<title>cluster_G</title>
<path fill="#fff3e0" stroke="#e65100" d="M120.93,-8C120.93,-8 373.22,-8 373.22,-8 379.22,-8 385.22,-14 385.22,-20 385.22,-20 385.22,-87 385.22,-87 385.22,-93 379.22,-99 373.22,-99 373.22,-99 120.93,-99 120.93,-99 114.93,-99 108.93,-93 108.93,-87 108.93,-87 108.93,-20 108.93,-20 108.93,-14 114.93,-8 120.93,-8"/>
<text xml:space="preserve" text-anchor="start" x="132.7" y="-83.65" font-family="Helvetica,sans-Serif" font-weight="bold" font-size="13.00" fill="#e65100">G</text>
<text xml:space="preserve" text-anchor="start" x="143.2" y="-83.65" font-family="Helvetica,sans-Serif" font-size="13.00" fill="#e65100"> — grammar : word_id → word_id</text>
</g>
<g id="clust3" class="cluster">
<title>cluster_LG</title>
<path fill="#e8f5e9" stroke="#2e7d32" d="M117.78,-233C117.78,-233 493.72,-233 493.72,-233 499.72,-233 505.72,-239 505.72,-245 505.72,-245 505.72,-349 505.72,-349 505.72,-355 499.72,-361 493.72,-361 493.72,-361 117.78,-361 117.78,-361 111.78,-361 105.78,-355 105.78,-349 105.78,-349 105.78,-245 105.78,-245 105.78,-239 111.78,-233 117.78,-233"/>
<text xml:space="preserve" text-anchor="start" x="179.38" y="-345.65" font-family="Helvetica,sans-Serif" font-weight="bold" font-size="13.00" fill="#2e7d32">L ∘ G</text>
<text xml:space="preserve" text-anchor="start" x="215.38" y="-345.65" font-family="Helvetica,sans-Serif" font-size="13.00" fill="#2e7d32"> — composite : phone → word_id</text>
</g>
<!-- l0 -->
<g id="node1" class="node">
<title>l0</title>
<ellipse fill="#bbdefb" stroke="#1565c0" stroke-width="1.4" cx="138.15" cy="-138" rx="19.12" ry="19.12"/>
<text xml:space="preserve" text-anchor="middle" x="138.15" y="-133.32" font-family="Helvetica,sans-Serif" font-size="14.00" fill="#102027">ℓ₀</text>
</g>
<!-- l1 -->
<g id="node2" class="node">
<title>l1</title>
<ellipse fill="#bbdefb" stroke="#1565c0" stroke-width="1.4" cx="352" cy="-138" rx="19.12" ry="19.12"/>
<text xml:space="preserve" text-anchor="middle" x="352" y="-133.32" font-family="Helvetica,sans-Serif" font-size="14.00" fill="#102027">ℓ₁</text>
</g>
<!-- l0&#45;&gt;l1 -->
<g id="edge1" class="edge">
<title>l0&#45;&gt;l1</title>
<path fill="none" stroke="#607d8b" stroke-width="1.3" d="M157.95,-138C194.62,-138 275.98,-138 320.48,-138"/>
<polygon fill="#607d8b" stroke="#607d8b" stroke-width="1.3" points="320.27,-141.5 330.27,-138 320.27,-134.5 320.27,-141.5"/>
<text xml:space="preserve" text-anchor="middle" x="244.66" y="-141.05" font-family="Helvetica,sans-Serif" font-size="11.00" fill="#37474f">k : cat</text>
</g>
<!-- l2 -->
<g id="node3" class="node">
<title>l2</title>
<ellipse fill="#c8e6c9" stroke="#2e7d32" stroke-width="1.4" cx="469.35" cy="-138" rx="19.12" ry="19.12"/>
<ellipse fill="none" stroke="#2e7d32" stroke-width="1.4" cx="469.35" cy="-138" rx="23.12" ry="23.12"/>
<text xml:space="preserve" text-anchor="middle" x="469.35" y="-133.32" font-family="Helvetica,sans-Serif" font-size="14.00" fill="#102027">ℓ₂</text>
</g>
<!-- l1&#45;&gt;l2 -->
<g id="edge2" class="edge">
<title>l1&#45;&gt;l2</title>
<path fill="none" stroke="#9e9e9e" stroke-width="1.3" stroke-dasharray="5,2" d="M371.79,-138C388.49,-138 413.35,-138 433.65,-138"/>
<polygon fill="#9e9e9e" stroke="#9e9e9e" stroke-width="1.3" points="433.63,-141.5 443.63,-138 433.63,-134.5 433.63,-141.5"/>
<text xml:space="preserve" text-anchor="middle" x="409.09" y="-141.05" font-family="Helvetica,sans-Serif" font-size="11.00" fill="#37474f">æ : ε</text>
</g>
<!-- g0 -->
<g id="node4" class="node">
<title>g0</title>
<ellipse fill="#bbdefb" stroke="#1565c0" stroke-width="1.4" cx="138.15" cy="-41" rx="21.22" ry="21.22"/>
<text xml:space="preserve" text-anchor="middle" x="138.15" y="-36.33" font-family="Helvetica,sans-Serif" font-size="14.00" fill="#102027">g₀</text>
</g>
<!-- l1&#45;&gt;g0 -->
<g id="edge8" class="edge">
<title>l1&#45;&gt;g0</title>
<path fill="none" stroke="#1565c0" stroke-width="1.2" stroke-dasharray="1,5" d="M339.04,-123.42C334.63,-117.4 329.93,-110.17 326.78,-103 312.21,-69.83 337.08,-46.11 308.78,-23.5 268.64,8.57 204.97,-10.88 168.12,-26.74"/>
<polygon fill="#1565c0" stroke="#1565c0" stroke-width="1.2" points="166.93,-23.44 159.25,-30.74 169.81,-29.82 166.93,-23.44"/>
<text xml:space="preserve" text-anchor="middle" x="244.66" y="-26.55" font-family="Helvetica,sans-Serif" font-size="11.00" fill="#0d47a1">match on &#160;word_id &#39;cat&#39;</text>
</g>
<!-- l2&#45;&gt;l2 -->
<g id="edge3" class="edge">
<title>l2&#45;&gt;l2</title>
<path fill="none" stroke="#9e9e9e" stroke-width="1.3" stroke-dasharray="5,2" d="M458.45,-158.73C456.77,-169.45 460.4,-179.12 469.35,-179.12 474.8,-179.12 478.27,-175.53 479.78,-170.3"/>
<polygon fill="#9e9e9e" stroke="#9e9e9e" stroke-width="1.3" points="483.26,-170.83 480.17,-160.7 476.27,-170.55 483.26,-170.83"/>
<text xml:space="preserve" text-anchor="middle" x="469.35" y="-182.17" font-family="Helvetica,sans-Serif" font-size="11.00" fill="#37474f">t : ε</text>
</g>
<!-- g1 -->
<g id="node5" class="node">
<title>g1</title>
<ellipse fill="#c8e6c9" stroke="#2e7d32" stroke-width="1.4" cx="352" cy="-41" rx="21.22" ry="21.22"/>
<ellipse fill="none" stroke="#2e7d32" stroke-width="1.4" cx="352" cy="-41" rx="25.22" ry="25.22"/>
<text xml:space="preserve" text-anchor="middle" x="352" y="-36.33" font-family="Helvetica,sans-Serif" font-size="14.00" fill="#102027">g₁</text>
</g>
<!-- g0&#45;&gt;g1 -->
<g id="edge4" class="edge">
<title>g0&#45;&gt;g1</title>
<path fill="none" stroke="#607d8b" stroke-width="1.3" d="M159.85,-41C195.73,-41 269.9,-41 314.57,-41"/>
<polygon fill="#607d8b" stroke="#607d8b" stroke-width="1.3" points="314.36,-44.5 324.36,-41 314.36,-37.5 314.36,-44.5"/>
<text xml:space="preserve" text-anchor="middle" x="244.66" y="-44.05" font-family="Helvetica,sans-Serif" font-size="11.00" fill="#37474f">cat : cat / 1.2</text>
</g>
<!-- m0 -->
<g id="node6" class="node">
<title>m0</title>
<ellipse fill="#bbdefb" stroke="#1565c0" stroke-width="1.4" cx="138.15" cy="-269" rx="24.38" ry="24.38"/>
<text xml:space="preserve" text-anchor="middle" x="138.15" y="-264.32" font-family="Helvetica,sans-Serif" font-size="14.00" fill="#102027">m₀</text>
</g>
<!-- m1 -->
<g id="node7" class="node">
<title>m1</title>
<ellipse fill="#bbdefb" stroke="#1565c0" stroke-width="1.4" cx="352" cy="-269" rx="24.38" ry="24.38"/>
<text xml:space="preserve" text-anchor="middle" x="352" y="-264.32" font-family="Helvetica,sans-Serif" font-size="14.00" fill="#102027">m₁</text>
</g>
<!-- m0&#45;&gt;m1 -->
<g id="edge5" class="edge">
<title>m0&#45;&gt;m1</title>
<path fill="none" stroke="#2e7d32" stroke-width="2" d="M163.04,-269C199.93,-269 271.03,-269 314.42,-269"/>
<polygon fill="#2e7d32" stroke="#2e7d32" stroke-width="2" points="314.17,-272.5 324.17,-269 314.17,-265.5 314.17,-272.5"/>
<text xml:space="preserve" text-anchor="middle" x="244.66" y="-272.05" font-family="Helvetica,sans-Serif" font-size="11.00" fill="#1b5e20">k : cat / 1.2</text>
</g>
<!-- m2 -->
<g id="node8" class="node">
<title>m2</title>
<ellipse fill="#c8e6c9" stroke="#2e7d32" stroke-width="1.4" cx="469.35" cy="-269" rx="24.38" ry="24.38"/>
<ellipse fill="none" stroke="#2e7d32" stroke-width="1.4" cx="469.35" cy="-269" rx="28.38" ry="28.38"/>
<text xml:space="preserve" text-anchor="middle" x="469.35" y="-264.32" font-family="Helvetica,sans-Serif" font-size="14.00" fill="#102027">m₂</text>
</g>
<!-- m1&#45;&gt;m2 -->
<g id="edge6" class="edge">
<title>m1&#45;&gt;m2</title>
<path fill="none" stroke="#9e9e9e" stroke-width="1.3" stroke-dasharray="5,2" d="M376.9,-269C391.84,-269 411.45,-269 428.68,-269"/>
<polygon fill="#9e9e9e" stroke="#9e9e9e" stroke-width="1.3" points="428.45,-272.5 438.45,-269 428.45,-265.5 428.45,-272.5"/>
<text xml:space="preserve" text-anchor="middle" x="409.09" y="-272.05" font-family="Helvetica,sans-Serif" font-size="11.00" fill="#37474f">æ : ε</text>
</g>
<!-- m2&#45;&gt;m2 -->
<g id="edge7" class="edge">
<title>m2&#45;&gt;m2</title>
<path fill="none" stroke="#9e9e9e" stroke-width="1.3" stroke-dasharray="5,2" d="M458.12,-295.69C457.48,-306.39 461.23,-315.38 469.35,-315.38 474.17,-315.38 477.45,-312.21 479.18,-307.4"/>
<polygon fill="#9e9e9e" stroke="#9e9e9e" stroke-width="1.3" points="482.63,-307.99 480.34,-297.64 475.68,-307.16 482.63,-307.99"/>
<text xml:space="preserve" text-anchor="middle" x="469.35" y="-318.43" font-family="Helvetica,sans-Serif" font-size="11.00" fill="#37474f">t : ε</text>
</g>
</g>
</svg>
