<?xml version="1.0" encoding="UTF-8" standalone="no"?>
<!DOCTYPE svg PUBLIC "-//W3C//DTD SVG 1.1//EN"
 "http://www.w3.org/Graphics/SVG/1.1/DTD/svg11.dtd">
<!-- Generated by graphviz version 14.1.5 (0)
 -->
<!-- Title: hmm_3state Pages: 1 -->
<svg width="643pt" height="115pt"
 viewBox="0.00 0.00 643.00 115.00" xmlns="http://www.w3.org/2000/svg" xmlns:xlink="http://www.w3.org/1999/xlink">
<g id="graph0" class="graph" transform="scale(1 1) rotate(0) translate(4 110.74)">
<title>hmm_3state</title>
<polygon fill="#ffffff" stroke="none" points="-4,4 -4,-110.74 638.75,-110.74 638.75,4 -4,4"/>
<text xml:space="preserve" text-anchor="start" x="8" y="-91.39" font-family="Helvetica,sans-Serif" font-weight="bold" font-size="13.00">3&#45;state HMM transducer (H)</text>
<text xml:space="preserve" text-anchor="start" x="212.75" y="-91.39" font-family="Helvetica,sans-Serif" font-size="13.00"> — self&#45;loops model duration; forward arcs advance the phone</text>
<!-- __start__ -->
<g id="node1" class="node">
<title>__start__</title>
<ellipse fill="#bbdefb" stroke="#1565c0" stroke-width="1.4" cx="49.54" cy="-30.94" rx="0.36" ry="0.36"/>
</g>
<!-- s0 -->
<g id="node2" class="node">
<title>s0</title>
<ellipse fill="#bbdefb" stroke="#1565c0" stroke-width="1.4" cx="106.7" cy="-30.94" rx="19.8" ry="19.8"/>
<text xml:space="preserve" text-anchor="middle" x="106.7" y="-26.26" font-family="Helvetica,sans-Serif" font-size="14.00" fill="#102027">S₀</text>
</g>
<!-- __start__&#45;&gt;s0 -->
<g id="edge1" class="edge">
<title>__start__&#45;&gt;s0</title>
<path fill="none" stroke="#607d8b" stroke-width="1.3" d="M50.53,-30.94C53.13,-30.94 63.47,-30.94 74.5,-30.94"/>
<polygon fill="#607d8b" stroke="#607d8b" stroke-width="1.3" points="74.45,-34.44 84.45,-30.94 74.45,-27.44 74.45,-34.44"/>
</g>
<!-- s0&#45;&gt;s0 -->
<g id="edge5" class="edge">
<title>s0&#45;&gt;s0</title>
<path fill="none" stroke="#9e9e9e" stroke-width="1.3" stroke-dasharray="5,2" d="M99.77,-50C98.7,-59.85 101.01,-68.74 106.7,-68.74 109.9,-68.74 112.03,-65.93 113.09,-61.71"/>
<polygon fill="#9e9e9e" stroke="#9e9e9e" stroke-width="1.3" points="116.57,-62.11 113.54,-51.96 109.58,-61.79 116.57,-62.11"/>
<text xml:space="preserve" text-anchor="middle" x="106.7" y="-71.79" font-family="Helvetica,sans-Serif" font-size="11.00" fill="#37474f">pdf₀ : ε / aₛₗ</text>
</g>
<!-- s1 -->
<g id="node3" class="node">
<title>s1</title>
<ellipse fill="#bbdefb" stroke="#1565c0" stroke-width="1.4" cx="252.8" cy="-30.94" rx="19.8" ry="19.8"/>
<text xml:space="preserve" text-anchor="middle" x="252.8" y="-26.26" font-family="Helvetica,sans-Serif" font-size="14.00" fill="#102027">S₁</text>
</g>
<!-- s0&#45;&gt;s1 -->
<g id="edge2" class="edge">
<title>s0&#45;&gt;s1</title>
<path fill="none" stroke="#607d8b" stroke-width="1.3" d="M127.13,-30.94C151.22,-30.94 192.57,-30.94 221,-30.94"/>
<polygon fill="#607d8b" stroke="#607d8b" stroke-width="1.3" points="220.71,-34.44 230.71,-30.94 220.71,-27.44 220.71,-34.44"/>
<text xml:space="preserve" text-anchor="middle" x="179.75" y="-33.99" font-family="Helvetica,sans-Serif" font-size="11.00" fill="#37474f">pdf₀ : n &#160;/ aₒₙ</text>
</g>
<!-- s1&#45;&gt;s1 -->
<g id="edge6" class="edge">
<title>s1&#45;&gt;s1</title>
<path fill="none" stroke="#9e9e9e" stroke-width="1.3" stroke-dasharray="5,2" d="M240.5,-46.86C236.78,-57.88 240.88,-68.74 252.8,-68.74 260.25,-68.74 264.65,-64.5 265.99,-58.63"/>
<polygon fill="#9e9e9e" stroke="#9e9e9e" stroke-width="1.3" points="269.49,-58.53 265.24,-48.82 262.51,-59.06 269.49,-58.53"/>
<text xml:space="preserve" text-anchor="middle" x="252.8" y="-71.79" font-family="Helvetica,sans-Serif" font-size="11.00" fill="#37474f">pdf₁ : ε / aₛₗ</text>
</g>
<!-- s2 -->
<g id="node4" class="node">
<title>s2</title>
<ellipse fill="#bbdefb" stroke="#1565c0" stroke-width="1.4" cx="398.15" cy="-30.94" rx="19.8" ry="19.8"/>
<text xml:space="preserve" text-anchor="middle" x="398.15" y="-26.26" font-family="Helvetica,sans-Serif" font-size="14.00" fill="#102027">S₂</text>
</g>
<!-- s1&#45;&gt;s2 -->
<g id="edge3" class="edge">
<title>s1&#45;&gt;s2</title>
<path fill="none" stroke="#607d8b" stroke-width="1.3" d="M273.13,-30.94C296.96,-30.94 337.77,-30.94 366.04,-30.94"/>
<polygon fill="#607d8b" stroke="#607d8b" stroke-width="1.3" points="365.7,-34.44 375.7,-30.94 365.7,-27.44 365.7,-34.44"/>
<text xml:space="preserve" text-anchor="middle" x="325.47" y="-33.99" font-family="Helvetica,sans-Serif" font-size="11.00" fill="#37474f">pdf₁ : ε &#160;/ aₒₙ</text>
</g>
<!-- s2&#45;&gt;s2 -->
<g id="edge7" class="edge">
<title>s2&#45;&gt;s2</title>
<path fill="none" stroke="#9e9e9e" stroke-width="1.3" stroke-dasharray="5,2" d="M385.85,-46.86C382.13,-57.88 386.23,-68.74 398.15,-68.74 405.6,-68.74 410,-64.5 411.34,-58.63"/>
<polygon fill="#9e9e9e" stroke="#9e9e9e" stroke-width="1.3" points="414.84,-58.53 410.59,-48.82 407.86,-59.06 414.84,-58.53"/>
<text xml:space="preserve" text-anchor="middle" x="398.15" y="-71.79" font-family="Helvetica,sans-Serif" font-size="11.00" fill="#37474f">pdf₂ : ε / aₛₗ</text>
</g>
<!-- s3 -->
<g id="node5" class="node">
<title>s3</title>
<ellipse fill="#c8e6c9" stroke="#2e7d32" stroke-width="1.4" cx="554.63" cy="-30.94" rx="26.94" ry="26.94"/>
<ellipse fill="none" stroke="#2e7d32" stroke-width="1.4" cx="554.63" cy="-30.94" rx="30.94" ry="30.94"/>
<text xml:space="preserve" text-anchor="middle" x="554.63" y="-26.26" font-family="Helvetica,sans-Serif" font-size="14.00" fill="#102027">exit</text>
</g>
<!-- s2&#45;&gt;s3 -->
<g id="edge4" class="edge">
<title>s2&#45;&gt;s3</title>
<path fill="none" stroke="#607d8b" stroke-width="1.3" d="M418.4,-30.94C441.51,-30.94 480.92,-30.94 511.26,-30.94"/>
<polygon fill="#607d8b" stroke="#607d8b" stroke-width="1.3" points="511.25,-34.44 521.25,-30.94 511.25,-27.44 511.25,-34.44"/>
<text xml:space="preserve" text-anchor="middle" x="470.82" y="-33.99" font-family="Helvetica,sans-Serif" font-size="11.00" fill="#37474f">pdf₂ : ε &#160;/ aₒₙ</text>
</g>
</g>
</svg>
