<?xml version="1.0" encoding="UTF-8" standalone="no"?>
<!DOCTYPE svg PUBLIC "-//W3C//DTD SVG 1.1//EN"
 "http://www.w3.org/Graphics/SVG/1.1/DTD/svg11.dtd">
<!-- Generated by graphviz version 14.1.5 (0)
 -->
<!-- Title: lexicon_fst Pages: 1 -->
<svg width="593pt" height="123pt"
 viewBox="0.00 0.00 593.00 123.00" xmlns="http://www.w3.org/2000/svg" xmlns:xlink="http://www.w3.org/1999/xlink">
<g id="graph0" class="graph" transform="scale(1 1) rotate(0) translate(4 118.62)">
<title>lexicon_fst</title>
<polygon fill="#ffffff" stroke="none" points="-4,4 -4,-118.62 589.25,-118.62 589.25,4 -4,4"/>
<text xml:space="preserve" text-anchor="start" x="8" y="-99.27" font-family="Helvetica,sans-Serif" font-weight="bold" font-size="13.00">Lexicon transducer L</text>
<text xml:space="preserve" text-anchor="start" x="160.25" y="-99.27" font-family="Helvetica,sans-Serif" font-size="13.00"> — &quot;cat&quot; = k:cat / æ:ε / t:ε, returning to start for the next word</text>
<!-- __start__ -->
<g id="node1" class="node">
<title>__start__</title>
<ellipse fill="#bbdefb" stroke="#1565c0" stroke-width="1.4" cx="115.88" cy="-35.32" rx="0.36" ry="0.36"/>
</g>
<!-- start -->
<g id="node2" class="node">
<title>start</title>
<ellipse fill="#c8e6c9" stroke="#2e7d32" stroke-width="1.4" cx="188.56" cy="-35.32" rx="31.32" ry="31.32"/>
<ellipse fill="none" stroke="#2e7d32" stroke-width="1.4" cx="188.56" cy="-35.32" rx="35.32" ry="35.32"/>
<text xml:space="preserve" text-anchor="middle" x="188.56" y="-30.64" font-family="Helvetica,sans-Serif" font-size="14.00" fill="#102027">start</text>
</g>
<!-- __start__&#45;&gt;start -->
<g id="edge1" class="edge">
<title>__start__&#45;&gt;start</title>
<path fill="none" stroke="#607d8b" stroke-width="1.3" d="M116.7,-35.32C118.93,-35.32 129.07,-35.32 141.01,-35.32"/>
<polygon fill="#607d8b" stroke="#607d8b" stroke-width="1.3" points="140.85,-38.82 150.85,-35.32 140.85,-31.82 140.85,-38.82"/>
</g>
<!-- s1 -->
<g id="node3" class="node">
<title>s1</title>
<ellipse fill="#bbdefb" stroke="#1565c0" stroke-width="1.4" cx="330.38" cy="-70.32" rx="19.8" ry="19.8"/>
<text xml:space="preserve" text-anchor="middle" x="330.38" y="-65.64" font-family="Helvetica,sans-Serif" font-size="14.00" fill="#102027">s₁</text>
</g>
<!-- start&#45;&gt;s1 -->
<g id="edge2" class="edge">
<title>start&#45;&gt;s1</title>
<path fill="none" stroke="#2e7d32" stroke-width="2" d="M223.41,-43.79C246.13,-49.48 275.87,-56.92 298.05,-62.48"/>
<polygon fill="#2e7d32" stroke="#2e7d32" stroke-width="2" points="296.96,-65.81 307.51,-64.84 298.66,-59.02 296.96,-65.81"/>
<text xml:space="preserve" text-anchor="middle" x="259.13" y="-60.03" font-family="Helvetica,sans-Serif" font-size="11.00" fill="#1b5e20">k : cat</text>
</g>
<!-- s2 -->
<g id="node4" class="node">
<title>s2</title>
<ellipse fill="#bbdefb" stroke="#1565c0" stroke-width="1.4" cx="449.93" cy="-35.32" rx="19.8" ry="19.8"/>
<text xml:space="preserve" text-anchor="middle" x="449.93" y="-30.64" font-family="Helvetica,sans-Serif" font-size="14.00" fill="#102027">s₂</text>
</g>
<!-- s1&#45;&gt;s2 -->
<g id="edge3" class="edge">
<title>s1&#45;&gt;s2</title>
<path fill="none" stroke="#9e9e9e" stroke-width="1.3" stroke-dasharray="5,2" d="M350,-64.77C368.57,-59.24 397.39,-50.66 419.14,-44.19"/>
<polygon fill="#9e9e9e" stroke="#9e9e9e" stroke-width="1.3" points="419.92,-47.61 428.5,-41.4 417.92,-40.9 419.92,-47.61"/>
<text xml:space="preserve" text-anchor="middle" x="398.25" y="-56.92" font-family="Helvetica,sans-Serif" font-size="11.00" fill="#37474f">æ : ε</text>
</g>
<!-- s2&#45;&gt;start -->
<g id="edge4" class="edge">
<title>s2&#45;&gt;start</title>
<path fill="none" stroke="#9e9e9e" stroke-width="1.3" stroke-dasharray="5,2" d="M429.61,-33.06C412.9,-31.23 388.08,-28.8 366.38,-27.82 334.41,-26.37 326.36,-26.67 294.38,-27.82 275.18,-28.5 254.03,-29.89 235.8,-31.29"/>
<polygon fill="#9e9e9e" stroke="#9e9e9e" stroke-width="1.3" points="235.64,-27.79 225.95,-32.08 236.2,-34.77 235.64,-27.79"/>
<text xml:space="preserve" text-anchor="middle" x="330.38" y="-30.87" font-family="Helvetica,sans-Serif" font-size="11.00" fill="#37474f">t : ε &#160;(return)</text>
</g>
</g>
</svg>
