<?xml version="1.0" encoding="UTF-8" standalone="no"?>
<!DOCTYPE svg PUBLIC "-//W3C//DTD SVG 1.1//EN"
 "http://www.w3.org/Graphics/SVG/1.1/DTD/svg11.dtd">
<!-- Generated by graphviz version 14.1.5 (0)
 -->
<!-- Title: ngram_backoff Pages: 1 -->
<svg width="664pt" height="162pt"
 viewBox="0.00 0.00 664.00 162.00" xmlns="http://www.w3.org/2000/svg" xmlns:xlink="http://www.w3.org/1999/xlink">
<g id="graph0" class="graph" transform="scale(1 1) rotate(0) translate(4 157.62)">
<title>ngram_backoff</title>
<polygon fill="#ffffff" stroke="none" points="-4,4 -4,-157.62 660.45,-157.62 660.45,4 -4,4"/>
<text xml:space="preserve" text-anchor="start" x="10.97" y="-138.27" font-family="Helvetica,sans-Serif" font-weight="bold" font-size="13.00">n&#45;gram LM transducer G</text>
<text xml:space="preserve" text-anchor="start" x="187.97" y="-138.27" font-family="Helvetica,sans-Serif" font-size="13.00"> — solid = seen n&#45;gram arc, dashed grey = ε back&#45;off arc (cost β(h))</text>
<!-- __start__ -->
<g id="node1" class="node">
<title>__start__</title>
<ellipse fill="#bbdefb" stroke="#1565c0" stroke-width="1.4" cx="0.36" cy="-52.68" rx="0.36" ry="0.36"/>
</g>
<!-- bi_the -->
<g id="node2" class="node">
<title>bi_the</title>
<ellipse fill="#bbdefb" stroke="#1565c0" stroke-width="1.4" cx="66.03" cy="-52.68" rx="28.31" ry="28.31"/>
<text xml:space="preserve" text-anchor="middle" x="66.03" y="-48" font-family="Helvetica,sans-Serif" font-size="14.00" fill="#102027">⟨the⟩</text>
</g>
<!-- __start__&#45;&gt;bi_the -->
<g id="edge1" class="edge">
<title>__start__&#45;&gt;bi_the</title>
<path fill="none" stroke="#607d8b" stroke-width="1.3" d="M1.13,-52.68C3.28,-52.68 13.59,-52.68 25.32,-52.68"/>
<polygon fill="#607d8b" stroke="#607d8b" stroke-width="1.3" points="25.31,-56.18 35.31,-52.68 25.31,-49.18 25.31,-56.18"/>
</g>
<!-- bi_cat -->
<g id="node3" class="node">
<title>bi_cat</title>
<ellipse fill="#bbdefb" stroke="#1565c0" stroke-width="1.4" cx="335.09" cy="-101.68" rx="27.44" ry="27.44"/>
<text xml:space="preserve" text-anchor="middle" x="335.09" y="-97" font-family="Helvetica,sans-Serif" font-size="14.00" fill="#102027">⟨cat⟩</text>
</g>
<!-- bi_the&#45;&gt;bi_cat -->
<g id="edge2" class="edge">
<title>bi_the&#45;&gt;bi_cat</title>
<path fill="none" stroke="#2e7d32" stroke-width="2" d="M88.27,-71.22C95.45,-76.48 103.82,-81.61 112.34,-84.68 173.04,-106.54 248.99,-107.11 294.4,-104.86"/>
<polygon fill="#2e7d32" stroke="#2e7d32" stroke-width="2" points="294.39,-108.37 304.17,-104.29 293.98,-101.38 294.39,-108.37"/>
<text xml:space="preserve" text-anchor="middle" x="184.34" y="-108.76" font-family="Helvetica,sans-Serif" font-size="11.00" fill="#1b5e20">cat : cat / −log P(cat∣the)</text>
</g>
<!-- uni -->
<g id="node4" class="node">
<title>uni</title>
<ellipse fill="#ffe0b2" stroke="#e65100" stroke-width="1.4" cx="603.77" cy="-52.68" rx="52.68" ry="52.68"/>
<text xml:space="preserve" text-anchor="middle" x="603.77" y="-56.63" font-family="Helvetica,sans-Serif" font-size="14.00" fill="#102027">⟨ε⟩</text>
<text xml:space="preserve" text-anchor="middle" x="603.77" y="-39.38" font-family="Helvetica,sans-Serif" font-size="14.00" fill="#102027">unigram</text>
</g>
<!-- bi_the&#45;&gt;uni -->
<g id="edge4" class="edge">
<title>bi_the&#45;&gt;uni</title>
<path fill="none" stroke="#9e9e9e" stroke-width="1.3" stroke-dasharray="5,2" d="M94.82,-51.26C100.61,-51.02 106.67,-50.8 112.34,-50.68 299.29,-46.56 346.11,-48 533.09,-50.68 534.95,-50.71 536.85,-50.74 538.76,-50.77"/>
<polygon fill="#9e9e9e" stroke="#9e9e9e" stroke-width="1.3" points="538.61,-54.27 548.68,-50.98 538.75,-47.27 538.61,-54.27"/>
<text xml:space="preserve" text-anchor="middle" x="335.09" y="-51.77" font-family="Helvetica,sans-Serif" font-size="11.00" fill="#37474f">ε : ε / β(the)</text>
</g>
<!-- bi_cat&#45;&gt;bi_the -->
<g id="edge3" class="edge">
<title>bi_cat&#45;&gt;bi_the</title>
<path fill="none" stroke="#607d8b" stroke-width="1.3" d="M310.34,-88.59C295.32,-80.97 275.24,-71.95 256.34,-67.18 205.72,-54.41 145.29,-51.89 106.55,-51.83"/>
<polygon fill="#607d8b" stroke="#607d8b" stroke-width="1.3" points="106.73,-48.33 96.74,-51.87 106.76,-55.33 106.73,-48.33"/>
<text xml:space="preserve" text-anchor="middle" x="184.34" y="-70.23" font-family="Helvetica,sans-Serif" font-size="11.00" fill="#37474f">the : the / −log P(the∣cat)</text>
</g>
<!-- bi_cat&#45;&gt;uni -->
<g id="edge5" class="edge">
<title>bi_cat&#45;&gt;uni</title>
<path fill="none" stroke="#9e9e9e" stroke-width="1.3" stroke-dasharray="5,2" d="M363.03,-102.25C401.44,-102.42 473.84,-100.33 533.09,-84.68 537.19,-83.6 541.35,-82.29 545.49,-80.82"/>
<polygon fill="#9e9e9e" stroke="#9e9e9e" stroke-width="1.3" points="546.44,-84.21 554.52,-77.35 543.93,-77.67 546.44,-84.21"/>
<text xml:space="preserve" text-anchor="middle" x="473.46" y="-104" font-family="Helvetica,sans-Serif" font-size="11.00" fill="#37474f">ε : ε / β(cat)</text>
</g>
<!-- uni&#45;&gt;bi_the -->
<g id="edge6" class="edge">
<title>uni&#45;&gt;bi_the</title>
<path fill="none" stroke="#b0bec5" stroke-width="1.3" d="M551.02,-46.69C544.98,-46 538.9,-45.32 533.09,-44.68 472.12,-37.96 457.09,-33.41 395.84,-30.18 269.85,-23.54 237.4,-28.07 112.34,-44.68 110.23,-44.96 108.07,-45.27 105.9,-45.59"/>
<polygon fill="#b0bec5" stroke="#b0bec5" stroke-width="1.3" points="105.54,-42.11 96.23,-47.16 106.66,-49.02 105.54,-42.11"/>
<text xml:space="preserve" text-anchor="middle" x="335.09" y="-33.23" font-family="Helvetica,sans-Serif" font-size="11.00" fill="#37474f">the : the / −log P(the)</text>
</g>
<!-- uni&#45;&gt;bi_cat -->
<g id="edge7" class="edge">
<title>uni&#45;&gt;bi_cat</title>
<path fill="none" stroke="#b0bec5" stroke-width="1.3" d="M550.68,-51.95C512.31,-52.54 459.13,-55.75 413.84,-67.18 399.07,-70.9 383.59,-77.23 370.35,-83.45"/>
<polygon fill="#b0bec5" stroke="#b0bec5" stroke-width="1.3" points="369.05,-80.19 361.61,-87.73 372.13,-86.48 369.05,-80.19"/>
<text xml:space="preserve" text-anchor="middle" x="473.46" y="-70.23" font-family="Helvetica,sans-Serif" font-size="11.00" fill="#37474f">cat : cat / −log P(cat)</text>
</g>
</g>
</svg>
