<?xml version="1.0" encoding="UTF-8" standalone="no"?>
<!DOCTYPE svg PUBLIC "-//W3C//DTD SVG 1.1//EN"
 "http://www.w3.org/Graphics/SVG/1.1/DTD/svg11.dtd">
<!-- Generated by graphviz version 14.1.5 (0)
 -->
<!-- Title: subword_bpe_lexicon Pages: 1 -->
<svg width="668pt" height="193pt"
 viewBox="0.00 0.00 668.00 193.00" xmlns="http://www.w3.org/2000/svg" xmlns:xlink="http://www.w3.org/1999/xlink">
<g id="graph0" class="graph" transform="scale(1 1) rotate(0) translate(4 189.37)">
<title>subword_bpe_lexicon</title>
<polygon fill="#ffffff" stroke="none" points="-4,4 -4,-189.37 664.25,-189.37 664.25,4 -4,4"/>
<text xml:space="preserve" text-anchor="start" x="8" y="-170.02" font-family="Helvetica,sans-Serif" font-weight="bold" font-size="13.00">Subword (BPE) lexicon automaton</text>
<text xml:space="preserve" text-anchor="start" x="257" y="-170.02" font-family="Helvetica,sans-Serif" font-size="13.00"> — initial pieces start a word; &#39;+&#39;&#45;marked pieces continue it</text>
<!-- __start__ -->
<g id="node1" class="node">
<title>__start__</title>
<ellipse fill="#bbdefb" stroke="#1565c0" stroke-width="1.4" cx="114.94" cy="-66.86" rx="0.36" ry="0.36"/>
</g>
<!-- w -->
<g id="node2" class="node">
<title>w</title>
<ellipse fill="#c8e6c9" stroke="#2e7d32" stroke-width="1.4" cx="214.81" cy="-66.86" rx="58.51" ry="58.51"/>
<ellipse fill="none" stroke="#2e7d32" stroke-width="1.4" cx="214.81" cy="-66.86" rx="62.51" ry="62.51"/>
<text xml:space="preserve" text-anchor="middle" x="214.81" y="-70.81" font-family="Helvetica,sans-Serif" font-size="14.00" fill="#102027">word</text>
<text xml:space="preserve" text-anchor="middle" x="214.81" y="-53.56" font-family="Helvetica,sans-Serif" font-size="14.00" fill="#102027">boundary</text>
</g>
<!-- __start__&#45;&gt;w -->
<g id="edge1" class="edge">
<title>__start__&#45;&gt;w</title>
<path fill="none" stroke="#607d8b" stroke-width="1.3" d="M115.93,-66.86C118.39,-66.86 127.81,-66.86 139.91,-66.86"/>
<polygon fill="#607d8b" stroke="#607d8b" stroke-width="1.3" points="139.68,-70.36 149.68,-66.86 139.68,-63.36 139.68,-70.36"/>
</g>
<!-- w&#45;&gt;w -->
<g id="edge6" class="edge">
<title>w&#45;&gt;w</title>
<path fill="none" stroke="#b0bec5" stroke-width="1.3" d="M200.45,-128.29C202.27,-139.5 207.06,-147.37 214.81,-147.37 219.53,-147.37 223.16,-144.45 225.68,-139.63"/>
<polygon fill="#b0bec5" stroke="#b0bec5" stroke-width="1.3" points="228.99,-140.76 228.59,-130.17 222.3,-138.7 228.99,-140.76"/>
<text xml:space="preserve" text-anchor="middle" x="214.81" y="-150.42" font-family="Helvetica,sans-Serif" font-size="11.00" fill="#37474f">DH:the &#160;/ &#160;AH:ε &#160;&#160;(whole word)</text>
</g>
<!-- a1 -->
<g id="node3" class="node">
<title>a1</title>
<ellipse fill="#bbdefb" stroke="#1565c0" stroke-width="1.4" cx="525.87" cy="-99.86" rx="19.8" ry="19.8"/>
<text xml:space="preserve" text-anchor="middle" x="525.87" y="-95.18" font-family="Helvetica,sans-Serif" font-size="14.00" fill="#102027">a₁</text>
</g>
<!-- w&#45;&gt;a1 -->
<g id="edge2" class="edge">
<title>w&#45;&gt;a1</title>
<path fill="none" stroke="#2e7d32" stroke-width="2" d="M271.81,-94.08C279.55,-96.87 287.53,-99.26 295.32,-100.86 364.52,-115.03 447.94,-109.1 492.71,-104.11"/>
<polygon fill="#2e7d32" stroke="#2e7d32" stroke-width="2" points="493.04,-107.59 502.56,-102.94 492.22,-100.64 493.04,-107.59"/>
<text xml:space="preserve" text-anchor="middle" x="391.7" y="-112.75" font-family="Helvetica,sans-Serif" font-size="11.00" fill="#1b5e20">HH:hel &#160;/ &#160;AH:ε &#160;/ &#160;L:ε</text>
</g>
<!-- b1 -->
<g id="node4" class="node">
<title>b1</title>
<ellipse fill="#bbdefb" stroke="#1565c0" stroke-width="1.4" cx="525.87" cy="-33.86" rx="19.8" ry="19.8"/>
<text xml:space="preserve" text-anchor="middle" x="525.87" y="-29.18" font-family="Helvetica,sans-Serif" font-size="14.00" fill="#102027">b₁</text>
</g>
<!-- w&#45;&gt;b1 -->
<g id="edge4" class="edge">
<title>w&#45;&gt;b1</title>
<path fill="none" stroke="#607d8b" stroke-width="1.3" d="M275.46,-50.13C282.12,-48.66 288.84,-47.36 295.32,-46.36 365.51,-35.51 449.02,-33.7 493.43,-33.61"/>
<polygon fill="#607d8b" stroke="#607d8b" stroke-width="1.3" points="493.42,-37.11 503.42,-33.62 493.43,-30.11 493.42,-37.11"/>
<text xml:space="preserve" text-anchor="middle" x="391.7" y="-49.41" font-family="Helvetica,sans-Serif" font-size="11.00" fill="#37474f">W:wor &#160;/ &#160;ER:ε</text>
</g>
<!-- a1&#45;&gt;w -->
<g id="edge3" class="edge">
<title>a1&#45;&gt;w</title>
<path fill="none" stroke="#2e7d32" stroke-width="2" d="M507.74,-90.63C501.69,-87.8 494.74,-84.99 488.07,-83.36 422.72,-67.29 346.03,-63.98 290.72,-64.21"/>
<polygon fill="#2e7d32" stroke="#2e7d32" stroke-width="2" points="290.85,-60.71 280.88,-64.3 290.91,-67.71 290.85,-60.71"/>
<text xml:space="preserve" text-anchor="middle" x="391.7" y="-86.41" font-family="Helvetica,sans-Serif" font-size="11.00" fill="#1b5e20">L:+lo &#160;/ &#160;OW:ε &#160;&#160;(continue → &#39;hello&#39;)</text>
</g>
<!-- b1&#45;&gt;w -->
<g id="edge5" class="edge">
<title>b1&#45;&gt;w</title>
<path fill="none" stroke="#607d8b" stroke-width="1.3" d="M508.22,-24.02C502.1,-20.92 494.97,-17.91 488.07,-16.36 404.51,2.5 377.58,7.56 295.32,-16.36 288.78,-18.26 282.27,-20.88 275.94,-23.93"/>
<polygon fill="#607d8b" stroke="#607d8b" stroke-width="1.3" points="274.46,-20.75 267.24,-28.51 277.72,-26.95 274.46,-20.75"/>
<text xml:space="preserve" text-anchor="middle" x="391.7" y="-19.41" font-family="Helvetica,sans-Serif" font-size="11.00" fill="#37474f">L:+ld &#160;/ &#160;D:ε &#160;&#160;(continue → &#39;world&#39;)</text>
</g>
</g>
</svg>
