<?xml version="1.0" encoding="UTF-8" standalone="no"?>
<!DOCTYPE svg PUBLIC "-//W3C//DTD SVG 1.1//EN"
 "http://www.w3.org/Graphics/SVG/1.1/DTD/svg11.dtd">
<!-- Generated by graphviz version 14.1.5 (0)
 -->
<!-- Title: lookahead Pages: 1 -->
<svg width="923pt" height="602pt"
 viewBox="0.00 0.00 923.00 602.00" xmlns="http://www.w3.org/2000/svg" xmlns:xlink="http://www.w3.org/1999/xlink">
<g id="graph0" class="graph" transform="scale(1 1) rotate(0) translate(4 598)">
<title>lookahead</title>
<polygon fill="#ffffff" stroke="none" points="-4,4 -4,-598 919.28,-598 919.28,4 -4,4"/>
<text xml:space="preserve" text-anchor="start" x="106.64" y="-578.65" font-family="Helvetica,sans-Serif" font-weight="bold" font-size="13.00">Lookahead pruning</text>
<text xml:space="preserve" text-anchor="start" x="247.64" y="-578.65" font-family="Helvetica,sans-Serif" font-size="13.00"> — L[q] = ⊕ over arcs reachable from q (backward potential), pushed to the frontier</text>
<g id="clust1" class="cluster">
<title>cluster_fst</title>
<polygon fill="#ffffff" stroke="#455a64" stroke-dasharray="5,2" points="149.39,-332.5 149.39,-561.5 907.28,-561.5 907.28,-332.5 149.39,-332.5"/>
<text xml:space="preserve" text-anchor="start" x="157.39" y="-544.75" font-family="Helvetica,sans-Serif" font-size="13.00" fill="#37474f">WFSA — arc weights are −log p</text>
</g>
<!-- __start__ -->
<g id="node1" class="node">
<title>__start__</title>
<ellipse fill="#bbdefb" stroke="#1565c0" stroke-width="1.4" cx="157.75" cy="-417.5" rx="0.36" ry="0.36"/>
</g>
<!-- q0 -->
<g id="node2" class="node">
<title>q0</title>
<ellipse fill="#bbdefb" stroke="#1565c0" stroke-width="1.4" cx="395.1" cy="-417.5" rx="42.6" ry="42.6"/>
<text xml:space="preserve" text-anchor="middle" x="395.1" y="-421.45" font-family="Helvetica,sans-Serif" font-size="14.00" fill="#102027">q0</text>
<text xml:space="preserve" text-anchor="middle" x="395.1" y="-404.2" font-family="Helvetica,sans-Serif" font-size="14.00" fill="#102027">V=3.0</text>
</g>
<!-- __start__&#45;&gt;q0 -->
<g id="edge1" class="edge">
<title>__start__&#45;&gt;q0</title>
<path fill="none" stroke="#607d8b" stroke-width="1.3" d="M158.79,-417.5C161.28,-417.5 271.19,-417.5 339.91,-417.5"/>
<polygon fill="#607d8b" stroke="#607d8b" stroke-width="1.3" points="339.84,-421 349.84,-417.5 339.84,-414 339.84,-421"/>
</g>
<!-- q1 -->
<g id="node3" class="node">
<title>q1</title>
<ellipse fill="#bbdefb" stroke="#1565c0" stroke-width="1.4" cx="711.31" cy="-383.5" rx="42.6" ry="42.6"/>
<text xml:space="preserve" text-anchor="middle" x="711.31" y="-387.45" font-family="Helvetica,sans-Serif" font-size="14.00" fill="#102027">q1</text>
<text xml:space="preserve" text-anchor="middle" x="711.31" y="-370.2" font-family="Helvetica,sans-Serif" font-size="14.00" fill="#102027">V=2.0</text>
</g>
<!-- q0&#45;&gt;q1 -->
<g id="edge2" class="edge">
<title>q0&#45;&gt;q1</title>
<path fill="none" stroke="#2e7d32" stroke-width="2" d="M438.15,-412.95C494.28,-406.88 593.77,-396.11 655.65,-389.41"/>
<polygon fill="#2e7d32" stroke="#2e7d32" stroke-width="2" points="655.68,-392.93 665.25,-388.38 654.93,-385.97 655.68,-392.93"/>
<text xml:space="preserve" text-anchor="middle" x="553.21" y="-414.05" font-family="Helvetica,sans-Serif" font-size="11.00" fill="#1b5e20">a / 1.0</text>
</g>
<!-- q2 -->
<g id="node4" class="node">
<title>q2</title>
<ellipse fill="#bbdefb" stroke="#1565c0" stroke-width="1.4" cx="711.31" cy="-486.5" rx="42.6" ry="42.6"/>
<text xml:space="preserve" text-anchor="middle" x="711.31" y="-490.45" font-family="Helvetica,sans-Serif" font-size="14.00" fill="#102027">q2</text>
<text xml:space="preserve" text-anchor="middle" x="711.31" y="-473.2" font-family="Helvetica,sans-Serif" font-size="14.00" fill="#102027">V=2.0</text>
</g>
<!-- q0&#45;&gt;q2 -->
<g id="edge4" class="edge">
<title>q0&#45;&gt;q2</title>
<path fill="none" stroke="#b0bec5" stroke-width="1.3" d="M437.18,-426.52C493.67,-438.93 595.39,-461.26 657.48,-474.9"/>
<polygon fill="#b0bec5" stroke="#b0bec5" stroke-width="1.3" points="656.53,-478.27 667.05,-477 658.03,-471.44 656.53,-478.27"/>
<text xml:space="preserve" text-anchor="middle" x="553.21" y="-476.35" font-family="Helvetica,sans-Serif" font-size="11.00" fill="#37474f">c / 1.0</text>
</g>
<!-- q3 -->
<g id="node5" class="node">
<title>q3</title>
<ellipse fill="#c8e6c9" stroke="#2e7d32" stroke-width="1.4" cx="862.22" cy="-417.5" rx="33.06" ry="33.06"/>
<ellipse fill="none" stroke="#2e7d32" stroke-width="1.4" cx="862.22" cy="-417.5" rx="37.06" ry="37.06"/>
<text xml:space="preserve" text-anchor="middle" x="862.22" y="-421.45" font-family="Helvetica,sans-Serif" font-size="14.00" fill="#102027">q3</text>
<text xml:space="preserve" text-anchor="middle" x="862.22" y="-404.2" font-family="Helvetica,sans-Serif" font-size="14.00" fill="#102027">V=0</text>
</g>
<!-- q1&#45;&gt;q3 -->
<g id="edge3" class="edge">
<title>q1&#45;&gt;q3</title>
<path fill="none" stroke="#2e7d32" stroke-width="2" d="M753.39,-392.88C771.95,-397.12 793.99,-402.15 813.29,-406.56"/>
<polygon fill="#2e7d32" stroke="#2e7d32" stroke-width="2" points="812.35,-409.93 822.88,-408.75 813.91,-403.11 812.35,-409.93"/>
<text xml:space="preserve" text-anchor="middle" x="789.54" y="-407.6" font-family="Helvetica,sans-Serif" font-size="11.00" fill="#1b5e20">b / 2.0</text>
</g>
<!-- q2&#45;&gt;q3 -->
<g id="edge5" class="edge">
<title>q2&#45;&gt;q3</title>
<path fill="none" stroke="#b0bec5" stroke-width="1.3" d="M750.66,-468.73C771.06,-459.28 796.23,-447.61 817.4,-437.8"/>
<polygon fill="#b0bec5" stroke="#b0bec5" stroke-width="1.3" points="818.67,-441.07 826.27,-433.69 815.73,-434.72 818.67,-441.07"/>
<text xml:space="preserve" text-anchor="middle" x="789.54" y="-461.23" font-family="Helvetica,sans-Serif" font-size="11.00" fill="#37474f">d / 2.0</text>
</g>
<!-- table -->
<g id="node6" class="node">
<title>table</title>
<polygon fill="#bbdefb" stroke="none" stroke-width="1.4" points="241.25,-324.25 74.25,-324.25 74.25,-152.75 241.25,-152.75 241.25,-324.25"/>
<polygon fill="#fff59d" stroke="none" points="82.25,-156.75 82.25,-320.25 233.25,-320.25 233.25,-156.75 82.25,-156.75"/>
<polygon fill="none" stroke="#f9a825" points="82.25,-293 82.25,-320.25 233.25,-320.25 233.25,-293 82.25,-293"/>
<text xml:space="preserve" text-anchor="start" x="87.25" y="-302.95" font-family="Helvetica,sans-Serif" font-weight="bold" font-size="14.00" fill="#102027">LookaheadTable L</text>
<polygon fill="none" stroke="#f9a825" points="82.25,-265.75 82.25,-293 128.12,-293 128.12,-265.75 82.25,-265.75"/>
<text xml:space="preserve" text-anchor="start" x="100.69" y="-274.5" font-family="Helvetica,sans-Serif" font-size="14.00" fill="#102027">q</text>
<polygon fill="none" stroke="#f9a825" points="128.12,-265.75 128.12,-293 233.25,-293 233.25,-265.75 128.12,-265.75"/>
<text xml:space="preserve" text-anchor="start" x="142.06" y="-274.5" font-family="Helvetica,sans-Serif" font-size="14.00" fill="#102027">L[q] = V(q)</text>
<polygon fill="none" stroke="#f9a825" points="82.25,-238.5 82.25,-265.75 128.12,-265.75 128.12,-238.5 82.25,-238.5"/>
<text xml:space="preserve" text-anchor="start" x="96.19" y="-247.25" font-family="Helvetica,sans-Serif" font-size="14.00" fill="#102027">q0</text>
<polygon fill="none" stroke="#f9a825" points="128.12,-238.5 128.12,-265.75 233.25,-265.75 233.25,-238.5 128.12,-238.5"/>
<text xml:space="preserve" text-anchor="start" x="169.44" y="-247.25" font-family="Helvetica,sans-Serif" font-size="14.00" fill="#102027">3.0</text>
<polygon fill="none" stroke="#f9a825" points="82.25,-211.25 82.25,-238.5 128.12,-238.5 128.12,-211.25 82.25,-211.25"/>
<text xml:space="preserve" text-anchor="start" x="96.19" y="-220" font-family="Helvetica,sans-Serif" font-size="14.00" fill="#102027">q1</text>
<polygon fill="none" stroke="#f9a825" points="128.12,-211.25 128.12,-238.5 233.25,-238.5 233.25,-211.25 128.12,-211.25"/>
<text xml:space="preserve" text-anchor="start" x="169.44" y="-220" font-family="Helvetica,sans-Serif" font-size="14.00" fill="#102027">2.0</text>
<polygon fill="none" stroke="#f9a825" points="82.25,-184 82.25,-211.25 128.12,-211.25 128.12,-184 82.25,-184"/>
<text xml:space="preserve" text-anchor="start" x="96.19" y="-192.75" font-family="Helvetica,sans-Serif" font-size="14.00" fill="#102027">q2</text>
<polygon fill="none" stroke="#f9a825" points="128.12,-184 128.12,-211.25 233.25,-211.25 233.25,-184 128.12,-184"/>
<text xml:space="preserve" text-anchor="start" x="169.44" y="-192.75" font-family="Helvetica,sans-Serif" font-size="14.00" fill="#102027">2.0</text>
<polygon fill="none" stroke="#f9a825" points="82.25,-156.75 82.25,-184 128.12,-184 128.12,-156.75 82.25,-156.75"/>
<text xml:space="preserve" text-anchor="start" x="96.19" y="-165.5" font-family="Helvetica,sans-Serif" font-size="14.00" fill="#102027">q3</text>
<polygon fill="none" stroke="#f9a825" points="128.12,-156.75 128.12,-184 233.25,-184 233.25,-156.75 128.12,-156.75"/>
<text xml:space="preserve" text-anchor="start" x="169.44" y="-165.5" font-family="Helvetica,sans-Serif" font-size="14.00" fill="#102027">0.0</text>
</g>
<!-- q3&#45;&gt;table -->
<g id="edge6" class="edge">
<title>q3&#45;&gt;table</title>
<path fill="none" stroke="#9e9e9e" stroke-width="1.3" stroke-dasharray="1,5" d="M836.06,-390.89C815.81,-371.2 785.59,-345.47 753.91,-331.5 587.75,-258.23 373.17,-241.57 252.31,-238.43"/>
<polygon fill="#9e9e9e" stroke="#9e9e9e" stroke-width="1.3" points="242.49,-238.21 252.59,-233.94 245.91,-238.14 252.49,-238.29 252.49,-238.44 252.48,-238.59 245.9,-238.44 252.38,-242.94 242.49,-238.21"/>
<text xml:space="preserve" text-anchor="middle" x="553.21" y="-297.28" font-family="Helvetica,sans-Serif" font-size="11.00" fill="#37474f">compute_log_potentials (backward)</text>
</g>
<!-- frontier -->
<g id="node7" class="node">
<title>frontier</title>
<polygon fill="#bbdefb" stroke="none" stroke-width="1.4" points="315.5,-117 0,-117 0,0 315.5,0 315.5,-117"/>
<polygon fill="#c8e6c9" stroke="none" points="8,-4 8,-113 307.5,-113 307.5,-4 8,-4"/>
<polygon fill="none" stroke="#2e7d32" points="8,-85.75 8,-113 307.5,-113 307.5,-85.75 8,-85.75"/>
<text xml:space="preserve" text-anchor="start" x="95.5" y="-95.7" font-family="Helvetica,sans-Serif" font-weight="bold" font-size="14.00" fill="#102027">pruning frontier</text>
<polygon fill="none" stroke="#2e7d32" points="8,-58.5 8,-85.75 307.5,-85.75 307.5,-58.5 8,-58.5"/>
<text xml:space="preserve" text-anchor="start" x="13" y="-67.25" font-family="Helvetica,sans-Serif" font-size="14.00" fill="#102027">hyp @ q1 : g=1.0 ⊗ L=2.0 = 3.0 &#160;✓ keep</text>
<polygon fill="none" stroke="#2e7d32" points="8,-31.25 8,-58.5 307.5,-58.5 307.5,-31.25 8,-31.25"/>
<text xml:space="preserve" text-anchor="start" x="13" y="-40" font-family="Helvetica,sans-Serif" font-size="14.00" fill="#102027">hyp @ q2 : g=1.0 ⊗ L=2.0 = 3.0 &#160;✓ keep</text>
<polygon fill="none" stroke="#2e7d32" points="8,-4 8,-31.25 307.5,-31.25 307.5,-4 8,-4"/>
<text xml:space="preserve" text-anchor="start" x="41.12" y="-12.75" font-family="Helvetica,sans-Serif" font-size="14.00" fill="#102027">best + beam threshold = 3.0 + β</text>
</g>
<!-- table&#45;&gt;frontier -->
<g id="edge7" class="edge">
<title>table&#45;&gt;frontier</title>
<path fill="none" stroke="#9e9e9e" stroke-width="1.3" stroke-dasharray="1,5" d="M157.75,-152.9C157.75,-144.72 157.75,-136.49 157.75,-128.48"/>
<polygon fill="#9e9e9e" stroke="#9e9e9e" stroke-width="1.3" points="157.75,-118.52 162.25,-128.52 157.9,-121.94 157.9,-128.52 157.75,-128.52 157.6,-128.52 157.6,-121.94 153.25,-128.52 157.75,-118.52"/>
<text xml:space="preserve" text-anchor="middle" x="148" y="-131.18" font-family="Helvetica,sans-Serif" font-size="11.00" fill="#37474f">normalize_score: g ⊗ L[q]</text>
</g>
</g>
</svg>
