<?xml version="1.0" encoding="UTF-8" standalone="no"?>
<!DOCTYPE svg PUBLIC "-//W3C//DTD SVG 1.1//EN"
 "http://www.w3.org/Graphics/SVG/1.1/DTD/svg11.dtd">
<!-- Generated by graphviz version 14.1.5 (0)
 -->
<!-- Title: ngram_backoff Pages: 1 -->
<svg width="1367pt" height="243pt"
 viewBox="0.00 0.00 1367.00 243.00" xmlns="http://www.w3.org/2000/svg" xmlns:xlink="http://www.w3.org/1999/xlink">
<g id="graph0" class="graph" transform="scale(1 1) rotate(0) translate(4 238.81)">
<title>ngram_backoff</title>
<polygon fill="#ffffff" stroke="none" points="-4,4 -4,-238.81 1363.35,-238.81 1363.35,4 -4,4"/>
<text xml:space="preserve" text-anchor="start" x="390.17" y="-219.46" font-family="Helvetica,sans-Serif" font-weight="bold" font-size="13.00">N&#45;gram back&#45;off chain</text>
<text xml:space="preserve" text-anchor="start" x="552.17" y="-219.46" font-family="Helvetica,sans-Serif" font-size="13.00"> — h → h′ → … → ε ; dashed = back&#45;off ε with weight −log β(h)</text>
<!-- h2 -->
<g id="node1" class="node">
<title>h2</title>
<ellipse fill="#bbdefb" stroke="#1565c0" stroke-width="1.4" cx="89.4" cy="-89.4" rx="89.4" ry="89.4"/>
<text xml:space="preserve" text-anchor="middle" x="89.4" y="-84.73" font-family="Helvetica,sans-Serif" font-size="14.00" fill="#102027">(w₁,w₂)\ntrigram ctx</text>
</g>
<!-- h2&#45;&gt;h2 -->
<g id="edge1" class="edge">
<title>h2&#45;&gt;h2</title>
<path fill="none" stroke="#1565c0" stroke-width="1.3" d="M63.23,-175.36C67.3,-188.15 76.03,-196.81 89.4,-196.81 98.6,-196.81 105.6,-192.72 110.4,-186"/>
<polygon fill="#1565c0" stroke="#1565c0" stroke-width="1.3" points="113.49,-187.65 114.72,-177.13 107.2,-184.59 113.49,-187.65"/>
<text xml:space="preserve" text-anchor="middle" x="89.4" y="-199.86" font-family="Helvetica,sans-Serif" font-size="11.00" fill="#37474f">w₃ : −log P(w₃∣w₁w₂)</text>
</g>
<!-- h1 -->
<g id="node2" class="node">
<title>h1</title>
<ellipse fill="#bbdefb" stroke="#1565c0" stroke-width="1.4" cx="383.78" cy="-89.4" rx="75.97" ry="75.97"/>
<text xml:space="preserve" text-anchor="middle" x="383.78" y="-84.73" font-family="Helvetica,sans-Serif" font-size="14.00" fill="#102027">(w₂)\nbigram ctx</text>
</g>
<!-- h2&#45;&gt;h1 -->
<g id="edge4" class="edge">
<title>h2&#45;&gt;h1</title>
<path fill="none" stroke="#9e9e9e" stroke-width="1.6" stroke-dasharray="5,2" d="M179.32,-89.4C216,-89.4 258.39,-89.4 294.95,-89.4"/>
<polygon fill="#9e9e9e" stroke="#9e9e9e" stroke-width="1.6" points="294.69,-92.9 304.69,-89.4 294.69,-85.9 294.69,-92.9"/>
<text xml:space="preserve" text-anchor="middle" x="243.31" y="-92.45" font-family="Helvetica,sans-Serif" font-size="11.00" fill="#37474f">ε : −log β(w₁,w₂)</text>
</g>
<!-- h1&#45;&gt;h1 -->
<g id="edge2" class="edge">
<title>h1&#45;&gt;h1</title>
<path fill="none" stroke="#1565c0" stroke-width="1.3" d="M360.7,-162.3C363.86,-174.75 371.55,-183.38 383.78,-183.38 392,-183.38 398.17,-179.48 402.29,-173.15"/>
<polygon fill="#1565c0" stroke="#1565c0" stroke-width="1.3" points="405.44,-174.68 406.09,-164.11 398.99,-171.97 405.44,-174.68"/>
<text xml:space="preserve" text-anchor="middle" x="383.78" y="-186.43" font-family="Helvetica,sans-Serif" font-size="11.00" fill="#37474f">w₃ : −log P(w₃∣w₂)</text>
</g>
<!-- eps -->
<g id="node3" class="node">
<title>eps</title>
<ellipse fill="#c8e6c9" stroke="#2e7d32" stroke-width="1.4" cx="630.68" cy="-89.4" rx="55.17" ry="55.17"/>
<ellipse fill="none" stroke="#2e7d32" stroke-width="1.4" cx="630.68" cy="-89.4" rx="59.17" ry="59.17"/>
<text xml:space="preserve" text-anchor="middle" x="630.68" y="-84.73" font-family="Helvetica,sans-Serif" font-size="14.00" fill="#102027">ε\nunigram</text>
</g>
<!-- h1&#45;&gt;eps -->
<g id="edge5" class="edge">
<title>h1&#45;&gt;eps</title>
<path fill="none" stroke="#9e9e9e" stroke-width="1.6" stroke-dasharray="5,2" d="M460.26,-89.4C491.77,-89.4 528.18,-89.4 559.14,-89.4"/>
<polygon fill="#9e9e9e" stroke="#9e9e9e" stroke-width="1.6" points="558.74,-92.9 568.74,-89.4 558.74,-85.9 558.74,-92.9"/>
<text xml:space="preserve" text-anchor="middle" x="515.63" y="-92.45" font-family="Helvetica,sans-Serif" font-size="11.00" fill="#37474f">ε : −log β(w₂)</text>
</g>
<!-- eps&#45;&gt;eps -->
<g id="edge3" class="edge">
<title>eps&#45;&gt;eps</title>
<path fill="none" stroke="#1565c0" stroke-width="1.3" d="M616.81,-147.63C618.47,-158.73 623.09,-166.58 630.68,-166.58 635.3,-166.58 638.82,-163.66 641.24,-158.87"/>
<polygon fill="#1565c0" stroke="#1565c0" stroke-width="1.3" points="644.53,-160.09 643.99,-149.51 637.81,-158.12 644.53,-160.09"/>
<text xml:space="preserve" text-anchor="middle" x="630.68" y="-169.63" font-family="Helvetica,sans-Serif" font-size="11.00" fill="#37474f">w₃ : −log P̂(w₃)</text>
</g>
<!-- note -->
<g id="node4" class="node">
<title>note</title>
<polygon fill="#eceff1" stroke="#455a64" stroke-width="1.2" points="1353.35,-107.4 726.85,-107.4 726.85,-71.4 1359.35,-71.4 1359.35,-101.4 1353.35,-107.4"/>
<polyline fill="none" stroke="#455a64" stroke-width="1.2" points="1353.35,-107.4 1353.35,-101.4"/>
<polyline fill="none" stroke="#455a64" stroke-width="1.2" points="1359.35,-101.4 1353.35,-101.4"/>
<text xml:space="preserve" text-anchor="middle" x="1043.1" y="-84.73" font-family="Helvetica,sans-Serif" font-size="14.00" fill="#102027">P(w∣h) = λ·P̂(w∣h) + (1−λ)·P(w∣h′)\nlog space: a seen arc, else back&#45;off ε then retry at h′</text>
</g>
<!-- eps&#45;&gt;note -->
</g>
</svg>
