<svg xmlns="http://www.w3.org/2000/svg" xmlns:xlink="http://www.w3.org/1999/xlink" contentStyleType="text/css" data-diagram-type="DESCRIPTION" height="1094px" preserveAspectRatio="none" style="width:1358px;height:1094px;background:#FFFFFF;" version="1.1" viewBox="0 0 1358 1094" width="1358px" zoomAndPan="magnify"><?plantuml $version$?><defs/><g><g class="title" data-source-line="8"><text fill="#000000" font-family="sans-serif" font-size="14" font-weight="700" lengthAdjust="spacing" textLength="205.5192" x="572.8584" y="24.9659">Provider-neutral architecture</text><text fill="#000000" font-family="sans-serif" font-size="11" font-style="italic" font-weight="700" lengthAdjust="spacing" textLength="318.8987" x="516.1687" y="40.8268">dependency arrows point from consumers to public providers</text></g><!--cluster Independent product systems--><g class="cluster" data-qualified-name="Independent product systems" data-source-line="10" id="ent0001"><path d="M614.82,61.6518 L825.8052,61.6518 A3.75,3.75 0 0 1 828.3052,64.1518 L835.3052,86.7197 L881.82,86.7197 A2.5,2.5 0 0 1 884.32,89.2197 L884.32,448.0518 A2.5,2.5 0 0 1 881.82,450.5518 L614.82,450.5518 A2.5,2.5 0 0 1 612.32,448.0518 L612.32,64.1518 A2.5,2.5 0 0 1 614.82,61.6518" fill="#E3F2FD" style="stroke:#000000;stroke-width:1.5;"/><line style="stroke:#000000;stroke-width:1.5;" x1="612.32" x2="835.3052" y1="86.7197" y2="86.7197"/><text fill="#000000" font-family="sans-serif" font-size="14" font-weight="700" lengthAdjust="spacing" textLength="209.9852" x="616.32" y="78.6177">Independent product systems</text></g><!--cluster Provider-neutral foundations--><g class="cluster" data-qualified-name="Provider-neutral foundations" data-source-line="16" id="ent0005"><path d="M240.82,502.0418 L445.4772,502.0418 A3.75,3.75 0 0 1 447.9772,504.5418 L454.9772,527.1097 L968.82,527.1097 A2.5,2.5 0 0 1 971.32,529.6097 L971.32,885.9518 A2.5,2.5 0 0 1 968.82,888.4518 L240.82,888.4518 A2.5,2.5 0 0 1 238.32,885.9518 L238.32,504.5418 A2.5,2.5 0 0 1 240.82,502.0418" fill="#E8F5E9" style="stroke:#000000;stroke-width:1.5;"/><line style="stroke:#000000;stroke-width:1.5;" x1="238.32" x2="454.9772" y1="527.1097" y2="527.1097"/><text fill="#000000" font-family="sans-serif" font-size="14" font-weight="700" lengthAdjust="spacing" textLength="203.6572" x="242.32" y="519.0077">Provider-neutral foundations</text></g><!--entity LlingLlang--><g class="entity" data-qualified-name="Independent product systems.LlingLlang" data-source-line="11" id="ent0002"><rect fill="#FFF9C4" height="58.1358" rx="2.5" ry="2.5" style="stroke:#181818;stroke-width:0.5;" width="240.6812" x="627.98" y="376.4218"/><text fill="#000000" font-family="sans-serif" font-size="14" lengthAdjust="spacing" textLength="64.9457" x="715.8477" y="401.3877">lling-llang</text><text fill="#000000" font-family="sans-serif" font-size="14" lengthAdjust="spacing" textLength="220.6812" x="637.98" y="420.4556">independent optimization system</text></g><!--entity Libcpg--><g class="entity" data-qualified-name="Independent product systems.Libcpg" data-source-line="12" id="ent0003"><rect fill="#BBDEFB" height="58.1358" rx="2.5" ry="2.5" style="stroke:#181818;stroke-width:0.5;" width="210.1473" x="643.24" y="99.6518"/><text fill="#000000" font-family="sans-serif" font-size="14" lengthAdjust="spacing" textLength="39.7738" x="728.4267" y="124.6177">libcpg</text><text fill="#000000" font-family="sans-serif" font-size="14" lengthAdjust="spacing" textLength="190.1473" x="653.24" y="143.6856">independent analysis system</text></g><!--entity Adapter--><g class="entity" data-qualified-name="Independent product systems.Adapter" data-source-line="13" id="ent0004"><rect fill="#D1C4E9" height="58.1358" rx="2.5" ry="2.5" style="stroke:#181818;stroke-width:0.5;" width="210.0493" x="628.29" y="236.7918"/><text fill="#000000" font-family="sans-serif" font-size="14" lengthAdjust="spacing" textLength="153.0474" x="656.7909" y="261.7577">optional libcpg adapter</text><text fill="#000000" font-family="sans-serif" font-size="14" lengthAdjust="spacing" textLength="190.0493" x="638.29" y="280.8256">consumer-owned translation</text></g><!--entity Runtime--><g class="entity" data-qualified-name="Provider-neutral foundations.Runtime" data-source-line="17" id="ent0006"><rect fill="#C8E6C9" height="58.1358" rx="2.5" ry="2.5" style="stroke:#181818;stroke-width:0.5;" width="164.3534" x="509.14" y="677.1818"/><text fill="#000000" font-family="sans-serif" font-size="14" lengthAdjust="spacing" textLength="97.3976" x="542.6179" y="702.1477">vinary-runtime</text><text fill="#000000" font-family="sans-serif" font-size="14" lengthAdjust="spacing" textLength="144.3534" x="519.14" y="721.2156">result &#183; artifact &#183; cache</text></g><!--entity Assurance--><g class="entity" data-qualified-name="Provider-neutral foundations.Assurance" data-source-line="18" id="ent0007"><rect fill="#A5D6A7" height="58.1358" rx="2.5" ry="2.5" style="stroke:#181818;stroke-width:0.5;" width="206.8712" x="253.88" y="540.0418"/><text fill="#000000" font-family="sans-serif" font-size="14" lengthAdjust="spacing" textLength="111.4816" x="301.5748" y="565.0077">vinary-assurance</text><text fill="#000000" font-family="sans-serif" font-size="14" lengthAdjust="spacing" textLength="186.8712" x="263.88" y="584.0756">evidence &#183; policy &#183; guarantee</text></g><!--entity Canonical--><g class="entity" data-qualified-name="Provider-neutral foundations.Canonical" data-source-line="19" id="ent0008"><rect fill="#81C784" height="58.1358" rx="2.5" ry="2.5" style="stroke:#181818;stroke-width:0.5;" width="167.3494" x="342.64" y="814.3118"/><text fill="#000000" font-family="sans-serif" font-size="14" lengthAdjust="spacing" textLength="138.7534" x="356.938" y="839.2777">vinary-canonical-json</text><text fill="#000000" font-family="sans-serif" font-size="14" lengthAdjust="spacing" textLength="147.3494" x="352.64" y="858.3456">canonical wire identity</text></g><!--entity Graph--><g class="entity" data-qualified-name="Provider-neutral foundations.Graph" data-source-line="20" id="ent0009"><rect fill="#66BB6A" height="58.1358" rx="2.5" ry="2.5" style="stroke:#181818;stroke-width:0.5;" width="161.0355" x="495.8" y="540.0418"/><text fill="#000000" font-family="sans-serif" font-size="14" lengthAdjust="spacing" textLength="140.8115" x="505.912" y="565.0077">vinary-analysis-graph</text><text fill="#000000" font-family="sans-serif" font-size="14" lengthAdjust="spacing" textLength="141.0355" x="505.8" y="584.0756">neutral artifact graph</text></g><!--entity Morphism--><g class="entity" data-qualified-name="Provider-neutral foundations.Morphism" data-source-line="21" id="ent0010"><rect fill="#43A047" height="58.1358" rx="2.5" ry="2.5" style="stroke:#181818;stroke-width:0.5;" width="263.599" x="691.52" y="540.0418"/><text fill="#000000" font-family="sans-serif" font-size="14" lengthAdjust="spacing" textLength="83.8457" x="781.3967" y="565.0077">libmorphism</text><text fill="#000000" font-family="sans-serif" font-size="14" lengthAdjust="spacing" textLength="243.599" x="701.52" y="584.0756">composition claims and law evidence</text></g><g class="entity" data-qualified-name="GMN20" data-source-line="35" id="ent0021"><path d="M6,546.4018 L6,591.8138 L218.6332,591.8138 L218.6332,556.4018 L208.6332,546.4018 L6,546.4018" fill="#FEFFDD" style="stroke:#181818;stroke-width:0.5;"/><path d="M208.6332,546.4018 L208.6332,556.4018 L218.6332,556.4018 L208.6332,546.4018" fill="#FEFFDD" style="stroke:#181818;stroke-width:1;"/><text fill="#000000" font-family="sans-serif" font-size="13" lengthAdjust="spacing" textLength="159.1202" x="28.2565" y="565.2988">No dependency on libcpg.</text><text fill="#000000" font-family="sans-serif" font-size="13" lengthAdjust="spacing" textLength="191.6332" x="12" y="583.0048">No libcpg-owned internal state.</text></g><g class="entity" data-qualified-name="GMN23" data-source-line="40" id="ent0024"><path d="M903.79,373.9218 L903.79,437.0398 L1172.8433,437.0398 L1172.8433,383.9218 L1162.8433,373.9218 L903.79,373.9218" fill="#FEFFDD" style="stroke:#181818;stroke-width:0.5;"/><path d="M1162.8433,373.9218 L1162.8433,383.9218 L1172.8433,383.9218 L1162.8433,373.9218" fill="#FEFFDD" style="stroke:#181818;stroke-width:1;"/><text fill="#000000" font-family="sans-serif" font-size="13" lengthAdjust="spacing" textLength="143.1042" x="962.2646" y="392.8188">Optional direction only:</text><text fill="#000000" font-family="sans-serif" font-size="13" lengthAdjust="spacing" textLength="248.0533" x="909.79" y="410.5248">libcpg consumer -&gt; lling-llang public API.</text><text fill="#000000" font-family="sans-serif" font-size="13" lengthAdjust="spacing" textLength="239.1482" x="914.2425" y="428.2308">No private access and no reverse edge.</text></g><!--link Adapter to LlingLlang--><g class="link" data-entity-1="ent0004" data-entity-2="ent0002" data-link-type="dependency" data-source-line="24" id="lnk11"><path d="M736.42,295.3718 C739,318.9918 742.0989,347.4211 744.6689,371.0311" fill="none" id="Adapter-to-LlingLlang" style="stroke:#37474F;stroke-width:1.5;stroke-dasharray:7,7;"/><polygon fill="#37474F" points="745.21,376.0018,748.2126,366.6218,744.6689,371.0311,740.2596,367.4875,745.21,376.0018" style="stroke:#37474F;stroke-width:1.5;stroke-linejoin:miter;stroke-miterlimit:10;"/><text fill="#000000" font-family="sans-serif" font-size="13" lengthAdjust="spacing" textLength="157.1702" x="742.71" y="339.8188">public, versioned API only</text></g><!--link Libcpg to Adapter--><g class="link" data-entity-1="ent0003" data-entity-2="ent0004" data-link-type="dependency" data-source-line="25" id="lnk12"><path d="M745.17,158.0518 C742.61,181.1118 739.5719,208.5423 737.0119,231.5923" fill="none" id="Libcpg-to-Adapter" style="stroke:#37474F;stroke-width:1.5;stroke-dasharray:7,7;"/><polygon fill="#37474F" points="736.46,236.5618,741.429,228.0583,737.0119,231.5923,733.4779,227.1752,736.46,236.5618" style="stroke:#37474F;stroke-width:1.5;stroke-linejoin:miter;stroke-miterlimit:10;"/><text fill="#000000" font-family="sans-serif" font-size="13" lengthAdjust="spacing" textLength="182.8972" x="742.71" y="202.6888">optional consumer ownership</text></g><!--link LlingLlang to Runtime--><g class="link" data-entity-1="ent0002" data-entity-2="ent0006" data-link-type="dependency" data-source-line="26" id="lnk13"><path d="M812.84,434.9318 C835.64,443.8818 861.74,452.8918 886.32,458.5518 C906.32,463.1618 964.48,451.8718 978.32,467.0418 C999.76,490.5618 1090.63,450.4118 972.32,598.1818 C935.17,644.5718 779.1658,676.3633 678.7158,692.6133" fill="none" id="LlingLlang-to-Runtime" style="stroke:#37474F;stroke-width:1.5;stroke-dasharray:7,7;"/><polygon fill="#37474F" points="673.78,693.4118,683.3033,695.9232,678.7158,692.6133,682.0257,688.0259,673.78,693.4118" style="stroke:#37474F;stroke-width:1.5;stroke-linejoin:miter;stroke-miterlimit:10;"/><text fill="#000000" font-family="sans-serif" font-size="13" lengthAdjust="spacing" textLength="97.9161" x="1032.86" y="574.5088">neutral contract</text></g><!--link Libcpg to Runtime--><g class="link" data-entity-1="ent0003" data-entity-2="ent0006" data-link-type="dependency" data-source-line="27" id="lnk14"><path d="M853.6,137.2118 C998.94,150.4918 1243.32,184.7418 1243.32,264.8618 C1243.32,264.8618 1243.32,264.8618 1243.32,570.1118 C1243.32,685.1318 854.3396,702.9277 678.8896,705.1777" fill="none" id="Libcpg-to-Runtime" style="stroke:#37474F;stroke-width:1.5;stroke-dasharray:7,7;"/><polygon fill="#37474F" points="673.89,705.2418,682.9406,709.126,678.8896,705.1777,682.838,701.1267,673.89,705.2418" style="stroke:#37474F;stroke-width:1.5;stroke-linejoin:miter;stroke-miterlimit:10;"/><text fill="#000000" font-family="sans-serif" font-size="13" lengthAdjust="spacing" textLength="97.9161" x="1244.32" y="410.8788">neutral contract</text></g><!--link Runtime to Canonical--><g class="link" data-entity-1="ent0006" data-entity-2="ent0008" data-link-type="dependency" data-source-line="28" id="lnk15"><path d="M556.73,735.5818 C528.66,758.5618 493.1381,787.6536 465.0081,810.6936" fill="none" id="Runtime-to-Canonical" style="stroke:#37474F;stroke-width:1.5;stroke-dasharray:7,7;"/><polygon fill="#37474F" points="461.14,813.8618,470.6372,811.2535,465.0081,810.6936,465.5681,805.0645,461.14,813.8618" style="stroke:#37474F;stroke-width:1.5;stroke-linejoin:miter;stroke-miterlimit:10;"/><text fill="#000000" font-family="sans-serif" font-size="13" lengthAdjust="spacing" textLength="93.9641" x="519.7" y="780.2088">canonical bytes</text></g><!--link Assurance to Runtime--><g class="link" data-entity-1="ent0007" data-entity-2="ent0006" data-link-type="dependency" data-source-line="29" id="lnk16"><path d="M380.2,598.4718 C394.38,614.5418 413.78,634.0118 434.32,647.1818 C456.95,661.6918 479.0108,671.6114 503.9808,680.5214" fill="none" id="Assurance-to-Runtime" style="stroke:#37474F;stroke-width:1.5;stroke-dasharray:7,7;"/><polygon fill="#37474F" points="508.69,682.2018,501.5578,675.4098,503.9808,680.5214,498.8692,682.9445,508.69,682.2018" style="stroke:#37474F;stroke-width:1.5;stroke-linejoin:miter;stroke-miterlimit:10;"/><text fill="#000000" font-family="sans-serif" font-size="13" lengthAdjust="spacing" textLength="139.0091" x="435.32" y="643.0788">bound artifacts/results</text></g><!--link Assurance to Canonical--><g class="link" data-entity-1="ent0007" data-entity-2="ent0008" data-link-type="dependency" data-source-line="30" id="lnk17"><path d="M357.26,598.4418 C357.86,631.8018 361.02,688.5918 374.32,735.3118 C382.29,763.3418 394.8033,788.617 406.6333,809.587" fill="none" id="Assurance-to-Canonical" style="stroke:#37474F;stroke-width:1.5;stroke-dasharray:7,7;"/><polygon fill="#37474F" points="409.09,813.9418,408.1518,804.1377,406.6333,809.587,401.184,808.0685,409.09,813.9418" style="stroke:#37474F;stroke-width:1.5;stroke-linejoin:miter;stroke-miterlimit:10;"/><text fill="#000000" font-family="sans-serif" font-size="13" lengthAdjust="spacing" textLength="115.3101" x="375.32" y="711.6488">canonical evidence</text></g><!--link Graph to Runtime--><g class="link" data-entity-1="ent0009" data-entity-2="ent0006" data-link-type="dependency" data-source-line="31" id="lnk18"><path d="M579.46,598.4418 C582.02,621.5018 585.0681,648.9323 587.6281,671.9823" fill="none" id="Graph-to-Runtime" style="stroke:#37474F;stroke-width:1.5;stroke-dasharray:7,7;"/><polygon fill="#37474F" points="588.18,676.9518,591.1621,667.5652,587.6281,671.9823,583.211,668.4483,588.18,676.9518" style="stroke:#37474F;stroke-width:1.5;stroke-linejoin:miter;stroke-miterlimit:10;"/><text fill="#000000" font-family="sans-serif" font-size="13" lengthAdjust="spacing" textLength="111.8261" x="585.71" y="643.0788">artifact references</text></g><!--link LlingLlang to Morphism--><g class="link" data-entity-1="ent0002" data-entity-2="ent0010" data-link-type="dependency" data-source-line="32" id="lnk19"><path d="M761.55,435.0118 C775.22,464.4618 794.3149,505.6166 807.9849,535.0666" fill="none" id="LlingLlang-to-Morphism" style="stroke:#37474F;stroke-width:1.5;stroke-dasharray:7,7;"/><polygon fill="#37474F" points="810.09,539.6018,809.9289,529.7542,807.9849,535.0666,802.6725,533.1225,810.09,539.6018" style="stroke:#37474F;stroke-width:1.5;stroke-linejoin:miter;stroke-miterlimit:10;"/><text fill="#000000" font-family="sans-serif" font-size="13" lengthAdjust="spacing" textLength="185.8092" x="784.57" y="481.9388">lawful composition vocabulary</text></g><!--link LlingLlang to GMN20--><g class="link" data-entity-1="ent0002" data-entity-2="ent0021" data-link-type="association" data-source-line="35" id="lnk22"><path d="M627.69,414.8618 C522.31,425.0518 366.56,447.1318 238.32,494.0418 C203.41,506.8118 167.19,529.2318 142.59,546.0618" fill="none" id="LlingLlang-GMN20" style="stroke:#37474F;stroke-width:1.5;stroke-dasharray:7,7;"/></g><!--link Adapter to GMN23--><g class="link" data-entity-1="ent0004" data-entity-2="ent0024" data-link-type="association" data-source-line="40" id="lnk25"><path d="M832.5,295.3918 C857.68,303.8218 884.36,313.8018 908.32,324.9218 C937.83,338.6318 969,357.5418 993.41,373.4818" fill="none" id="Adapter-GMN23" style="stroke:#37474F;stroke-width:1.5;stroke-dasharray:7,7;"/></g><g class="legend" data-source-line="45"><rect fill="none" height="166.5433" rx="7.5" ry="7.5" style="stroke:#000000;stroke-width:1;" width="196.5213" x="1142.7148" y="909.4518"/><rect fill="#FFF9C4" height="19.0679" style="stroke:none;stroke-width:1;" width="186.5213" x="1147.7148" y="916.4518"/><text fill="#000000" font-family="sans-serif" font-size="14" lengthAdjust="spacing" textLength="150.4854" x="1151.3548" y="931.4177">independent optimizer</text><rect fill="#BBDEFB" height="19.0679" style="stroke:none;stroke-width:1;" width="186.5213" x="1147.7148" y="935.5197"/><text fill="#000000" font-family="sans-serif" font-size="14" lengthAdjust="spacing" textLength="143.1494" x="1151.3548" y="950.4856">independent analyzer</text><rect fill="#D1C4E9" height="19.0679" style="stroke:none;stroke-width:1;" width="186.5213" x="1147.7148" y="954.5876"/><text fill="#000000" font-family="sans-serif" font-size="14" lengthAdjust="spacing" textLength="179.2413" x="1151.3548" y="969.5536">optional consumer adapter</text><rect fill="#C8E6C9" height="19.0679" style="stroke:none;stroke-width:1;" width="186.5213" x="1147.7148" y="973.6555"/><text fill="#000000" font-family="sans-serif" font-size="14" lengthAdjust="spacing" textLength="161.8254" x="1151.3548" y="988.6215">neutral runtime contract</text><rect fill="#A5D6A7" height="19.0679" style="stroke:none;stroke-width:1;" width="186.5213" x="1147.7148" y="992.7235"/><text fill="#000000" font-family="sans-serif" font-size="14" lengthAdjust="spacing" textLength="175.9093" x="1151.3548" y="1007.6894">neutral assurance contract</text><rect fill="#81C784" height="19.0679" style="stroke:none;stroke-width:1;" width="186.5213" x="1147.7148" y="1011.7914"/><text fill="#000000" font-family="sans-serif" font-size="14" lengthAdjust="spacing" textLength="127.0075" x="1151.3548" y="1026.7573">canonical encoding</text><rect fill="#66BB6A" height="19.0679" style="stroke:none;stroke-width:1;" width="186.5213" x="1147.7148" y="1030.8593"/><text fill="#000000" font-family="sans-serif" font-size="14" lengthAdjust="spacing" textLength="141.0355" x="1151.3548" y="1045.8252">neutral artifact graph</text><rect fill="#43A047" height="19.0679" style="stroke:none;stroke-width:1;" width="186.5213" x="1147.7148" y="1049.9272"/><text fill="#000000" font-family="sans-serif" font-size="14" lengthAdjust="spacing" textLength="143.4575" x="1151.3548" y="1064.8931">morphism vocabulary</text><line style="stroke:#000000;stroke-width:1;" x1="1147.7148" x2="1334.2361" y1="916.4518" y2="916.4518"/><line style="stroke:#000000;stroke-width:1;" x1="1147.7148" x2="1334.2361" y1="935.5197" y2="935.5197"/><line style="stroke:#000000;stroke-width:1;" x1="1147.7148" x2="1334.2361" y1="954.5876" y2="954.5876"/><line style="stroke:#000000;stroke-width:1;" x1="1147.7148" x2="1334.2361" y1="973.6555" y2="973.6555"/><line style="stroke:#000000;stroke-width:1;" x1="1147.7148" x2="1334.2361" y1="992.7235" y2="992.7235"/><line style="stroke:#000000;stroke-width:1;" x1="1147.7148" x2="1334.2361" y1="1011.7914" y2="1011.7914"/><line style="stroke:#000000;stroke-width:1;" x1="1147.7148" x2="1334.2361" y1="1030.8593" y2="1030.8593"/><line style="stroke:#000000;stroke-width:1;" x1="1147.7148" x2="1334.2361" y1="1049.9272" y2="1049.9272"/><line style="stroke:#000000;stroke-width:1;" x1="1147.7148" x2="1334.2361" y1="1068.9951" y2="1068.9951"/><line style="stroke:#000000;stroke-width:1;" x1="1147.7148" x2="1147.7148" y1="916.4518" y2="1068.9951"/><line style="stroke:#000000;stroke-width:1;" x1="1334.2361" x2="1334.2361" y1="916.4518" y2="1068.9951"/></g><?plantuml-src VLN1Rjiu5BphAnwYQ-tKZMCdXY50TkmYG7PRxFRe2qtHCXkA54ZANhNTx-gzNzP7KPHbnsWEYIJE6pw-6KxCAvSbqQI0BQ6lkLQLp9PAA0tnklc9J8SmUvAf8vSvx8WmhBUIiHsfXFt2_hEfuBaicBH0yHVJFLIgjJgsv7VJyNIylbpyikVqLJ9ZO3IyxorILPHA8j-_jXOCDAEMo5omABBSueVvDlcirO5dJ0yagwmc0eYcUsuHMMaslzqc6pat_1kRZKR9d2SPAvdCcAGr0d5d0wNYsFHEAxUTD5N1j06heAosWbCeMtupl-N9_DPH9L5Kuj18pk3cMGP6ww1PHIsOsbXMc1k8LtVh3-id-1x1wIXm8mJESY047cKZUOz0bPON_1knNCcMvGQ8WHTNyEBmZJgFo_458T_IyeABI29gmyqPJuE3UB5uMgqNvnnkRuKruCc0PAH46JSo36MWZf9bW3EMHZGjDfofnq7yD5gELu_H_xtXlD5cvspMr3RJULZVhnulftFWakXwe2k9ms0RgPb1Yy6ldoYOvJj2csTAw9ur3VpZWH0l7rQJvUDLCc9CXNrJf6Ek8tno9AL2XMltb5VeDxIjfqm37EBq_ccIJg-IKYALv9I8mLUZ90uglCEHQmPk6tHftJ0kkxNuORISFeoljzbgDiWrAVSRUR9qU_3cUqFuqJr1F9ai5fFqZHiAfSizDuLJ3xyRtZYA2i8BWyx8G90ZX4aqV7-r5H2FxzBtuwdJCKWx72Pz2yxQg_4E3dWja1XTaNv-1YL57RKMSoMXV0QTjuANm7b9cpqlenwnAmfgpY0S7clmBxLzwZ-WmfA3dQO-WvCwszeo4vqqFYVSEejs4pUttdwN-ElCOQAHL-USk1DHintJ3cOk3z-9C7C2xIe1VVaEYf9j9T0eKIILPTYgjPXQQjTJ1wtmju9Uoc6Xlz53l-HVsilCNL8xOOmbbWqZB097_MQ3Laka-1IqpBYBOzUO4tw6IsroT28F4kX5NGXKj4hRIgdv0RS5GgcBVj9iZkDnjcB0iloi8y5ozw9vlhTO_sFUHc42Lo8KT__XGJxhpa7DFUjXV7GbLtpQfc00-eX9EjUr8TMvB-1yQfnmNVwyGVeqIFecmZkRkN-sBS9VyHxNMHW4bB-r2OIRttCBGl3SVdo_0G00?></g></svg>