<?xml version="1.0" encoding="UTF-8" standalone="no"?>
<!DOCTYPE svg PUBLIC "-//W3C//DTD SVG 1.1//EN"
 "http://www.w3.org/Graphics/SVG/1.1/DTD/svg11.dtd">
<!-- Generated by graphviz version 14.1.5 (0)
 -->
<!-- Title: token_grouping Pages: 1 -->
<svg width="981pt" height="404pt"
 viewBox="0.00 0.00 981.00 404.00" xmlns="http://www.w3.org/2000/svg" xmlns:xlink="http://www.w3.org/1999/xlink">
<g id="graph0" class="graph" transform="scale(1 1) rotate(0) translate(4 399.5)">
<title>token_grouping</title>
<polygon fill="#ffffff" stroke="none" points="-4,4 -4,-399.5 976.75,-399.5 976.75,4 -4,4"/>
<text xml:space="preserve" text-anchor="start" x="144" y="-380.15" font-family="Helvetica,sans-Serif" font-weight="bold" font-size="13.00">Token equivalence classes</text>
<text xml:space="preserve" text-anchor="start" x="336" y="-380.15" font-family="Helvetica,sans-Serif" font-size="13.00"> — group by base_state; keep best forward prob (⊕ = log&#45;add) for pruning</text>
<g id="clust1" class="cluster">
<title>cluster_tokens</title>
<polygon fill="#ffffff" stroke="#455a64" stroke-dasharray="5,2" points="0,-8 0,-363 251.5,-363 251.5,-8 0,-8"/>
<text xml:space="preserve" text-anchor="start" x="8" y="-346.25" font-family="Helvetica,sans-Serif" font-size="13.00" fill="#37474f">tokens at frame t &#160;(base, grammar)</text>
</g>
<!-- t1 -->
<g id="node1" class="node">
<title>t1</title>
<ellipse fill="#bbdefb" stroke="#1565c0" stroke-width="1.4" cx="125.25" cy="-298" rx="32.51" ry="32.51"/>
<text xml:space="preserve" text-anchor="middle" x="125.25" y="-293.32" font-family="Helvetica,sans-Serif" font-size="14.00" fill="#102027">(7, a)</text>
</g>
<!-- g7 -->
<g id="node5" class="node">
<title>g7</title>
<polygon fill="#bbdefb" stroke="none" stroke-width="1.4" points="551.5,-259.88 311,-259.88 311,-170.12 551.5,-170.12 551.5,-259.88"/>
<polygon fill="#c8e6c9" stroke="none" points="319,-174.12 319,-255.88 543.5,-255.88 543.5,-174.12 319,-174.12"/>
<polygon fill="none" stroke="#2e7d32" points="319,-228.62 319,-255.88 543.5,-255.88 543.5,-228.62 319,-228.62"/>
<text xml:space="preserve" text-anchor="start" x="352.88" y="-238.57" font-family="Helvetica,sans-Serif" font-weight="bold" font-size="14.00" fill="#102027">TokenGroup base=7</text>
<polygon fill="none" stroke="#2e7d32" points="319,-201.38 319,-228.62 543.5,-228.62 543.5,-201.38 319,-201.38"/>
<text xml:space="preserve" text-anchor="start" x="324" y="-210.12" font-family="Helvetica,sans-Serif" font-size="14.00" fill="#102027">best_forward_prob = ⊕(a, b, c)</text>
<polygon fill="none" stroke="#2e7d32" points="319,-174.12 319,-201.38 543.5,-201.38 543.5,-174.12 319,-174.12"/>
<text xml:space="preserve" text-anchor="start" x="358.88" y="-182.88" font-family="Helvetica,sans-Serif" font-size="14.00" fill="#102027">lazy: tokens deferred</text>
</g>
<!-- t1&#45;&gt;g7 -->
<g id="edge1" class="edge">
<title>t1&#45;&gt;g7</title>
<path fill="none" stroke="#2e7d32" stroke-width="2" d="M157.07,-289.58C190.54,-280.45 246.25,-265.24 298.67,-250.93"/>
<polygon fill="#2e7d32" stroke="#2e7d32" stroke-width="2" points="299.55,-254.31 308.28,-248.3 297.71,-247.56 299.55,-254.31"/>
<text xml:space="preserve" text-anchor="middle" x="277.25" y="-262.04" font-family="Helvetica,sans-Serif" font-size="11.00" fill="#37474f">group</text>
</g>
<!-- t2 -->
<g id="node2" class="node">
<title>t2</title>
<ellipse fill="#bbdefb" stroke="#1565c0" stroke-width="1.4" cx="125.25" cy="-215" rx="32.97" ry="32.97"/>
<text xml:space="preserve" text-anchor="middle" x="125.25" y="-210.32" font-family="Helvetica,sans-Serif" font-size="14.00" fill="#102027">(7, b)</text>
</g>
<!-- t2&#45;&gt;g7 -->
<g id="edge2" class="edge">
<title>t2&#45;&gt;g7</title>
<path fill="none" stroke="#2e7d32" stroke-width="2" d="M158.78,-215C192.32,-215 246.82,-215 298.21,-215"/>
<polygon fill="#2e7d32" stroke="#2e7d32" stroke-width="2" points="298.17,-218.5 308.17,-215 298.17,-211.5 298.17,-218.5"/>
<text xml:space="preserve" text-anchor="middle" x="277.25" y="-218.05" font-family="Helvetica,sans-Serif" font-size="11.00" fill="#37474f">group</text>
</g>
<!-- t3 -->
<g id="node3" class="node">
<title>t3</title>
<ellipse fill="#bbdefb" stroke="#1565c0" stroke-width="1.4" cx="125.25" cy="-132" rx="32.04" ry="32.04"/>
<text xml:space="preserve" text-anchor="middle" x="125.25" y="-127.33" font-family="Helvetica,sans-Serif" font-size="14.00" fill="#102027">(7, c)</text>
</g>
<!-- t3&#45;&gt;g7 -->
<g id="edge3" class="edge">
<title>t3&#45;&gt;g7</title>
<path fill="none" stroke="#2e7d32" stroke-width="2" d="M156.79,-140.34C190.32,-149.49 246.4,-164.8 299.08,-179.19"/>
<polygon fill="#2e7d32" stroke="#2e7d32" stroke-width="2" points="297.83,-182.47 308.39,-181.73 299.67,-175.72 297.83,-182.47"/>
<text xml:space="preserve" text-anchor="middle" x="277.25" y="-179.04" font-family="Helvetica,sans-Serif" font-size="11.00" fill="#37474f">group</text>
</g>
<!-- t4 -->
<g id="node4" class="node">
<title>t4</title>
<ellipse fill="#bbdefb" stroke="#1565c0" stroke-width="1.4" cx="125.25" cy="-49" rx="32.51" ry="32.51"/>
<text xml:space="preserve" text-anchor="middle" x="125.25" y="-44.33" font-family="Helvetica,sans-Serif" font-size="14.00" fill="#102027">(9, a)</text>
</g>
<!-- g9 -->
<g id="node6" class="node">
<title>g9</title>
<polygon fill="#bbdefb" stroke="none" stroke-width="1.4" points="524.12,-93.88 338.38,-93.88 338.38,-4.12 524.12,-4.12 524.12,-93.88"/>
<polygon fill="#b0bec5" stroke="none" points="346.38,-8.12 346.38,-89.88 516.12,-89.88 516.12,-8.12 346.38,-8.12"/>
<polygon fill="none" stroke="#607d8b" points="346.38,-62.62 346.38,-89.88 516.12,-89.88 516.12,-62.62 346.38,-62.62"/>
<text xml:space="preserve" text-anchor="start" x="352.88" y="-72.58" font-family="Helvetica,sans-Serif" font-weight="bold" font-size="14.00" fill="#102027">TokenGroup base=9</text>
<polygon fill="none" stroke="#607d8b" points="346.38,-35.38 346.38,-62.62 516.12,-62.62 516.12,-35.38 346.38,-35.38"/>
<text xml:space="preserve" text-anchor="start" x="352.5" y="-44.12" font-family="Helvetica,sans-Serif" font-size="14.00" fill="#102027">best_forward_prob = a</text>
<polygon fill="none" stroke="#607d8b" points="346.38,-8.12 346.38,-35.38 516.12,-35.38 516.12,-8.12 346.38,-8.12"/>
<text xml:space="preserve" text-anchor="start" x="351.38" y="-16.88" font-family="Helvetica,sans-Serif" font-size="14.00" fill="#102027">pruned (outside beam)</text>
</g>
<!-- t4&#45;&gt;g9 -->
<g id="edge4" class="edge">
<title>t4&#45;&gt;g9</title>
<path fill="none" stroke="#b0bec5" stroke-width="1.3" d="M158.21,-49C198.01,-49 267.96,-49 326.96,-49"/>
<polygon fill="#b0bec5" stroke="#b0bec5" stroke-width="1.3" points="326.64,-52.5 336.64,-49 326.64,-45.5 326.64,-52.5"/>
<text xml:space="preserve" text-anchor="middle" x="277.25" y="-52.05" font-family="Helvetica,sans-Serif" font-size="11.00" fill="#37474f">group</text>
</g>
<!-- g7&#45;&gt;g9 -->
<g id="edge6" class="edge">
<title>g7&#45;&gt;g9</title>
<path fill="none" stroke="#9e9e9e" stroke-width="1.3" stroke-dasharray="5,2" d="M431.25,-170.39C431.25,-150.28 431.25,-126.31 431.25,-105.01"/>
<polygon fill="#9e9e9e" stroke="#9e9e9e" stroke-width="1.3" points="431.25,-95.07 435.75,-105.07 431.4,-98.48 431.4,-105.07 431.25,-105.07 431.1,-105.07 431.1,-98.48 426.75,-105.07 431.25,-95.07"/>
<text xml:space="preserve" text-anchor="middle" x="421.5" y="-128.3" font-family="Helvetica,sans-Serif" font-size="11.00" fill="#37474f">GroupLink (lazy back&#45;trace)</text>
</g>
<!-- exp -->
<g id="node7" class="node">
<title>exp</title>
<polygon fill="#bbdefb" stroke="none" stroke-width="1.4" points="972.75,-246.25 692.5,-246.25 692.5,-183.75 972.75,-183.75 972.75,-246.25"/>
<polygon fill="#fff59d" stroke="none" points="700.5,-187.75 700.5,-242.25 964.75,-242.25 964.75,-187.75 700.5,-187.75"/>
<polygon fill="none" stroke="#f9a825" points="700.5,-215 700.5,-242.25 964.75,-242.25 964.75,-215 700.5,-215"/>
<text xml:space="preserve" text-anchor="start" x="741.12" y="-224.95" font-family="Helvetica,sans-Serif" font-weight="bold" font-size="14.00" fill="#102027">expand_group(base=7)</text>
<polygon fill="none" stroke="#f9a825" points="700.5,-187.75 700.5,-215 964.75,-215 964.75,-187.75 700.5,-187.75"/>
<text xml:space="preserve" text-anchor="start" x="705.5" y="-196.5" font-family="Helvetica,sans-Serif" font-size="14.00" fill="#102027">materialize tokens at word boundary</text>
</g>
<!-- g7&#45;&gt;exp -->
<g id="edge5" class="edge">
<title>g7&#45;&gt;exp</title>
<path fill="none" stroke="#2e7d32" stroke-width="2" d="M551.26,-215C591.66,-215 637.36,-215 679.96,-215"/>
<polygon fill="#2e7d32" stroke="#2e7d32" stroke-width="2" points="679.74,-218.5 689.74,-215 679.74,-211.5 679.74,-218.5"/>
<text xml:space="preserve" text-anchor="middle" x="622" y="-218.05" font-family="Helvetica,sans-Serif" font-size="11.00" fill="#37474f">word arc → expand</text>
</g>
</g>
</svg>
