<?xml version="1.0" encoding="UTF-8" standalone="no"?>
<!DOCTYPE svg PUBLIC "-//W3C//DTD SVG 1.1//EN"
 "http://www.w3.org/Graphics/SVG/1.1/DTD/svg11.dtd">
<!-- Generated by graphviz version 14.1.5 (0)
 -->
<!-- Title: multitape_2tape Pages: 1 -->
<svg width="620pt" height="83pt"
 viewBox="0.00 0.00 620.00 83.00" xmlns="http://www.w3.org/2000/svg" xmlns:xlink="http://www.w3.org/1999/xlink">
<g id="graph0" class="graph" transform="scale(1 1) rotate(0) translate(4 78.94)">
<title>multitape_2tape</title>
<polygon fill="#ffffff" stroke="none" points="-4,4 -4,-78.94 615.92,-78.94 615.92,4 -4,4"/>
<text xml:space="preserve" text-anchor="start" x="49.08" y="-59.59" font-family="Helvetica,sans-Serif" font-weight="bold" font-size="13.00">2&#45;tape transducer</text>
<text xml:space="preserve" text-anchor="start" x="180.33" y="-59.59" font-family="Helvetica,sans-Serif" font-size="13.00"> — tape₁ (surface) : tape₂ (lemma); grey = ε on that tape</text>
<!-- __start__ -->
<g id="node1" class="node">
<title>__start__</title>
<ellipse fill="#b2dfdb" stroke="#1565c0" stroke-width="1.4" cx="0.36" cy="-25.22" rx="0.36" ry="0.36"/>
</g>
<!-- q0 -->
<g id="node2" class="node">
<title>q0</title>
<ellipse fill="#b2dfdb" stroke="#00695c" stroke-width="1.4" cx="58.94" cy="-25.22" rx="21.22" ry="21.22"/>
<text xml:space="preserve" text-anchor="middle" x="58.94" y="-20.54" font-family="Helvetica,sans-Serif" font-size="14.00" fill="#102027">q₀</text>
</g>
<!-- __start__&#45;&gt;q0 -->
<g id="edge1" class="edge">
<title>__start__&#45;&gt;q0</title>
<path fill="none" stroke="#607d8b" stroke-width="1.3" d="M1.36,-25.22C4.01,-25.22 14.42,-25.22 25.61,-25.22"/>
<polygon fill="#607d8b" stroke="#607d8b" stroke-width="1.3" points="25.29,-28.72 35.29,-25.22 25.29,-21.72 25.29,-28.72"/>
</g>
<!-- q1 -->
<g id="node3" class="node">
<title>q1</title>
<ellipse fill="#b2dfdb" stroke="#00695c" stroke-width="1.4" cx="187.63" cy="-25.22" rx="21.22" ry="21.22"/>
<text xml:space="preserve" text-anchor="middle" x="187.63" y="-20.54" font-family="Helvetica,sans-Serif" font-size="14.00" fill="#102027">q₁</text>
</g>
<!-- q0&#45;&gt;q1 -->
<g id="edge2" class="edge">
<title>q0&#45;&gt;q1</title>
<path fill="none" stroke="#00695c" stroke-width="1.6" d="M80.58,-25.22C100.36,-25.22 130.55,-25.22 153.67,-25.22"/>
<polygon fill="#00695c" stroke="#00695c" stroke-width="1.6" points="153.58,-28.72 163.58,-25.22 153.58,-21.72 153.58,-28.72"/>
<text xml:space="preserve" text-anchor="middle" x="123.28" y="-28.27" font-family="Helvetica,sans-Serif" font-size="11.00" fill="#004d40">[c : c] / 0</text>
</g>
<!-- q2 -->
<g id="node4" class="node">
<title>q2</title>
<ellipse fill="#b2dfdb" stroke="#00695c" stroke-width="1.4" cx="317.82" cy="-25.22" rx="21.22" ry="21.22"/>
<text xml:space="preserve" text-anchor="middle" x="317.82" y="-20.54" font-family="Helvetica,sans-Serif" font-size="14.00" fill="#102027">q₂</text>
</g>
<!-- q1&#45;&gt;q2 -->
<g id="edge3" class="edge">
<title>q1&#45;&gt;q2</title>
<path fill="none" stroke="#00695c" stroke-width="1.6" d="M209.51,-25.22C229.62,-25.22 260.36,-25.22 283.79,-25.22"/>
<polygon fill="#00695c" stroke="#00695c" stroke-width="1.6" points="283.52,-28.72 293.52,-25.22 283.52,-21.72 283.52,-28.72"/>
<text xml:space="preserve" text-anchor="middle" x="252.72" y="-28.27" font-family="Helvetica,sans-Serif" font-size="11.00" fill="#004d40">[a : a] / 0</text>
</g>
<!-- q3 -->
<g id="node5" class="node">
<title>q3</title>
<ellipse fill="#b2dfdb" stroke="#00695c" stroke-width="1.4" cx="443.51" cy="-25.22" rx="21.22" ry="21.22"/>
<text xml:space="preserve" text-anchor="middle" x="443.51" y="-20.54" font-family="Helvetica,sans-Serif" font-size="14.00" fill="#102027">q₃</text>
</g>
<!-- q2&#45;&gt;q3 -->
<g id="edge4" class="edge">
<title>q2&#45;&gt;q3</title>
<path fill="none" stroke="#00695c" stroke-width="1.6" d="M339.52,-25.22C358.61,-25.22 387.26,-25.22 409.5,-25.22"/>
<polygon fill="#00695c" stroke="#00695c" stroke-width="1.6" points="409.32,-28.72 419.32,-25.22 409.32,-21.72 409.32,-28.72"/>
<text xml:space="preserve" text-anchor="middle" x="380.66" y="-28.27" font-family="Helvetica,sans-Serif" font-size="11.00" fill="#004d40">[t : t] / 0</text>
</g>
<!-- q4 -->
<g id="node6" class="node">
<title>q4</title>
<ellipse fill="#c8e6c9" stroke="#2e7d32" stroke-width="1.4" cx="586.7" cy="-25.22" rx="21.22" ry="21.22"/>
<ellipse fill="none" stroke="#2e7d32" stroke-width="1.4" cx="586.7" cy="-25.22" rx="25.22" ry="25.22"/>
<text xml:space="preserve" text-anchor="middle" x="586.7" y="-20.54" font-family="Helvetica,sans-Serif" font-size="14.00" fill="#102027">q₄</text>
</g>
<!-- q3&#45;&gt;q4 -->
<g id="edge5" class="edge">
<title>q3&#45;&gt;q4</title>
<path fill="none" stroke="#9e9e9e" stroke-width="1.3" stroke-dasharray="5,2" d="M465.34,-25.22C487.33,-25.22 522.41,-25.22 549.04,-25.22"/>
<polygon fill="#9e9e9e" stroke="#9e9e9e" stroke-width="1.3" points="549.01,-28.72 559.01,-25.22 549.01,-21.72 549.01,-28.72"/>
<text xml:space="preserve" text-anchor="middle" x="513.1" y="-28.27" font-family="Helvetica,sans-Serif" font-size="11.00" fill="#37474f">[s : ε] / 0.5</text>
</g>
</g>
</svg>
