<?xml version="1.0" encoding="UTF-8" standalone="no"?>
<!DOCTYPE svg PUBLIC "-//W3C//DTD SVG 1.1//EN"
 "http://www.w3.org/Graphics/SVG/1.1/DTD/svg11.dtd">
<!-- Generated by graphviz version 14.1.5 (0)
 -->
<!-- Title: pda_anbn Pages: 1 -->
<svg width="547pt" height="185pt"
 viewBox="0.00 0.00 547.00 185.00" xmlns="http://www.w3.org/2000/svg" xmlns:xlink="http://www.w3.org/1999/xlink">
<g id="graph0" class="graph" transform="scale(1 1) rotate(0) translate(4 181.24)">
<title>pda_anbn</title>
<polygon fill="#ffffff" stroke="none" points="-4,4 -4,-181.24 542.75,-181.24 542.75,4 -4,4"/>
<text xml:space="preserve" text-anchor="start" x="8" y="-161.89" font-family="Helvetica,sans-Serif" font-weight="bold" font-size="13.00">PDA for aⁿbⁿ</text>
<text xml:space="preserve" text-anchor="start" x="98.75" y="-161.89" font-family="Helvetica,sans-Serif" font-size="13.00"> — arc = </text>
<text xml:space="preserve" text-anchor="start" x="161.75" y="-161.89" font-family="Helvetica,sans-Serif" font-style="italic" font-size="13.00">input , top → action</text>
<text xml:space="preserve" text-anchor="start" x="292.25" y="-161.89" font-family="Helvetica,sans-Serif" font-size="13.00">; Z₀ = bottom marker, γ = a&#45;marker</text>
<!-- __start__ -->
<g id="node1" class="node">
<title>__start__</title>
<ellipse fill="#b2dfdb" stroke="#1565c0" stroke-width="1.4" cx="12.41" cy="-47.66" rx="0.36" ry="0.36"/>
</g>
<!-- q0 -->
<g id="node2" class="node">
<title>q0</title>
<ellipse fill="#b2dfdb" stroke="#00695c" stroke-width="1.4" cx="91.84" cy="-47.66" rx="42.07" ry="42.07"/>
<text xml:space="preserve" text-anchor="middle" x="91.84" y="-51.61" font-family="Helvetica,sans-Serif" font-size="14.00" fill="#102027">q₀</text>
<text xml:space="preserve" text-anchor="middle" x="91.84" y="-34.36" font-family="Helvetica,sans-Serif" font-size="14.00" fill="#102027">read a</text>
</g>
<!-- __start__&#45;&gt;q0 -->
<g id="edge1" class="edge">
<title>__start__&#45;&gt;q0</title>
<path fill="none" stroke="#607d8b" stroke-width="1.3" d="M13.27,-47.66C15.55,-47.66 25.41,-47.66 37.38,-47.66"/>
<polygon fill="#607d8b" stroke="#607d8b" stroke-width="1.3" points="37.35,-51.16 47.35,-47.66 37.35,-44.16 37.35,-51.16"/>
</g>
<!-- q0&#45;&gt;q0 -->
<g id="edge2" class="edge">
<title>q0&#45;&gt;q0</title>
<path fill="none" stroke="#607d8b" stroke-width="1.3" d="M86.26,-90.05C86.7,-100.21 88.56,-107.74 91.84,-107.74 93.64,-107.74 95.01,-105.48 95.95,-101.78"/>
<polygon fill="#607d8b" stroke="#607d8b" stroke-width="1.3" points="99.41,-102.36 97.18,-92 92.46,-101.49 99.41,-102.36"/>
<text xml:space="preserve" text-anchor="middle" x="91.84" y="-110.79" font-family="Helvetica,sans-Serif" font-size="11.00" fill="#37474f">a , Z₀ → push[Z₀,γ]</text>
</g>
<!-- q0&#45;&gt;q0 -->
<g id="edge3" class="edge">
<title>q0&#45;&gt;q0</title>
<path fill="none" stroke="#607d8b" stroke-width="1.3" d="M80.76,-88.63C79.39,-108.34 83.09,-125.74 91.84,-125.74 98.82,-125.74 102.58,-114.69 103.13,-100.23"/>
<polygon fill="#607d8b" stroke="#607d8b" stroke-width="1.3" points="106.64,-100.54 102.96,-90.6 99.64,-100.66 106.64,-100.54"/>
<text xml:space="preserve" text-anchor="middle" x="91.84" y="-128.79" font-family="Helvetica,sans-Serif" font-size="11.00" fill="#37474f">a , γ → push[γ,γ]</text>
</g>
<!-- q1 -->
<g id="node3" class="node">
<title>q1</title>
<ellipse fill="#b2dfdb" stroke="#00695c" stroke-width="1.4" cx="280.02" cy="-47.66" rx="42.6" ry="42.6"/>
<text xml:space="preserve" text-anchor="middle" x="280.02" y="-51.61" font-family="Helvetica,sans-Serif" font-size="14.00" fill="#102027">q₁</text>
<text xml:space="preserve" text-anchor="middle" x="280.02" y="-34.36" font-family="Helvetica,sans-Serif" font-size="14.00" fill="#102027">read b</text>
</g>
<!-- q0&#45;&gt;q1 -->
<g id="edge4" class="edge">
<title>q0&#45;&gt;q1</title>
<path fill="none" stroke="#9e9e9e" stroke-width="1.3" stroke-dasharray="5,2" d="M134.16,-47.66C161,-47.66 196.25,-47.66 225.25,-47.66"/>
<polygon fill="#9e9e9e" stroke="#9e9e9e" stroke-width="1.3" points="224.88,-51.16 234.88,-47.66 224.88,-44.16 224.88,-51.16"/>
<text xml:space="preserve" text-anchor="middle" x="185.67" y="-50.71" font-family="Helvetica,sans-Serif" font-size="11.00" fill="#37474f">ε , γ → noop</text>
</g>
<!-- q1&#45;&gt;q1 -->
<g id="edge5" class="edge">
<title>q1&#45;&gt;q1</title>
<path fill="none" stroke="#607d8b" stroke-width="1.3" d="M262.35,-87.01C262.8,-98.94 268.69,-108.27 280.02,-108.27 287.28,-108.27 292.31,-104.44 295.1,-98.55"/>
<polygon fill="#607d8b" stroke="#607d8b" stroke-width="1.3" points="298.48,-99.45 297.25,-88.93 291.65,-97.92 298.48,-99.45"/>
<text xml:space="preserve" text-anchor="middle" x="280.02" y="-111.32" font-family="Helvetica,sans-Serif" font-size="11.00" fill="#37474f">b , γ → pop</text>
</g>
<!-- q2 -->
<g id="node4" class="node">
<title>q2</title>
<ellipse fill="#c8e6c9" stroke="#2e7d32" stroke-width="1.4" cx="479.04" cy="-47.66" rx="43.66" ry="43.66"/>
<ellipse fill="none" stroke="#2e7d32" stroke-width="1.4" cx="479.04" cy="-47.66" rx="47.66" ry="47.66"/>
<text xml:space="preserve" text-anchor="middle" x="479.04" y="-51.61" font-family="Helvetica,sans-Serif" font-size="14.00" fill="#102027">q₂</text>
<text xml:space="preserve" text-anchor="middle" x="479.04" y="-34.36" font-family="Helvetica,sans-Serif" font-size="14.00" fill="#102027">accept</text>
</g>
<!-- q1&#45;&gt;q2 -->
<g id="edge6" class="edge">
<title>q1&#45;&gt;q2</title>
<path fill="none" stroke="#9e9e9e" stroke-width="1.3" stroke-dasharray="5,2" d="M323.28,-47.66C351.23,-47.66 388.27,-47.66 419.1,-47.66"/>
<polygon fill="#9e9e9e" stroke="#9e9e9e" stroke-width="1.3" points="419.04,-51.16 429.04,-47.66 419.04,-44.16 419.04,-51.16"/>
<text xml:space="preserve" text-anchor="middle" x="377" y="-50.71" font-family="Helvetica,sans-Serif" font-size="11.00" fill="#37474f">ε , Z₀ → noop</text>
</g>
</g>
</svg>
