<?xml version="1.0" encoding="UTF-8" standalone="no"?>
<!DOCTYPE svg PUBLIC "-//W3C//DTD SVG 1.1//EN"
 "http://www.w3.org/Graphics/SVG/1.1/DTD/svg11.dtd">
<!-- Generated by graphviz version 14.1.5 (0)
 -->
<!-- Title: rnnt_grid Pages: 1 -->
<svg width="581pt" height="403pt"
 viewBox="0.00 0.00 581.00 403.00" xmlns="http://www.w3.org/2000/svg" xmlns:xlink="http://www.w3.org/1999/xlink">
<g id="graph0" class="graph" transform="scale(1 1) rotate(0) translate(4 398.81)">
<title>rnnt_grid</title>
<polygon fill="#ffffff" stroke="none" points="-4,4 -4,-398.81 577.25,-398.81 577.25,4 -4,4"/>
<text xml:space="preserve" text-anchor="start" x="8" y="-379.46" font-family="Helvetica,sans-Serif" font-weight="bold" font-size="13.00">RNN&#45;T lattice</text>
<text xml:space="preserve" text-anchor="start" x="104" y="-379.46" font-family="Helvetica,sans-Serif" font-size="13.00"> (T×(U+1) grid) — blank ↑ advances time t, emit → advances label u</text>
<!-- n00 -->
<g id="node1" class="node">
<title>n00</title>
<ellipse fill="#ffe0b2" stroke="#e65100" stroke-width="1.4" cx="212.62" cy="-27.01" rx="27.01" ry="27.01"/>
<text xml:space="preserve" text-anchor="middle" x="212.62" y="-22.33" font-family="Helvetica,sans-Serif" font-size="14.00" fill="#102027">0,0</text>
</g>
<!-- n10 -->
<g id="node2" class="node">
<title>n10</title>
<ellipse fill="#ffe0b2" stroke="#e65100" stroke-width="1.4" cx="189.62" cy="-129.77" rx="27.01" ry="27.01"/>
<text xml:space="preserve" text-anchor="middle" x="189.62" y="-125.1" font-family="Helvetica,sans-Serif" font-size="14.00" fill="#102027">1,0</text>
</g>
<!-- n00&#45;&gt;n10 -->
<g id="edge1" class="edge">
<title>n00&#45;&gt;n10</title>
<path fill="none" stroke="#607d8b" stroke-width="1.3" d="M198.95,-50.56C195.58,-57.23 192.42,-64.71 190.62,-72.01 189.18,-77.9 188.37,-84.24 187.98,-90.47"/>
<polygon fill="#607d8b" stroke="#607d8b" stroke-width="1.3" points="184.49,-90.12 187.72,-100.21 191.48,-90.31 184.49,-90.12"/>
<text xml:space="preserve" text-anchor="middle" x="193.62" y="-75.26" font-family="Helvetica,sans-Serif" font-size="10.00" fill="#455a64">ø</text>
</g>
<!-- n00&#45;&gt;n10 -->
<g id="edge16" class="edge">
<title>n00&#45;&gt;n10</title>
<path fill="none" stroke="#2e7d32" stroke-width="2.2" d="M206.7,-53.96C204.18,-65 201.19,-78.12 198.41,-90.26"/>
<polygon fill="#2e7d32" stroke="#2e7d32" stroke-width="2.2" points="195.08,-89.14 196.27,-99.66 201.91,-90.69 195.08,-89.14"/>
<text xml:space="preserve" text-anchor="middle" x="205.5" y="-75.26" font-family="Helvetica,sans-Serif" font-size="10.00" fill="#1b5e20">ø</text>
</g>
<!-- n11 -->
<g id="node6" class="node">
<title>n11</title>
<ellipse fill="#ffe0b2" stroke="#e65100" stroke-width="1.4" cx="284.62" cy="-129.77" rx="27.01" ry="27.01"/>
<text xml:space="preserve" text-anchor="middle" x="284.62" y="-125.1" font-family="Helvetica,sans-Serif" font-size="14.00" fill="#102027">1,1</text>
</g>
<!-- n00&#45;&gt;n11 -->
<g id="edge10" class="edge">
<title>n00&#45;&gt;n11</title>
<path fill="none" stroke="#e65100" stroke-width="1.3" d="M228.25,-49.87C238.15,-63.74 251.13,-81.9 262.14,-97.3"/>
<polygon fill="#e65100" stroke="#e65100" stroke-width="1.3" points="259.23,-99.25 267.89,-105.35 264.92,-95.18 259.23,-99.25"/>
<text xml:space="preserve" text-anchor="middle" x="257.81" y="-75.26" font-family="Helvetica,sans-Serif" font-size="10.00" fill="#bf360c">y₁</text>
</g>
<!-- n20 -->
<g id="node3" class="node">
<title>n20</title>
<ellipse fill="#ffe0b2" stroke="#e65100" stroke-width="1.4" cx="189.62" cy="-232.53" rx="27.01" ry="27.01"/>
<text xml:space="preserve" text-anchor="middle" x="189.62" y="-227.86" font-family="Helvetica,sans-Serif" font-size="14.00" fill="#102027">2,0</text>
</g>
<!-- n10&#45;&gt;n20 -->
<g id="edge2" class="edge">
<title>n10&#45;&gt;n20</title>
<path fill="none" stroke="#607d8b" stroke-width="1.3" d="M189.62,-157.25C189.62,-168.15 189.62,-181 189.62,-192.92"/>
<polygon fill="#607d8b" stroke="#607d8b" stroke-width="1.3" points="186.13,-192.92 189.63,-202.92 193.13,-192.92 186.13,-192.92"/>
<text xml:space="preserve" text-anchor="middle" x="192.62" y="-178.03" font-family="Helvetica,sans-Serif" font-size="10.00" fill="#455a64">ø</text>
</g>
<!-- n21 -->
<g id="node7" class="node">
<title>n21</title>
<ellipse fill="#ffe0b2" stroke="#e65100" stroke-width="1.4" cx="284.62" cy="-232.53" rx="27.01" ry="27.01"/>
<text xml:space="preserve" text-anchor="middle" x="284.62" y="-227.86" font-family="Helvetica,sans-Serif" font-size="14.00" fill="#102027">2,1</text>
</g>
<!-- n10&#45;&gt;n21 -->
<g id="edge11" class="edge">
<title>n10&#45;&gt;n21</title>
<path fill="none" stroke="#e65100" stroke-width="1.3" d="M199.5,-155.33C204.56,-165.98 211.44,-178.14 219.88,-187.53 228.62,-197.26 239.94,-205.89 250.66,-212.88"/>
<polygon fill="#e65100" stroke="#e65100" stroke-width="1.3" points="248.64,-215.74 258.98,-218.02 252.31,-209.79 248.64,-215.74"/>
<text xml:space="preserve" text-anchor="middle" x="224.75" y="-178.03" font-family="Helvetica,sans-Serif" font-size="10.00" fill="#bf360c">y₁</text>
</g>
<!-- n10&#45;&gt;n21 -->
<g id="edge17" class="edge">
<title>n10&#45;&gt;n21</title>
<path fill="none" stroke="#2e7d32" stroke-width="2.2" d="M207.94,-150.2C222,-165.11 241.64,-185.94 257.52,-202.78"/>
<polygon fill="#2e7d32" stroke="#2e7d32" stroke-width="2.2" points="254.67,-204.87 264.08,-209.74 259.77,-200.07 254.67,-204.87"/>
<text xml:space="preserve" text-anchor="middle" x="247.69" y="-178.03" font-family="Helvetica,sans-Serif" font-size="10.00" fill="#1b5e20">y₁</text>
</g>
<!-- n30 -->
<g id="node4" class="node">
<title>n30</title>
<ellipse fill="#ffe0b2" stroke="#e65100" stroke-width="1.4" cx="189.62" cy="-339.3" rx="27.01" ry="27.01"/>
<text xml:space="preserve" text-anchor="middle" x="189.62" y="-334.62" font-family="Helvetica,sans-Serif" font-size="14.00" fill="#102027">3,0</text>
</g>
<!-- n20&#45;&gt;n30 -->
<g id="edge3" class="edge">
<title>n20&#45;&gt;n30</title>
<path fill="none" stroke="#607d8b" stroke-width="1.3" d="M189.62,-259.97C189.62,-272.13 189.62,-286.79 189.62,-300.11"/>
<polygon fill="#607d8b" stroke="#607d8b" stroke-width="1.3" points="186.13,-299.9 189.63,-309.9 193.13,-299.9 186.13,-299.9"/>
<text xml:space="preserve" text-anchor="middle" x="192.62" y="-280.79" font-family="Helvetica,sans-Serif" font-size="10.00" fill="#455a64">ø</text>
</g>
<!-- n31 -->
<g id="node8" class="node">
<title>n31</title>
<ellipse fill="#ffe0b2" stroke="#e65100" stroke-width="1.4" cx="284.62" cy="-339.3" rx="27.01" ry="27.01"/>
<text xml:space="preserve" text-anchor="middle" x="284.62" y="-334.62" font-family="Helvetica,sans-Serif" font-size="14.00" fill="#102027">3,1</text>
</g>
<!-- n20&#45;&gt;n31 -->
<g id="edge12" class="edge">
<title>n20&#45;&gt;n31</title>
<path fill="none" stroke="#e65100" stroke-width="1.3" d="M207.49,-253.24C222.09,-269.34 242.9,-292.29 259.23,-310.29"/>
<polygon fill="#e65100" stroke="#e65100" stroke-width="1.3" points="256.2,-312.17 265.51,-317.22 261.39,-307.47 256.2,-312.17"/>
<text xml:space="preserve" text-anchor="middle" x="244.85" y="-280.79" font-family="Helvetica,sans-Serif" font-size="10.00" fill="#bf360c">y₁</text>
</g>
<!-- n01 -->
<g id="node5" class="node">
<title>n01</title>
<ellipse fill="#ffe0b2" stroke="#e65100" stroke-width="1.4" cx="284.62" cy="-27.01" rx="27.01" ry="27.01"/>
<text xml:space="preserve" text-anchor="middle" x="284.62" y="-22.33" font-family="Helvetica,sans-Serif" font-size="14.00" fill="#102027">0,1</text>
</g>
<!-- n01&#45;&gt;n11 -->
<g id="edge4" class="edge">
<title>n01&#45;&gt;n11</title>
<path fill="none" stroke="#607d8b" stroke-width="1.3" d="M284.62,-54.48C284.62,-65.39 284.62,-78.24 284.62,-90.16"/>
<polygon fill="#607d8b" stroke="#607d8b" stroke-width="1.3" points="281.13,-90.16 284.63,-100.16 288.13,-90.16 281.13,-90.16"/>
<text xml:space="preserve" text-anchor="middle" x="287.62" y="-75.26" font-family="Helvetica,sans-Serif" font-size="10.00" fill="#455a64">ø</text>
</g>
<!-- n12 -->
<g id="node10" class="node">
<title>n12</title>
<ellipse fill="#ffe0b2" stroke="#e65100" stroke-width="1.4" cx="379.62" cy="-129.77" rx="27.01" ry="27.01"/>
<text xml:space="preserve" text-anchor="middle" x="379.62" y="-125.1" font-family="Helvetica,sans-Serif" font-size="14.00" fill="#102027">1,2</text>
</g>
<!-- n01&#45;&gt;n12 -->
<g id="edge13" class="edge">
<title>n01&#45;&gt;n12</title>
<path fill="none" stroke="#e65100" stroke-width="1.3" d="M302.94,-47.44C317.27,-62.63 337.37,-83.96 353.41,-100.96"/>
<polygon fill="#e65100" stroke="#e65100" stroke-width="1.3" points="350.61,-103.1 360.01,-107.97 355.7,-98.29 350.61,-103.1"/>
<text xml:space="preserve" text-anchor="middle" x="342.69" y="-75.26" font-family="Helvetica,sans-Serif" font-size="10.00" fill="#bf360c">y₂</text>
</g>
<!-- n11&#45;&gt;n21 -->
<g id="edge5" class="edge">
<title>n11&#45;&gt;n21</title>
<path fill="none" stroke="#607d8b" stroke-width="1.3" d="M284.62,-157.25C284.62,-168.15 284.62,-181 284.62,-192.92"/>
<polygon fill="#607d8b" stroke="#607d8b" stroke-width="1.3" points="281.13,-192.92 284.63,-202.92 288.13,-192.92 281.13,-192.92"/>
<text xml:space="preserve" text-anchor="middle" x="287.62" y="-178.03" font-family="Helvetica,sans-Serif" font-size="10.00" fill="#455a64">ø</text>
</g>
<!-- n22 -->
<g id="node11" class="node">
<title>n22</title>
<ellipse fill="#ffe0b2" stroke="#e65100" stroke-width="1.4" cx="379.62" cy="-232.53" rx="27.01" ry="27.01"/>
<text xml:space="preserve" text-anchor="middle" x="379.62" y="-227.86" font-family="Helvetica,sans-Serif" font-size="14.00" fill="#102027">2,2</text>
</g>
<!-- n11&#45;&gt;n22 -->
<g id="edge14" class="edge">
<title>n11&#45;&gt;n22</title>
<path fill="none" stroke="#e65100" stroke-width="1.3" d="M302.94,-150.2C317.27,-165.39 337.37,-186.72 353.41,-203.72"/>
<polygon fill="#e65100" stroke="#e65100" stroke-width="1.3" points="350.61,-205.86 360.01,-210.73 355.7,-201.06 350.61,-205.86"/>
<text xml:space="preserve" text-anchor="middle" x="342.69" y="-178.03" font-family="Helvetica,sans-Serif" font-size="10.00" fill="#bf360c">y₂</text>
</g>
<!-- n21&#45;&gt;n31 -->
<g id="edge6" class="edge">
<title>n21&#45;&gt;n31</title>
<path fill="none" stroke="#607d8b" stroke-width="1.3" d="M284.62,-259.97C284.62,-272.13 284.62,-286.79 284.62,-300.11"/>
<polygon fill="#607d8b" stroke="#607d8b" stroke-width="1.3" points="281.13,-299.9 284.63,-309.9 288.13,-299.9 281.13,-299.9"/>
<text xml:space="preserve" text-anchor="middle" x="287.62" y="-280.79" font-family="Helvetica,sans-Serif" font-size="10.00" fill="#455a64">ø</text>
</g>
<!-- n32 -->
<g id="node12" class="node">
<title>n32</title>
<ellipse fill="#c8e6c9" stroke="#2e7d32" stroke-width="1.4" cx="379.62" cy="-339.3" rx="27.01" ry="27.01"/>
<ellipse fill="none" stroke="#2e7d32" stroke-width="1.4" cx="379.62" cy="-339.3" rx="31.01" ry="31.01"/>
<text xml:space="preserve" text-anchor="middle" x="379.62" y="-334.62" font-family="Helvetica,sans-Serif" font-size="14.00" fill="#102027">3,2</text>
</g>
<!-- n21&#45;&gt;n32 -->
<g id="edge15" class="edge">
<title>n21&#45;&gt;n32</title>
<path fill="none" stroke="#e65100" stroke-width="1.3" d="M294.82,-258.21C299.9,-268.77 306.71,-280.82 314.88,-290.29 322.96,-299.67 333.19,-308.31 343.12,-315.59"/>
<polygon fill="#e65100" stroke="#e65100" stroke-width="1.3" points="341.05,-318.41 351.25,-321.27 345.06,-312.67 341.05,-318.41"/>
<text xml:space="preserve" text-anchor="middle" x="319.75" y="-280.79" font-family="Helvetica,sans-Serif" font-size="10.00" fill="#bf360c">y₂</text>
</g>
<!-- n21&#45;&gt;n32 -->
<g id="edge18" class="edge">
<title>n21&#45;&gt;n32</title>
<path fill="none" stroke="#2e7d32" stroke-width="2.2" d="M302.55,-253.24C309.46,-260.83 317.41,-269.59 324.62,-277.54 332.89,-286.65 341.85,-296.54 350.08,-305.64"/>
<polygon fill="#2e7d32" stroke="#2e7d32" stroke-width="2.2" points="347.46,-307.96 356.77,-313.03 352.65,-303.26 347.46,-307.96"/>
<text xml:space="preserve" text-anchor="middle" x="340.03" y="-280.79" font-family="Helvetica,sans-Serif" font-size="10.00" fill="#1b5e20">y₂</text>
</g>
<!-- n02 -->
<g id="node9" class="node">
<title>n02</title>
<ellipse fill="#ffe0b2" stroke="#e65100" stroke-width="1.4" cx="379.62" cy="-27.01" rx="27.01" ry="27.01"/>
<text xml:space="preserve" text-anchor="middle" x="379.62" y="-22.33" font-family="Helvetica,sans-Serif" font-size="14.00" fill="#102027">0,2</text>
</g>
<!-- n02&#45;&gt;n12 -->
<g id="edge7" class="edge">
<title>n02&#45;&gt;n12</title>
<path fill="none" stroke="#607d8b" stroke-width="1.3" d="M379.62,-54.48C379.62,-65.39 379.62,-78.24 379.62,-90.16"/>
<polygon fill="#607d8b" stroke="#607d8b" stroke-width="1.3" points="376.13,-90.16 379.63,-100.16 383.13,-90.16 376.13,-90.16"/>
<text xml:space="preserve" text-anchor="middle" x="382.62" y="-75.26" font-family="Helvetica,sans-Serif" font-size="10.00" fill="#455a64">ø</text>
</g>
<!-- n12&#45;&gt;n22 -->
<g id="edge8" class="edge">
<title>n12&#45;&gt;n22</title>
<path fill="none" stroke="#607d8b" stroke-width="1.3" d="M379.62,-157.25C379.62,-168.15 379.62,-181 379.62,-192.92"/>
<polygon fill="#607d8b" stroke="#607d8b" stroke-width="1.3" points="376.13,-192.92 379.63,-202.92 383.13,-192.92 376.13,-192.92"/>
<text xml:space="preserve" text-anchor="middle" x="382.62" y="-178.03" font-family="Helvetica,sans-Serif" font-size="10.00" fill="#455a64">ø</text>
</g>
<!-- n22&#45;&gt;n32 -->
<g id="edge9" class="edge">
<title>n22&#45;&gt;n32</title>
<path fill="none" stroke="#607d8b" stroke-width="1.3" d="M379.62,-259.97C379.62,-270.88 379.62,-283.8 379.62,-295.97"/>
<polygon fill="#607d8b" stroke="#607d8b" stroke-width="1.3" points="376.13,-295.82 379.63,-305.82 383.13,-295.82 376.13,-295.82"/>
<text xml:space="preserve" text-anchor="middle" x="382.62" y="-280.79" font-family="Helvetica,sans-Serif" font-size="10.00" fill="#455a64">ø</text>
</g>
</g>
</svg>
