<?xml version="1.0" encoding="UTF-8" standalone="no"?>
<!DOCTYPE svg PUBLIC "-//W3C//DTD SVG 1.1//EN"
 "http://www.w3.org/Graphics/SVG/1.1/DTD/svg11.dtd">
<!-- Generated by graphviz version 14.1.5 (0)
 -->
<!-- Title: tree_rewrite Pages: 1 -->
<svg width="545pt" height="235pt"
 viewBox="0.00 0.00 545.00 235.00" xmlns="http://www.w3.org/2000/svg" xmlns:xlink="http://www.w3.org/1999/xlink">
<g id="graph0" class="graph" transform="scale(1 1) rotate(0) translate(4 231)">
<title>tree_rewrite</title>
<polygon fill="#ffffff" stroke="none" points="-4,4 -4,-231 541.25,-231 541.25,4 -4,4"/>
<text xml:space="preserve" text-anchor="start" x="8" y="-211.65" font-family="Helvetica,sans-Serif" font-weight="bold" font-size="13.00">Tree rewrite</text>
<text xml:space="preserve" text-anchor="start" x="98.75" y="-211.65" font-family="Helvetica,sans-Serif" font-size="13.00"> — rule q(S(x₀,x₁)) → T(x₁,x₀); amber = variable binding (reorder)</text>
<g id="clust1" class="cluster">
<title>cluster_in</title>
<path fill="#ffffff" stroke="#90a4ae" d="M128.62,-8C128.62,-8 246.62,-8 246.62,-8 252.62,-8 258.62,-14 258.62,-20 258.62,-20 258.62,-182.5 258.62,-182.5 258.62,-188.5 252.62,-194.5 246.62,-194.5 246.62,-194.5 128.62,-194.5 128.62,-194.5 122.62,-194.5 116.62,-188.5 116.62,-182.5 116.62,-182.5 116.62,-20 116.62,-20 116.62,-14 122.62,-8 128.62,-8"/>
<text xml:space="preserve" text-anchor="start" x="168.88" y="-17.15" font-family="Helvetica,sans-Serif" font-weight="bold" font-size="13.00" fill="#37474f">input</text>
</g>
<g id="clust2" class="cluster">
<title>cluster_out</title>
<path fill="#ffffff" stroke="#90a4ae" d="M290.62,-8C290.62,-8 408.62,-8 408.62,-8 414.62,-8 420.62,-14 420.62,-20 420.62,-20 420.62,-182.5 420.62,-182.5 420.62,-188.5 414.62,-194.5 408.62,-194.5 408.62,-194.5 290.62,-194.5 290.62,-194.5 284.62,-194.5 278.62,-188.5 278.62,-182.5 278.62,-182.5 278.62,-20 278.62,-20 278.62,-14 284.62,-8 290.62,-8"/>
<text xml:space="preserve" text-anchor="start" x="325.62" y="-17.15" font-family="Helvetica,sans-Serif" font-weight="bold" font-size="13.00" fill="#37474f">output</text>
</g>
<!-- iS -->
<g id="node1" class="node">
<title>iS</title>
<ellipse fill="#b2dfdb" stroke="#00695c" stroke-width="1.4" cx="168.62" cy="-168.5" rx="27" ry="18"/>
<text xml:space="preserve" text-anchor="middle" x="168.62" y="-163.82" font-family="Helvetica,sans-Serif" font-size="14.00" fill="#102027">S</text>
</g>
<!-- ia -->
<g id="node2" class="node">
<title>ia</title>
<ellipse fill="#c8e6c9" stroke="#2e7d32" stroke-width="1.4" cx="151.62" cy="-83" rx="27" ry="18"/>
<text xml:space="preserve" text-anchor="middle" x="151.62" y="-78.33" font-family="Helvetica,sans-Serif" font-size="14.00" fill="#102027">a</text>
</g>
<!-- iS&#45;&gt;ia -->
<g id="edge1" class="edge">
<title>iS&#45;&gt;ia</title>
<path fill="none" stroke="#00695c" stroke-width="1.4" d="M165.1,-150.2C162.91,-139.45 160.05,-125.36 157.52,-112.95"/>
<polygon fill="#00695c" stroke="#00695c" stroke-width="1.4" points="160.99,-112.46 155.57,-103.36 154.13,-113.85 160.99,-112.46"/>
<text xml:space="preserve" text-anchor="middle" x="166.77" y="-122.05" font-family="Helvetica,sans-Serif" font-size="11.00" fill="#37474f">x₀</text>
</g>
<!-- ib -->
<g id="node3" class="node">
<title>ib</title>
<ellipse fill="#c8e6c9" stroke="#2e7d32" stroke-width="1.4" cx="223.62" cy="-83" rx="27" ry="18"/>
<text xml:space="preserve" text-anchor="middle" x="223.62" y="-78.33" font-family="Helvetica,sans-Serif" font-size="14.00" fill="#102027">b</text>
</g>
<!-- iS&#45;&gt;ib -->
<g id="edge2" class="edge">
<title>iS&#45;&gt;ib</title>
<path fill="none" stroke="#00695c" stroke-width="1.4" d="M179.23,-151.4C186.99,-139.62 197.68,-123.39 206.63,-109.8"/>
<polygon fill="#00695c" stroke="#00695c" stroke-width="1.4" points="209.31,-112.1 211.89,-101.82 203.46,-108.25 209.31,-112.1"/>
<text xml:space="preserve" text-anchor="middle" x="205.04" y="-122.05" font-family="Helvetica,sans-Serif" font-size="11.00" fill="#37474f">x₁</text>
</g>
<!-- oT -->
<g id="node4" class="node">
<title>oT</title>
<ellipse fill="#b2dfdb" stroke="#00695c" stroke-width="1.4" cx="339.62" cy="-168.5" rx="27" ry="18"/>
<text xml:space="preserve" text-anchor="middle" x="339.62" y="-163.82" font-family="Helvetica,sans-Serif" font-size="14.00" fill="#102027">T</text>
</g>
<!-- iS&#45;&gt;oT -->
<g id="edge7" class="edge">
<title>iS&#45;&gt;oT</title>
<path fill="none" stroke="#00695c" stroke-width="2" d="M196.1,-168.5C223.94,-168.5 267.32,-168.5 299.1,-168.5"/>
<polygon fill="#00695c" stroke="#00695c" stroke-width="2" points="298.91,-172 308.91,-168.5 298.91,-165 298.91,-172"/>
<text xml:space="preserve" text-anchor="middle" x="254.12" y="-174.55" font-family="Helvetica,sans-Serif" font-size="11.00" fill="#004d40">apply / 0</text>
</g>
<!-- oa -->
<g id="node6" class="node">
<title>oa</title>
<ellipse fill="#c8e6c9" stroke="#2e7d32" stroke-width="1.4" cx="385.62" cy="-83" rx="27" ry="18"/>
<text xml:space="preserve" text-anchor="middle" x="385.62" y="-78.33" font-family="Helvetica,sans-Serif" font-size="14.00" fill="#102027">a</text>
</g>
<!-- ia&#45;&gt;oa -->
<g id="edge6" class="edge">
<title>ia&#45;&gt;oa</title>
<path fill="none" stroke="#f9a825" stroke-width="1.6" stroke-dasharray="5,2" d="M170.41,-96.25C194.7,-111.8 238.57,-134.63 278.25,-127.5 304.77,-122.74 332.84,-110.83 353.63,-100.54"/>
<polygon fill="#f9a825" stroke="#f9a825" stroke-width="1.6" points="355.2,-103.66 362.51,-95.99 352.01,-97.43 355.2,-103.66"/>
<text xml:space="preserve" text-anchor="middle" x="272.62" y="-122.05" font-family="Helvetica,sans-Serif" font-size="11.00" fill="#e65100">x₀</text>
</g>
<!-- ob -->
<g id="node5" class="node">
<title>ob</title>
<ellipse fill="#c8e6c9" stroke="#2e7d32" stroke-width="1.4" cx="313.62" cy="-83" rx="27" ry="18"/>
<text xml:space="preserve" text-anchor="middle" x="313.62" y="-78.33" font-family="Helvetica,sans-Serif" font-size="14.00" fill="#102027">b</text>
</g>
<!-- ib&#45;&gt;ob -->
<g id="edge5" class="edge">
<title>ib&#45;&gt;ob</title>
<path fill="none" stroke="#f9a825" stroke-width="1.6" stroke-dasharray="5,2" d="M251.12,-83C258.29,-83 266.17,-83 273.84,-83"/>
<polygon fill="#f9a825" stroke="#f9a825" stroke-width="1.6" points="273.57,-86.5 283.57,-83 273.57,-79.5 273.57,-86.5"/>
<text xml:space="preserve" text-anchor="middle" x="268.62" y="-89.05" font-family="Helvetica,sans-Serif" font-size="11.00" fill="#e65100">x₁</text>
</g>
<!-- oT&#45;&gt;ob -->
<g id="edge3" class="edge">
<title>oT&#45;&gt;ob</title>
<path fill="none" stroke="#00695c" stroke-width="1.4" d="M332.95,-150.52C330.82,-144.83 328.52,-138.43 326.62,-132.5 324.57,-126.06 322.57,-119.08 320.78,-112.47"/>
<polygon fill="#00695c" stroke="#00695c" stroke-width="1.4" points="324.27,-112 318.35,-103.22 317.5,-113.78 324.27,-112"/>
<text xml:space="preserve" text-anchor="middle" x="341.62" y="-122.05" font-family="Helvetica,sans-Serif" font-size="11.00" fill="#37474f">pos 0</text>
</g>
<!-- oT&#45;&gt;oa -->
<g id="edge4" class="edge">
<title>oT&#45;&gt;oa</title>
<path fill="none" stroke="#00695c" stroke-width="1.4" d="M348.71,-151C355.01,-139.57 363.54,-124.08 370.82,-110.88"/>
<polygon fill="#00695c" stroke="#00695c" stroke-width="1.4" points="373.77,-112.77 375.53,-102.32 367.64,-109.39 373.77,-112.77"/>
<text xml:space="preserve" text-anchor="middle" x="380.38" y="-122.05" font-family="Helvetica,sans-Serif" font-size="11.00" fill="#37474f">pos 1</text>
</g>
</g>
</svg>
