<svg xmlns="http://www.w3.org/2000/svg" xmlns:xlink="http://www.w3.org/1999/xlink" contentStyleType="text/css" data-diagram-type="CLASS" height="875px" preserveAspectRatio="none" style="width:620px;height:875px;background:#FFFFFF;" version="1.1" viewBox="0 0 620 875" width="620px" zoomAndPan="magnify"><?plantuml $version$?><defs/><g><g class="title" data-source-line="26"><text fill="#000000" font-family="sans-serif" font-size="14" font-weight="700" lengthAdjust="spacing" textLength="174.7738" x="21.1614" y="24.9659">Semiring &#8596; lattice bridge</text><text fill="#000000" font-family="sans-serif" font-size="14" font-weight="700" lengthAdjust="spacing" textLength="134.6235" x="203.2153" y="24.9659">(feature = "lattice")</text><text fill="#000000" font-family="sans-serif" font-size="11" font-style="italic" font-weight="700" lengthAdjust="spacing" textLength="570.9825" x="21.1614" y="40.8268">blanket impl: any idempotent semiring becomes a libdictenstein dictionary value whose union-merge join = &#8853;</text></g><!--class S--><g class="entity" data-qualified-name="S" data-source-line="28" id="ent0001"><rect fill="#BBDEFB" height="94.2717" rx="2.5" ry="2.5" style="stroke:#1565C0;stroke-width:0.5;" width="173.8519" x="7" y="62.0498"/><ellipse cx="48.1357" cy="86.1177" fill="#B4A7E5" rx="11" ry="11" style="stroke:#181818;stroke-width:1;"/><path d="M44.1669,92.6177 L44.1669,90.9146 L46.5263,90.649 L46.5263,82.4458 L44.1669,82.1802 L44.1669,80.4771 L51.3075,80.4771 L51.3075,82.1802 L48.8857,82.4458 L48.8857,90.649 L51.3075,90.9146 L51.3075,92.6177 L44.1669,92.6177 Z " fill="#000000"/><text fill="#102027" font-family="sans-serif" font-size="14" font-style="italic" lengthAdjust="spacing" textLength="55.3138" x="82.173" y="82.0157">Semiring</text><text fill="#102027" font-family="sans-serif" font-size="14" font-style="italic" lengthAdjust="spacing" textLength="83.7727" x="67.9436" y="101.0837">(K, &#8853;, &#8855;, 0&#772;, 1&#772;)</text><line style="stroke:#1565C0;stroke-width:0.5;" x1="8" x2="179.8519" y1="110.1856" y2="110.1856"/><g data-visibility-modifier="PUBLIC_METHOD"><ellipse cx="18" cy="125.2196" fill="#84BE84" rx="3" ry="3" style="stroke:#038048;stroke-width:1;"/></g><text fill="#000000" font-family="sans-serif" font-size="14" lengthAdjust="spacing" textLength="142.7139" x="27" y="129.1516">plus(&amp;Self) : Self    .. &#8853;</text><g data-visibility-modifier="PUBLIC_METHOD"><ellipse cx="18" cy="144.2875" fill="#84BE84" rx="3" ry="3" style="stroke:#038048;stroke-width:1;"/></g><text fill="#000000" font-family="sans-serif" font-size="14" lengthAdjust="spacing" textLength="147.8519" x="27" y="148.2195">times(&amp;Self) : Self   .. &#8855;</text></g><!--class IDEM--><g class="entity" data-qualified-name="IDEM" data-source-line="32" id="ent0002"><rect fill="#FFF59D" height="68.6019" rx="2.5" ry="2.5" style="stroke:#1565C0;stroke-width:0.5;" width="159.5675" x="14.14" y="250.5998"/><ellipse cx="29.14" cy="266.5998" fill="#B4A7E5" rx="11" ry="11" style="stroke:#181818;stroke-width:1;"/><path d="M25.1713,273.0998 L25.1713,271.3967 L27.5306,271.1311 L27.5306,262.9279 L25.1713,262.6623 L25.1713,260.9592 L32.3119,260.9592 L32.3119,262.6623 L29.89,262.9279 L29.89,271.1311 L32.3119,271.3967 L32.3119,273.0998 L25.1713,273.0998 Z " fill="#000000"/><text fill="#102027" font-family="sans-serif" font-size="14" font-style="italic" lengthAdjust="spacing" textLength="127.5675" x="43.14" y="272.0318">IdempotentSemiring</text><line style="stroke:#1565C0;stroke-width:0.5;" x1="15.14" x2="172.7075" y1="282.5998" y2="282.5998"/><line style="stroke:#1565C0;stroke-width:1;stroke-dasharray:1,2;" x1="15.14" x2="37.3577" y1="300.1338" y2="300.1338"/><text fill="#000000" font-family="sans-serif" font-size="14" lengthAdjust="spacing" textLength="113.1321" x="37.3577" y="305.0657">marker: a &#8853; a = a</text><line style="stroke:#1565C0;stroke-width:1;stroke-dasharray:1,2;" x1="150.4898" x2="172.7075" y1="300.1338" y2="300.1338"/></g><!--class SL--><g class="entity" data-qualified-name="SL" data-source-line="35" id="ent0003"><rect fill="#C8E6C9" height="68.6019" rx="2.5" ry="2.5" style="stroke:#1565C0;stroke-width:0.5;" width="128.1936" x="29.83" y="449.7898"/><ellipse cx="44.83" cy="465.7898" fill="#B4A7E5" rx="11" ry="11" style="stroke:#181818;stroke-width:1;"/><path d="M40.8613,472.2898 L40.8613,470.5867 L43.2206,470.3211 L43.2206,462.1179 L40.8613,461.8523 L40.8613,460.1492 L48.0019,460.1492 L48.0019,461.8523 L45.58,462.1179 L45.58,470.3211 L48.0019,470.5867 L48.0019,472.2898 L40.8613,472.2898 Z " fill="#000000"/><text fill="#102027" font-family="sans-serif" font-size="14" font-style="italic" lengthAdjust="spacing" textLength="96.1936" x="58.83" y="471.2218">SemiringLattice</text><line style="stroke:#1565C0;stroke-width:0.5;" x1="30.83" x2="157.0236" y1="481.7898" y2="481.7898"/><line style="stroke:#1565C0;stroke-width:1;stroke-dasharray:1,2;" x1="30.83" x2="43.59" y1="499.3238" y2="499.3238"/><text fill="#000000" font-family="sans-serif" font-size="14" lengthAdjust="spacing" textLength="100.6736" x="43.59" y="504.2557">blanket marker</text><line style="stroke:#1565C0;stroke-width:1;stroke-dasharray:1,2;" x1="144.2636" x2="157.0236" y1="499.3238" y2="499.3238"/></g><!--class LAT--><g class="entity" data-qualified-name="LAT" data-source-line="38" id="ent0004"><rect fill="#BBDEFB" height="78.1358" rx="2.5" ry="2.5" style="stroke:#1565C0;stroke-width:0.5;" width="175.0699" x="132.39" y="636.9898"/><ellipse cx="171.5146" cy="652.9898" fill="#B4A7E5" rx="11" ry="11" style="stroke:#181818;stroke-width:1;"/><path d="M167.5459,659.4898 L167.5459,657.7867 L169.9052,657.5211 L169.9052,649.3179 L167.5459,649.0523 L167.5459,647.3492 L174.6865,647.3492 L174.6865,649.0523 L172.2646,649.3179 L172.2646,657.5211 L174.6865,657.7867 L174.6865,659.4898 L167.5459,659.4898 Z " fill="#000000"/><text fill="#102027" font-family="sans-serif" font-size="14" font-style="italic" lengthAdjust="spacing" textLength="89.4596" x="190.8756" y="658.4218">llattice::Lattice</text><line style="stroke:#1565C0;stroke-width:0.5;" x1="133.39" x2="306.4599" y1="668.9898" y2="668.9898"/><g data-visibility-modifier="PUBLIC_METHOD"><ellipse cx="143.39" cy="684.0238" fill="#84BE84" rx="3" ry="3" style="stroke:#038048;stroke-width:1;"/></g><text fill="#000000" font-family="sans-serif" font-size="14" lengthAdjust="spacing" textLength="139.4799" x="152.39" y="687.9557">join(&amp;Self) : Self    .. &#8853;</text><g data-visibility-modifier="PUBLIC_METHOD"><ellipse cx="143.39" cy="703.0917" fill="#84BE84" rx="3" ry="3" style="stroke:#038048;stroke-width:1;"/></g><text fill="#000000" font-family="sans-serif" font-size="14" lengthAdjust="spacing" textLength="149.0699" x="152.39" y="707.0237">meet(&amp;Self) : Self    .. &#8855;</text></g><!--class DV--><g class="entity" data-qualified-name="DV" data-source-line="42" id="ent0005"><rect fill="#ECEFF1" height="84.7377" rx="2.5" ry="2.5" style="stroke:#1565C0;stroke-width:0.5;" width="226.8051" x="342.52" y="633.6898"/><ellipse cx="402.6798" cy="657.7577" fill="#B4A7E5" rx="11" ry="11" style="stroke:#181818;stroke-width:1;"/><path d="M398.711,664.2577 L398.711,662.5546 L401.0704,662.289 L401.0704,654.0858 L398.711,653.8202 L398.711,652.1171 L405.8516,652.1171 L405.8516,653.8202 L403.4298,654.0858 L403.4298,662.289 L405.8516,662.5546 L405.8516,664.2577 L398.711,664.2577 Z " fill="#000000"/><text fill="#102027" font-family="sans-serif" font-size="14" font-style="italic" lengthAdjust="spacing" textLength="89.6977" x="427.3237" y="653.6557">libdictenstein::</text><text fill="#102027" font-family="sans-serif" font-size="14" font-style="italic" lengthAdjust="spacing" textLength="97.9856" x="423.1798" y="672.7237">DictionaryValue</text><line style="stroke:#1565C0;stroke-width:0.5;" x1="343.52" x2="568.3251" y1="681.8256" y2="681.8256"/><line style="stroke:#1565C0;stroke-width:1;stroke-dasharray:1,2;" x1="343.52" x2="346.52" y1="699.3596" y2="699.3596"/><text fill="#000000" font-family="sans-serif" font-size="14" lengthAdjust="spacing" textLength="218.8051" x="346.52" y="704.2916">Clone+Default+Send+Sync+'static</text><line style="stroke:#1565C0;stroke-width:1;stroke-dasharray:1,2;" x1="565.3251" x2="568.3251" y1="699.3596" y2="699.3596"/></g><!--class W--><g class="entity" data-qualified-name="W" data-source-line="45" id="ent0006"><rect fill="#FFF59D" height="105.2038" rx="2.5" ry="2.5" style="stroke:#1565C0;stroke-width:0.5;" width="202.0794" x="241.89" y="431.4798"/><ellipse cx="256.89" cy="447.4798" fill="#ADD1B2" rx="11" ry="11" style="stroke:#181818;stroke-width:1;"/><path d="M256.3588,454.4017 Q254.6088,454.4017 253.4681,453.6673 Q252.3431,452.9173 251.7806,451.5736 Q251.2338,450.2142 251.2338,448.4173 Q251.2338,446.3861 251.89,444.9329 Q252.5463,443.4798 253.8275,442.6986 Q255.1088,441.9173 256.9838,441.9173 Q257.8744,441.9173 258.5463,442.1048 Q259.2181,442.2767 259.9056,442.6204 L259.0931,444.6361 Q258.4681,444.3236 257.9213,444.1986 Q257.39,444.0736 256.9056,444.0736 Q255.7338,444.0736 255.0306,444.6048 Q254.3275,445.1361 254.0306,446.0892 Q253.7338,447.0423 253.7338,448.3079 Q253.7338,450.3236 254.4525,451.2923 Q255.1713,452.2454 256.765,452.2454 Q257.3588,452.2454 257.9838,452.0892 Q258.6088,451.9329 259.4369,451.5579 L259.4369,453.7767 Q258.7025,454.0892 257.9056,454.2454 Q257.1244,454.4017 256.3588,454.4017 Z " fill="#000000"/><text fill="#102027" font-family="sans-serif" font-size="14" lengthAdjust="spacing" textLength="160.0194" x="270.89" y="452.9118">SemiringLatticeWrapper</text><rect fill="#BBDEFB" height="18.3441" style="stroke:#1565C0;stroke-width:1;stroke-dasharray:2,2;" width="8.06" x="438.9094" y="428.4798"/><text fill="#000000" font-family="sans-serif" font-size="12" font-style="italic" lengthAdjust="spacing" textLength="6.06" x="439.9094" y="442.3079">S</text><line style="stroke:#1565C0;stroke-width:0.5;" x1="242.89" x2="442.9694" y1="463.4798" y2="463.4798"/><g data-visibility-modifier="PUBLIC_FIELD"><ellipse cx="252.89" cy="478.5138" fill="none" rx="3" ry="3" style="stroke:#038048;stroke-width:1;"/></g><text fill="#000000" font-family="sans-serif" font-size="14" lengthAdjust="spacing" textLength="26.7259" x="261.89" y="482.4457">0 : S</text><line style="stroke:#1565C0;stroke-width:1;" x1="242.89" x2="442.9694" y1="490.5477" y2="490.5477"/><text fill="#000000" font-family="sans-serif" font-size="14" lengthAdjust="spacing" textLength="152.8639" x="247.89" y="509.5137">join = &#8853;  (union-merge)</text><text fill="#000000" font-family="sans-serif" font-size="14" lengthAdjust="spacing" textLength="170.4059" x="247.89" y="528.5816">meet = &#8855;  (path compose)</text></g><g class="entity" data-qualified-name="GMN12" data-source-line="59" id="ent0013"><path d="M60.06,779.4298 L60.06,860.2539 A0,0 0 0 0 60.06,860.2539 L379.7989,860.2539 A0,0 0 0 0 379.7989,860.2539 L379.7989,789.4298 L369.7989,779.4298 L223.93,779.4298 L219.93,715.4298 L215.93,779.4298 L60.06,779.4298 A0,0 0 0 0 60.06,779.4298" fill="#FEFFDD" style="stroke:#181818;stroke-width:0.5;"/><path d="M369.7989,779.4298 L369.7989,789.4298 L379.7989,789.4298 L369.7989,779.4298" fill="#FEFFDD" style="stroke:#181818;stroke-width:0.5;"/><text fill="#000000" font-family="sans-serif" font-size="13" lengthAdjust="spacing" textLength="289.4438" x="66.06" y="798.3268">Idempotent &#8853; satisfies the join-semilattice laws</text><text fill="#000000" font-family="sans-serif" font-size="13" lengthAdjust="spacing" textLength="298.7389" x="66.06" y="816.0328">(idempotent, commutative, associative), so &#8853; is a</text><text fill="#000000" font-family="sans-serif" font-size="13" lengthAdjust="spacing" textLength="36.725" x="66.06" y="833.7389">lawful</text><text fill="#000000" font-family="sans-serif" font-size="13" font-weight="700" lengthAdjust="spacing" textLength="24.336" x="106.165" y="833.7389">join</text><text fill="#000000" font-family="sans-serif" font-size="13" lengthAdjust="spacing" textLength="208.0768" x="130.5011" y="833.7389">. &#8855; is path composition, not a true</text><text fill="#000000" font-family="sans-serif" font-size="13" lengthAdjust="spacing" textLength="288.4702" x="66.06" y="851.4449">meet &#8212; supply a real meet for other semirings.</text></g><g class="entity" data-qualified-name="L" data-source-line="66" id="ent0015"><rect fill="#FFF59D" height="50.1358" rx="2.5" ry="2.5" style="stroke:#F9A825;stroke-width:0.5;" width="172.4234" x="215.71" y="84.1098"/><text fill="#102027" font-family="sans-serif" font-size="14" lengthAdjust="spacing" textLength="158.4234" x="222.71" y="101.0757">left : Wrapper&lt;Tropical&gt;</text><line style="stroke:#F9A825;stroke-width:0.5;" x1="216.71" x2="387.1334" y1="107.1777" y2="107.1777"/><text fill="#102027" font-family="sans-serif" font-size="14" lengthAdjust="spacing" textLength="111.9155" x="221.71" y="126.1437">0 = Tropical(10.0)</text></g><g class="entity" data-qualified-name="R" data-source-line="69" id="ent0016"><rect fill="#FFF59D" height="50.1358" rx="2.5" ry="2.5" style="stroke:#F9A825;stroke-width:0.5;" width="182.7554" x="423.55" y="84.1098"/><text fill="#102027" font-family="sans-serif" font-size="14" lengthAdjust="spacing" textLength="168.7554" x="430.55" y="101.0757">right : Wrapper&lt;Tropical&gt;</text><line style="stroke:#F9A825;stroke-width:0.5;" x1="424.55" x2="605.3054" y1="107.1777" y2="107.1777"/><text fill="#102027" font-family="sans-serif" font-size="14" lengthAdjust="spacing" textLength="103.9076" x="429.55" y="126.1437">0 = Tropical(5.0)</text></g><g class="entity" data-qualified-name="M" data-source-line="72" id="ent0017"><rect fill="#C8E6C9" height="99.1675" rx="2.5" ry="2.5" style="stroke:#F9A825;stroke-width:0.5;" width="202.9293" x="311.46" y="235.3198"/><text fill="#102027" font-family="sans-serif" font-size="14" lengthAdjust="spacing" textLength="188.9293" x="318.46" y="252.2857">merged : Wrapper&lt;Tropical&gt;</text><line style="stroke:#F9A825;stroke-width:0.5;" x1="312.46" x2="513.3893" y1="258.3877" y2="258.3877"/><text fill="#102027" font-family="sans-serif" font-size="14" lengthAdjust="spacing" textLength="103.9076" x="317.46" y="277.3537">0 = Tropical(5.0)</text><text fill="#102027" font-family="sans-serif" font-size="18" font-weight="700" lengthAdjust="spacing" textLength="126.1612" x="317.46" y="300.6975">left.join(right)</text><text fill="#102027" font-family="sans-serif" font-size="18" font-weight="700" lengthAdjust="spacing" textLength="122.2714" x="317.46" y="325.2134">&#8853; = min(10, 5)</text></g><!--reverse link S to IDEM--><g class="link" data-entity-1="ent0001" data-entity-2="ent0002" data-link-type="extension" data-source-line="52" id="lnk7"><path codeLine="52" d="M93.93,174.7298 C93.93,204.1798 93.93,223.5698 93.93,250.1698" fill="none" id="S-backto-IDEM" style="stroke:#607D8B;stroke-width:1;"/><polygon fill="none" points="93.93,156.7298,87.93,174.7298,99.93,174.7298,93.93,156.7298" style="stroke:#607D8B;stroke-width:1;stroke-linejoin:miter;stroke-miterlimit:10;"/></g><!--reverse link IDEM to SL--><g class="link" data-entity-1="ent0002" data-entity-2="ent0003" data-link-type="extension" data-source-line="53" id="lnk8"><path codeLine="53" d="M93.93,337.3498 C93.93,373.6098 93.93,413.1498 93.93,449.4698" fill="none" id="IDEM-backto-SL" style="stroke:#607D8B;stroke-width:1;"/><polygon fill="none" points="93.93,319.3498,87.93,337.3498,99.93,337.3498,93.93,319.3498" style="stroke:#607D8B;stroke-width:1;stroke-linejoin:miter;stroke-miterlimit:10;"/><text fill="#000000" font-family="sans-serif" font-size="13" lengthAdjust="spacing" textLength="75.8811" x="94.93" y="379.3768">blanket impl</text><text fill="#000000" font-family="sans-serif" font-size="13" lengthAdjust="spacing" textLength="252.0052" x="94.93" y="397.0828">for all S : Semiring + IdempotentSemiring</text></g><!--link W to LAT--><g class="link" data-entity-1="ent0006" data-entity-2="ent0004" data-link-type="extension" data-source-line="54" id="lnk9"><path codeLine="54" d="M253.03,536.9898 C243.59,545.7798 235.17,555.6798 228.93,566.6898 C217,587.6998 214.1484,596.8099 214.8784,618.6399" fill="none" id="W-to-LAT" style="stroke:#607D8B;stroke-width:1;stroke-dasharray:7,7;"/><polygon fill="none" points="215.48,636.6298,220.8751,618.4393,208.8818,618.8404,215.48,636.6298" style="stroke:#607D8B;stroke-width:1;stroke-linejoin:miter;stroke-miterlimit:10;"/><text fill="#000000" font-family="sans-serif" font-size="13" lengthAdjust="spacing" textLength="159.7312" x="229.93" y="581.5868">join = self.0.plus(&amp;other.0)</text><text fill="#000000" font-family="sans-serif" font-size="13" lengthAdjust="spacing" textLength="176.7872" x="229.93" y="599.2928">meet = self.0.times(&amp;other.0)</text></g><!--link W to DV--><g class="link" data-entity-1="ent0006" data-entity-2="ent0005" data-link-type="extension" data-source-line="55" id="lnk10"><path codeLine="55" d="M393.52,536.9098 C401.3,546.3698 408.78,556.4898 414.93,566.6898 C427.38,587.3598 431.5173,595.3804 438.4073,616.2104" fill="none" id="W-to-DV" style="stroke:#607D8B;stroke-width:1;stroke-dasharray:7,7;"/><polygon fill="none" points="444.06,633.2998,444.1038,614.3262,432.7108,618.0947,444.06,633.2998" style="stroke:#607D8B;stroke-width:1;stroke-linejoin:miter;stroke-miterlimit:10;"/><text fill="#000000" font-family="sans-serif" font-size="13" lengthAdjust="spacing" textLength="108.7971" x="432.93" y="581.5868">(serde-bounded if</text><text fill="#000000" font-family="sans-serif" font-size="13" lengthAdjust="spacing" textLength="154.2061" x="432.93" y="599.2928">feature lattice-persistent)</text></g><!--link SL to W--><g class="link" data-entity-1="ent0003" data-entity-2="ent0006" data-link-type="dependency" data-source-line="56" id="lnk11"><path codeLine="56" d="M158.37,484.0898 C183.73,484.0898 208.47,484.0898 236.57,484.0898" fill="none" id="SL-to-W" style="stroke:#607D8B;stroke-width:1;stroke-dasharray:7,7;"/><polygon fill="#607D8B" points="241.57,484.0898,232.57,480.0898,236.57,484.0898,232.57,488.0898,241.57,484.0898" style="stroke:#607D8B;stroke-width:1;stroke-linejoin:miter;stroke-miterlimit:10;"/><text fill="#000000" font-family="sans-serif" font-size="13" lengthAdjust="spacing" textLength="47.619" x="176.45" y="476.9868">wraps S</text></g><!--link L to M--><g class="link" data-entity-1="ent0015" data-entity-2="ent0017" data-link-type="dependency" data-source-line="77" id="lnk18"><path codeLine="77" d="M317.59,134.6998 C334.15,160.6098 357.998,197.9364 378.878,230.6164" fill="none" id="L-to-M" style="stroke:#2E7D32;stroke-width:2;"/><polygon fill="#2E7D32" points="381.57,234.8298,380.095,225.092,378.878,230.6164,373.3536,229.3993,381.57,234.8298" style="stroke:#2E7D32;stroke-width:2;stroke-linejoin:miter;stroke-miterlimit:10;"/><text fill="#000000" font-family="sans-serif" font-size="13" lengthAdjust="spacing" textLength="44.6796" x="361.75" y="201.2168">join (&#8853;)</text></g><!--link R to M--><g class="link" data-entity-1="ent0016" data-entity-2="ent0017" data-link-type="dependency" data-source-line="78" id="lnk19"><path codeLine="78" d="M500.53,134.6998 C485.32,160.6098 463.4508,197.8376 444.2708,230.5176" fill="none" id="R-to-M" style="stroke:#2E7D32;stroke-width:2;"/><polygon fill="#2E7D32" points="441.74,234.8298,449.7452,229.0925,444.2708,230.5176,442.8458,225.0432,441.74,234.8298" style="stroke:#2E7D32;stroke-width:2;stroke-linejoin:miter;stroke-miterlimit:10;"/><text fill="#000000" font-family="sans-serif" font-size="13" lengthAdjust="spacing" textLength="44.6796" x="471.03" y="201.2168">join (&#8853;)</text></g><?plantuml-src XLRRRXit47tVhnZ8G2r1LxkHBnj5WAmB4DGk2ik87-e-SBLSYJ6NN92K7RK9a8UW3tbsa9_AL_XBEiDTNInRZM4O4cTuUERCpVjmDUDWUIgCK5Du_FS197DEJ3X4HiHJ3kM4CpSt7Dv0gJ2LAerW7wvq5eB3sv5awfQxkaWp2OQZaz3ApaJMW9vQm1X262yVgCBRcAUPTbovrQ6mm10GLcxd1OLo0Gq4NNczRRysBCkuwOoxn4DvBvuYilLeig0RXYkyzree3EJnwxSQf1o1wVFt2Z0LWnHHB2P8p3ekL1WEy0i6mipY7PDpJY6VQUTq6g8xwEWzdpYmYcLsfl73JDzJBEvUGxow2NTqrKAYZPTgtBiOmYrVG8HFJ3tBkKBNUihDbCTm9nWK7DSv-VeDobT6PsB2P0YfK5x-FvZapl4GOZsnpLYmgM6fRLuEUuEBOIEDeJpISnNxP21SX3nWx-niC1oTGHFs3jf7xNxhjQVGryPmJxdf-Q8xIoDkO6yq6hLF1-G_EksT7BPVGqzEjH5kXayPRkUI99mQZkhlzK-6H_rJSZuS7Wz-FSp1V-TpPvX4jxrXVpWQ7P33gtQxT_GAux2tGcKCcKF49hTJGvJxMkhyRVpPyB0p5kSY9qnQlc69USAGoXN_u7fIJ1NL04YUk0sVdZ7wle0-QXqFJiusZ1F9h8L_0e2pRHgvP6JH9kQcECtbmzEHLcvvrZfi7Hu7dpPmYofv4JZNTXiurta7y4p47B1zt0Ahbp9aWy099pbqekvuTnDtcb4NNkxa6zMnucyU7XnqEwAxsMzKvWiGgtPTLsJ49ph5gcPRFVEiyE5-fYtVB75OTs2dARgT9ZtU3GAX73S9GyQbPHmtglnRBMzLxD4Qj7vygS71Zo-L4Z2BKuL4hMPoRik_ZBbCAdxCo0HB3XeDkaTs9v3eCmTl_uw2RZpxV2xvTzuEXXUhFg0dyMxAp2qtg8_lJKRjWiTFuRP6LSxvVDKa1T9Ixnpn6SYp2UPXpdjNgqxs8f2c_oS2JReTzYqHjcVWZTgQWfx0uDsgbuiu-b8hNXtaRLWTSnLNnmirgUvRXmDeaWUMDrbfvn3tsDTFnAwsY31-gDVnpxfsi9WtYgg2jlKqHrl6t0omHZEilWg-78oXyx5UzyaCV4RzLyn72ANDchzHDAcPb3_VMgNW6iFwsFNfGEVLs9P9ezN8wrBZp3UD5ZPPGQ-m5bMvD2-HK5T2AbkE0w4UqQp0dI0IP5LqRb4FTHJC2ajqAW56qJ1YEdEDBgeNmZqAYhKM10hvGkHN5kY4UA9Ewq2yZXRJOnE1pKphYMAeKvilnuTaznOlbTTJe4QwfdDAwnslOSQidWZ_fL83gpset-T0bvEvfD54k3I3VCMHUID1Wigh1aWMkyYPELycy_7p0zXvbia56Wp75UAFAK5UkDKyieq02uuGU80hv_7XC_vkB-ZmoHH2EMXHlxITDsOOBUeSBIZGIhHKKEDbqIxNSbwxvqzgjuNvNjhB1otAywSLZa_OJg3BtK3jfpZ5_msxW2wU39pdG80d55B3Zn1FAZ-aDBwX_pMGUGtQzEGvrFyiDdijqZB-gzv5_ABmotYX4bp-rEK_?></g></svg>