<?xml version="1.0" encoding="UTF-8" standalone="no"?>
<!DOCTYPE svg PUBLIC "-//W3C//DTD SVG 1.1//EN"
 "http://www.w3.org/Graphics/SVG/1.1/DTD/svg11.dtd">
<!-- Generated by graphviz version 14.1.5 (0)
 -->
<!-- Title: lattice_worked Pages: 1 -->
<svg width="467pt" height="77pt"
 viewBox="0.00 0.00 467.00 77.00" xmlns="http://www.w3.org/2000/svg" xmlns:xlink="http://www.w3.org/1999/xlink">
<g id="graph0" class="graph" transform="scale(1 1) rotate(0) translate(4 72.5)">
<title>lattice_worked</title>
<polygon fill="#ffffff" stroke="none" points="-4,4 -4,-72.5 463.25,-72.5 463.25,4 -4,4"/>
<text xml:space="preserve" text-anchor="start" x="8" y="-53.15" font-family="Helvetica,sans-Serif" font-weight="bold" font-size="13.00">Correction lattice (WFSA)</text>
<text xml:space="preserve" text-anchor="start" x="194.75" y="-53.15" font-family="Helvetica,sans-Serif" font-size="13.00"> — green marks the best (Viterbi) path</text>
<!-- __start__ -->
<g id="node1" class="node">
<title>__start__</title>
<ellipse fill="#bbdefb" stroke="#1565c0" stroke-width="1.4" cx="6.5" cy="-22" rx="0.36" ry="0.36"/>
</g>
<!-- n0 -->
<g id="node2" class="node">
<title>n0</title>
<ellipse fill="#bbdefb" stroke="#1565c0" stroke-width="1.4" cx="61.86" cy="-22" rx="18" ry="18"/>
<text xml:space="preserve" text-anchor="middle" x="61.86" y="-17.32" font-family="Helvetica,sans-Serif" font-size="14.00" fill="#102027">0</text>
</g>
<!-- __start__&#45;&gt;n0 -->
<g id="edge1" class="edge">
<title>__start__&#45;&gt;n0</title>
<path fill="none" stroke="#607d8b" stroke-width="1.3" d="M7.47,-22C10.05,-22 20.54,-22 31.54,-22"/>
<polygon fill="#607d8b" stroke="#607d8b" stroke-width="1.3" points="31.36,-25.5 41.36,-22 31.36,-18.5 31.36,-25.5"/>
</g>
<!-- n1 -->
<g id="node3" class="node">
<title>n1</title>
<ellipse fill="#bbdefb" stroke="#1565c0" stroke-width="1.4" cx="180.36" cy="-22" rx="18" ry="18"/>
<text xml:space="preserve" text-anchor="middle" x="180.36" y="-17.32" font-family="Helvetica,sans-Serif" font-size="14.00" fill="#102027">1</text>
</g>
<!-- n0&#45;&gt;n1 -->
<g id="edge2" class="edge">
<title>n0&#45;&gt;n1</title>
<path fill="none" stroke="#2e7d32" stroke-width="2" d="M80.55,-22C98.71,-22 127.29,-22 149.05,-22"/>
<polygon fill="#2e7d32" stroke="#2e7d32" stroke-width="2" points="148.85,-25.5 158.85,-22 148.85,-18.5 148.85,-25.5"/>
<text xml:space="preserve" text-anchor="middle" x="121.11" y="-25.05" font-family="Helvetica,sans-Serif" font-size="11.00" fill="#1b5e20">the / 0.5</text>
</g>
<!-- n0&#45;&gt;n1 -->
<g id="edge5" class="edge">
<title>n0&#45;&gt;n1</title>
<path fill="none" stroke="#b0bec5" stroke-width="1.3" d="M77.95,-12.53C83.92,-9.32 90.98,-6.12 97.86,-4.5 117.97,0.25 124.25,0.25 144.36,-4.5 147.48,-5.24 150.63,-6.29 153.7,-7.53"/>
<polygon fill="#b0bec5" stroke="#b0bec5" stroke-width="1.3" points="151.95,-10.57 162.49,-11.69 154.95,-4.25 151.95,-10.57"/>
<text xml:space="preserve" text-anchor="middle" x="121.11" y="-7.55" font-family="Helvetica,sans-Serif" font-size="11.00" fill="#37474f">teh / 1.0</text>
</g>
<!-- n2 -->
<g id="node4" class="node">
<title>n2</title>
<ellipse fill="#bbdefb" stroke="#1565c0" stroke-width="1.4" cx="309.36" cy="-22" rx="18" ry="18"/>
<text xml:space="preserve" text-anchor="middle" x="309.36" y="-17.32" font-family="Helvetica,sans-Serif" font-size="14.00" fill="#102027">2</text>
</g>
<!-- n1&#45;&gt;n2 -->
<g id="edge3" class="edge">
<title>n1&#45;&gt;n2</title>
<path fill="none" stroke="#2e7d32" stroke-width="2" d="M199.02,-22C219.4,-22 253.26,-22 277.91,-22"/>
<polygon fill="#2e7d32" stroke="#2e7d32" stroke-width="2" points="277.82,-25.5 287.82,-22 277.82,-18.5 277.82,-25.5"/>
<text xml:space="preserve" text-anchor="middle" x="244.86" y="-25.05" font-family="Helvetica,sans-Serif" font-size="11.00" fill="#1b5e20">quick / 0.5</text>
</g>
<!-- n1&#45;&gt;n2 -->
<g id="edge6" class="edge">
<title>n1&#45;&gt;n2</title>
<path fill="none" stroke="#b0bec5" stroke-width="1.3" d="M196.45,-12.53C202.42,-9.32 209.48,-6.12 216.36,-4.5 241.02,1.32 248.7,1.32 273.36,-4.5 276.48,-5.24 279.63,-6.29 282.7,-7.53"/>
<polygon fill="#b0bec5" stroke="#b0bec5" stroke-width="1.3" points="280.95,-10.57 291.49,-11.69 283.95,-4.25 280.95,-10.57"/>
<text xml:space="preserve" text-anchor="middle" x="244.86" y="-7.55" font-family="Helvetica,sans-Serif" font-size="11.00" fill="#37474f">quik / 1.0</text>
</g>
<!-- n3 -->
<g id="node5" class="node">
<title>n3</title>
<ellipse fill="#c8e6c9" stroke="#2e7d32" stroke-width="1.4" cx="431.11" cy="-22" rx="18" ry="18"/>
<ellipse fill="none" stroke="#2e7d32" stroke-width="1.4" cx="431.11" cy="-22" rx="22" ry="22"/>
<text xml:space="preserve" text-anchor="middle" x="431.11" y="-17.32" font-family="Helvetica,sans-Serif" font-size="14.00" fill="#102027">3</text>
</g>
<!-- n2&#45;&gt;n3 -->
<g id="edge4" class="edge">
<title>n2&#45;&gt;n3</title>
<path fill="none" stroke="#2e7d32" stroke-width="2" d="M328.03,-22C345.81,-22 373.69,-22 395.83,-22"/>
<polygon fill="#2e7d32" stroke="#2e7d32" stroke-width="2" points="395.7,-25.5 405.7,-22 395.7,-18.5 395.7,-25.5"/>
<text xml:space="preserve" text-anchor="middle" x="368.24" y="-25.05" font-family="Helvetica,sans-Serif" font-size="11.00" fill="#1b5e20">fox / 0.0</text>
</g>
</g>
</svg>
