<?xml version="1.0" encoding="UTF-8" standalone="no"?>
<!DOCTYPE svg PUBLIC "-//W3C//DTD SVG 1.1//EN"
 "http://www.w3.org/Graphics/SVG/1.1/DTD/svg11.dtd">
<!-- Generated by graphviz version 14.1.5 (0)
 -->
<!-- Title: wfst_operations Pages: 1 -->
<svg width="602pt" height="417pt"
 viewBox="0.00 0.00 602.00 417.00" xmlns="http://www.w3.org/2000/svg" xmlns:xlink="http://www.w3.org/1999/xlink">
<g id="graph0" class="graph" transform="scale(1 1) rotate(0) translate(4 412.5)">
<title>wfst_operations</title>
<polygon fill="#ffffff" stroke="none" points="-4,4 -4,-412.5 598.25,-412.5 598.25,4 -4,4"/>
<text xml:space="preserve" text-anchor="start" x="8" y="-393.15" font-family="Helvetica,sans-Serif" font-weight="bold" font-size="13.00">Rational constructions</text>
<text xml:space="preserve" text-anchor="start" x="171.5" y="-393.15" font-family="Helvetica,sans-Serif" font-size="13.00"> — grey dashed arcs are the ε&#45;transitions each operation adds</text>
<g id="clust1" class="cluster">
<title>cluster_union</title>
<path fill="#f5f9ff" stroke="#1565c0" d="M113.96,-8C113.96,-8 403.58,-8 403.58,-8 409.58,-8 415.58,-14 415.58,-20 415.58,-20 415.58,-138 415.58,-138 415.58,-144 409.58,-150 403.58,-150 403.58,-150 113.96,-150 113.96,-150 107.96,-150 101.96,-144 101.96,-138 101.96,-138 101.96,-20 101.96,-20 101.96,-14 107.96,-8 113.96,-8"/>
<text xml:space="preserve" text-anchor="start" x="109.96" y="-134.65" font-family="Helvetica,sans-Serif" font-weight="bold" font-size="13.00" fill="#102027">Union</text>
<text xml:space="preserve" text-anchor="start" x="151.96" y="-134.65" font-family="Helvetica,sans-Serif" font-size="13.00" fill="#102027"> &#160;T₁ ⊕ T₂</text>
</g>
<g id="clust2" class="cluster">
<title>cluster_concat</title>
<path fill="#f4fbf4" stroke="#2e7d32" d="M113.96,-158C113.96,-158 484.29,-158 484.29,-158 490.29,-158 496.29,-164 496.29,-170 496.29,-170 496.29,-230 496.29,-230 496.29,-236 490.29,-242 484.29,-242 484.29,-242 113.96,-242 113.96,-242 107.96,-242 101.96,-236 101.96,-230 101.96,-230 101.96,-170 101.96,-170 101.96,-164 107.96,-158 113.96,-158"/>
<text xml:space="preserve" text-anchor="start" x="109.96" y="-226.65" font-family="Helvetica,sans-Serif" font-weight="bold" font-size="13.00" fill="#102027">Concatenation</text>
<text xml:space="preserve" text-anchor="start" x="215.71" y="-226.65" font-family="Helvetica,sans-Serif" font-size="13.00" fill="#102027"> &#160;T₁ ⊗ T₂</text>
</g>
<g id="clust3" class="cluster">
<title>cluster_closure</title>
<path fill="#f2faf9" stroke="#00695c" d="M109.96,-250C109.96,-250 279.63,-250 279.63,-250 285.63,-250 291.63,-256 291.63,-262 291.63,-262 291.63,-364 291.63,-364 291.63,-370 285.63,-376 279.63,-376 279.63,-376 109.96,-376 109.96,-376 103.96,-376 97.96,-370 97.96,-364 97.96,-364 97.96,-262 97.96,-262 97.96,-256 103.96,-250 109.96,-250"/>
<text xml:space="preserve" text-anchor="start" x="105.96" y="-360.65" font-family="Helvetica,sans-Serif" font-weight="bold" font-size="13.00" fill="#102027">Closure</text>
<text xml:space="preserve" text-anchor="start" x="161.46" y="-360.65" font-family="Helvetica,sans-Serif" font-size="13.00" fill="#102027"> &#160;T*</text>
</g>
<!-- u_start -->
<g id="node1" class="node">
<title>u_start</title>
<ellipse fill="#bbdefb" stroke="#1565c0" stroke-width="1.4" cx="127.81" cy="-67" rx="17.85" ry="17.85"/>
<text xml:space="preserve" text-anchor="middle" x="127.81" y="-62.33" font-family="Helvetica,sans-Serif" font-size="14.00" fill="#102027">s</text>
</g>
<!-- u_a0 -->
<g id="node2" class="node">
<title>u_a0</title>
<ellipse fill="#bbdefb" stroke="#1565c0" stroke-width="1.4" cx="212.67" cy="-37" rx="20.86" ry="20.86"/>
<text xml:space="preserve" text-anchor="middle" x="212.67" y="-32.33" font-family="Helvetica,sans-Serif" font-size="14.00" fill="#102027">T₁</text>
</g>
<!-- u_start&#45;&gt;u_a0 -->
<g id="edge1" class="edge">
<title>u_start&#45;&gt;u_a0</title>
<path fill="none" stroke="#9e9e9e" stroke-width="1.3" stroke-dasharray="5,2" d="M145.18,-61.07C155.47,-57.35 169.07,-52.42 181.29,-48"/>
<polygon fill="#9e9e9e" stroke="#9e9e9e" stroke-width="1.3" points="182.36,-51.33 190.57,-44.64 179.98,-44.75 182.36,-51.33"/>
<text xml:space="preserve" text-anchor="middle" x="170.67" y="-55.95" font-family="Helvetica,sans-Serif" font-size="11.00" fill="#616161">ε</text>
</g>
<!-- u_b0 -->
<g id="node4" class="node">
<title>u_b0</title>
<ellipse fill="#bbdefb" stroke="#1565c0" stroke-width="1.4" cx="212.67" cy="-97" rx="20.86" ry="20.86"/>
<text xml:space="preserve" text-anchor="middle" x="212.67" y="-92.33" font-family="Helvetica,sans-Serif" font-size="14.00" fill="#102027">T₂</text>
</g>
<!-- u_start&#45;&gt;u_b0 -->
<g id="edge2" class="edge">
<title>u_start&#45;&gt;u_b0</title>
<path fill="none" stroke="#9e9e9e" stroke-width="1.3" stroke-dasharray="5,2" d="M145.18,-72.93C155.47,-76.65 169.07,-81.58 181.29,-86"/>
<polygon fill="#9e9e9e" stroke="#9e9e9e" stroke-width="1.3" points="179.98,-89.25 190.57,-89.36 182.36,-82.67 179.98,-89.25"/>
<text xml:space="preserve" text-anchor="middle" x="170.67" y="-85.95" font-family="Helvetica,sans-Serif" font-size="11.00" fill="#616161">ε</text>
</g>
<!-- u_a1 -->
<g id="node3" class="node">
<title>u_a1</title>
<ellipse fill="#bbdefb" stroke="#1565c0" stroke-width="1.4" cx="277.15" cy="-38" rx="6.48" ry="6.48"/>
</g>
<!-- u_a0&#45;&gt;u_a1 -->
<g id="edge3" class="edge">
<title>u_a0&#45;&gt;u_a1</title>
<path fill="none" stroke="#b0bec5" stroke-width="1.3" d="M234.12,-37.33C241.95,-37.45 250.81,-37.59 258.37,-37.72"/>
<polygon fill="#b0bec5" stroke="#b0bec5" stroke-width="1.3" points="258.05,-41.21 268.1,-37.87 258.16,-34.21 258.05,-41.21"/>
</g>
<!-- u_f -->
<g id="node6" class="node">
<title>u_f</title>
<ellipse fill="#c8e6c9" stroke="#2e7d32" stroke-width="1.4" cx="385.73" cy="-61" rx="17.85" ry="17.85"/>
<ellipse fill="none" stroke="#2e7d32" stroke-width="1.4" cx="385.73" cy="-61" rx="21.85" ry="21.85"/>
<text xml:space="preserve" text-anchor="middle" x="385.73" y="-56.33" font-family="Helvetica,sans-Serif" font-size="14.00" fill="#102027">f</text>
</g>
<!-- u_a1&#45;&gt;u_f -->
<g id="edge5" class="edge">
<title>u_a1&#45;&gt;u_f</title>
<path fill="none" stroke="#9e9e9e" stroke-width="1.3" stroke-dasharray="5,2" d="M284.16,-38.94C296.02,-40.83 323.25,-45.36 345.88,-50.5 348.12,-51.01 350.44,-51.56 352.76,-52.14"/>
<polygon fill="#9e9e9e" stroke="#9e9e9e" stroke-width="1.3" points="351.78,-55.5 362.34,-54.63 353.54,-48.73 351.78,-55.5"/>
<text xml:space="preserve" text-anchor="middle" x="323.75" y="-53.55" font-family="Helvetica,sans-Serif" font-size="11.00" fill="#616161">ε</text>
</g>
<!-- u_b1 -->
<g id="node5" class="node">
<title>u_b1</title>
<ellipse fill="#bbdefb" stroke="#1565c0" stroke-width="1.4" cx="277.15" cy="-92" rx="6.48" ry="6.48"/>
</g>
<!-- u_b0&#45;&gt;u_b1 -->
<g id="edge4" class="edge">
<title>u_b0&#45;&gt;u_b1</title>
<path fill="none" stroke="#b0bec5" stroke-width="1.3" d="M234.12,-95.36C241.95,-94.74 250.81,-94.03 258.37,-93.42"/>
<polygon fill="#b0bec5" stroke="#b0bec5" stroke-width="1.3" points="258.42,-96.93 268.11,-92.64 257.86,-89.95 258.42,-96.93"/>
</g>
<!-- u_b1&#45;&gt;u_f -->
<g id="edge6" class="edge">
<title>u_b1&#45;&gt;u_f</title>
<path fill="none" stroke="#9e9e9e" stroke-width="1.3" stroke-dasharray="5,2" d="M283.88,-90.33C296.66,-86.62 328.3,-77.41 352.77,-70.3"/>
<polygon fill="#9e9e9e" stroke="#9e9e9e" stroke-width="1.3" points="353.57,-73.71 362.2,-67.55 351.62,-66.99 353.57,-73.71"/>
<text xml:space="preserve" text-anchor="middle" x="323.75" y="-87.56" font-family="Helvetica,sans-Serif" font-size="11.00" fill="#616161">ε</text>
</g>
<!-- c_start -->
<g id="node7" class="node">
<title>c_start</title>
<ellipse fill="#bbdefb" stroke="#1565c0" stroke-width="1.4" cx="127.81" cy="-188" rx="17.85" ry="17.85"/>
<text xml:space="preserve" text-anchor="middle" x="127.81" y="-183.32" font-family="Helvetica,sans-Serif" font-size="14.00" fill="#102027">s</text>
</g>
<!-- c_a0 -->
<g id="node8" class="node">
<title>c_a0</title>
<ellipse fill="#bbdefb" stroke="#1565c0" stroke-width="1.4" cx="212.67" cy="-188" rx="20.86" ry="20.86"/>
<text xml:space="preserve" text-anchor="middle" x="212.67" y="-183.32" font-family="Helvetica,sans-Serif" font-size="14.00" fill="#102027">T₁</text>
</g>
<!-- c_start&#45;&gt;c_a0 -->
<g id="edge7" class="edge">
<title>c_start&#45;&gt;c_a0</title>
<path fill="none" stroke="#b0bec5" stroke-width="1.3" d="M145.98,-188C155.66,-188 168.06,-188 179.48,-188"/>
<polygon fill="#b0bec5" stroke="#b0bec5" stroke-width="1.3" points="179.33,-191.5 189.33,-188 179.33,-184.5 179.33,-191.5"/>
</g>
<!-- c_a1 -->
<g id="node9" class="node">
<title>c_a1</title>
<ellipse fill="#bbdefb" stroke="#1565c0" stroke-width="1.4" cx="277.15" cy="-188" rx="6.48" ry="6.48"/>
</g>
<!-- c_a0&#45;&gt;c_a1 -->
<g id="edge8" class="edge">
<title>c_a0&#45;&gt;c_a1</title>
<path fill="none" stroke="#b0bec5" stroke-width="1.3" d="M234.12,-188C241.95,-188 250.81,-188 258.37,-188"/>
<polygon fill="#b0bec5" stroke="#b0bec5" stroke-width="1.3" points="258.1,-191.5 268.1,-188 258.1,-184.5 258.1,-191.5"/>
</g>
<!-- c_b0 -->
<g id="node10" class="node">
<title>c_b0</title>
<ellipse fill="#bbdefb" stroke="#1565c0" stroke-width="1.4" cx="385.73" cy="-188" rx="20.86" ry="20.86"/>
<text xml:space="preserve" text-anchor="middle" x="385.73" y="-183.32" font-family="Helvetica,sans-Serif" font-size="14.00" fill="#102027">T₂</text>
</g>
<!-- c_a1&#45;&gt;c_b0 -->
<g id="edge9" class="edge">
<title>c_a1&#45;&gt;c_b0</title>
<path fill="none" stroke="#9e9e9e" stroke-width="1.3" stroke-dasharray="5,2" d="M284.18,-188C297.08,-188 328.13,-188 352.35,-188"/>
<polygon fill="#9e9e9e" stroke="#9e9e9e" stroke-width="1.3" points="352.28,-191.5 362.28,-188 352.28,-184.5 352.28,-191.5"/>
<text xml:space="preserve" text-anchor="middle" x="323.75" y="-191.05" font-family="Helvetica,sans-Serif" font-size="11.00" fill="#616161">ε / ρ(T₁)</text>
</g>
<!-- c_f -->
<g id="node11" class="node">
<title>c_f</title>
<ellipse fill="#c8e6c9" stroke="#2e7d32" stroke-width="1.4" cx="466.44" cy="-188" rx="17.85" ry="17.85"/>
<ellipse fill="none" stroke="#2e7d32" stroke-width="1.4" cx="466.44" cy="-188" rx="21.85" ry="21.85"/>
<text xml:space="preserve" text-anchor="middle" x="466.44" y="-183.32" font-family="Helvetica,sans-Serif" font-size="14.00" fill="#102027">f</text>
</g>
<!-- c_b0&#45;&gt;c_f -->
<g id="edge10" class="edge">
<title>c_b0&#45;&gt;c_f</title>
<path fill="none" stroke="#b0bec5" stroke-width="1.3" d="M407,-188C414.74,-188 423.78,-188 432.4,-188"/>
<polygon fill="#b0bec5" stroke="#b0bec5" stroke-width="1.3" points="432.17,-191.5 442.17,-188 432.17,-184.5 432.17,-191.5"/>
</g>
<!-- k_start -->
<g id="node12" class="node">
<title>k_start</title>
<ellipse fill="#c8e6c9" stroke="#2e7d32" stroke-width="1.4" cx="127.81" cy="-280" rx="17.85" ry="17.85"/>
<ellipse fill="none" stroke="#2e7d32" stroke-width="1.4" cx="127.81" cy="-280" rx="21.85" ry="21.85"/>
<text xml:space="preserve" text-anchor="middle" x="127.81" y="-275.32" font-family="Helvetica,sans-Serif" font-size="14.00" fill="#102027">s</text>
</g>
<!-- k_t0 -->
<g id="node13" class="node">
<title>k_t0</title>
<ellipse fill="#bbdefb" stroke="#1565c0" stroke-width="1.4" cx="212.67" cy="-276" rx="17.85" ry="17.85"/>
<text xml:space="preserve" text-anchor="middle" x="212.67" y="-271.32" font-family="Helvetica,sans-Serif" font-size="14.00" fill="#102027">T</text>
</g>
<!-- k_start&#45;&gt;k_t0 -->
<g id="edge11" class="edge">
<title>k_start&#45;&gt;k_t0</title>
<path fill="none" stroke="#9e9e9e" stroke-width="1.3" stroke-dasharray="5,2" d="M150.15,-278.97C160,-278.49 171.86,-277.92 182.53,-277.41"/>
<polygon fill="#9e9e9e" stroke="#9e9e9e" stroke-width="1.3" points="182.52,-280.91 192.34,-276.93 182.18,-273.92 182.52,-280.91"/>
<text xml:space="preserve" text-anchor="middle" x="170.67" y="-281.17" font-family="Helvetica,sans-Serif" font-size="11.00" fill="#616161">ε</text>
</g>
<!-- k_t1 -->
<g id="node14" class="node">
<title>k_t1</title>
<ellipse fill="#bbdefb" stroke="#1565c0" stroke-width="1.4" cx="277.15" cy="-276" rx="6.48" ry="6.48"/>
</g>
<!-- k_t0&#45;&gt;k_t1 -->
<g id="edge12" class="edge">
<title>k_t0&#45;&gt;k_t1</title>
<path fill="none" stroke="#b0bec5" stroke-width="1.3" d="M231.07,-276C239.5,-276 249.61,-276 258.12,-276"/>
<polygon fill="#b0bec5" stroke="#b0bec5" stroke-width="1.3" points="258.06,-279.5 268.06,-276 258.06,-272.5 258.06,-279.5"/>
</g>
<!-- k_t1&#45;&gt;k_start -->
<g id="edge13" class="edge">
<title>k_t1&#45;&gt;k_start</title>
<path fill="none" stroke="#9e9e9e" stroke-width="1.3" stroke-dasharray="5,2" d="M271.62,-280.14C264.3,-286.53 249.1,-298.51 233.67,-303 208.75,-310.25 179.93,-302.81 158.81,-294.52"/>
<polygon fill="#9e9e9e" stroke="#9e9e9e" stroke-width="1.3" points="160.33,-291.36 149.76,-290.68 157.6,-297.8 160.33,-291.36"/>
<text xml:space="preserve" text-anchor="middle" x="212.67" y="-308.99" font-family="Helvetica,sans-Serif" font-size="11.00" fill="#616161">ε (loop)</text>
</g>
</g>
</svg>
