<svg xmlns="http://www.w3.org/2000/svg" xmlns:xlink="http://www.w3.org/1999/xlink" contentStyleType="text/css" data-diagram-type="DESCRIPTION" height="895px" preserveAspectRatio="none" style="width:905px;height:895px;background:#FFFFFF;" version="1.1" viewBox="0 0 905 895" width="905px" zoomAndPan="magnify"><?plantuml $version$?><defs/><g><g class="title" data-source-line="26"><text fill="#000000" font-family="sans-serif" font-size="14" font-weight="700" lengthAdjust="spacing" textLength="413.7964" x="242.2708" y="24.9659">PathMapBackend &#8212; content-addressed distributed storage</text><text fill="#000000" font-family="sans-serif" font-size="11" font-style="italic" font-weight="700" lengthAdjust="spacing" textLength="348.7415" x="274.7983" y="40.8268">structural sharing &#183; deduplication &#183; persistence (integration target)</text></g><!--cluster lling-llang process--><g class="cluster" data-qualified-name="lling-llang process" data-source-line="28" id="ent0001"><path d="M8.5,61.6518 L136.2695,61.6518 A3.75,3.75 0 0 1 138.7695,64.1518 L145.7695,86.7197 L191.5,86.7197 A2.5,2.5 0 0 1 194,89.2197 L194,586.4318 A2.5,2.5 0 0 1 191.5,588.9318 L8.5,588.9318 A2.5,2.5 0 0 1 6,586.4318 L6,64.1518 A2.5,2.5 0 0 1 8.5,61.6518" fill="#ECEFF1" style="stroke:#000000;stroke-width:1.5;"/><line style="stroke:#000000;stroke-width:1.5;" x1="6" x2="145.7695" y1="86.7197" y2="86.7197"/><text fill="#000000" font-family="sans-serif" font-size="14" font-weight="700" lengthAdjust="spacing" textLength="126.7695" x="10" y="78.6177">lling-llang process</text></g><!--cluster PathMap cluster--><g class="cluster" data-qualified-name="PathMap cluster" data-source-line="38" id="ent0009"><path d="M587.762,476.1833 C597.5403,464.4794 606.2725,462.3941 615.7116,476.5499 C623.0344,463.1419 631.3259,462.7465 640.5426,474.6952 C649.3181,463.3613 660.6533,461.2405 669.1008,475.0675 C676.3152,459.7718 687.8261,461.4931 696.4082,473.71 C703.3438,462.5849 714.7415,462.2476 722.5555,472.6428 C732.0036,459.7178 744.9265,461.3269 752.8603,474.4073 C759.3433,460.8775 769.3172,462.2945 777.1268,473.0836 C788.4819,459.1947 798.8644,456.6664 808.8105,474.4913 C815.9858,465.3884 826.1283,463.062 832.1643,475.7143 C846.821,459.7865 857.0199,466.1153 866,481.7918 C866.9016,481.7013 867.2482,482.3482 866.7764,483.0834 C879.9231,489.7413 880.7001,503.462 868.4312,511.5949 C879.311,518.0636 880.6379,527.6905 869.1339,534.836 C884.6639,543.292 882.8126,552.6232 871.9064,563.6251 C883.7648,570.8583 884.6331,581.3869 873.6793,590.1452 C884.8697,596.4281 887.5591,605.9937 875.6237,614.1498 C889.9281,624.7916 888.1291,634.6543 874.3864,644.1389 C885.9842,650.8189 884.1867,660.2206 874.7639,667.244 C890.3381,675.9456 889.0711,686.9704 875.6912,696.587 C885.6341,703.8197 888.7497,714.0434 875.2893,720.8891 C889.496,729.0942 885.0267,742.7243 873.2378,749.0347 C883.1682,757.4957 882.4174,766.1882 870.5348,772.0921 C882.6611,779.1003 886.2711,791.3714 872.4502,800.1509 C886.0657,809.1498 883.8149,818.7856 872.0625,827.4239 C880.7135,842.159 878.7593,854.8886 859,857.1318 C861.6415,856.3802 863.4166,857.6827 863.288,860.4794 C856.4001,874.5657 841.068,877.8797 832.2181,862.5518 C824.1275,874.5741 812.2216,877.3256 804.2753,862.4022 C796.2447,876.8016 785.8734,875.687 777.1798,863.0671 C768.4179,876.8941 758.9783,876.2442 749.9023,863.3883 C742.9958,874.6235 734.7164,875.7623 725.9256,865.4889 C715.6135,878.1083 707.0421,879.4591 697.7903,864.4106 C691.4203,877.2914 679.8536,879.7478 671.7048,866.164 C660.116,880.2968 649.6817,878.5588 641.2039,862.9714 C630.9011,873.913 622.5806,872.6748 614.719,860.2093 C599.4305,875.173 583.1845,871.9836 578,850.1318 C581.4869,848.886 583.6625,851.3656 582.8356,854.693 C567.9546,847.9662 566.343,835.7735 580.3593,826.5078 C566.7863,818.9019 564.9263,810.1345 577.8086,799.9845 C566.2416,794.7768 566.5111,783.2127 575.7159,776.179 C564.6916,767.7088 564.5064,758.0293 575.9053,749.7197 C563.0846,744.6487 561.0343,733.2692 570.1396,723.3958 C558.6618,712.7808 559.3029,703.1334 572.7948,694.8401 C555.5525,689.2697 555.5315,677.2434 567.3636,666.1659 C556.9259,658.4271 558.8586,647.5165 571.2391,643.7169 C559.0775,634.4399 559.5241,622.9367 574.2379,616.6356 C561.8213,607.7706 562.6596,598.4762 575.5923,590.9477 C561.98,582.7682 563.5002,570.5841 576.0492,562.8296 C564.6193,553.6067 565.106,544.0485 576.5198,535.2149 C567.1949,525.1982 566.0994,515.6057 580.5374,509.2684 C566.6641,496.4607 568.8043,483.7075 585,474.7918 C586.3571,473.885 587.6018,474.7144 587.762,476.1833" fill="#BBDEFB" style="stroke:#181818;stroke-width:1;"/><text fill="#000000" font-family="sans-serif" font-size="14" font-weight="700" lengthAdjust="spacing" textLength="114.5475" x="664.7262" y="494.7577">PathMap cluster</text></g><!--entity LB--><g class="entity" data-qualified-name="lling-llang process.LB" data-source-line="29" id="ent0002"><rect fill="#BBDEFB" height="49.0679" rx="2.5" ry="2.5" style="stroke:#1565C0;stroke-width:0.5;" width="130.7896" x="21.61" y="99.6518"/><rect fill="#BBDEFB" height="10" style="stroke:#1565C0;stroke-width:0.5;" width="15" x="132.3996" y="104.6518"/><rect fill="#BBDEFB" height="2" style="stroke:#1565C0;stroke-width:0.5;" width="4" x="130.3996" y="106.6518"/><rect fill="#BBDEFB" height="2" style="stroke:#1565C0;stroke-width:0.5;" width="4" x="130.3996" y="110.6518"/><text fill="#102027" font-family="sans-serif" font-size="14" lengthAdjust="spacing" textLength="90.7896" x="36.61" y="134.6177">LatticeBuilder</text></g><!--entity IFACE--><g class="entity" data-qualified-name="lling-llang process.IFACE" data-source-line="30" id="ent0003"><ellipse cx="93" cy="259.7218" fill="#ECEFF1" rx="8" ry="8" style="stroke:#455A64;stroke-width:0.5;"/><text fill="#102027" font-family="sans-serif" font-size="14" lengthAdjust="spacing" textLength="99.8336" x="43.0832" y="291.6877">LatticeBackend</text></g><!--entity PMB--><g class="entity" data-qualified-name="lling-llang process.PMB" data-source-line="31" id="ent0004"><rect fill="#BBDEFB" height="49.0679" rx="2.5" ry="2.5" style="stroke:#1565C0;stroke-width:0.5;" width="155.4996" x="22.25" y="352.7218"/><rect fill="#BBDEFB" height="10" style="stroke:#1565C0;stroke-width:0.5;" width="15" x="157.7496" y="357.7218"/><rect fill="#BBDEFB" height="2" style="stroke:#1565C0;stroke-width:0.5;" width="4" x="155.7496" y="359.7218"/><rect fill="#BBDEFB" height="2" style="stroke:#1565C0;stroke-width:0.5;" width="4" x="155.7496" y="363.7218"/><text fill="#102027" font-family="sans-serif" font-size="14" lengthAdjust="spacing" textLength="115.4996" x="37.25" y="387.6877">PathMapBackend</text></g><!--entity CACHE--><g class="entity" data-qualified-name="lling-llang process.CACHE" data-source-line="32" id="ent0005"><rect fill="#FFF59D" height="68.1358" rx="2.5" ry="2.5" style="stroke:#1565C0;stroke-width:0.5;" width="117.0837" x="53.46" y="504.7918"/><rect fill="#FFF59D" height="10" style="stroke:#1565C0;stroke-width:0.5;" width="15" x="150.5437" y="509.7918"/><rect fill="#FFF59D" height="2" style="stroke:#1565C0;stroke-width:0.5;" width="4" x="148.5437" y="511.7918"/><rect fill="#FFF59D" height="2" style="stroke:#1565C0;stroke-width:0.5;" width="4" x="148.5437" y="515.7918"/><text fill="#102027" font-family="sans-serif" font-size="14" lengthAdjust="spacing" textLength="75.4737" x="69.265" y="539.7577">Local cache</text><text fill="#102027" font-family="sans-serif" font-size="14" lengthAdjust="spacing" textLength="77.0837" x="68.46" y="558.8256">(LRU vocab)</text></g><!--entity CA--><g class="entity" data-qualified-name="PathMap cluster.CA" data-source-line="39" id="ent0010"><rect fill="#BBDEFB" height="68.1358" rx="2.5" ry="2.5" style="stroke:#1565C0;stroke-width:0.5;" width="169.3035" x="586.35" y="671.9318"/><rect fill="#BBDEFB" height="10" style="stroke:#1565C0;stroke-width:0.5;" width="15" x="735.6535" y="676.9318"/><rect fill="#BBDEFB" height="2" style="stroke:#1565C0;stroke-width:0.5;" width="4" x="733.6535" y="678.9318"/><rect fill="#BBDEFB" height="2" style="stroke:#1565C0;stroke-width:0.5;" width="4" x="733.6535" y="682.9318"/><text fill="#102027" font-family="sans-serif" font-size="14" lengthAdjust="spacing" textLength="129.3035" x="601.35" y="706.8977">Content addressing</text><text fill="#102027" font-family="sans-serif" font-size="14" lengthAdjust="spacing" textLength="105.3621" x="613.3207" y="725.9656">hash(word) &#8594; id</text></g><!--entity CoW--><g class="entity" data-qualified-name="PathMap cluster.CoW" data-source-line="40" id="ent0011"><rect fill="#BBDEFB" height="68.1358" rx="2.5" ry="2.5" style="stroke:#1565C0;stroke-width:0.5;" width="158.3556" x="589.82" y="504.7918"/><rect fill="#BBDEFB" height="10" style="stroke:#1565C0;stroke-width:0.5;" width="15" x="728.1756" y="509.7918"/><rect fill="#BBDEFB" height="2" style="stroke:#1565C0;stroke-width:0.5;" width="4" x="726.1756" y="511.7918"/><rect fill="#BBDEFB" height="2" style="stroke:#1565C0;stroke-width:0.5;" width="4" x="726.1756" y="515.7918"/><text fill="#102027" font-family="sans-serif" font-size="14" lengthAdjust="spacing" textLength="118.3556" x="604.82" y="539.7577">Structural sharing</text><text fill="#102027" font-family="sans-serif" font-size="14" lengthAdjust="spacing" textLength="98.8256" x="614.585" y="558.8256">(copy-on-write)</text></g><!--entity N1--><g class="entity" data-qualified-name="PathMap cluster.N1" data-source-line="41" id="ent0012"><path d="M586.37,811.0618 C586.37,801.0618 620.0019,801.0618 620.0019,801.0618 C620.0019,801.0618 653.6338,801.0618 653.6338,811.0618 L653.6338,839.1297 C653.6338,849.1297 620.0019,849.1297 620.0019,849.1297 C620.0019,849.1297 586.37,849.1297 586.37,839.1297 L586.37,811.0618" fill="#C8E6C9" style="stroke:#2E7D32;stroke-width:0.5;"/><path d="M586.37,811.0618 C586.37,821.0618 620.0019,821.0618 620.0019,821.0618 C620.0019,821.0618 653.6338,821.0618 653.6338,811.0618" fill="none" style="stroke:#2E7D32;stroke-width:0.5;"/><text fill="#102027" font-family="sans-serif" font-size="14" lengthAdjust="spacing" textLength="47.2638" x="596.37" y="840.0277">Node 1</text></g><!--entity N2--><g class="entity" data-qualified-name="PathMap cluster.N2" data-source-line="42" id="ent0013"><path d="M688.37,811.0618 C688.37,801.0618 722.0019,801.0618 722.0019,801.0618 C722.0019,801.0618 755.6338,801.0618 755.6338,811.0618 L755.6338,839.1297 C755.6338,849.1297 722.0019,849.1297 722.0019,849.1297 C722.0019,849.1297 688.37,849.1297 688.37,839.1297 L688.37,811.0618" fill="#C8E6C9" style="stroke:#2E7D32;stroke-width:0.5;"/><path d="M688.37,811.0618 C688.37,821.0618 722.0019,821.0618 722.0019,821.0618 C722.0019,821.0618 755.6338,821.0618 755.6338,811.0618" fill="none" style="stroke:#2E7D32;stroke-width:0.5;"/><text fill="#102027" font-family="sans-serif" font-size="14" lengthAdjust="spacing" textLength="47.2638" x="698.37" y="840.0277">Node 2</text></g><!--entity N3--><g class="entity" data-qualified-name="PathMap cluster.N3" data-source-line="43" id="ent0014"><path d="M790.37,811.0618 C790.37,801.0618 824.0019,801.0618 824.0019,801.0618 C824.0019,801.0618 857.6338,801.0618 857.6338,811.0618 L857.6338,839.1297 C857.6338,849.1297 824.0019,849.1297 824.0019,849.1297 C824.0019,849.1297 790.37,849.1297 790.37,839.1297 L790.37,811.0618" fill="#C8E6C9" style="stroke:#2E7D32;stroke-width:0.5;"/><path d="M790.37,811.0618 C790.37,821.0618 824.0019,821.0618 824.0019,821.0618 C824.0019,821.0618 857.6338,821.0618 857.6338,811.0618" fill="none" style="stroke:#2E7D32;stroke-width:0.5;"/><text fill="#102027" font-family="sans-serif" font-size="14" lengthAdjust="spacing" textLength="47.2638" x="800.37" y="840.0277">Node 3</text></g><g class="entity" data-qualified-name="GMN21" data-source-line="54" id="ent0022"><path d="M210.22,507.3018 L210.22,570.4198 A0,0 0 0 0 210.22,570.4198 L553.7865,570.4198 A0,0 0 0 0 553.7865,570.4198 L553.7865,517.3018 L543.7865,507.3018 L331.13,507.3018 L142.22,402.1518 L323.13,507.3018 L210.22,507.3018 A0,0 0 0 0 210.22,507.3018" fill="#FEFFDD" style="stroke:#181818;stroke-width:0.5;"/><path d="M543.7865,507.3018 L543.7865,517.3018 L553.7865,517.3018 L543.7865,507.3018" fill="#FEFFDD" style="stroke:#181818;stroke-width:0.5;"/><text fill="#000000" font-family="sans-serif" font-size="13" lengthAdjust="spacing" textLength="322.5665" x="216.22" y="526.1988">intern(word) &#8594; VocabId      lookup(id) &#8594; &amp;str (cached)</text><text fill="#000000" font-family="sans-serif" font-size="13" lengthAdjust="spacing" textLength="287.3755" x="233.8155" y="543.9048">persist(&amp;lattice) &#8594; id      load(id) &#8594; Lattice&lt;W,B&gt;</text><text fill="#000000" font-family="sans-serif" font-size="13" lengthAdjust="spacing" textLength="125.0991" x="299.4317" y="561.6108">supports_sharing() =</text><text fill="#000000" font-family="sans-serif" font-size="13" font-weight="700" lengthAdjust="spacing" textLength="27.664" x="427.9108" y="561.6108">true</text></g><!--link LB to IFACE--><g class="link" data-entity-1="ent0002" data-entity-2="ent0003" data-link-type="dependency" data-source-line="33" id="lnk6"><path d="M88.07,149.0618 C89.45,179.6718 91.5363,226.1368 92.4163,245.7868" fill="none" id="LB-to-IFACE" style="stroke:#607D8B;stroke-width:1;"/><polygon fill="#607D8B" points="92.64,250.7818,96.2333,241.6118,92.4163,245.7868,88.2414,241.9698,92.64,250.7818" style="stroke:#607D8B;stroke-width:1;stroke-linejoin:miter;stroke-miterlimit:10;"/><text fill="#000000" font-family="sans-serif" font-size="13" lengthAdjust="spacing" textLength="90.4671" x="91.18" y="193.6188">intern / lookup</text></g><!--link IFACE to PMB--><g class="link" data-entity-1="ent0003" data-entity-2="ent0004" data-link-type="association" data-source-line="34" id="lnk7"><path d="M93.48,268.6618 C94.51,285.6918 96.97,326.2918 98.56,352.4618" fill="none" id="IFACE-PMB" style="stroke:#607D8B;stroke-width:1;"/></g><!--link PMB to CACHE--><g class="link" data-entity-1="ent0004" data-entity-2="ent0005" data-link-type="dependency" data-source-line="35" id="lnk8"><path d="M101.8,402.1518 C103.84,429.2818 106.8051,468.7559 109.1051,499.3459" fill="none" id="PMB-to-CACHE" style="stroke:#607D8B;stroke-width:1;"/><polygon fill="#607D8B" points="109.48,504.3318,112.794,495.0572,109.1051,499.3459,104.8165,495.657,109.48,504.3318" style="stroke:#607D8B;stroke-width:1;stroke-linejoin:miter;stroke-miterlimit:10;"/><text fill="#000000" font-family="sans-serif" font-size="13" lengthAdjust="spacing" textLength="21.723" x="106.28" y="446.6888">hit?</text></g><!--link CA to N1--><g class="link" data-entity-1="ent0010" data-entity-2="ent0012" data-link-type="dependency" data-source-line="44" id="lnk15"><path d="M656.39,740.5518 C648.03,759.7418 639.7466,778.7677 632.2466,795.9877" fill="none" id="CA-to-N1" style="stroke:#607D8B;stroke-width:1;"/><polygon fill="#607D8B" points="630.25,800.5718,637.5111,793.9177,632.2466,795.9877,630.1765,790.7232,630.25,800.5718" style="stroke:#607D8B;stroke-width:1;stroke-linejoin:miter;stroke-miterlimit:10;"/></g><!--link CA to N2--><g class="link" data-entity-1="ent0010" data-entity-2="ent0013" data-link-type="dependency" data-source-line="45" id="lnk16"><path d="M685.61,740.5518 C693.97,759.7418 702.2534,778.7677 709.7534,795.9877" fill="none" id="CA-to-N2" style="stroke:#607D8B;stroke-width:1;"/><polygon fill="#607D8B" points="711.75,800.5718,711.8235,790.7232,709.7534,795.9877,704.4889,793.9177,711.75,800.5718" style="stroke:#607D8B;stroke-width:1;stroke-linejoin:miter;stroke-miterlimit:10;"/></g><!--link CA to N3--><g class="link" data-entity-1="ent0010" data-entity-2="ent0014" data-link-type="dependency" data-source-line="46" id="lnk17"><path d="M714.84,740.5518 C739.92,759.7418 766.7894,780.313 789.2894,797.533" fill="none" id="CA-to-N3" style="stroke:#607D8B;stroke-width:1;"/><polygon fill="#607D8B" points="793.26,800.5718,788.544,791.9254,789.2894,797.533,783.6819,798.2784,793.26,800.5718" style="stroke:#607D8B;stroke-width:1;stroke-linejoin:miter;stroke-miterlimit:10;"/></g><!--link CoW to CA--><g class="link" data-entity-1="ent0011" data-entity-2="ent0010" data-link-type="dependency" data-source-line="47" id="lnk18"><path d="M669.4,573.2818 C669.75,601.9318 670.1889,637.9922 670.5389,666.6322" fill="none" id="CoW-to-CA" style="stroke:#607D8B;stroke-width:1;stroke-dasharray:7,7;"/><polygon fill="#607D8B" points="670.6,671.6318,674.4897,662.5836,670.5389,666.6322,666.4903,662.6813,670.6,671.6318" style="stroke:#607D8B;stroke-width:1;stroke-linejoin:miter;stroke-miterlimit:10;"/><text fill="#000000" font-family="sans-serif" font-size="13" lengthAdjust="spacing" textLength="94.3801" x="671.18" y="619.8288">dedup identical</text><text fill="#000000" font-family="sans-serif" font-size="13" lengthAdjust="spacing" textLength="84.4741" x="676.133" y="637.5348">substructures</text></g><!--link CACHE to CA--><g class="link" data-entity-1="ent0005" data-entity-2="ent0010" data-link-type="dependency" data-source-line="50" id="lnk19"><path d="M152.99,573.3918 C165.27,582.1218 179.17,590.7818 193,596.9318 C323.43,654.8718 483.2114,682.6397 581.2914,695.3397" fill="none" id="CACHE-to-CA" style="stroke:#607D8B;stroke-width:1;"/><polygon fill="#607D8B" points="586.25,695.9818,577.8382,690.8592,581.2914,695.3397,576.8109,698.7929,586.25,695.9818" style="stroke:#607D8B;stroke-width:1;stroke-linejoin:miter;stroke-miterlimit:10;"/><text fill="#000000" font-family="sans-serif" font-size="13" lengthAdjust="spacing" textLength="129.1797" x="307.16" y="628.8288">miss &#8594; fetch / persist</text></g><!--link PMB to CoW--><g class="link" data-entity-1="ent0004" data-entity-2="ent0011" data-link-type="dependency" data-source-line="51" id="lnk20"><path d="M178.11,379.6718 C274.5,384.0418 441.52,400.3318 571,458.7918 C595.31,469.7718 615.0118,484.8658 632.8518,501.1958" fill="none" id="PMB-to-CoW" style="stroke:#607D8B;stroke-width:1;"/><polygon fill="#607D8B" points="636.54,504.5718,632.6021,495.5444,632.8518,501.1958,627.2005,501.4455,636.54,504.5718" style="stroke:#607D8B;stroke-width:1;stroke-linejoin:miter;stroke-miterlimit:10;"/><text fill="#000000" font-family="sans-serif" font-size="13" lengthAdjust="spacing" textLength="136.0581" x="548.39" y="446.6888">clone shares structure</text></g><?plantuml-src dLJ1Rjj64BtpAmOga4XeA5foP2UAgaAaA2I07HXf6n_Y8bXob-B2grrYTsabAGhqr0ye-Y-vvrFo9PrTaZPZEPVoG10pRzxCl9dXOn22osqe195Rk22sF2TLJF9h9Yby_UjVo9MqJDgGKAgPCOm2vSPgdjKMlurLccmPedQLaeY36yxsu-3nDxJ3GjMI4ikLX4pKR0IMY6i3LW41eN8Y82TvoPx0lkHv2ON6fEWkMLSH4kQYDfRfGx8NNOtGreY9uKSiJTUvhJMIcv9ePnJyXW6NZlYES0mRfVT4qr0eTUrW7DcskibWYTuowvKmZ05LkObw_gYOwED2V8mgh7D7gZ1hf1llg1FXWWXcBPitSPGJ3DkPw4swMf-d7cCmOqNG2YvogrrlYH9AmmyR__GGs0PLUrTXGOHXFGzb1Qc5_PLzi2l1jtBdrCZnnNGFTJUaFmA0-7w-E5wdczXvbAPCjzR9x6IM7A5rWo9tjgFfqVGKRIkjrRurdXoThf_5mP_zieWb6J7iuNp9i_GaUNu_tpGzNHzF7ypNftOpq0N9lyET9kbcCxdF_NGsMvqy_GvtOBaL31RPylzUmIBAbbToOVWdDfzCbWk-V607ltp6QT6w4ZnlDWmD5TC6wPZ4TeQ7spTQH7ovY1plCWWgBCkTtA1_OPLMETOrw3htghmx8zRodCKr5oZ2xq0CdBa1tuatw21DhmC7URLP9QaB_rO77tvn7dlYkvkzaiEpDx_13LgoaSSag-HbwjTtzdoDwBCOmd3PqCAyIIuX0dTkTOM0nXE6BJk-VK33CuUIsv_TV7AXQWg3jghkV0VTuZOj9mU_WYjP4bCEzxW88_Zwzp_0QLkcm_zoC25iA5VLnr39SA-vPMrJwXBXjmizUAqeWudNw_Naq3DjFDD3pt7ZEKPFil9z-lZkUzhxzXXr2UEn4mELy8k3zME3k3tYIfewwrQC6QTHercZ7WRik36-vu9P_Az6tQO5jneZ_HobnD-2xv-Ps_yc2mAfB8DCMQjse8fsFCtyUdg-TQD_HS4_pL27lFKzGZOO-aMX8mnkymyVYMRlkebqmOJUXhQRkRXy4YynqjHLfRGrxzin3KVmapjMhDOVNk1ErHNy7m00?></g></svg>