<?xml version="1.0" encoding="UTF-8" standalone="no"?>
<!DOCTYPE svg PUBLIC "-//W3C//DTD SVG 1.1//EN"
 "http://www.w3.org/Graphics/SVG/1.1/DTD/svg11.dtd">
<!-- Generated by graphviz version 14.1.5 (0)
 -->
<!-- Title: phonetic_rescore Pages: 1 -->
<svg width="784pt" height="77pt"
 viewBox="0.00 0.00 784.00 77.00" xmlns="http://www.w3.org/2000/svg" xmlns:xlink="http://www.w3.org/1999/xlink">
<g id="graph0" class="graph" transform="scale(1 1) rotate(0) translate(4 73.28)">
<title>phonetic_rescore</title>
<polygon fill="#ffffff" stroke="none" points="-4,4 -4,-73.28 779.75,-73.28 779.75,4 -4,4"/>
<text xml:space="preserve" text-anchor="start" x="8" y="-53.93" font-family="Helvetica,sans-Serif" font-weight="bold" font-size="13.00">Phonetic rescoring (WFSA)</text>
<text xml:space="preserve" text-anchor="start" x="203.75" y="-53.93" font-family="Helvetica,sans-Serif" font-size="13.00"> — green marks the best path after the reference &quot;night mayor&quot; boosts homophones</text>
<!-- __start__ -->
<g id="node1" class="node">
<title>__start__</title>
<ellipse fill="#bbdefb" stroke="#1565c0" stroke-width="1.4" cx="205.62" cy="-22.78" rx="0.36" ry="0.36"/>
</g>
<!-- n0 -->
<g id="node2" class="node">
<title>n0</title>
<ellipse fill="#bbdefb" stroke="#1565c0" stroke-width="1.4" cx="260.99" cy="-22.78" rx="18" ry="18"/>
<text xml:space="preserve" text-anchor="middle" x="260.99" y="-18.11" font-family="Helvetica,sans-Serif" font-size="14.00" fill="#102027">0</text>
</g>
<!-- __start__&#45;&gt;n0 -->
<g id="edge1" class="edge">
<title>__start__&#45;&gt;n0</title>
<path fill="none" stroke="#607d8b" stroke-width="1.3" d="M206.59,-22.78C209.18,-22.78 219.66,-22.78 230.66,-22.78"/>
<polygon fill="#607d8b" stroke="#607d8b" stroke-width="1.3" points="230.49,-26.28 240.49,-22.78 230.49,-19.28 230.49,-26.28"/>
</g>
<!-- n1 -->
<g id="node3" class="node">
<title>n1</title>
<ellipse fill="#bbdefb" stroke="#1565c0" stroke-width="1.4" cx="401.99" cy="-22.78" rx="18" ry="18"/>
<text xml:space="preserve" text-anchor="middle" x="401.99" y="-18.11" font-family="Helvetica,sans-Serif" font-size="14.00" fill="#102027">1</text>
</g>
<!-- n0&#45;&gt;n1 -->
<g id="edge2" class="edge">
<title>n0&#45;&gt;n1</title>
<path fill="none" stroke="#2e7d32" stroke-width="2" d="M279.59,-22.78C302.46,-22.78 342.76,-22.78 370.61,-22.78"/>
<polygon fill="#2e7d32" stroke="#2e7d32" stroke-width="2" points="370.5,-26.28 380.5,-22.78 370.5,-19.28 370.5,-26.28"/>
<text xml:space="preserve" text-anchor="middle" x="331.49" y="-25.83" font-family="Helvetica,sans-Serif" font-size="11.00" fill="#1b5e20">night / 0.50</text>
</g>
<!-- n0&#45;&gt;n1 -->
<g id="edge3" class="edge">
<title>n0&#45;&gt;n1</title>
<path fill="none" stroke="#b0bec5" stroke-width="1.3" d="M277.08,-13.32C283.04,-10.1 290.11,-6.91 296.99,-5.28 326.83,1.76 336.14,1.76 365.99,-5.28 369.1,-6.02 372.26,-7.08 375.33,-8.31"/>
<polygon fill="#b0bec5" stroke="#b0bec5" stroke-width="1.3" points="373.58,-11.36 384.12,-12.48 376.58,-5.03 373.58,-11.36"/>
<text xml:space="preserve" text-anchor="middle" x="331.49" y="-8.33" font-family="Helvetica,sans-Serif" font-size="11.00" fill="#37474f">knight / 0.60</text>
</g>
<!-- n2 -->
<g id="node4" class="node">
<title>n2</title>
<ellipse fill="#c8e6c9" stroke="#2e7d32" stroke-width="1.4" cx="548.49" cy="-22.78" rx="18" ry="18"/>
<ellipse fill="none" stroke="#2e7d32" stroke-width="1.4" cx="548.49" cy="-22.78" rx="22" ry="22"/>
<text xml:space="preserve" text-anchor="middle" x="548.49" y="-18.11" font-family="Helvetica,sans-Serif" font-size="14.00" fill="#102027">2</text>
</g>
<!-- n1&#45;&gt;n2 -->
<g id="edge4" class="edge">
<title>n1&#45;&gt;n2</title>
<path fill="none" stroke="#2e7d32" stroke-width="2" d="M420.42,-22.78C443.35,-22.78 484.18,-22.78 513.37,-22.78"/>
<polygon fill="#2e7d32" stroke="#2e7d32" stroke-width="2" points="513.22,-26.28 523.22,-22.78 513.22,-19.28 513.22,-26.28"/>
<text xml:space="preserve" text-anchor="middle" x="473.24" y="-25.83" font-family="Helvetica,sans-Serif" font-size="11.00" fill="#1b5e20">mayor / 0.50</text>
</g>
<!-- n1&#45;&gt;n2 -->
<g id="edge5" class="edge">
<title>n1&#45;&gt;n2</title>
<path fill="none" stroke="#b0bec5" stroke-width="1.3" d="M418.08,-13.32C424.04,-10.1 431.11,-6.91 437.99,-5.28 468.48,1.91 477.85,1.27 508.49,-5.28 511.58,-5.95 514.72,-6.87 517.81,-7.96"/>
<polygon fill="#b0bec5" stroke="#b0bec5" stroke-width="1.3" points="516.19,-11.08 526.77,-11.64 518.85,-4.6 516.19,-11.08"/>
<text xml:space="preserve" text-anchor="middle" x="473.24" y="-8.33" font-family="Helvetica,sans-Serif" font-size="11.00" fill="#37474f">mare / 1.00</text>
</g>
</g>
</svg>
