<?xml version="1.0" encoding="UTF-8" standalone="no"?>
<!DOCTYPE svg PUBLIC "-//W3C//DTD SVG 1.1//EN"
 "http://www.w3.org/Graphics/SVG/1.1/DTD/svg11.dtd">
<!-- Generated by graphviz version 14.1.5 (0)
 -->
<!-- Title: repair_lattice Pages: 1 -->
<svg width="784pt" height="146pt"
 viewBox="0.00 0.00 784.00 146.00" xmlns="http://www.w3.org/2000/svg" xmlns:xlink="http://www.w3.org/1999/xlink">
<g id="graph0" class="graph" transform="scale(1 1) rotate(0) translate(4 142.4)">
<title>repair_lattice</title>
<polygon fill="#ffffff" stroke="none" points="-4,4 -4,-142.4 780.22,-142.4 780.22,4 -4,4"/>
<text xml:space="preserve" text-anchor="start" x="86.24" y="-123.05" font-family="Helvetica,sans-Serif" font-weight="bold" font-size="13.00">Token&#45;repair lattice</text>
<text xml:space="preserve" text-anchor="start" x="230.24" y="-123.05" font-family="Helvetica,sans-Serif" font-size="13.00"> — input &quot;foo ( )&quot; missing a block; green = least&#45;cost repair (Σ = 0.6)</text>
<!-- __start__ -->
<g id="node1" class="node">
<title>__start__</title>
<ellipse fill="#bbdefb" stroke="#1565c0" stroke-width="1.4" cx="0.36" cy="-57" rx="0.36" ry="0.36"/>
</g>
<!-- n0 -->
<g id="node2" class="node">
<title>n0</title>
<ellipse fill="#bbdefb" stroke="#1565c0" stroke-width="1.4" cx="55.72" cy="-57" rx="18" ry="18"/>
<text xml:space="preserve" text-anchor="middle" x="55.72" y="-52.33" font-family="Helvetica,sans-Serif" font-size="14.00" fill="#102027">0</text>
</g>
<!-- __start__&#45;&gt;n0 -->
<g id="edge1" class="edge">
<title>__start__&#45;&gt;n0</title>
<path fill="none" stroke="#607d8b" stroke-width="1.3" d="M1.33,-57C3.91,-57 14.4,-57 25.4,-57"/>
<polygon fill="#607d8b" stroke="#607d8b" stroke-width="1.3" points="25.22,-60.5 35.22,-57 25.22,-53.5 25.22,-60.5"/>
</g>
<!-- n1 -->
<g id="node3" class="node">
<title>n1</title>
<ellipse fill="#bbdefb" stroke="#1565c0" stroke-width="1.4" cx="194.47" cy="-57" rx="18" ry="18"/>
<text xml:space="preserve" text-anchor="middle" x="194.47" y="-52.33" font-family="Helvetica,sans-Serif" font-size="14.00" fill="#102027">1</text>
</g>
<!-- n0&#45;&gt;n1 -->
<g id="edge2" class="edge">
<title>n0&#45;&gt;n1</title>
<path fill="none" stroke="#607d8b" stroke-width="1.3" d="M74.32,-57C96.99,-57 136.71,-57 164.02,-57"/>
<polygon fill="#607d8b" stroke="#607d8b" stroke-width="1.3" points="163.97,-60.5 173.97,-57 163.97,-53.5 163.97,-60.5"/>
<text xml:space="preserve" text-anchor="middle" x="125.1" y="-60.05" font-family="Helvetica,sans-Serif" font-size="11.00" fill="#37474f">foo:foo / 0.0</text>
</g>
<!-- n2 -->
<g id="node4" class="node">
<title>n2</title>
<ellipse fill="#bbdefb" stroke="#1565c0" stroke-width="1.4" cx="315.22" cy="-57" rx="18" ry="18"/>
<text xml:space="preserve" text-anchor="middle" x="315.22" y="-52.33" font-family="Helvetica,sans-Serif" font-size="14.00" fill="#102027">2</text>
</g>
<!-- n1&#45;&gt;n2 -->
<g id="edge3" class="edge">
<title>n1&#45;&gt;n2</title>
<path fill="none" stroke="#607d8b" stroke-width="1.3" d="M212.99,-57C231.85,-57 262.16,-57 284.71,-57"/>
<polygon fill="#607d8b" stroke="#607d8b" stroke-width="1.3" points="284.66,-60.5 294.66,-57 284.66,-53.5 284.66,-60.5"/>
<text xml:space="preserve" text-anchor="middle" x="254.85" y="-60.05" font-family="Helvetica,sans-Serif" font-size="11.00" fill="#37474f">( : ( / 0.0</text>
</g>
<!-- n1&#45;&gt;n2 -->
<g id="edge9" class="edge">
<title>n1&#45;&gt;n2</title>
<path fill="none" stroke="#9e9e9e" stroke-width="1.3" stroke-dasharray="5,2" d="M210.56,-47.53C216.53,-44.32 223.59,-41.12 230.47,-39.5 251.56,-34.52 258.13,-34.52 279.22,-39.5 282.34,-40.24 285.49,-41.29 288.56,-42.53"/>
<polygon fill="#9e9e9e" stroke="#9e9e9e" stroke-width="1.3" points="286.81,-45.57 297.35,-46.69 289.81,-39.25 286.81,-45.57"/>
<text xml:space="preserve" text-anchor="middle" x="254.85" y="-42.55" font-family="Helvetica,sans-Serif" font-size="11.00" fill="#37474f">ε / 0.0</text>
</g>
<!-- n3 -->
<g id="node5" class="node">
<title>n3</title>
<ellipse fill="#bbdefb" stroke="#1565c0" stroke-width="1.4" cx="536.85" cy="-66" rx="18" ry="18"/>
<text xml:space="preserve" text-anchor="middle" x="536.85" y="-61.33" font-family="Helvetica,sans-Serif" font-size="14.00" fill="#102027">3</text>
</g>
<!-- n2&#45;&gt;n3 -->
<g id="edge4" class="edge">
<title>n2&#45;&gt;n3</title>
<path fill="none" stroke="#2e7d32" stroke-width="2" d="M326.78,-71.65C332.97,-78.95 341.49,-87.05 351.22,-91 403.77,-112.32 470.94,-92.71 508.05,-78.24"/>
<polygon fill="#2e7d32" stroke="#2e7d32" stroke-width="2" points="509.12,-81.58 517.05,-74.55 506.47,-75.1 509.12,-81.58"/>
<text xml:space="preserve" text-anchor="middle" x="386.85" y="-103.45" font-family="Helvetica,sans-Serif" font-size="11.00" fill="#1b5e20">ε : &quot; {&quot; / 0.3</text>
</g>
<!-- n2&#45;&gt;n3 -->
<g id="edge6" class="edge">
<title>n2&#45;&gt;n3</title>
<path fill="none" stroke="#2e7d32" stroke-width="2" d="M333.82,-57.72C371.17,-59.25 458.74,-62.84 505.37,-64.75"/>
<polygon fill="#2e7d32" stroke="#2e7d32" stroke-width="2" points="505,-68.24 515.14,-65.15 505.29,-61.24 505,-68.24"/>
<text xml:space="preserve" text-anchor="middle" x="386.85" y="-64.28" font-family="Helvetica,sans-Serif" font-size="11.00" fill="#1b5e20">) : ) / 0.0</text>
</g>
<!-- n2&#45;&gt;n3 -->
<g id="edge8" class="edge">
<title>n2&#45;&gt;n3</title>
<path fill="none" stroke="#b0bec5" stroke-width="1.3" d="M331.78,-48.44C337.68,-45.65 344.59,-42.9 351.22,-41.5 406.21,-29.87 471.66,-45.33 508,-56.46"/>
<polygon fill="#b0bec5" stroke="#b0bec5" stroke-width="1.3" points="506.69,-59.71 517.28,-59.42 508.81,-53.04 506.69,-59.71"/>
<text xml:space="preserve" text-anchor="middle" x="386.85" y="-44.55" font-family="Helvetica,sans-Serif" font-size="11.00" fill="#37474f">delete ) / 1.0</text>
</g>
<!-- n4 -->
<g id="node6" class="node">
<title>n4</title>
<ellipse fill="#c8e6c9" stroke="#2e7d32" stroke-width="1.4" cx="754.22" cy="-22" rx="18" ry="18"/>
<ellipse fill="none" stroke="#2e7d32" stroke-width="1.4" cx="754.22" cy="-22" rx="22" ry="22"/>
<text xml:space="preserve" text-anchor="middle" x="754.22" y="-17.32" font-family="Helvetica,sans-Serif" font-size="14.00" fill="#102027">4</text>
</g>
<!-- n2&#45;&gt;n4 -->
<g id="edge7" class="edge">
<title>n2&#45;&gt;n4</title>
<path fill="none" stroke="#b0bec5" stroke-width="1.3" d="M329.61,-45.39C335.78,-40.71 343.45,-35.77 351.22,-33 388.72,-19.63 400.71,-27.39 440.47,-25.5 542.08,-20.67 662.45,-21.03 719.72,-21.58"/>
<polygon fill="#b0bec5" stroke="#b0bec5" stroke-width="1.3" points="719.59,-25.08 729.62,-21.68 719.66,-18.08 719.59,-25.08"/>
<text xml:space="preserve" text-anchor="middle" x="536.85" y="-28.55" font-family="Helvetica,sans-Serif" font-size="11.00" fill="#37474f">) : ) / 0.0 &#160;(no repair → still ERROR)</text>
</g>
<!-- n3&#45;&gt;n4 -->
<g id="edge5" class="edge">
<title>n3&#45;&gt;n4</title>
<path fill="none" stroke="#2e7d32" stroke-width="2" d="M555.11,-62.47C590.72,-55.2 672.9,-38.41 719.46,-28.9"/>
<polygon fill="#2e7d32" stroke="#2e7d32" stroke-width="2" points="720.06,-32.35 729.16,-26.92 718.66,-25.49 720.06,-32.35"/>
<text xml:space="preserve" text-anchor="middle" x="682.72" y="-45.73" font-family="Helvetica,sans-Serif" font-size="11.00" fill="#1b5e20">ε : &quot;}&quot; / 0.3</text>
</g>
</g>
</svg>
