<svg xmlns="http://www.w3.org/2000/svg" xmlns:xlink="http://www.w3.org/1999/xlink" contentStyleType="text/css" data-diagram-type="DESCRIPTION" height="1299px" preserveAspectRatio="none" style="width:999px;height:1299px;background:#FFFFFF;" version="1.1" viewBox="0 0 999 1299" width="999px" zoomAndPan="magnify"><?plantuml $version$?><defs/><g><g class="title" data-source-line="20"><text fill="#000000" font-family="sans-serif" font-size="14" font-weight="700" lengthAdjust="spacing" textLength="395.9871" x="298.1886" y="24.9659">Syntax repair: ParserBackend &#8596; SyntaxRepairTransducer</text><text fill="#000000" font-family="sans-serif" font-size="11" font-style="italic" font-weight="700" lengthAdjust="spacing" textLength="335.7801" x="298.1886" y="40.8268">parse &#8594; locate errors &#8594; weighted token edits &#8594; least-cost repair</text></g><!--cluster parsing (blue)--><g class="cluster" data-qualified-name="parsing .blue." data-source-line="24" id="ent0002"><path d="M8.5,176.1198 L105.7636,176.1198 A3.75,3.75 0 0 1 108.2636,178.6198 L115.2636,201.1877 L219.5,201.1877 A2.5,2.5 0 0 1 222,203.6877 L222,638.4898 A2.5,2.5 0 0 1 219.5,640.9898 L8.5,640.9898 A2.5,2.5 0 0 1 6,638.4898 L6,178.6198 A2.5,2.5 0 0 1 8.5,176.1198" fill="none" style="stroke:#000000;stroke-width:1.5;"/><line style="stroke:#000000;stroke-width:1.5;" x1="6" x2="115.2636" y1="201.1877" y2="201.1877"/><text fill="#000000" font-family="sans-serif" font-size="14" font-weight="700" lengthAdjust="spacing" textLength="96.2636" x="10" y="193.0857">parsing (blue)</text></g><!--cluster repair (amber)--><g class="cluster" data-qualified-name="repair .amber." data-source-line="30" id="ent0006"><path d="M248.5,509.3198 L350.4256,509.3198 A3.75,3.75 0 0 1 352.9256,511.8198 L359.9256,534.3877 L519.5,534.3877 A2.5,2.5 0 0 1 522,536.8877 L522,1131.6498 A2.5,2.5 0 0 1 519.5,1134.1498 L248.5,1134.1498 A2.5,2.5 0 0 1 246,1131.6498 L246,511.8198 A2.5,2.5 0 0 1 248.5,509.3198" fill="none" style="stroke:#000000;stroke-width:1.5;"/><line style="stroke:#000000;stroke-width:1.5;" x1="246" x2="359.9256" y1="534.3877" y2="534.3877"/><text fill="#000000" font-family="sans-serif" font-size="14" font-weight="700" lengthAdjust="spacing" textLength="100.9256" x="250" y="526.2857">repair (amber)</text></g><!--entity PB--><g class="entity" data-qualified-name="parsing .blue..PB" data-source-line="25" id="ent0003"><ellipse cx="127" cy="246.1198" fill="#BBDEFB" rx="8" ry="8" style="stroke:#1565C0;stroke-width:0.5;"/><text fill="#000000" font-family="sans-serif" font-size="14" lengthAdjust="spacing" textLength="98.7976" x="77.6012" y="278.0857">ParserBackend</text></g><!--entity IMPL--><g class="entity" data-qualified-name="parsing .blue..IMPL" data-source-line="26" id="ent0004"><rect fill="#BBDEFB" height="87.2038" rx="2.5" ry="2.5" style="stroke:#F9A825;stroke-width:0.5;" width="183.3035" x="22.35" y="357.1198"/><rect fill="#BBDEFB" height="10" style="stroke:#F9A825;stroke-width:0.5;" width="15" x="185.6535" y="362.1198"/><rect fill="#BBDEFB" height="2" style="stroke:#F9A825;stroke-width:0.5;" width="4" x="183.6535" y="364.1198"/><rect fill="#BBDEFB" height="2" style="stroke:#F9A825;stroke-width:0.5;" width="4" x="183.6535" y="368.1198"/><text fill="#102027" font-family="sans-serif" font-size="14" lengthAdjust="spacing" textLength="74.0877" x="37.35" y="392.0857">tree-sitter /</text><text fill="#102027" font-family="sans-serif" font-size="14" lengthAdjust="spacing" textLength="109.8016" x="37.35" y="411.1537">LALRPOP / pest /</text><text fill="#102027" font-family="sans-serif" font-size="14" lengthAdjust="spacing" textLength="143.3035" x="37.35" y="430.2216">SimpleParserBackend</text></g><!--entity PR--><g class="entity" data-qualified-name="parsing .blue..PR" data-source-line="27" id="ent0005"><rect fill="#BBDEFB" height="87.2038" rx="2.5" ry="2.5" style="stroke:#F9A825;stroke-width:0.5;" width="164.0815" x="38.96" y="537.7898"/><rect fill="#BBDEFB" height="10" style="stroke:#F9A825;stroke-width:0.5;" width="15" x="183.0415" y="542.7898"/><rect fill="#BBDEFB" height="2" style="stroke:#F9A825;stroke-width:0.5;" width="4" x="181.0415" y="544.7898"/><rect fill="#BBDEFB" height="2" style="stroke:#F9A825;stroke-width:0.5;" width="4" x="181.0415" y="548.7898"/><text fill="#102027" font-family="sans-serif" font-size="14" lengthAdjust="spacing" textLength="103.9916" x="53.96" y="572.7557">ParseResult&lt;N&gt;</text><text fill="#102027" font-family="sans-serif" font-size="14" lengthAdjust="spacing" textLength="87.1497" x="53.96" y="591.8237">{ tree, errors:</text><text fill="#102027" font-family="sans-serif" font-size="14" lengthAdjust="spacing" textLength="124.0815" x="53.96" y="610.8916">Vec&lt;ParserError&gt; }</text></g><!--entity TOK--><g class="entity" data-qualified-name="repair .amber..TOK" data-source-line="31" id="ent0007"><rect fill="#B2DFDB" height="68.1358" rx="2.5" ry="2.5" style="stroke:#F9A825;stroke-width:0.5;" width="134.6801" x="288.66" y="547.3198"/><rect fill="#B2DFDB" height="10" style="stroke:#F9A825;stroke-width:0.5;" width="15" x="403.3401" y="552.3198"/><rect fill="#B2DFDB" height="2" style="stroke:#F9A825;stroke-width:0.5;" width="4" x="401.3401" y="554.3198"/><rect fill="#B2DFDB" height="2" style="stroke:#F9A825;stroke-width:0.5;" width="4" x="401.3401" y="558.3198"/><text fill="#102027" font-family="sans-serif" font-size="14" lengthAdjust="spacing" textLength="61.4178" x="303.66" y="582.2857">tokenizer</text><text fill="#102027" font-family="sans-serif" font-size="14" lengthAdjust="spacing" textLength="94.6801" x="303.66" y="601.3537">&#8594; Vec&lt;Token&gt;</text></g><!--entity SRT--><g class="entity" data-qualified-name="repair .amber..SRT" data-source-line="32" id="ent0008"><rect fill="#FFF59D" height="87.2038" rx="2.5" ry="2.5" style="stroke:#F9A825;stroke-width:0.5;" width="243.0972" x="262.45" y="723.9898"/><rect fill="#FFF59D" height="10" style="stroke:#F9A825;stroke-width:0.5;" width="15" x="485.5472" y="728.9898"/><rect fill="#FFF59D" height="2" style="stroke:#F9A825;stroke-width:0.5;" width="4" x="483.5472" y="730.9898"/><rect fill="#FFF59D" height="2" style="stroke:#F9A825;stroke-width:0.5;" width="4" x="483.5472" y="734.9898"/><text fill="#102027" font-family="sans-serif" font-size="14" lengthAdjust="spacing" textLength="189.7273" x="277.45" y="758.9557">SyntaxRepairTransducer&lt;W&gt;</text><text fill="#102027" font-family="sans-serif" font-size="14" lengthAdjust="spacing" textLength="203.0972" x="277.45" y="778.0237">&#8226; rules: Vec&lt;SyntaxRepairRule&gt;</text><text fill="#102027" font-family="sans-serif" font-size="14" lengthAdjust="spacing" textLength="171.9894" x="277.45" y="797.0916">&#8226; costs: SyntaxRepairCosts</text></g><!--entity FIND--><g class="entity" data-qualified-name="repair .amber..FIND" data-source-line="33" id="ent0009"><rect fill="#FFF59D" height="68.1358" rx="2.5" ry="2.5" style="stroke:#F9A825;stroke-width:0.5;" width="203.8539" x="275.07" y="896.5398"/><rect fill="#FFF59D" height="10" style="stroke:#F9A825;stroke-width:0.5;" width="15" x="458.9239" y="901.5398"/><rect fill="#FFF59D" height="2" style="stroke:#F9A825;stroke-width:0.5;" width="4" x="456.9239" y="903.5398"/><rect fill="#FFF59D" height="2" style="stroke:#F9A825;stroke-width:0.5;" width="4" x="456.9239" y="907.5398"/><text fill="#102027" font-family="sans-serif" font-size="14" lengthAdjust="spacing" textLength="78.1477" x="290.07" y="931.5057">find_repairs</text><text fill="#102027" font-family="sans-serif" font-size="14" lengthAdjust="spacing" textLength="163.8539" x="290.07" y="950.5737">&#8594; Vec&lt;RepairCandidate&gt;</text></g><!--entity SEL--><g class="entity" data-qualified-name="repair .amber..SEL" data-source-line="34" id="ent0010"><rect fill="#FFF59D" height="68.1358" rx="2.5" ry="2.5" style="stroke:#F9A825;stroke-width:0.5;" width="194.9094" x="279.55" y="1050.0198"/><rect fill="#FFF59D" height="10" style="stroke:#F9A825;stroke-width:0.5;" width="15" x="454.4594" y="1055.0198"/><rect fill="#FFF59D" height="2" style="stroke:#F9A825;stroke-width:0.5;" width="4" x="452.4594" y="1057.0198"/><rect fill="#FFF59D" height="2" style="stroke:#F9A825;stroke-width:0.5;" width="4" x="452.4594" y="1061.0198"/><text fill="#102027" font-family="sans-serif" font-size="14" lengthAdjust="spacing" textLength="154.9094" x="294.55" y="1084.9857">select_non_overlapping</text><text fill="#102027" font-family="sans-serif" font-size="14" lengthAdjust="spacing" textLength="110.5996" x="294.55" y="1104.0537">(least-cost cover)</text></g><!--entity SRC--><g class="entity" data-qualified-name="SRC" data-source-line="22" id="ent0001"><rect fill="#ECEFF1" height="49.0679" rx="2.5" ry="2.5" style="stroke:#F9A825;stroke-width:0.5;" width="113.2757" x="157.36" y="62.0498"/><rect fill="#ECEFF1" height="10" style="stroke:#F9A825;stroke-width:0.5;" width="15" x="250.6357" y="67.0498"/><rect fill="#ECEFF1" height="2" style="stroke:#F9A825;stroke-width:0.5;" width="4" x="248.6357" y="69.0498"/><rect fill="#ECEFF1" height="2" style="stroke:#F9A825;stroke-width:0.5;" width="4" x="248.6357" y="73.0498"/><text fill="#102027" font-family="sans-serif" font-size="14" lengthAdjust="spacing" textLength="73.2757" x="172.36" y="97.0157">source text</text></g><!--entity OUT--><g class="entity" data-qualified-name="OUT" data-source-line="37" id="ent0011"><rect fill="#C8E6C9" height="68.1358" rx="2.5" ry="2.5" style="stroke:#F9A825;stroke-width:0.5;" width="138.6856" x="307.66" y="1217.1498"/><rect fill="#C8E6C9" height="10" style="stroke:#F9A825;stroke-width:0.5;" width="15" x="426.3456" y="1222.1498"/><rect fill="#C8E6C9" height="2" style="stroke:#F9A825;stroke-width:0.5;" width="4" x="424.3456" y="1224.1498"/><rect fill="#C8E6C9" height="2" style="stroke:#F9A825;stroke-width:0.5;" width="4" x="424.3456" y="1228.1498"/><text fill="#102027" font-family="sans-serif" font-size="14" lengthAdjust="spacing" textLength="96.7396" x="322.66" y="1252.1157">repaired text +</text><text fill="#102027" font-family="sans-serif" font-size="14" lengthAdjust="spacing" textLength="98.6856" x="322.66" y="1271.1837">applied repairs</text></g><g class="entity" data-qualified-name="GMN21" data-source-line="50" id="ent0022"><path d="M537.64,890.1898 L537.64,971.0139 A0,0 0 0 0 537.64,971.0139 L984.3643,971.0139 A0,0 0 0 0 984.3643,971.0139 L984.3643,900.1898 L974.3643,890.1898 L671.86,890.1898 L484.53,811.5298 L663.86,890.1898 L537.64,890.1898 A0,0 0 0 0 537.64,890.1898" fill="#FEFFDD" style="stroke:#181818;stroke-width:0.5;"/><path d="M974.3643,890.1898 L974.3643,900.1898 L984.3643,900.1898 L974.3643,890.1898" fill="#FEFFDD" style="stroke:#181818;stroke-width:0.5;"/><text fill="#000000" font-family="sans-serif" font-size="13" lengthAdjust="spacing" textLength="289.1722" x="543.64" y="909.0868">Each rule carries a cost (a tropical weight under</text><text fill="#000000" font-family="sans-serif" font-size="13" font-weight="700" lengthAdjust="spacing" textLength="12.571" x="836.1922" y="909.0868">W</text><text fill="#000000" font-family="sans-serif" font-size="13" lengthAdjust="spacing" textLength="7.384" x="848.7633" y="909.0868">):</text><text fill="#000000" font-family="sans-serif" font-size="13" lengthAdjust="spacing" textLength="408.2263" x="543.64" y="926.7928">typo_fix 0.2 &#183; missing_punctuation 0.3 &#183; insert/delete/substitute 1.0.</text><text fill="#000000" font-family="sans-serif" font-size="13" lengthAdjust="spacing" textLength="425.7243" x="543.64" y="944.4989">build_token_wfst(alphabet) lifts the rules into a VectorWfst&lt;String, W&gt;</text><text fill="#000000" font-family="sans-serif" font-size="13" lengthAdjust="spacing" textLength="286.6502" x="543.64" y="962.2049">for composition with downstream transducers.</text></g><!--link SRC to PB--><g class="link" data-entity-1="ent0001" data-entity-2="ent0003" data-link-type="dependency" data-source-line="39" id="lnk12"><path d="M200.79,111.5098 C180.82,147.6598 146.3768,210.0327 133.7768,232.8527" fill="none" id="SRC-to-PB" style="stroke:#607D8B;stroke-width:1.3;"/><polygon fill="#607D8B" points="131.36,237.2298,139.2119,231.2845,133.7768,232.8527,132.2086,227.4176,131.36,237.2298" style="stroke:#607D8B;stroke-width:1.3;stroke-linejoin:miter;stroke-miterlimit:10;"/><text fill="#000000" font-family="sans-serif" font-size="13" lengthAdjust="spacing" textLength="74.1261" x="184.38" y="156.0168">parse(input)</text></g><!--link PB to IMPL--><g class="link" data-entity-1="ent0003" data-entity-2="ent0004" data-link-type="dependency" data-source-line="40" id="lnk13"><path d="M126.34,254.8898 C124.76,273.4198 121.1033,316.2878 118.0733,351.9478" fill="none" id="PB-to-IMPL" style="stroke:#607D8B;stroke-width:1.3;stroke-dasharray:7,7;"/><polygon fill="#607D8B" points="117.65,356.9298,122.3976,348.3008,118.0733,351.9478,114.4263,347.6235,117.65,356.9298" style="stroke:#607D8B;stroke-width:1.3;stroke-linejoin:miter;stroke-miterlimit:10;"/><text fill="#000000" font-family="sans-serif" font-size="13" lengthAdjust="spacing" textLength="99.7361" x="122.66" y="323.0168">implemented by</text></g><!--link IMPL to PR--><g class="link" data-entity-1="ent0004" data-entity-2="ent0005" data-link-type="dependency" data-source-line="41" id="lnk14"><path d="M115.68,444.5098 C116.78,472.5998 118.0146,504.1936 119.1146,532.3236" fill="none" id="IMPL-to-PR" style="stroke:#607D8B;stroke-width:1.3;"/><polygon fill="#607D8B" points="119.31,537.3198,122.9553,528.1704,119.1146,532.3236,114.9614,528.483,119.31,537.3198" style="stroke:#607D8B;stroke-width:1.3;stroke-linejoin:miter;stroke-miterlimit:10;"/><text fill="#000000" font-family="sans-serif" font-size="13" lengthAdjust="spacing" textLength="76.453" x="118.5" y="489.2168">tree + errors</text></g><!--link SRC to TOK--><g class="link" data-entity-1="ent0001" data-entity-2="ent0007" data-link-type="dependency" data-source-line="42" id="lnk15"><path d="M243.58,111.4698 C252.34,119.9598 261.15,130.1598 267,141.1198 C340.54,278.9298 353.3286,465.7318 355.4886,542.1018" fill="none" id="SRC-to-TOK" style="stroke:#607D8B;stroke-width:1.3;"/><polygon fill="#607D8B" points="355.63,547.0998,359.374,537.9903,355.4886,542.1018,351.3772,538.2165,355.63,547.0998" style="stroke:#607D8B;stroke-width:1.3;stroke-linejoin:miter;stroke-miterlimit:10;"/><text fill="#000000" font-family="sans-serif" font-size="13" lengthAdjust="spacing" textLength="17.563" x="331.51" y="323.0168">lex</text></g><!--link PR to SRT--><g class="link" data-entity-1="ent0005" data-entity-2="ent0008" data-link-type="dependency" data-source-line="43" id="lnk16"><path d="M171.98,625.4198 C198.24,646.8898 231.15,672.7398 262,693.9898 C276.61,704.0598 288.3828,711.6103 303.8928,721.0003" fill="none" id="PR-to-SRT" style="stroke:#607D8B;stroke-width:1.3;"/><polygon fill="#607D8B" points="308.17,723.5898,302.5426,715.507,303.8928,721.0003,298.3994,722.3505,308.17,723.5898" style="stroke:#607D8B;stroke-width:1.3;stroke-linejoin:miter;stroke-miterlimit:10;"/><text fill="#000000" font-family="sans-serif" font-size="13" lengthAdjust="spacing" textLength="85.1501" x="263" y="671.8868">error ranges /</text><text fill="#000000" font-family="sans-serif" font-size="13" lengthAdjust="spacing" textLength="95.0561" x="263" y="689.5928">MISSING nodes</text></g><!--link TOK to SRT--><g class="link" data-entity-1="ent0007" data-entity-2="ent0008" data-link-type="dependency" data-source-line="44" id="lnk17"><path d="M361.07,615.7498 C365.67,646.0198 371.7275,685.8868 376.7375,718.7968" fill="none" id="TOK-to-SRT" style="stroke:#607D8B;stroke-width:1.3;"/><polygon fill="#607D8B" points="377.49,723.7398,380.0899,714.2403,376.7375,718.7968,372.1811,715.4443,377.49,723.7398" style="stroke:#607D8B;stroke-width:1.3;stroke-linejoin:miter;stroke-miterlimit:10;"/><text fill="#000000" font-family="sans-serif" font-size="13" lengthAdjust="spacing" textLength="83.8501" x="373.51" y="680.8868">Token stream</text></g><!--link SRT to FIND--><g class="link" data-entity-1="ent0008" data-entity-2="ent0009" data-link-type="dependency" data-source-line="45" id="lnk18"><path d="M382.14,811.3198 C380.99,837.8698 379.7471,866.5145 378.6771,891.1345" fill="none" id="SRT-to-FIND" style="stroke:#607D8B;stroke-width:1.3;"/><polygon fill="#607D8B" points="378.46,896.1298,382.847,887.312,378.6771,891.1345,374.8545,886.9646,378.46,896.1298" style="stroke:#607D8B;stroke-width:1.3;stroke-linejoin:miter;stroke-miterlimit:10;"/><text fill="#000000" font-family="sans-serif" font-size="13" lengthAdjust="spacing" textLength="127.2961" x="381.71" y="856.0868">apply weighted rules</text></g><!--link FIND to SEL--><g class="link" data-entity-1="ent0009" data-entity-2="ent0010" data-link-type="dependency" data-source-line="46" id="lnk19"><path d="M377,964.8498 C377,990.0198 377,1019.4498 377,1044.6598" fill="none" id="FIND-to-SEL" style="stroke:#607D8B;stroke-width:1.3;"/><polygon fill="#607D8B" points="377,1049.6598,381,1040.6598,377,1044.6598,373,1040.6598,377,1049.6598" style="stroke:#607D8B;stroke-width:1.3;stroke-linejoin:miter;stroke-miterlimit:10;"/><text fill="#000000" font-family="sans-serif" font-size="13" lengthAdjust="spacing" textLength="122.5757" x="378" y="1015.9168">sort by cost &#8853; = min</text></g><!--link SEL to OUT--><g class="link" data-entity-1="ent0010" data-entity-2="ent0011" data-link-type="dependency" data-source-line="47" id="lnk20"><path d="M377,1118.4998 C377,1147.1498 377,1183.2198 377,1211.8498" fill="none" id="SEL-to-OUT" style="stroke:#607D8B;stroke-width:1.3;"/><polygon fill="#607D8B" points="377,1216.8498,381,1207.8498,377,1211.8498,373,1207.8498,377,1216.8498" style="stroke:#607D8B;stroke-width:1.3;stroke-linejoin:miter;stroke-miterlimit:10;"/><text fill="#000000" font-family="sans-serif" font-size="13" lengthAdjust="spacing" textLength="66.2481" x="378" y="1165.0468">apply edits</text><text fill="#000000" font-family="sans-serif" font-size="13" lengthAdjust="spacing" textLength="120.7051" x="378" y="1182.7528">(reverse byte order)</text></g><?plantuml-src TLNDRkCs4BxhAGOEqBMniMndaMpYkWBykmYQ7yDscyEwC2Y9jedGf41ITT95W9vwwB5eNw0lqNiV9K_I6Kg9dJIhcsQ67sU--MRu3gGKQbMNagaLs7lbs5tTy8m90udUP5fnvI0LR6NO9eGkZ9cntFHOSijL2jMbpbNAdD0AdE3cC7W7iSnv3QHEcECMk37Qs6_1hJbCFVp4eyyCKpRD4swWccXZUE91le6hYt411MmJSrD3nCpeJ5i4stAnMZkU0a-5iw1_njCCdCPSG3BdHCA1OLfyGswwKd9cNJtHra5HLOXuOoQvSxmDgKvieopEDYR3xk1o66xICB2tGcKChH1ZfIj3LVQrr0OEHlxRYx1hbkejaWXB9YtVywHyoNBfPlpETQLOgGrnAVdIxSNiIFuI0FJUkEtuR40URL9kdgndtTEZOxIEj7AbhTKyQXvz31xsi8Lot2mPal8cTgyt68vwhx5RnoV7_UOBd2xsS5kwJveV1wUzryxPMYItYbiBhV1343ZX98TE71KTBwbllnBFusz_VaKIdKOSpLN7YbzukzMAEYBAw2IU-ACKLgahRtbMHI64GXi-z7NpEmqHTHe46mN1PwjpWzmuRCzFm2nC9tqu6FQ7er4h239CagquLEXcQcxLwxhYgTmHMtbHKeLWnhqzQdVjhJZ3UTqA59w1nbnTT2ycu-inD23Zc21QfcAJIVv_mFFBySNRa3vsmYsAh7E5Z7q1kkIm9ASzLp_of5C03iaKmKEHukGPxs6lr7BkgyNW5QNk5q3q8dTcheXTmfwHAVAOi-ll4VHeC1gyIl8hBRx1V1z__HjCBhbjUxJzo0cQomXg84RiU_jagXHDcxsyRYbKkYWgiRj4osEu70IkArwaF3g_6hmyRBd4HRHGMYrekKYMPTZxkQhkIIaXJwsuV7X117ukhYC5efRW_LpXEIdmlyp3o-lwXnaSz4-79_sp822jrUiHYQKDNjnL7AZSrGAqX65KDBqDNXAqDn0ilW-yrP-Re9EQ3U_BRZz3KYFQgFsx08F8W1IXmKS1yh_2HOfgkpoVJi-lFe7IARS17Th5-hQ2HNos2SX4Bc8BVLJQ_MxcVFi2x_FdXvIrrSPXkhvpyFZxN_0TR8GAo4b1nCGJa9zM9DXmP1L7FBx7uVRxg1O4IkDFh9tJ6z3BijT3bgpzjP0mOmHMmugBglWKu4iX4YRB_02N7KuRBg8RMYcrDXvtzvbUBCKTDCCZ-FSVJCpIV2-oN2KkBvwoPlY1N4BXuBX6Yg9ml67psE9Yop6bLjWC4IhEXKmNVYmMswLrLIQpDOkvm-TFBCiNo1D46qDZdYX5fyqDndQcpk2rXt0J8T9IbyyjxWTAO2lS6b-dhIfwW7KzpOqD0zgTnCn_?></g></svg>