<?xml version="1.0" encoding="UTF-8" standalone="no"?>
<!DOCTYPE svg PUBLIC "-//W3C//DTD SVG 1.1//EN"
 "http://www.w3.org/Graphics/SVG/1.1/DTD/svg11.dtd">
<!-- Generated by graphviz version 14.1.5 (0)
 -->
<!-- Title: beam_optimization Pages: 1 -->
<svg width="655pt" height="233pt"
 viewBox="0.00 0.00 655.00 233.00" xmlns="http://www.w3.org/2000/svg" xmlns:xlink="http://www.w3.org/1999/xlink">
<g id="graph0" class="graph" transform="scale(1 1) rotate(0) translate(4 228.5)">
<title>beam_optimization</title>
<polygon fill="#ffffff" stroke="none" points="-4,4 -4,-228.5 650.75,-228.5 650.75,4 -4,4"/>
<text xml:space="preserve" text-anchor="start" x="8" y="-209.15" font-family="Helvetica,sans-Serif" font-weight="bold" font-size="13.00">Log&#45;semiring weight pushing for beam search</text>
<text xml:space="preserve" text-anchor="start" x="343.25" y="-209.15" font-family="Helvetica,sans-Serif" font-size="13.00"> — w′(e) = w(e) + V(dst) − V(src), finals → 1̄</text>
<g id="clust1" class="cluster">
<title>cluster_before</title>
<path fill="#ffffff" stroke="#1565c0" d="M114.44,-8C114.44,-8 413.46,-8 413.46,-8 419.46,-8 425.46,-14 425.46,-20 425.46,-20 425.46,-84 425.46,-84 425.46,-90 419.46,-96 413.46,-96 413.46,-96 114.44,-96 114.44,-96 108.44,-96 102.44,-90 102.44,-84 102.44,-84 102.44,-20 102.44,-20 102.44,-14 108.44,-8 114.44,-8"/>
<text xml:space="preserve" text-anchor="start" x="132.7" y="-79.25" font-family="Helvetica,sans-Serif" font-size="13.00" fill="#0d47a1">before — V(2)=0.0, V(1)=2.0, V(0)=3.0</text>
</g>
<g id="clust2" class="cluster">
<title>cluster_after</title>
<path fill="#ffffff" stroke="#2e7d32" d="M171.6,-104C171.6,-104 532.31,-104 532.31,-104 538.31,-104 544.31,-110 544.31,-116 544.31,-116 544.31,-180 544.31,-180 544.31,-186 538.31,-192 532.31,-192 532.31,-192 171.6,-192 171.6,-192 165.6,-192 159.6,-186 159.6,-180 159.6,-180 159.6,-116 159.6,-116 159.6,-110 165.6,-104 171.6,-104"/>
<text xml:space="preserve" text-anchor="start" x="187.71" y="-175.25" font-family="Helvetica,sans-Serif" font-size="13.00" fill="#1b5e20">after — Σ exp(−w′) = 1 at each state (stochastic)</text>
</g>
<!-- b0 -->
<g id="node1" class="node">
<title>b0</title>
<ellipse fill="#bbdefb" stroke="#1565c0" stroke-width="1.4" cx="167.96" cy="-43" rx="19.8" ry="19.8"/>
<text xml:space="preserve" text-anchor="middle" x="167.96" y="-38.33" font-family="Helvetica,sans-Serif" font-size="14.00" fill="#102027">0</text>
</g>
<!-- b1 -->
<g id="node2" class="node">
<title>b1</title>
<ellipse fill="#bbdefb" stroke="#1565c0" stroke-width="1.4" cx="278.81" cy="-41" rx="19.8" ry="19.8"/>
<text xml:space="preserve" text-anchor="middle" x="278.81" y="-36.33" font-family="Helvetica,sans-Serif" font-size="14.00" fill="#102027">1</text>
</g>
<!-- b0&#45;&gt;b1 -->
<g id="edge2" class="edge">
<title>b0&#45;&gt;b1</title>
<path fill="none" stroke="#607d8b" stroke-width="1.3" d="M188.42,-42.64C204.6,-42.35 227.92,-41.92 246.68,-41.57"/>
<polygon fill="#607d8b" stroke="#607d8b" stroke-width="1.3" points="246.62,-45.07 256.55,-41.39 246.49,-38.08 246.62,-45.07"/>
<text xml:space="preserve" text-anchor="middle" x="223.39" y="-45.35" font-family="Helvetica,sans-Serif" font-size="11.00" fill="#37474f">a / 1.0</text>
</g>
<!-- a0 -->
<g id="node5" class="node">
<title>a0</title>
<ellipse fill="#c8e6c9" stroke="#2e7d32" stroke-width="1.4" cx="278.81" cy="-132" rx="19.8" ry="19.8"/>
<text xml:space="preserve" text-anchor="middle" x="278.81" y="-127.33" font-family="Helvetica,sans-Serif" font-size="14.00" fill="#102027">0</text>
</g>
<!-- b0&#45;&gt;a0 -->
<g id="edge7" class="edge">
<title>b0&#45;&gt;a0</title>
<path fill="none" stroke="#9e9e9e" stroke-width="1.3" stroke-dasharray="1,5" d="M184.1,-55.38C202.13,-70.12 232.49,-94.94 253.75,-112.33"/>
<polygon fill="#9e9e9e" stroke="#9e9e9e" stroke-width="1.3" points="251.32,-114.86 261.28,-118.48 255.75,-109.45 251.32,-114.86"/>
<text xml:space="preserve" text-anchor="middle" x="223.39" y="-103.72" font-family="Helvetica,sans-Serif" font-size="11.00" fill="#37474f">push</text>
</g>
<!-- b2 -->
<g id="node3" class="node">
<title>b2</title>
<ellipse fill="#c8e6c9" stroke="#2e7d32" stroke-width="1.4" cx="393.66" cy="-40" rx="19.8" ry="19.8"/>
<ellipse fill="none" stroke="#2e7d32" stroke-width="1.4" cx="393.66" cy="-40" rx="23.8" ry="23.8"/>
<text xml:space="preserve" text-anchor="middle" x="393.66" y="-35.33" font-family="Helvetica,sans-Serif" font-size="14.00" fill="#102027">2</text>
</g>
<!-- b1&#45;&gt;b2 -->
<g id="edge3" class="edge">
<title>b1&#45;&gt;b2</title>
<path fill="none" stroke="#607d8b" stroke-width="1.3" d="M299.21,-40.83C315.13,-40.69 338.1,-40.48 357.27,-40.31"/>
<polygon fill="#607d8b" stroke="#607d8b" stroke-width="1.3" points="357.28,-43.81 367.25,-40.23 357.22,-36.81 357.28,-43.81"/>
<text xml:space="preserve" text-anchor="middle" x="334.24" y="-43.7" font-family="Helvetica,sans-Serif" font-size="11.00" fill="#37474f">b / 2.0</text>
</g>
<!-- __b__ -->
<g id="node4" class="node">
<title>__b__</title>
<ellipse fill="#bbdefb" stroke="#1565c0" stroke-width="1.4" cx="110.8" cy="-43" rx="0.36" ry="0.36"/>
</g>
<!-- __b__&#45;&gt;b0 -->
<g id="edge1" class="edge">
<title>__b__&#45;&gt;b0</title>
<path fill="none" stroke="#607d8b" stroke-width="1.3" d="M111.79,-43C114.39,-43 124.73,-43 135.76,-43"/>
<polygon fill="#607d8b" stroke="#607d8b" stroke-width="1.3" points="135.71,-46.5 145.71,-43 135.71,-39.5 135.71,-46.5"/>
</g>
<!-- a1 -->
<g id="node6" class="node">
<title>a1</title>
<ellipse fill="#c8e6c9" stroke="#2e7d32" stroke-width="1.4" cx="393.66" cy="-134" rx="19.8" ry="19.8"/>
<text xml:space="preserve" text-anchor="middle" x="393.66" y="-129.32" font-family="Helvetica,sans-Serif" font-size="14.00" fill="#102027">1</text>
</g>
<!-- a0&#45;&gt;a1 -->
<g id="edge5" class="edge">
<title>a0&#45;&gt;a1</title>
<path fill="none" stroke="#2e7d32" stroke-width="2" d="M299.21,-132.34C316.11,-132.64 340.93,-133.08 360.75,-133.43"/>
<polygon fill="#2e7d32" stroke="#2e7d32" stroke-width="2" points="360.43,-136.93 370.49,-133.61 360.55,-129.93 360.43,-136.93"/>
<text xml:space="preserve" text-anchor="middle" x="334.24" y="-136.29" font-family="Helvetica,sans-Serif" font-size="11.00" fill="#1b5e20">a / 0.0</text>
</g>
<!-- a2 -->
<g id="node7" class="node">
<title>a2</title>
<ellipse fill="#c8e6c9" stroke="#2e7d32" stroke-width="1.4" cx="512.51" cy="-136" rx="19.8" ry="19.8"/>
<ellipse fill="none" stroke="#2e7d32" stroke-width="1.4" cx="512.51" cy="-136" rx="23.8" ry="23.8"/>
<text xml:space="preserve" text-anchor="middle" x="512.51" y="-131.32" font-family="Helvetica,sans-Serif" font-size="14.00" fill="#102027">2</text>
</g>
<!-- a1&#45;&gt;a2 -->
<g id="edge6" class="edge">
<title>a1&#45;&gt;a2</title>
<path fill="none" stroke="#2e7d32" stroke-width="2" d="M413.96,-134.33C430.57,-134.61 455.01,-135.03 475.26,-135.38"/>
<polygon fill="#2e7d32" stroke="#2e7d32" stroke-width="2" points="475.07,-138.88 485.13,-135.55 475.19,-131.88 475.07,-138.88"/>
<text xml:space="preserve" text-anchor="middle" x="453.09" y="-138.35" font-family="Helvetica,sans-Serif" font-size="11.00" fill="#1b5e20">b / 0.0</text>
</g>
<!-- __a__ -->
<g id="node8" class="node">
<title>__a__</title>
<ellipse fill="#bbdefb" stroke="#2e7d32" stroke-width="1.4" cx="167.96" cy="-132" rx="0.36" ry="0.36"/>
</g>
<!-- __a__&#45;&gt;a0 -->
<g id="edge4" class="edge">
<title>__a__&#45;&gt;a0</title>
<path fill="none" stroke="#607d8b" stroke-width="1.3" d="M169.04,-132C171.15,-132 215.31,-132 246.7,-132"/>
<polygon fill="#607d8b" stroke="#607d8b" stroke-width="1.3" points="246.43,-135.5 256.43,-132 246.43,-128.5 246.43,-135.5"/>
</g>
</g>
</svg>
