<svg xmlns="http://www.w3.org/2000/svg" xmlns:xlink="http://www.w3.org/1999/xlink" contentStyleType="text/css" data-diagram-type="ACTIVITY" height="995px" preserveAspectRatio="none" style="width:1226px;height:995px;background:#FFFFFF;" version="1.1" viewBox="0 0 1226 995" width="1226px" zoomAndPan="magnify"><?plantuml $version$?><defs/><g><g class="title" data-source-line="23"><text fill="#000000" font-family="sans-serif" font-size="14" font-weight="700" lengthAdjust="spacing" textLength="282.0149" x="471.1669" y="34.9659">Grammar-constrained decoding pipeline</text><text fill="#000000" font-family="sans-serif" font-size="11" font-style="italic" font-weight="700" lengthAdjust="spacing" textLength="432.5728" x="395.888" y="50.8268">CFG &#8594; PDA &#8594; compressed FSM &#8594; token mask m[v]=1 iff v&#8712;allowed &#8594; masked logits</text></g><rect fill="#FFFFCC" height="18.62" rx="2.5" ry="2.5" style="stroke:#FFDD88;stroke-width:3;" width="1195.3487" x="13" y="68.0498"/><text fill="#000000" font-family="monospace" font-size="10" lengthAdjust="spacing" textLength="534" x="20" y="80.6698">This&#160;syntax&#160;is&#160;deprecated,&#160;you&#160;must&#160;add&#160;&lt;&lt;#C8E6C9&gt;&gt;&#160;at&#160;the&#160;end&#160;of&#160;the&#160;line,&#160;after&#160;the&#160;';'</text><rect fill="none" height="24.5158" style="stroke:none;stroke-width:1;" width="1179.3487" x="20" y="97.4438"/><rect fill="#BBDEFB" height="877.0222" style="stroke:#BBDEFB;stroke-width:1;" width="431.4974" x="20" y="97.4438"/><ellipse cx="134.6827" cy="136.9596" fill="#222222" rx="10" ry="10" style="stroke:#222222;stroke-width:1;"/><path d="M217.1591,156.9596 L217.1591,184.5186 L197.1591,188.5186 L217.1591,192.5186 L217.1591,220.0777 A0,0 0 0 0 217.1591,220.0777 L383.0312,220.0777 A0,0 0 0 0 383.0312,220.0777 L383.0312,166.9596 L373.0312,156.9596 L217.1591,156.9596 A0,0 0 0 0 217.1591,156.9596" fill="#ECEFF1" style="stroke:#455A64;stroke-width:0.5;"/><path d="M373.0312,156.9596 L373.0312,166.9596 L383.0312,166.9596 L373.0312,156.9596" fill="#ECEFF1" style="stroke:#455A64;stroke-width:0.5;"/><text fill="#000000" font-family="sans-serif" font-size="13" lengthAdjust="spacing" textLength="140.8941" x="225.1481" y="175.8566">Context-free grammar:</text><text fill="#000000" font-family="sans-serif" font-size="13" lengthAdjust="spacing" textLength="144.8721" x="223.1591" y="193.5626">V variables &#183; &#931; terminals</text><text fill="#000000" font-family="sans-serif" font-size="13" lengthAdjust="spacing" textLength="138.4241" x="226.3831" y="211.2687">R rules &#183; S start symbol</text><rect fill="#FFF59D" height="36.3441" rx="12.5" ry="12.5" style="stroke:#F9A825;stroke-width:0.5;" width="124.9528" x="72.2063" y="170.3466"/><text fill="#102027" font-family="sans-serif" font-size="12" lengthAdjust="spacing" textLength="104.9528" x="82.2063" y="193.1747">CFG  G = (V, &#931;, R, S)</text><path d="M240.7932,244.3967 L240.7932,254.2497 L220.7932,258.2497 L240.7932,262.2497 L240.7932,272.1027 A0,0 0 0 0 240.7932,272.1027 L446.4974,272.1027 A0,0 0 0 0 446.4974,272.1027 L446.4974,254.3967 L436.4974,244.3967 L240.7932,244.3967 A0,0 0 0 0 240.7932,244.3967" fill="#ECEFF1" style="stroke:#455A64;stroke-width:0.5;"/><path d="M436.4974,244.3967 L436.4974,254.3967 L446.4974,254.3967 L436.4974,244.3967" fill="#ECEFF1" style="stroke:#455A64;stroke-width:0.5;"/><text fill="#000000" font-family="sans-serif" font-size="13" lengthAdjust="spacing" textLength="184.7042" x="246.7932" y="263.2937">stack &#915; recognizes CFL nesting</text><rect fill="#FFF59D" height="36.3441" rx="12.5" ry="12.5" style="stroke:#F9A825;stroke-width:0.5;" width="172.2211" x="48.5722" y="240.0777"/><text fill="#102027" font-family="sans-serif" font-size="12" lengthAdjust="spacing" textLength="152.2211" x="58.5722" y="262.9057">build PDA  (Q, &#931;, &#915;, &#948;, q&#8320;, Z&#8320;)</text><rect fill="#FFF59D" height="69.0323" rx="12.5" ry="12.5" style="stroke:#F9A825;stroke-width:0.5;" width="184.1252" x="42.6201" y="296.4218"/><text fill="#102027" font-family="sans-serif" font-size="12" lengthAdjust="spacing" textLength="96.3727" x="86.4963" y="319.2499">compress to FSM</text><text fill="#102027" font-family="sans-serif" font-size="12" lengthAdjust="spacing" textLength="164.1252" x="52.6201" y="335.594">(precompute valid-token sets</text><text fill="#102027" font-family="sans-serif" font-size="12" lengthAdjust="spacing" textLength="108.4568" x="80.4543" y="351.9381">+ batch transitions)</text><rect fill="#FFF59D" height="36.3441" rx="12.5" ry="12.5" style="stroke:#F9A825;stroke-width:0.5;" width="217.3654" x="26" y="385.4541"/><text fill="#102027" font-family="sans-serif" font-size="12" lengthAdjust="spacing" textLength="197.3654" x="36" y="408.2822">cache  valid_tokens[q] : TokenMask</text><line style="stroke:#000000;stroke-width:1.5;" x1="20" x2="20" y1="97.4438" y2="974.4659"/><rect fill="#FFF59D" height="877.0222" style="stroke:#FFF59D;stroke-width:1;" width="504.8058" x="451.4974" y="97.4438"/><rect fill="#FFF59D" height="36.3441" rx="12.5" ry="12.5" style="stroke:#F9A825;stroke-width:0.5;" width="256.8337" x="471.4348" y="485.7982"/><text fill="#102027" font-family="sans-serif" font-size="12" lengthAdjust="spacing" textLength="236.8337" x="481.4348" y="508.6263">DecoderState s = (automaton_state, stack)</text><rect fill="#FFF59D" height="36.3441" rx="12.5" ry="12.5" style="stroke:#F9A825;stroke-width:0.5;" width="280.8575" x="459.4229" y="542.1423"/><text fill="#102027" font-family="sans-serif" font-size="12" lengthAdjust="spacing" textLength="260.8575" x="469.4229" y="564.9704">m &#8592; valid_tokens(s)   // m[v] = 1 iff v &#8712; allowed</text><rect fill="#FFF59D" height="36.3441" rx="12.5" ry="12.5" style="stroke:#F9A825;stroke-width:0.5;" width="284.7086" x="457.4974" y="782.5188"/><text fill="#102027" font-family="sans-serif" font-size="12" lengthAdjust="spacing" textLength="264.7086" x="467.4974" y="805.3469">s &#8592; advance(s, t)   // PDA push/pop or FSM step</text><polygon fill="#FFF59D" points="599.8517,441.7982,611.8517,453.7982,599.8517,465.7982,587.8517,453.7982,599.8517,441.7982" style="stroke:#F9A825;stroke-width:0.5;stroke-linejoin:miter;stroke-miterlimit:10;"/><polygon fill="#FFF59D" points="577.1808,838.8629,622.5225,838.8629,634.5225,850.8629,622.5225,862.8629,577.1808,862.8629,565.1808,850.8629,577.1808,838.8629" style="stroke:#F9A825;stroke-width:0.5;stroke-linejoin:miter;stroke-miterlimit:10;"/><text fill="#000000" font-family="sans-serif" font-size="11" lengthAdjust="spacing" textLength="13.4529" x="603.8517" y="874.6218">no</text><text fill="#102027" font-family="sans-serif" font-size="11" lengthAdjust="spacing" textLength="45.3417" x="577.1808" y="855.1309">continue</text><text fill="#000000" font-family="sans-serif" font-size="11" lengthAdjust="spacing" textLength="17.0829" x="634.5225" y="847.6399">yes</text><rect fill="#FFF59D" height="36.3441" rx="12.5" ry="12.5" style="stroke:#F9A825;stroke-width:0.5;" width="200.0973" x="752.2059" y="634.1585"/><text fill="#102027" font-family="sans-serif" font-size="12" lengthAdjust="spacing" textLength="180.0973" x="762.2059" y="656.9866">more tokens &amp; &#172;is_accepting(s)?</text><rect fill="#FFF59D" height="36.3441" rx="12.5" ry="12.5" style="stroke:#F9A825;stroke-width:0.5;" width="166.9421" x="516.3806" y="896.1218"/><text fill="#102027" font-family="sans-serif" font-size="12" lengthAdjust="spacing" textLength="146.9421" x="526.3806" y="918.9499">accepted sequence &#8712; L(G)</text><ellipse cx="599.8517" cy="963.4659" fill="none" rx="11" ry="11" style="stroke:#222222;stroke-width:1;"/><ellipse cx="599.8517" cy="963.4659" fill="#222222" rx="6" ry="6" style="stroke:#222222;stroke-width:1;"/><line style="stroke:#000000;stroke-width:1.5;" x1="451.4974" x2="451.4974" y1="97.4438" y2="974.4659"/><rect fill="#E1BEE7" height="877.0222" style="stroke:#E1BEE7;stroke-width:1;" width="241.7055" x="956.3032" y="97.4438"/><rect fill="#FFF59D" height="36.3441" rx="12.5" ry="12.5" style="stroke:#F9A825;stroke-width:0.5;" width="163.461" x="996.4255" y="598.4865"/><text fill="#102027" font-family="sans-serif" font-size="12" lengthAdjust="spacing" textLength="143.461" x="1006.4255" y="621.3145">logits &#8467; over vocabulary V</text><rect fill="#FFF59D" height="36.3441" rx="12.5" ry="12.5" style="stroke:#F9A825;stroke-width:0.5;" width="177.4278" x="989.4421" y="669.8306"/><text fill="#102027" font-family="sans-serif" font-size="12" lengthAdjust="spacing" textLength="157.4278" x="999.4421" y="692.6587">&#8467;&#8242;[v] &#8592; &#8467;[v] if m[v]=1 else &#8722;&#8734;</text><rect fill="#FFF59D" height="36.3441" rx="12.5" ry="12.5" style="stroke:#F9A825;stroke-width:0.5;" width="231.7055" x="962.3032" y="726.1747"/><text fill="#102027" font-family="sans-serif" font-size="12" lengthAdjust="spacing" textLength="211.7055" x="972.3032" y="749.0028">sample / argmax  token t  with m[t]=1</text><line style="stroke:#000000;stroke-width:1.5;" x1="956.3032" x2="956.3032" y1="97.4438" y2="974.4659"/><line style="stroke:#000000;stroke-width:1.5;" x1="1198.0087" x2="1198.0087" y1="97.4438" y2="974.4659"/><line style="stroke:#F9A825;stroke-width:1.3;" x1="134.6827" x2="134.6827" y1="146.9596" y2="170.3466"/><polygon fill="#F9A825" points="130.6827,160.3466,134.6827,170.3466,138.6827,160.3466,134.6827,164.3466" style="stroke:#F9A825;stroke-width:1;stroke-linejoin:miter;stroke-miterlimit:10;"/><line style="stroke:#F9A825;stroke-width:1.3;" x1="134.6827" x2="134.6827" y1="206.6907" y2="240.0777"/><polygon fill="#F9A825" points="130.6827,230.0777,134.6827,240.0777,138.6827,230.0777,134.6827,234.0777" style="stroke:#F9A825;stroke-width:1;stroke-linejoin:miter;stroke-miterlimit:10;"/><line style="stroke:#F9A825;stroke-width:1.3;" x1="134.6827" x2="134.6827" y1="276.4218" y2="296.4218"/><polygon fill="#F9A825" points="130.6827,286.4218,134.6827,296.4218,138.6827,286.4218,134.6827,290.4218" style="stroke:#F9A825;stroke-width:1;stroke-linejoin:miter;stroke-miterlimit:10;"/><line style="stroke:#F9A825;stroke-width:1.3;" x1="134.6827" x2="134.6827" y1="365.4541" y2="385.4541"/><polygon fill="#F9A825" points="130.6827,375.4541,134.6827,385.4541,138.6827,375.4541,134.6827,379.4541" style="stroke:#F9A825;stroke-width:1;stroke-linejoin:miter;stroke-miterlimit:10;"/><line style="stroke:#F9A825;stroke-width:1.3;" x1="599.8517" x2="599.8517" y1="522.1423" y2="542.1423"/><polygon fill="#F9A825" points="595.8517,532.1423,599.8517,542.1423,603.8517,532.1423,599.8517,536.1423" style="stroke:#F9A825;stroke-width:1;stroke-linejoin:miter;stroke-miterlimit:10;"/><line style="stroke:#F9A825;stroke-width:1.3;" x1="599.8517" x2="599.8517" y1="465.7982" y2="485.7982"/><polygon fill="#F9A825" points="595.8517,475.7982,599.8517,485.7982,603.8517,475.7982,599.8517,479.7982" style="stroke:#F9A825;stroke-width:1;stroke-linejoin:miter;stroke-miterlimit:10;"/><line style="stroke:#F9A825;stroke-width:1.3;" x1="634.5225" x2="852.2546" y1="850.8629" y2="850.8629"/><line style="stroke:#F9A825;stroke-width:1.3;" x1="852.2546" x2="852.2546" y1="670.5026" y2="850.8629"/><polygon fill="#F9A825" points="848.2546,680.5026,852.2546,670.5026,856.2546,680.5026,852.2546,676.5026" style="stroke:#F9A825;stroke-width:1;stroke-linejoin:miter;stroke-miterlimit:10;"/><line style="stroke:#F9A825;stroke-width:1.3;" x1="852.2546" x2="852.2546" y1="453.7982" y2="634.1585"/><line style="stroke:#F9A825;stroke-width:1.3;" x1="852.2546" x2="611.8517" y1="453.7982" y2="453.7982"/><polygon fill="#F9A825" points="621.8517,449.7982,611.8517,453.7982,621.8517,457.7982,617.8517,453.7982" style="stroke:#F9A825;stroke-width:1;stroke-linejoin:miter;stroke-miterlimit:10;"/><line style="stroke:#F9A825;stroke-width:1.3;" x1="599.8517" x2="599.8517" y1="818.8629" y2="838.8629"/><polygon fill="#F9A825" points="595.8517,828.8629,599.8517,838.8629,603.8517,828.8629,599.8517,832.8629" style="stroke:#F9A825;stroke-width:1;stroke-linejoin:miter;stroke-miterlimit:10;"/><line style="stroke:#F9A825;stroke-width:1.3;" x1="599.8517" x2="599.8517" y1="862.8629" y2="896.1218"/><polygon fill="#F9A825" points="595.8517,886.1218,599.8517,896.1218,603.8517,886.1218,599.8517,890.1218" style="stroke:#F9A825;stroke-width:1;stroke-linejoin:miter;stroke-miterlimit:10;"/><line style="stroke:#F9A825;stroke-width:1.3;" x1="599.8517" x2="599.8517" y1="932.4659" y2="952.4659"/><polygon fill="#F9A825" points="595.8517,942.4659,599.8517,952.4659,603.8517,942.4659,599.8517,946.4659" style="stroke:#F9A825;stroke-width:1;stroke-linejoin:miter;stroke-miterlimit:10;"/><line style="stroke:#F9A825;stroke-width:1.3;" x1="1078.156" x2="1078.156" y1="634.8306" y2="669.8306"/><polygon fill="#F9A825" points="1074.156,659.8306,1078.156,669.8306,1082.156,659.8306,1078.156,663.8306" style="stroke:#F9A825;stroke-width:1;stroke-linejoin:miter;stroke-miterlimit:10;"/><line style="stroke:#F9A825;stroke-width:1.3;" x1="1078.156" x2="1078.156" y1="706.1747" y2="726.1747"/><polygon fill="#F9A825" points="1074.156,716.1747,1078.156,726.1747,1082.156,716.1747,1078.156,720.1747" style="stroke:#F9A825;stroke-width:1;stroke-linejoin:miter;stroke-miterlimit:10;"/><line style="stroke:#F9A825;stroke-width:1.3;" x1="599.8517" x2="599.8517" y1="578.4865" y2="583.4865"/><line style="stroke:#F9A825;stroke-width:1.3;" x1="599.8517" x2="1078.156" y1="583.4865" y2="583.4865"/><line style="stroke:#F9A825;stroke-width:1.3;" x1="1078.156" x2="1078.156" y1="583.4865" y2="598.4865"/><polygon fill="#F9A825" points="1074.156,588.4865,1078.156,598.4865,1082.156,588.4865,1078.156,592.4865" style="stroke:#F9A825;stroke-width:1;stroke-linejoin:miter;stroke-miterlimit:10;"/><line style="stroke:#F9A825;stroke-width:1.3;" x1="1078.156" x2="1078.156" y1="762.5188" y2="767.5188"/><line style="stroke:#F9A825;stroke-width:1.3;" x1="1078.156" x2="599.8517" y1="767.5188" y2="767.5188"/><line style="stroke:#F9A825;stroke-width:1.3;" x1="599.8517" x2="599.8517" y1="767.5188" y2="782.5188"/><polygon fill="#F9A825" points="595.8517,772.5188,599.8517,782.5188,603.8517,772.5188,599.8517,776.5188" style="stroke:#F9A825;stroke-width:1;stroke-linejoin:miter;stroke-miterlimit:10;"/><line style="stroke:#F9A825;stroke-width:1.3;" x1="134.6827" x2="134.6827" y1="421.7982" y2="426.7982"/><line style="stroke:#F9A825;stroke-width:1.3;" x1="134.6827" x2="599.8517" y1="426.7982" y2="426.7982"/><line style="stroke:#F9A825;stroke-width:1.3;" x1="599.8517" x2="599.8517" y1="426.7982" y2="441.7982"/><polygon fill="#F9A825" points="595.8517,431.7982,599.8517,441.7982,603.8517,431.7982,599.8517,435.7982" style="stroke:#F9A825;stroke-width:1;stroke-linejoin:miter;stroke-miterlimit:10;"/><text fill="#000000" font-family="sans-serif" font-size="18" lengthAdjust="spacing" textLength="123.1552" x="174.1711" y="116.6856">compile (once)</text><text fill="#000000" font-family="sans-serif" font-size="18" lengthAdjust="spacing" textLength="147.1311" x="630.3348" y="116.6856">decode (per step)</text><text fill="#000000" font-family="sans-serif" font-size="18" lengthAdjust="spacing" textLength="35.1898" x="1059.5611" y="116.6856">LLM</text><?plantuml-src ZLJDRXit4BxlKmnWe5cX-edSE8bNYWhz-Y87hctuq3WmgDtHYX2NN9DSAMuL82YAmiSYkVVIQqz5WTxp07a8FKc7NCcL0mU80ArMdBzlFdupZq08BjEQ44oca6gMPKpNOYMDrOnBJ231M2Na0ZdFaNmn2Xu1G7zq1ElVtiF9eEj_OvNb6esXYD7PiJ_AKTUCnHoicgE4Z9cvFtSlv3OU7uDGARUcJXdxIckCBLSIle6NunEm73M4B9kWhi1KQR0p9B0PP2ef1BO86EOrWKnBXwvqpmkT2wnGlct4NHKmbgKKDbM5J9Wl54v4WVydPuLL6RDaODhoAOkjQH4bY78d7ujZp2t1zqtLuOG9j1OZI5Hi6WbdZaFJE1rs1yV3UfRK0pFdCcTq2XCMprFjwlULe7nx8__PyJ0pbgYbwsVAXC4TIu9JLWXxZcziL_1KPYWjnFH0lUFLrLejjyaFky_t3putdizuF9TqKT2iVxTZf6xvWjiR-3a0w3q0zE1mu2nA9wZlLm0OAMatPyt7-u_tdz7PWBDCoUJBgROE3sHykmDCAeiFWnhsXwDHytDGJmuEka-VK8h0SYiGsfFEqTV8kjsOT2vbs_2VC6esEstU-Gg9xoWxUxLu_Q89V3g5nVhsbWcXbkIv8_XIxEq6xxGRhamd25PxlTvWEEgjN6vEQ4CbOwoi0XAhja7a8C0Hl83meWgV_gp2QHNEAgt0aw9vEhFKVf_O9rdKfYJLxGX7T7u12wOvcmWqyF5V2WSIIyObAOkifw2BZUKCV3amDzb4YG1bubaFead1HUBxX_274i2d3_JzfmhNwr_ULU57Ujw34xbKyPpSWCPPfPBwDBGina2QiyHt46rf9F8SZvSop9rhbXUKPC44JsebhGQjkPJVqjZOU0PqST9mDxU6AaOnYsaQI_yhxszUNR-62CxT-p4ntdBqbcfR-TicTcabWLj9nB3679cZBnfuepwpZ00OH_RT9hWoxh1QDaLboJkZA_tzNjtGL6WXDXfU0XI-4G6G2c0Z0nUvsXisUyFXinMjf9NBLEe1rhz-0BKWO0iLiqaXcBw12r-ABEjtVxkahYJzSwzykfKQqeQW8k_NjtzuTyCoMdxGeFMLPkmDRDHf0PRSpYZAKbI9vCkqk3o-74iMZBGOcYhOJNzE27bXPerSvK2pvgR0XRK2jzcMJ2T4Zz9O5ZQqo3_-nSrLkJBfxecexriRuc4vytgdcIIJMyFSG7Y3n2Mf2KAfAi5U__dmQVymkjkv1gyB952Usd5uH3TYhCh_0m00?></g></svg>