<?xml version="1.0" encoding="UTF-8" standalone="no"?>
<!DOCTYPE svg PUBLIC "-//W3C//DTD SVG 1.1//EN"
 "http://www.w3.org/Graphics/SVG/1.1/DTD/svg11.dtd">
<!-- Generated by graphviz version 14.1.5 (0)
 -->
<!-- Title: ctc_minimal Pages: 1 -->
<svg width="608pt" height="230pt"
 viewBox="0.00 0.00 608.00 230.00" xmlns="http://www.w3.org/2000/svg" xmlns:xlink="http://www.w3.org/1999/xlink">
<g id="graph0" class="graph" transform="scale(1 1) rotate(0) translate(4 225.75)">
<title>ctc_minimal</title>
<polygon fill="#ffffff" stroke="none" points="-4,4 -4,-225.75 603.5,-225.75 603.5,4 -4,4"/>
<text xml:space="preserve" text-anchor="start" x="8" y="-206.4" font-family="Helvetica,sans-Serif" font-weight="bold" font-size="13.00">Minimal&#45;CTC (N=3)</text>
<text xml:space="preserve" text-anchor="start" x="147.5" y="-206.4" font-family="Helvetica,sans-Serif" font-size="13.00"> — one state, N arcs: every emission is a blank→label transduction</text>
<!-- __start__ -->
<g id="node1" class="node">
<title>__start__</title>
<ellipse fill="#bbdefb" stroke="#1565c0" stroke-width="1.4" cx="229.87" cy="-51.38" rx="0.36" ry="0.36"/>
</g>
<!-- q -->
<g id="node2" class="node">
<title>q</title>
<ellipse fill="#ffe0b2" stroke="#e65100" stroke-width="1.4" cx="318.61" cy="-51.38" rx="47.38" ry="47.38"/>
<ellipse fill="none" stroke="#e65100" stroke-width="1.4" cx="318.61" cy="-51.38" rx="51.38" ry="51.38"/>
<text xml:space="preserve" text-anchor="middle" x="318.61" y="-63.95" font-family="Helvetica,sans-Serif" font-size="14.00" fill="#102027">0</text>
<text xml:space="preserve" text-anchor="middle" x="318.61" y="-46.7" font-family="Helvetica,sans-Serif" font-size="14.00" fill="#102027">(single,</text>
<text xml:space="preserve" text-anchor="middle" x="318.61" y="-29.45" font-family="Helvetica,sans-Serif" font-size="14.00" fill="#102027">final)</text>
</g>
<!-- __start__&#45;&gt;q -->
<g id="edge1" class="edge">
<title>__start__&#45;&gt;q</title>
<path fill="none" stroke="#607d8b" stroke-width="1.3" d="M230.79,-51.38C233.17,-51.38 242.92,-51.38 255.08,-51.38"/>
<polygon fill="#607d8b" stroke="#607d8b" stroke-width="1.3" points="254.81,-54.88 264.81,-51.38 254.81,-47.88 254.81,-54.88"/>
</g>
<!-- q&#45;&gt;q -->
<g id="edge2" class="edge">
<title>q&#45;&gt;q</title>
<path fill="none" stroke="#9e9e9e" stroke-width="1.3" stroke-dasharray="5,2" d="M314.42,-103.11C314.89,-113.41 316.29,-120.75 318.61,-120.75 319.88,-120.75 320.87,-118.56 321.59,-114.88"/>
<polygon fill="#9e9e9e" stroke="#9e9e9e" stroke-width="1.3" points="325.05,-115.38 322.6,-105.07 318.09,-114.66 325.05,-115.38"/>
<text xml:space="preserve" text-anchor="middle" x="318.61" y="-123.8" font-family="Helvetica,sans-Serif" font-size="11.00" fill="#37474f">blank:ε</text>
</g>
<!-- q&#45;&gt;q -->
<g id="edge3" class="edge">
<title>q&#45;&gt;q</title>
<path fill="none" stroke="#607d8b" stroke-width="1.3" d="M309.91,-102.53C309.52,-122.31 312.42,-138.75 318.61,-138.75 323.49,-138.75 326.33,-128.52 327.12,-114.48"/>
<polygon fill="#607d8b" stroke="#607d8b" stroke-width="1.3" points="330.62,-114.56 327.28,-104.5 323.62,-114.44 330.62,-114.56"/>
<text xml:space="preserve" text-anchor="middle" x="318.61" y="-141.8" font-family="Helvetica,sans-Serif" font-size="11.00" fill="#37474f">blank:a</text>
</g>
<!-- q&#45;&gt;q -->
<g id="edge4" class="edge">
<title>q&#45;&gt;q</title>
<path fill="none" stroke="#607d8b" stroke-width="1.3" d="M306.18,-101.79C303.75,-130.33 307.9,-156.75 318.61,-156.75 327.82,-156.75 332.17,-137.24 331.67,-113.64"/>
<polygon fill="#607d8b" stroke="#607d8b" stroke-width="1.3" points="335.17,-113.56 331.14,-103.76 328.18,-113.93 335.17,-113.56"/>
<text xml:space="preserve" text-anchor="middle" x="318.61" y="-159.8" font-family="Helvetica,sans-Serif" font-size="11.00" fill="#37474f">blank:b</text>
</g>
</g>
</svg>
