<?xml version="1.0" encoding="UTF-8" standalone="no"?>
<!DOCTYPE svg PUBLIC "-//W3C//DTD SVG 1.1//EN"
 "http://www.w3.org/Graphics/SVG/1.1/DTD/svg11.dtd">
<!-- Generated by graphviz version 14.1.5 (0)
 -->
<!-- Title: ctc_collapse Pages: 1 -->
<svg width="500pt" height="388pt"
 viewBox="0.00 0.00 500.00 388.00" xmlns="http://www.w3.org/2000/svg" xmlns:xlink="http://www.w3.org/1999/xlink">
<g id="graph0" class="graph" transform="scale(1 1) rotate(0) translate(4 383.87)">
<title>ctc_collapse</title>
<polygon fill="#ffffff" stroke="none" points="-4,4 -4,-383.87 496.25,-383.87 496.25,4 -4,4"/>
<text xml:space="preserve" text-anchor="start" x="8" y="-364.52" font-family="Helvetica,sans-Serif" font-weight="bold" font-size="13.00">CTC collapse B</text>
<text xml:space="preserve" text-anchor="start" x="115.25" y="-364.52" font-family="Helvetica,sans-Serif" font-size="13.00"> — merge repeats, delete blanks: &#160;&quot;H E &#45; L O&quot; → &quot;HELO&quot;</text>
<!-- f1 -->
<g id="node1" class="node">
<title>f1</title>
<path fill="#ffe0b2" stroke="#e65100" stroke-width="1.4" d="M190.13,-355.37C190.13,-355.37 143.38,-355.37 143.38,-355.37 137.38,-355.37 131.38,-349.37 131.38,-343.37 131.38,-343.37 131.38,-324.87 131.38,-324.87 131.38,-318.87 137.38,-312.87 143.38,-312.87 143.38,-312.87 190.13,-312.87 190.13,-312.87 196.13,-312.87 202.13,-318.87 202.13,-324.87 202.13,-324.87 202.13,-343.37 202.13,-343.37 202.13,-349.37 196.13,-355.37 190.13,-355.37"/>
<text xml:space="preserve" text-anchor="middle" x="166.76" y="-338.07" font-family="Helvetica,sans-Serif" font-size="14.00" fill="#102027">frame 1</text>
<text xml:space="preserve" text-anchor="middle" x="166.76" y="-320.82" font-family="Helvetica,sans-Serif" font-size="14.00" fill="#102027">H</text>
</g>
<!-- f2 -->
<g id="node2" class="node">
<title>f2</title>
<path fill="#ffe0b2" stroke="#e65100" stroke-width="1.4" d="M190.13,-277.37C190.13,-277.37 143.38,-277.37 143.38,-277.37 137.38,-277.37 131.38,-271.37 131.38,-265.37 131.38,-265.37 131.38,-246.87 131.38,-246.87 131.38,-240.87 137.38,-234.87 143.38,-234.87 143.38,-234.87 190.13,-234.87 190.13,-234.87 196.13,-234.87 202.13,-240.87 202.13,-246.87 202.13,-246.87 202.13,-265.37 202.13,-265.37 202.13,-271.37 196.13,-277.37 190.13,-277.37"/>
<text xml:space="preserve" text-anchor="middle" x="166.76" y="-260.07" font-family="Helvetica,sans-Serif" font-size="14.00" fill="#102027">frame 2</text>
<text xml:space="preserve" text-anchor="middle" x="166.76" y="-242.82" font-family="Helvetica,sans-Serif" font-size="14.00" fill="#102027">E</text>
</g>
<!-- f1&#45;&gt;f2 -->
<!-- oH -->
<g id="node6" class="node">
<title>oH</title>
<ellipse fill="#c8e6c9" stroke="#2e7d32" stroke-width="1.4" cx="339.63" cy="-281.12" rx="18.59" ry="18.59"/>
<text xml:space="preserve" text-anchor="middle" x="339.63" y="-276.44" font-family="Helvetica,sans-Serif" font-size="14.00" fill="#102027">H</text>
</g>
<!-- f1&#45;&gt;oH -->
<g id="edge8" class="edge">
<title>f1&#45;&gt;oH</title>
<path fill="none" stroke="#2e7d32" stroke-width="2" d="M202.75,-323.26C234.08,-313.54 279.5,-299.45 309.05,-290.29"/>
<polygon fill="#2e7d32" stroke="#2e7d32" stroke-width="2" points="310,-293.66 318.51,-287.35 307.92,-286.97 310,-293.66"/>
<text xml:space="preserve" text-anchor="middle" x="260.26" y="-320.02" font-family="Helvetica,sans-Serif" font-size="11.00" fill="#1b5e20">keep</text>
</g>
<!-- f3 -->
<g id="node3" class="node">
<title>f3</title>
<path fill="#eceff1" stroke="#9e9e9e" stroke-width="1.4" d="M192.01,-199.37C192.01,-199.37 141.51,-199.37 141.51,-199.37 135.51,-199.37 129.51,-193.37 129.51,-187.37 129.51,-187.37 129.51,-168.87 129.51,-168.87 129.51,-162.87 135.51,-156.87 141.51,-156.87 141.51,-156.87 192.01,-156.87 192.01,-156.87 198.01,-156.87 204.01,-162.87 204.01,-168.87 204.01,-168.87 204.01,-187.37 204.01,-187.37 204.01,-193.37 198.01,-199.37 192.01,-199.37"/>
<text xml:space="preserve" text-anchor="middle" x="166.76" y="-182.07" font-family="Helvetica,sans-Serif" font-size="14.00" fill="#102027">frame 3</text>
<text xml:space="preserve" text-anchor="middle" x="166.76" y="-164.82" font-family="Helvetica,sans-Serif" font-size="14.00" fill="#102027">&#45; (blank)</text>
</g>
<!-- f2&#45;&gt;f3 -->
<!-- oE -->
<g id="node7" class="node">
<title>oE</title>
<ellipse fill="#c8e6c9" stroke="#2e7d32" stroke-width="1.4" cx="339.63" cy="-208.12" rx="18" ry="18"/>
<text xml:space="preserve" text-anchor="middle" x="339.63" y="-203.44" font-family="Helvetica,sans-Serif" font-size="14.00" fill="#102027">E</text>
</g>
<!-- f2&#45;&gt;oE -->
<g id="edge9" class="edge">
<title>f2&#45;&gt;oE</title>
<path fill="none" stroke="#2e7d32" stroke-width="2" d="M202.75,-246.29C234.25,-237.44 279.99,-224.59 309.53,-216.29"/>
<polygon fill="#2e7d32" stroke="#2e7d32" stroke-width="2" points="310.26,-219.72 318.94,-213.65 308.36,-212.98 310.26,-219.72"/>
<text xml:space="preserve" text-anchor="middle" x="260.26" y="-243.64" font-family="Helvetica,sans-Serif" font-size="11.00" fill="#1b5e20">keep</text>
</g>
<!-- f4 -->
<g id="node4" class="node">
<title>f4</title>
<path fill="#ffe0b2" stroke="#e65100" stroke-width="1.4" d="M190.13,-121.37C190.13,-121.37 143.38,-121.37 143.38,-121.37 137.38,-121.37 131.38,-115.37 131.38,-109.37 131.38,-109.37 131.38,-90.87 131.38,-90.87 131.38,-84.87 137.38,-78.87 143.38,-78.87 143.38,-78.87 190.13,-78.87 190.13,-78.87 196.13,-78.87 202.13,-84.87 202.13,-90.87 202.13,-90.87 202.13,-109.37 202.13,-109.37 202.13,-115.37 196.13,-121.37 190.13,-121.37"/>
<text xml:space="preserve" text-anchor="middle" x="166.76" y="-104.07" font-family="Helvetica,sans-Serif" font-size="14.00" fill="#102027">frame 4</text>
<text xml:space="preserve" text-anchor="middle" x="166.76" y="-86.82" font-family="Helvetica,sans-Serif" font-size="14.00" fill="#102027">L</text>
</g>
<!-- f3&#45;&gt;f4 -->
<!-- f3&#45;&gt;oE -->
<g id="edge10" class="edge">
<title>f3&#45;&gt;oE</title>
<path fill="none" stroke="#9e9e9e" stroke-width="1.3" stroke-dasharray="5,2" d="M204.41,-184.55C235.85,-190.07 280.53,-197.92 309.55,-203.01"/>
<polygon fill="#9e9e9e" stroke="#9e9e9e" stroke-width="1.3" points="308.92,-206.45 319.37,-204.74 310.13,-199.56 308.92,-206.45"/>
<text xml:space="preserve" text-anchor="middle" x="260.26" y="-203.92" font-family="Helvetica,sans-Serif" font-size="11.00" fill="#37474f">delete (blank)</text>
</g>
<!-- f5 -->
<g id="node5" class="node">
<title>f5</title>
<path fill="#ffe0b2" stroke="#e65100" stroke-width="1.4" d="M190.13,-43.37C190.13,-43.37 143.38,-43.37 143.38,-43.37 137.38,-43.37 131.38,-37.37 131.38,-31.37 131.38,-31.37 131.38,-12.87 131.38,-12.87 131.38,-6.87 137.38,-0.87 143.38,-0.87 143.38,-0.87 190.13,-0.87 190.13,-0.87 196.13,-0.87 202.13,-6.87 202.13,-12.87 202.13,-12.87 202.13,-31.37 202.13,-31.37 202.13,-37.37 196.13,-43.37 190.13,-43.37"/>
<text xml:space="preserve" text-anchor="middle" x="166.76" y="-26.07" font-family="Helvetica,sans-Serif" font-size="14.00" fill="#102027">frame 5</text>
<text xml:space="preserve" text-anchor="middle" x="166.76" y="-8.82" font-family="Helvetica,sans-Serif" font-size="14.00" fill="#102027">O</text>
</g>
<!-- f4&#45;&gt;f5 -->
<!-- oL -->
<g id="node8" class="node">
<title>oL</title>
<ellipse fill="#c8e6c9" stroke="#2e7d32" stroke-width="1.4" cx="339.63" cy="-100.12" rx="18" ry="18"/>
<text xml:space="preserve" text-anchor="middle" x="339.63" y="-95.44" font-family="Helvetica,sans-Serif" font-size="14.00" fill="#102027">L</text>
</g>
<!-- f4&#45;&gt;oL -->
<g id="edge11" class="edge">
<title>f4&#45;&gt;oL</title>
<path fill="none" stroke="#2e7d32" stroke-width="2" d="M202.75,-100.12C233.77,-100.12 278.6,-100.12 308.17,-100.12"/>
<polygon fill="#2e7d32" stroke="#2e7d32" stroke-width="2" points="307.93,-103.62 317.93,-100.12 307.93,-96.62 307.93,-103.62"/>
<text xml:space="preserve" text-anchor="middle" x="260.26" y="-103.17" font-family="Helvetica,sans-Serif" font-size="11.00" fill="#1b5e20">keep</text>
</g>
<!-- oO -->
<g id="node9" class="node">
<title>oO</title>
<ellipse fill="#c8e6c9" stroke="#2e7d32" stroke-width="1.4" cx="339.63" cy="-23.12" rx="19.12" ry="19.12"/>
<ellipse fill="none" stroke="#2e7d32" stroke-width="1.4" cx="339.63" cy="-23.12" rx="23.12" ry="23.12"/>
<text xml:space="preserve" text-anchor="middle" x="339.63" y="-18.44" font-family="Helvetica,sans-Serif" font-size="14.00" fill="#102027">O</text>
</g>
<!-- f5&#45;&gt;oO -->
<g id="edge12" class="edge">
<title>f5&#45;&gt;oO</title>
<path fill="none" stroke="#2e7d32" stroke-width="2" d="M202.75,-22.32C232,-22.49 273.53,-22.73 302.97,-22.91"/>
<polygon fill="#2e7d32" stroke="#2e7d32" stroke-width="2" points="302.89,-26.41 312.91,-22.96 302.94,-19.41 302.89,-26.41"/>
<text xml:space="preserve" text-anchor="middle" x="260.26" y="-25.92" font-family="Helvetica,sans-Serif" font-size="11.00" fill="#1b5e20">keep</text>
</g>
<!-- oH&#45;&gt;oE -->
<g id="edge5" class="edge">
<title>oH&#45;&gt;oE</title>
<path fill="none" stroke="#2e7d32" stroke-width="2" d="M339.63,-261.97C339.63,-254.52 339.63,-247.07 339.63,-239.62"/>
<polygon fill="#2e7d32" stroke="#2e7d32" stroke-width="2" points="343.13,-239.68 339.63,-229.68 336.13,-239.68 343.13,-239.68"/>
</g>
<!-- oE&#45;&gt;oL -->
<g id="edge6" class="edge">
<title>oE&#45;&gt;oL</title>
<path fill="none" stroke="#2e7d32" stroke-width="2" d="M339.63,-189.6C339.62,-170.3 339.62,-151 339.62,-131.7"/>
<polygon fill="#2e7d32" stroke="#2e7d32" stroke-width="2" points="343.12,-131.7 339.62,-121.7 336.12,-131.7 343.12,-131.7"/>
</g>
<!-- oL&#45;&gt;oO -->
<g id="edge7" class="edge">
<title>oL&#45;&gt;oO</title>
<path fill="none" stroke="#2e7d32" stroke-width="2" d="M339.63,-81.81C339.63,-74.45 339.63,-67.08 339.63,-59.71"/>
<polygon fill="#2e7d32" stroke="#2e7d32" stroke-width="2" points="343.13,-59.9 339.63,-49.9 336.13,-59.9 343.13,-59.9"/>
</g>
</g>
</svg>
