<?xml version="1.0" encoding="UTF-8" standalone="no"?>
<!DOCTYPE svg PUBLIC "-//W3C//DTD SVG 1.1//EN"
 "http://www.w3.org/Graphics/SVG/1.1/DTD/svg11.dtd">
<!-- Generated by graphviz version 14.1.5 (0)
 -->
<!-- Title: ctc_compact Pages: 1 -->
<svg width="500pt" height="234pt"
 viewBox="0.00 0.00 500.00 234.00" xmlns="http://www.w3.org/2000/svg" xmlns:xlink="http://www.w3.org/1999/xlink">
<g id="graph0" class="graph" transform="scale(1 1) rotate(0) translate(4 230.1)">
<title>ctc_compact</title>
<polygon fill="#ffffff" stroke="none" points="-4,4 -4,-230.1 496.25,-230.1 496.25,4 -4,4"/>
<text xml:space="preserve" text-anchor="start" x="8" y="-210.75" font-family="Helvetica,sans-Serif" font-weight="bold" font-size="13.00">Compact&#45;CTC (N=3)</text>
<text xml:space="preserve" text-anchor="start" x="153.5" y="-210.75" font-family="Helvetica,sans-Serif" font-size="13.00"> — back&#45;off through blank: 3N−2 arcs (7 for N=3)</text>
<!-- __start__ -->
<g id="node1" class="node">
<title>__start__</title>
<ellipse fill="#bbdefb" stroke="#1565c0" stroke-width="1.4" cx="100.46" cy="-85.05" rx="0.36" ry="0.36"/>
</g>
<!-- b -->
<g id="node2" class="node">
<title>b</title>
<ellipse fill="#ffe0b2" stroke="#e65100" stroke-width="1.4" cx="180.18" cy="-85.05" rx="38.36" ry="38.36"/>
<ellipse fill="none" stroke="#e65100" stroke-width="1.4" cx="180.18" cy="-85.05" rx="42.36" ry="42.36"/>
<text xml:space="preserve" text-anchor="middle" x="180.18" y="-89" font-family="Helvetica,sans-Serif" font-size="14.00" fill="#102027">blank</text>
<text xml:space="preserve" text-anchor="middle" x="180.18" y="-71.75" font-family="Helvetica,sans-Serif" font-size="14.00" fill="#102027">0</text>
</g>
<!-- __start__&#45;&gt;b -->
<g id="edge1" class="edge">
<title>__start__&#45;&gt;b</title>
<path fill="none" stroke="#607d8b" stroke-width="1.3" d="M101.32,-85.05C103.64,-85.05 113.72,-85.05 125.9,-85.05"/>
<polygon fill="#607d8b" stroke="#607d8b" stroke-width="1.3" points="125.54,-88.55 135.54,-85.05 125.54,-81.55 125.54,-88.55"/>
</g>
<!-- b&#45;&gt;b -->
<g id="edge2" class="edge">
<title>b&#45;&gt;b</title>
<path fill="none" stroke="#9e9e9e" stroke-width="1.3" stroke-dasharray="5,2" d="M168.89,-126.52C169.58,-137.29 173.35,-145.41 180.18,-145.41 184.24,-145.41 187.22,-142.55 189.11,-137.97"/>
<polygon fill="#9e9e9e" stroke="#9e9e9e" stroke-width="1.3" points="192.48,-138.95 191.08,-128.45 185.63,-137.53 192.48,-138.95"/>
<text xml:space="preserve" text-anchor="middle" x="180.18" y="-148.46" font-family="Helvetica,sans-Serif" font-size="11.00" fill="#37474f">ε / &#45;</text>
</g>
<!-- a -->
<g id="node3" class="node">
<title>a</title>
<ellipse fill="#bbdefb" stroke="#1565c0" stroke-width="1.4" cx="362.1" cy="-140.05" rx="30.05" ry="30.05"/>
<text xml:space="preserve" text-anchor="middle" x="362.1" y="-144" font-family="Helvetica,sans-Serif" font-size="14.00" fill="#102027">a</text>
<text xml:space="preserve" text-anchor="middle" x="362.1" y="-126.75" font-family="Helvetica,sans-Serif" font-size="14.00" fill="#102027">1</text>
</g>
<!-- b&#45;&gt;a -->
<g id="edge5" class="edge">
<title>b&#45;&gt;a</title>
<path fill="none" stroke="#607d8b" stroke-width="1.3" d="M216.31,-107.82C224.06,-112.08 232.39,-116.11 240.54,-119.05 266.07,-128.26 296.13,-133.51 319.86,-136.46"/>
<polygon fill="#607d8b" stroke="#607d8b" stroke-width="1.3" points="319.34,-139.92 329.67,-137.57 320.13,-132.96 319.34,-139.92"/>
<text xml:space="preserve" text-anchor="middle" x="277.29" y="-138.36" font-family="Helvetica,sans-Serif" font-size="11.00" fill="#37474f">ε:a</text>
</g>
<!-- c -->
<g id="node4" class="node">
<title>c</title>
<ellipse fill="#bbdefb" stroke="#1565c0" stroke-width="1.4" cx="362.1" cy="-30.05" rx="30.05" ry="30.05"/>
<text xml:space="preserve" text-anchor="middle" x="362.1" y="-34" font-family="Helvetica,sans-Serif" font-size="14.00" fill="#102027">b</text>
<text xml:space="preserve" text-anchor="middle" x="362.1" y="-16.75" font-family="Helvetica,sans-Serif" font-size="14.00" fill="#102027">2</text>
</g>
<!-- b&#45;&gt;c -->
<g id="edge6" class="edge">
<title>b&#45;&gt;c</title>
<path fill="none" stroke="#607d8b" stroke-width="1.3" d="M221.35,-73.14C247.73,-65.28 282.98,-54.68 314.04,-45.05 316.51,-44.29 319.04,-43.5 321.59,-42.7"/>
<polygon fill="#607d8b" stroke="#607d8b" stroke-width="1.3" points="322.4,-46.11 330.88,-39.76 320.29,-39.44 322.4,-46.11"/>
<text xml:space="preserve" text-anchor="middle" x="277.29" y="-70.07" font-family="Helvetica,sans-Serif" font-size="11.00" fill="#37474f">ε:b</text>
</g>
<!-- a&#45;&gt;b -->
<g id="edge7" class="edge">
<title>a&#45;&gt;b</title>
<path fill="none" stroke="#9e9e9e" stroke-width="1.3" stroke-dasharray="5,2" d="M340.32,-118.81C332.68,-112.22 323.55,-105.62 314.04,-101.55 289.35,-90.97 259.87,-86.59 234.96,-84.95"/>
<polygon fill="#9e9e9e" stroke="#9e9e9e" stroke-width="1.3" points="235.27,-81.46 225.1,-84.46 234.91,-88.45 235.27,-81.46"/>
<text xml:space="preserve" text-anchor="middle" x="277.29" y="-104.6" font-family="Helvetica,sans-Serif" font-size="11.00" fill="#37474f">a:ε (back&#45;off)</text>
</g>
<!-- a&#45;&gt;a -->
<g id="edge3" class="edge">
<title>a&#45;&gt;a</title>
<path fill="none" stroke="#607d8b" stroke-width="1.3" d="M346.44,-166.25C344.95,-177.97 350.17,-188.1 362.1,-188.1 369.74,-188.1 374.62,-183.94 376.76,-177.87"/>
<polygon fill="#607d8b" stroke="#607d8b" stroke-width="1.3" points="380.22,-178.47 377.58,-168.21 373.24,-177.88 380.22,-178.47"/>
<text xml:space="preserve" text-anchor="middle" x="362.1" y="-191.15" font-family="Helvetica,sans-Serif" font-size="11.00" fill="#37474f">a:ε (self)</text>
</g>
<!-- c&#45;&gt;b -->
<g id="edge8" class="edge">
<title>c&#45;&gt;b</title>
<path fill="none" stroke="#9e9e9e" stroke-width="1.3" stroke-dasharray="5,2" d="M332.18,-23.24C307.01,-18.73 270.04,-15.61 240.54,-27.55 231.46,-31.23 223,-37.04 215.48,-43.57"/>
<polygon fill="#9e9e9e" stroke="#9e9e9e" stroke-width="1.3" points="213.39,-40.73 208.53,-50.15 218.2,-45.82 213.39,-40.73"/>
<text xml:space="preserve" text-anchor="middle" x="277.29" y="-30.6" font-family="Helvetica,sans-Serif" font-size="11.00" fill="#37474f">b:ε (back&#45;off)</text>
</g>
<!-- c&#45;&gt;c -->
<g id="edge4" class="edge">
<title>c&#45;&gt;c</title>
<path fill="none" stroke="#607d8b" stroke-width="1.3" d="M346.44,-56.25C344.95,-67.97 350.17,-78.1 362.1,-78.1 369.74,-78.1 374.62,-73.94 376.76,-67.87"/>
<polygon fill="#607d8b" stroke="#607d8b" stroke-width="1.3" points="380.22,-68.47 377.58,-58.21 373.24,-67.88 380.22,-68.47"/>
<text xml:space="preserve" text-anchor="middle" x="362.1" y="-81.15" font-family="Helvetica,sans-Serif" font-size="11.00" fill="#37474f">b:ε (self)</text>
</g>
</g>
</svg>
