<?xml version="1.0" encoding="UTF-8" standalone="no"?>
<!DOCTYPE svg PUBLIC "-//W3C//DTD SVG 1.1//EN"
 "http://www.w3.org/Graphics/SVG/1.1/DTD/svg11.dtd">
<!-- Generated by graphviz version 14.1.5 (0)
 -->
<!-- Title: ctc_correct Pages: 1 -->
<svg width="565pt" height="235pt"
 viewBox="0.00 0.00 565.00 235.00" xmlns="http://www.w3.org/2000/svg" xmlns:xlink="http://www.w3.org/1999/xlink">
<g id="graph0" class="graph" transform="scale(1 1) rotate(0) translate(4 230.52)">
<title>ctc_correct</title>
<polygon fill="#ffffff" stroke="none" points="-4,4 -4,-230.52 560.75,-230.52 560.75,4 -4,4"/>
<text xml:space="preserve" text-anchor="start" x="8" y="-211.17" font-family="Helvetica,sans-Serif" font-weight="bold" font-size="13.00">Correct&#45;CTC (N=3)</text>
<text xml:space="preserve" text-anchor="start" x="144.5" y="-211.17" font-family="Helvetica,sans-Serif" font-size="13.00"> — complete graph: N states, N² arcs, self&#45;loops on all states</text>
<!-- __start__ -->
<g id="node1" class="node">
<title>__start__</title>
<ellipse fill="#bbdefb" stroke="#1565c0" stroke-width="1.4" cx="134.9" cy="-107.16" rx="0.36" ry="0.36"/>
</g>
<!-- b -->
<g id="node2" class="node">
<title>b</title>
<ellipse fill="#ffe0b2" stroke="#e65100" stroke-width="1.4" cx="244.67" cy="-42.36" rx="38.36" ry="38.36"/>
<ellipse fill="none" stroke="#e65100" stroke-width="1.4" cx="244.67" cy="-42.36" rx="42.36" ry="42.36"/>
<text xml:space="preserve" text-anchor="middle" x="244.67" y="-46.31" font-family="Helvetica,sans-Serif" font-size="14.00" fill="#102027">blank</text>
<text xml:space="preserve" text-anchor="middle" x="244.67" y="-29.06" font-family="Helvetica,sans-Serif" font-size="14.00" fill="#102027">0</text>
</g>
<!-- __start__&#45;&gt;b -->
<g id="edge1" class="edge">
<title>__start__&#45;&gt;b</title>
<path fill="none" stroke="#607d8b" stroke-width="1.3" d="M135.6,-106.75C140.5,-103.85 170.29,-86.27 197.5,-70.2"/>
<polygon fill="#607d8b" stroke="#607d8b" stroke-width="1.3" points="199.22,-73.25 206.05,-65.16 195.66,-67.23 199.22,-73.25"/>
</g>
<!-- b&#45;&gt;b -->
<g id="edge2" class="edge">
<title>b&#45;&gt;b</title>
<path fill="none" stroke="#9e9e9e" stroke-width="1.3" stroke-dasharray="5,2" d="M286.98,-49.01C297.33,-48.51 305.03,-46.3 305.03,-42.36 305.03,-40.15 302.59,-38.48 298.62,-37.35"/>
<polygon fill="#9e9e9e" stroke="#9e9e9e" stroke-width="1.3" points="299.32,-33.91 288.93,-35.99 298.34,-40.85 299.32,-33.91"/>
<text xml:space="preserve" text-anchor="middle" x="315.53" y="-38.66" font-family="Helvetica,sans-Serif" font-size="11.00" fill="#37474f">ε / &#45;</text>
</g>
<!-- a -->
<g id="node3" class="node">
<title>a</title>
<ellipse fill="#bbdefb" stroke="#1565c0" stroke-width="1.4" cx="244.67" cy="-171.97" rx="30.05" ry="30.05"/>
<text xml:space="preserve" text-anchor="middle" x="244.67" y="-175.92" font-family="Helvetica,sans-Serif" font-size="14.00" fill="#102027">a</text>
<text xml:space="preserve" text-anchor="middle" x="244.67" y="-158.67" font-family="Helvetica,sans-Serif" font-size="14.00" fill="#102027">1</text>
</g>
<!-- b&#45;&gt;a -->
<g id="edge5" class="edge">
<title>b&#45;&gt;a</title>
<path fill="none" stroke="#607d8b" stroke-width="1.3" d="M238.29,-84.8C237.79,-99.45 237.8,-115.84 238.32,-130.41"/>
<polygon fill="#607d8b" stroke="#607d8b" stroke-width="1.3" points="234.82,-130.37 238.79,-140.19 241.81,-130.04 234.82,-130.37"/>
<text xml:space="preserve" text-anchor="middle" x="229.68" y="-110.66" font-family="Helvetica,sans-Serif" font-size="11.00" fill="#37474f">a:a</text>
</g>
<!-- c -->
<g id="node4" class="node">
<title>c</title>
<ellipse fill="#bbdefb" stroke="#1565c0" stroke-width="1.4" cx="356.91" cy="-107.16" rx="30.05" ry="30.05"/>
<text xml:space="preserve" text-anchor="middle" x="356.91" y="-111.11" font-family="Helvetica,sans-Serif" font-size="14.00" fill="#102027">b</text>
<text xml:space="preserve" text-anchor="middle" x="356.91" y="-93.86" font-family="Helvetica,sans-Serif" font-size="14.00" fill="#102027">2</text>
</g>
<!-- b&#45;&gt;c -->
<g id="edge7" class="edge">
<title>b&#45;&gt;c</title>
<path fill="none" stroke="#607d8b" stroke-width="1.3" d="M278.23,-69.1C290.67,-76.87 304.87,-85.05 317.75,-91.89"/>
<polygon fill="#607d8b" stroke="#607d8b" stroke-width="1.3" points="315.96,-94.9 326.45,-96.37 319.17,-88.68 315.96,-94.9"/>
<text xml:space="preserve" text-anchor="middle" x="306.62" y="-83.54" font-family="Helvetica,sans-Serif" font-size="11.00" fill="#37474f">b:b</text>
</g>
<!-- a&#45;&gt;b -->
<g id="edge6" class="edge">
<title>a&#45;&gt;b</title>
<path fill="none" stroke="#9e9e9e" stroke-width="1.3" stroke-dasharray="5,2" d="M250.47,-141.91C251.29,-128.32 251.58,-111.84 251.33,-96.23"/>
<polygon fill="#9e9e9e" stroke="#9e9e9e" stroke-width="1.3" points="254.84,-96.41 251.09,-86.5 247.84,-96.58 254.84,-96.41"/>
<text xml:space="preserve" text-anchor="middle" x="261.4" y="-122.12" font-family="Helvetica,sans-Serif" font-size="11.00" fill="#37474f">ε / &#45;</text>
</g>
<!-- a&#45;&gt;a -->
<g id="edge3" class="edge">
<title>a&#45;&gt;a</title>
<path fill="none" stroke="#607d8b" stroke-width="1.3" d="M274.23,-178.72C284.46,-178.79 292.72,-176.54 292.72,-171.97 292.72,-169.4 290.11,-167.56 286,-166.46"/>
<polygon fill="#607d8b" stroke="#607d8b" stroke-width="1.3" points="286.5,-162.99 276.19,-165.43 285.77,-169.95 286.5,-162.99"/>
<text xml:space="preserve" text-anchor="middle" x="301.35" y="-168.27" font-family="Helvetica,sans-Serif" font-size="11.00" fill="#37474f">a:a</text>
</g>
<!-- a&#45;&gt;c -->
<g id="edge9" class="edge">
<title>a&#45;&gt;c</title>
<path fill="none" stroke="#607d8b" stroke-width="1.3" d="M273.6,-161.96C289,-154.27 307.97,-143.54 323.93,-133.55"/>
<polygon fill="#607d8b" stroke="#607d8b" stroke-width="1.3" points="325.74,-136.54 332.26,-128.19 321.96,-130.65 325.74,-136.54"/>
<text xml:space="preserve" text-anchor="middle" x="290.14" y="-150.8" font-family="Helvetica,sans-Serif" font-size="11.00" fill="#37474f">b:b</text>
</g>
<!-- c&#45;&gt;b -->
<g id="edge8" class="edge">
<title>c&#45;&gt;b</title>
<path fill="none" stroke="#9e9e9e" stroke-width="1.3" stroke-dasharray="5,2" d="M333.78,-87.11C322.43,-79.6 308.3,-71.12 294.66,-63.53"/>
<polygon fill="#9e9e9e" stroke="#9e9e9e" stroke-width="1.3" points="296.56,-60.58 286.1,-58.87 293.21,-66.72 296.56,-60.58"/>
<text xml:space="preserve" text-anchor="middle" x="303.72" y="-64.87" font-family="Helvetica,sans-Serif" font-size="11.00" fill="#37474f">ε / &#45;</text>
</g>
<!-- c&#45;&gt;a -->
<g id="edge10" class="edge">
<title>c&#45;&gt;a</title>
<path fill="none" stroke="#607d8b" stroke-width="1.3" d="M327.98,-117.17C312.58,-124.86 293.61,-135.6 277.65,-145.59"/>
<polygon fill="#607d8b" stroke="#607d8b" stroke-width="1.3" points="275.84,-142.59 269.32,-150.94 279.63,-148.48 275.84,-142.59"/>
<text xml:space="preserve" text-anchor="middle" x="294.19" y="-134.43" font-family="Helvetica,sans-Serif" font-size="11.00" fill="#37474f">a:a</text>
</g>
<!-- c&#45;&gt;c -->
<g id="edge4" class="edge">
<title>c&#45;&gt;c</title>
<path fill="none" stroke="#607d8b" stroke-width="1.3" d="M386.47,-113.91C396.7,-113.98 404.96,-111.73 404.96,-107.16 404.96,-104.59 402.35,-102.76 398.24,-101.65"/>
<polygon fill="#607d8b" stroke="#607d8b" stroke-width="1.3" points="398.74,-98.19 388.43,-100.62 398.01,-105.15 398.74,-98.19"/>
<text xml:space="preserve" text-anchor="middle" x="413.59" y="-103.46" font-family="Helvetica,sans-Serif" font-size="11.00" fill="#37474f">b:b</text>
</g>
</g>
</svg>
