<?xml version="1.0" encoding="UTF-8" standalone="no"?>
<!DOCTYPE svg PUBLIC "-//W3C//DTD SVG 1.1//EN"
 "http://www.w3.org/Graphics/SVG/1.1/DTD/svg11.dtd">
<!-- Generated by graphviz version 14.1.5 (0)
 -->
<!-- Title: ctc_selfless Pages: 1 -->
<svg width="639pt" height="179pt"
 viewBox="0.00 0.00 639.00 179.00" xmlns="http://www.w3.org/2000/svg" xmlns:xlink="http://www.w3.org/1999/xlink">
<g id="graph0" class="graph" transform="scale(1 1) rotate(0) translate(4 174.6)">
<title>ctc_selfless</title>
<polygon fill="#ffffff" stroke="none" points="-4,4 -4,-174.6 635,-174.6 635,4 -4,4"/>
<text xml:space="preserve" text-anchor="start" x="8" y="-155.25" font-family="Helvetica,sans-Serif" font-weight="bold" font-size="13.00">Selfless&#45;CTC (compact base, N=3)</text>
<text xml:space="preserve" text-anchor="start" x="256.25" y="-155.25" font-family="Helvetica,sans-Serif" font-size="13.00"> — non&#45;blank self&#45;loops removed; repeats need a blank</text>
<!-- __start__ -->
<g id="node1" class="node">
<title>__start__</title>
<ellipse fill="#bbdefb" stroke="#1565c0" stroke-width="1.4" cx="169.84" cy="-69.05" rx="0.36" ry="0.36"/>
</g>
<!-- b -->
<g id="node2" class="node">
<title>b</title>
<ellipse fill="#ffe0b2" stroke="#e65100" stroke-width="1.4" cx="249.56" cy="-69.05" rx="38.36" ry="38.36"/>
<ellipse fill="none" stroke="#e65100" stroke-width="1.4" cx="249.56" cy="-69.05" rx="42.36" ry="42.36"/>
<text xml:space="preserve" text-anchor="middle" x="249.56" y="-73" font-family="Helvetica,sans-Serif" font-size="14.00" fill="#102027">blank</text>
<text xml:space="preserve" text-anchor="middle" x="249.56" y="-55.75" font-family="Helvetica,sans-Serif" font-size="14.00" fill="#102027">0</text>
</g>
<!-- __start__&#45;&gt;b -->
<g id="edge1" class="edge">
<title>__start__&#45;&gt;b</title>
<path fill="none" stroke="#607d8b" stroke-width="1.3" d="M170.7,-69.05C173.01,-69.05 183.09,-69.05 195.27,-69.05"/>
<polygon fill="#607d8b" stroke="#607d8b" stroke-width="1.3" points="194.92,-72.55 204.91,-69.05 194.91,-65.55 194.92,-72.55"/>
</g>
<!-- b&#45;&gt;b -->
<g id="edge2" class="edge">
<title>b&#45;&gt;b</title>
<path fill="none" stroke="#9e9e9e" stroke-width="1.3" stroke-dasharray="5,2" d="M238.26,-110.52C238.96,-121.29 242.72,-129.41 249.56,-129.41 253.62,-129.41 256.59,-126.55 258.49,-121.97"/>
<polygon fill="#9e9e9e" stroke="#9e9e9e" stroke-width="1.3" points="261.86,-122.95 260.45,-112.45 255,-121.53 261.86,-122.95"/>
<text xml:space="preserve" text-anchor="middle" x="249.56" y="-132.46" font-family="Helvetica,sans-Serif" font-size="11.00" fill="#37474f">ε / &#45;</text>
</g>
<!-- a -->
<g id="node3" class="node">
<title>a</title>
<ellipse fill="#bbdefb" stroke="#1565c0" stroke-width="1.4" cx="431.47" cy="-116.05" rx="30.05" ry="30.05"/>
<text xml:space="preserve" text-anchor="middle" x="431.47" y="-120" font-family="Helvetica,sans-Serif" font-size="14.00" fill="#102027">a</text>
<text xml:space="preserve" text-anchor="middle" x="431.47" y="-102.75" font-family="Helvetica,sans-Serif" font-size="14.00" fill="#102027">1</text>
</g>
<!-- b&#45;&gt;a -->
<g id="edge3" class="edge">
<title>b&#45;&gt;a</title>
<path fill="none" stroke="#607d8b" stroke-width="1.3" d="M285.55,-92.23C293.3,-96.46 301.67,-100.38 309.92,-103.05 335.49,-111.35 365.56,-114.61 389.27,-115.78"/>
<polygon fill="#607d8b" stroke="#607d8b" stroke-width="1.3" points="388.94,-119.27 399.06,-116.15 389.2,-112.28 388.94,-119.27"/>
<text xml:space="preserve" text-anchor="middle" x="346.67" y="-118.32" font-family="Helvetica,sans-Serif" font-size="11.00" fill="#37474f">ε:a</text>
</g>
<!-- c -->
<g id="node4" class="node">
<title>c</title>
<ellipse fill="#bbdefb" stroke="#1565c0" stroke-width="1.4" cx="431.47" cy="-30.05" rx="30.05" ry="30.05"/>
<text xml:space="preserve" text-anchor="middle" x="431.47" y="-34" font-family="Helvetica,sans-Serif" font-size="14.00" fill="#102027">b</text>
<text xml:space="preserve" text-anchor="middle" x="431.47" y="-16.75" font-family="Helvetica,sans-Serif" font-size="14.00" fill="#102027">2</text>
</g>
<!-- b&#45;&gt;c -->
<g id="edge4" class="edge">
<title>b&#45;&gt;c</title>
<path fill="none" stroke="#607d8b" stroke-width="1.3" d="M290.67,-57.4C297.08,-55.68 303.67,-54 309.92,-52.55 336.23,-46.45 366.08,-40.87 389.49,-36.79"/>
<polygon fill="#607d8b" stroke="#607d8b" stroke-width="1.3" points="389.89,-40.28 399.15,-35.14 388.7,-33.38 389.89,-40.28"/>
<text xml:space="preserve" text-anchor="middle" x="346.67" y="-55.6" font-family="Helvetica,sans-Serif" font-size="11.00" fill="#37474f">ε:b</text>
</g>
<!-- a&#45;&gt;b -->
<g id="edge5" class="edge">
<title>a&#45;&gt;b</title>
<path fill="none" stroke="#9e9e9e" stroke-width="1.3" stroke-dasharray="5,2" d="M407.16,-97.99C399.91,-93.21 391.65,-88.55 383.42,-85.55 358.27,-76.39 328.86,-72.13 304.12,-70.22"/>
<polygon fill="#9e9e9e" stroke="#9e9e9e" stroke-width="1.3" points="304.55,-66.74 294.35,-69.59 304.1,-73.73 304.55,-66.74"/>
<text xml:space="preserve" text-anchor="middle" x="346.67" y="-88.6" font-family="Helvetica,sans-Serif" font-size="11.00" fill="#37474f">a:ε (back&#45;off)</text>
</g>
<!-- c&#45;&gt;b -->
<g id="edge6" class="edge">
<title>c&#45;&gt;b</title>
<path fill="none" stroke="#9e9e9e" stroke-width="1.3" stroke-dasharray="5,2" d="M402.32,-21.44C377.32,-15.26 340.17,-9.76 309.92,-20.55 302.59,-23.16 295.52,-27.11 288.96,-31.65"/>
<polygon fill="#9e9e9e" stroke="#9e9e9e" stroke-width="1.3" points="287.17,-28.61 281.32,-37.44 291.4,-34.19 287.17,-28.61"/>
<text xml:space="preserve" text-anchor="middle" x="346.67" y="-23.6" font-family="Helvetica,sans-Serif" font-size="11.00" fill="#37474f">b:ε (back&#45;off)</text>
</g>
</g>
</svg>
