<?xml version="1.0" encoding="UTF-8" standalone="no"?>
<!DOCTYPE svg PUBLIC "-//W3C//DTD SVG 1.1//EN"
 "http://www.w3.org/Graphics/SVG/1.1/DTD/svg11.dtd">
<!-- Generated by graphviz version 14.1.5 (0)
 -->
<!-- Title: deep_learning_layers Pages: 1 -->
<svg width="2477pt" height="301pt"
 viewBox="0.00 0.00 2477.00 301.00" xmlns="http://www.w3.org/2000/svg" xmlns:xlink="http://www.w3.org/1999/xlink">
<g id="graph0" class="graph" transform="scale(1 1) rotate(0) translate(4 297.46)">
<title>deep_learning_layers</title>
<polygon fill="#ffffff" stroke="none" points="-4,4 -4,-297.46 2472.5,-297.46 2472.5,4 -4,4"/>
<text xml:space="preserve" text-anchor="start" x="677.75" y="-278.11" font-family="Helvetica,sans-Serif" font-weight="bold" font-size="13.00">WFST as a differentiable layer</text>
<text xml:space="preserve" text-anchor="start" x="899" y="-278.11" font-family="Helvetica,sans-Serif" font-size="13.00"> — neural emissions E composed through a token graph, lexicon L, and target Y; forward score is the loss, its gradient flows back to E</text>
<g id="clust1" class="cluster">
<title>cluster_marg</title>
<path fill="#f5eef8" stroke="#6a1b9a" d="M979.25,-142.96C979.25,-142.96 1662,-142.96 1662,-142.96 1668,-142.96 1674,-148.96 1674,-154.96 1674,-154.96 1674,-248.96 1674,-248.96 1674,-254.96 1668,-260.96 1662,-260.96 1662,-260.96 979.25,-260.96 979.25,-260.96 973.25,-260.96 967.25,-254.96 967.25,-248.96 967.25,-248.96 967.25,-154.96 967.25,-154.96 967.25,-148.96 973.25,-142.96 979.25,-142.96"/>
<text xml:space="preserve" text-anchor="start" x="1095.25" y="-245.61" font-family="Helvetica,sans-Serif" font-weight="bold" font-size="13.00" fill="#4a148c">lexicon marginalization</text>
<text xml:space="preserve" text-anchor="start" x="1266.25" y="-245.61" font-family="Helvetica,sans-Serif" font-size="13.00" fill="#4a148c"> &#160;A = E ∘ (B ∘ ((T₁ + … + T_C)* ∘ (L ∘ Y)))</text>
</g>
<!-- nn -->
<g id="node1" class="node">
<title>nn</title>
<path fill="#eceff1" stroke="#455a64" stroke-width="1.4" d="M180.62,-153.21C180.62,-153.21 83.62,-153.21 83.62,-153.21 77.62,-153.21 71.62,-147.21 71.62,-141.21 71.62,-141.21 71.62,-122.71 71.62,-122.71 71.62,-116.71 77.62,-110.71 83.62,-110.71 83.62,-110.71 180.62,-110.71 180.62,-110.71 186.62,-110.71 192.62,-116.71 192.62,-122.71 192.62,-122.71 192.62,-141.21 192.62,-141.21 192.62,-147.21 186.62,-153.21 180.62,-153.21"/>
<text xml:space="preserve" text-anchor="middle" x="132.12" y="-135.91" font-family="Helvetica,sans-Serif" font-size="14.00" fill="#102027">neural network</text>
<text xml:space="preserve" text-anchor="middle" x="132.12" y="-118.66" font-family="Helvetica,sans-Serif" font-size="14.00" fill="#102027">(encoder)</text>
</g>
<!-- emit -->
<g id="node2" class="node">
<title>emit</title>
<path fill="#f3e5f5" stroke="#6a1b9a" stroke-width="1.4" d="M349.75,-81.46C349.75,-81.46 576.75,-81.46 576.75,-81.46 582.75,-81.46 588.75,-87.46 588.75,-93.46 588.75,-93.46 588.75,-170.46 588.75,-170.46 588.75,-176.46 582.75,-182.46 576.75,-182.46 576.75,-182.46 349.75,-182.46 349.75,-182.46 343.75,-182.46 337.75,-176.46 337.75,-170.46 337.75,-170.46 337.75,-93.46 337.75,-93.46 337.75,-87.46 343.75,-81.46 349.75,-81.46"/>
<text xml:space="preserve" text-anchor="middle" x="427.12" y="-127.29" font-family="Helvetica,sans-Serif" font-size="14.00" fill="#102027">emissions E (log&#45;probs)</text>
<polyline fill="none" stroke="#6a1b9a" stroke-width="1.4" points="516.5,-81.46 516.5,-182.46"/>
<text xml:space="preserve" text-anchor="middle" x="552.62" y="-165.16" font-family="Helvetica,sans-Serif" font-size="14.00" fill="#102027">frame t₀</text>
<polyline fill="none" stroke="#6a1b9a" stroke-width="1.4" points="516.5,-157.21 588.75,-157.21"/>
<text xml:space="preserve" text-anchor="middle" x="552.62" y="-139.91" font-family="Helvetica,sans-Serif" font-size="14.00" fill="#102027">t₁</text>
<polyline fill="none" stroke="#6a1b9a" stroke-width="1.4" points="516.5,-131.96 588.75,-131.96"/>
<text xml:space="preserve" text-anchor="middle" x="552.62" y="-114.66" font-family="Helvetica,sans-Serif" font-size="14.00" fill="#102027">t₂</text>
<polyline fill="none" stroke="#6a1b9a" stroke-width="1.4" points="516.5,-106.71 588.75,-106.71"/>
<text xml:space="preserve" text-anchor="middle" x="552.62" y="-89.41" font-family="Helvetica,sans-Serif" font-size="14.00" fill="#102027">…</text>
</g>
<!-- nn&#45;&gt;emit -->
<g id="edge1" class="edge">
<title>nn&#45;&gt;emit</title>
<path fill="none" stroke="#455a64" stroke-width="1.3" d="M193.11,-131.96C230.12,-131.96 279.19,-131.96 325.28,-131.96"/>
<polygon fill="#455a64" stroke="#455a64" stroke-width="1.3" points="325.27,-135.46 335.27,-131.96 325.27,-128.46 325.27,-135.46"/>
<text xml:space="preserve" text-anchor="middle" x="301" y="-135.21" font-family="Helvetica,sans-Serif" font-size="10.00" fill="#37474f">forward</text>
</g>
<!-- tok -->
<g id="node3" class="node">
<title>tok</title>
<path fill="#e1bee7" stroke="#6a1b9a" stroke-width="1.4" d="M921.25,-222.46C921.25,-222.46 697.5,-222.46 697.5,-222.46 691.5,-222.46 685.5,-216.46 685.5,-210.46 685.5,-210.46 685.5,-157.46 685.5,-157.46 685.5,-151.46 691.5,-145.46 697.5,-145.46 697.5,-145.46 921.25,-145.46 921.25,-145.46 927.25,-145.46 933.25,-151.46 933.25,-157.46 933.25,-157.46 933.25,-210.46 933.25,-210.46 933.25,-216.46 927.25,-222.46 921.25,-222.46"/>
<text xml:space="preserve" text-anchor="middle" x="809.38" y="-205.16" font-family="Helvetica,sans-Serif" font-size="14.00" fill="#102027">token graph T</text>
<text xml:space="preserve" text-anchor="middle" x="809.38" y="-187.91" font-family="Helvetica,sans-Serif" font-size="14.00" fill="#102027">(CTC variant:</text>
<text xml:space="preserve" text-anchor="middle" x="809.38" y="-170.66" font-family="Helvetica,sans-Serif" font-size="14.00" fill="#102027">Standard · Spike ·</text>
<text xml:space="preserve" text-anchor="middle" x="809.38" y="-153.41" font-family="Helvetica,sans-Serif" font-size="14.00" fill="#102027">DurationLimited · EquallySpaced)</text>
</g>
<!-- emit&#45;&gt;tok -->
<g id="edge5" class="edge">
<title>emit&#45;&gt;tok</title>
<path fill="none" stroke="#2e7d32" stroke-width="2" d="M588.97,-150.81C616.08,-154.9 644.88,-159.26 672.4,-163.41"/>
<polygon fill="#2e7d32" stroke="#2e7d32" stroke-width="2" points="671.54,-166.82 681.95,-164.86 672.58,-159.9 671.54,-166.82"/>
<text xml:space="preserve" text-anchor="middle" x="637.12" y="-165.87" font-family="Helvetica,sans-Serif" font-size="10.00" fill="#37474f">∘ (compose)</text>
</g>
<!-- fwdZ -->
<g id="node8" class="node">
<title>fwdZ</title>
<path fill="#d1c4e9" stroke="#6a1b9a" stroke-width="1.4" d="M1888.25,-143.84C1888.25,-143.84 1751.5,-143.84 1751.5,-143.84 1745.5,-143.84 1739.5,-137.84 1739.5,-131.84 1739.5,-131.84 1739.5,-96.09 1739.5,-96.09 1739.5,-90.09 1745.5,-84.09 1751.5,-84.09 1751.5,-84.09 1888.25,-84.09 1888.25,-84.09 1894.25,-84.09 1900.25,-90.09 1900.25,-96.09 1900.25,-96.09 1900.25,-131.84 1900.25,-131.84 1900.25,-137.84 1894.25,-143.84 1888.25,-143.84"/>
<text xml:space="preserve" text-anchor="middle" x="1819.88" y="-126.54" font-family="Helvetica,sans-Serif" font-size="14.00" fill="#102027">forwardScore(Z)</text>
<text xml:space="preserve" text-anchor="middle" x="1819.88" y="-109.29" font-family="Helvetica,sans-Serif" font-size="14.00" fill="#102027">Z = E ∘ token graph</text>
<text xml:space="preserve" text-anchor="middle" x="1819.88" y="-92.04" font-family="Helvetica,sans-Serif" font-size="14.00" fill="#102027">(unconstrained sum)</text>
</g>
<!-- emit&#45;&gt;fwdZ -->
<g id="edge8" class="edge">
<title>emit&#45;&gt;fwdZ</title>
<path fill="none" stroke="#9e9e9e" stroke-width="1.3" stroke-dasharray="5,2" d="M589.21,-122.28C654.48,-118.02 735.69,-113.96 808.38,-113.96 808.38,-113.96 808.38,-113.96 1587.75,-113.96 1633.69,-113.96 1684.76,-113.96 1727.19,-113.96"/>
<polygon fill="#9e9e9e" stroke="#9e9e9e" stroke-width="1.3" points="1726.95,-117.46 1736.95,-113.96 1726.95,-110.46 1726.95,-117.46"/>
<text xml:space="preserve" text-anchor="middle" x="1214.38" y="-117.21" font-family="Helvetica,sans-Serif" font-size="10.00" fill="#37474f">∘ token graph</text>
</g>
<!-- tok&#45;&gt;tok -->
<g id="edge2" class="edge">
<title>tok&#45;&gt;tok</title>
<path fill="none" stroke="#9e9e9e" stroke-width="1.3" stroke-dasharray="5,2" d="M782.54,-223.04C784.3,-232.99 793.25,-240.46 809.38,-240.46 819.2,-240.46 826.36,-237.69 830.86,-233.27"/>
<polygon fill="#9e9e9e" stroke="#9e9e9e" stroke-width="1.3" points="833.76,-235.27 835.3,-224.79 827.56,-232.02 833.76,-235.27"/>
<text xml:space="preserve" text-anchor="middle" x="809.38" y="-243.71" font-family="Helvetica,sans-Serif" font-size="10.00" fill="#616161">ε : blank / repeat</text>
</g>
<!-- closure -->
<g id="node4" class="node">
<title>closure</title>
<path fill="#e1bee7" stroke="#6a1b9a" stroke-width="1.4" d="M1151,-214.84C1151,-214.84 987.25,-214.84 987.25,-214.84 981.25,-214.84 975.25,-208.84 975.25,-202.84 975.25,-202.84 975.25,-167.09 975.25,-167.09 975.25,-161.09 981.25,-155.09 987.25,-155.09 987.25,-155.09 1151,-155.09 1151,-155.09 1157,-155.09 1163,-161.09 1163,-167.09 1163,-167.09 1163,-202.84 1163,-202.84 1163,-208.84 1157,-214.84 1151,-214.84"/>
<text xml:space="preserve" text-anchor="middle" x="1069.12" y="-197.54" font-family="Helvetica,sans-Serif" font-size="14.00" fill="#102027">(T₁ + … + T_C)*</text>
<text xml:space="preserve" text-anchor="middle" x="1069.12" y="-180.29" font-family="Helvetica,sans-Serif" font-size="14.00" fill="#102027">Kleene closure over</text>
<text xml:space="preserve" text-anchor="middle" x="1069.12" y="-163.04" font-family="Helvetica,sans-Serif" font-size="14.00" fill="#102027">word&#45;piece token graphs</text>
</g>
<!-- tok&#45;&gt;closure -->
<g id="edge6" class="edge">
<title>tok&#45;&gt;closure</title>
<path fill="none" stroke="#6a1b9a" stroke-width="1.3" d="M933.59,-184.44C943.43,-184.48 953.32,-184.52 963.03,-184.55"/>
<polygon fill="#6a1b9a" stroke="#6a1b9a" stroke-width="1.3" points="962.77,-188.05 972.79,-184.59 962.8,-181.05 962.77,-188.05"/>
<text xml:space="preserve" text-anchor="middle" x="954.25" y="-187.77" font-family="Helvetica,sans-Serif" font-size="10.00" fill="#37474f">∘</text>
</g>
<!-- lex -->
<g id="node5" class="node">
<title>lex</title>
<path fill="#e1bee7" stroke="#6a1b9a" stroke-width="1.4" d="M1444.5,-228.46C1444.5,-228.46 1277.75,-228.46 1277.75,-228.46 1271.75,-228.46 1265.75,-222.46 1265.75,-216.46 1265.75,-216.46 1265.75,-163.46 1265.75,-163.46 1265.75,-157.46 1271.75,-151.46 1277.75,-151.46 1277.75,-151.46 1444.5,-151.46 1444.5,-151.46 1450.5,-151.46 1456.5,-157.46 1456.5,-163.46 1456.5,-163.46 1456.5,-216.46 1456.5,-216.46 1456.5,-222.46 1450.5,-228.46 1444.5,-228.46"/>
<text xml:space="preserve" text-anchor="middle" x="1361.12" y="-211.16" font-family="Helvetica,sans-Serif" font-size="14.00" fill="#102027">lexicon L</text>
<text xml:space="preserve" text-anchor="middle" x="1361.12" y="-193.91" font-family="Helvetica,sans-Serif" font-size="14.00" fill="#102027">word piece → graphemes</text>
<text xml:space="preserve" text-anchor="middle" x="1361.12" y="-176.66" font-family="Helvetica,sans-Serif" font-size="14.00" fill="#102027">(sums over all</text>
<text xml:space="preserve" text-anchor="middle" x="1361.12" y="-159.41" font-family="Helvetica,sans-Serif" font-size="14.00" fill="#102027">decompositions)</text>
</g>
<!-- closure&#45;&gt;lex -->
<g id="edge3" class="edge">
<title>closure&#45;&gt;lex</title>
<path fill="none" stroke="#6a1b9a" stroke-width="1.3" d="M1163.48,-186.57C1192.28,-187.07 1224.2,-187.62 1253.8,-188.13"/>
<polygon fill="#6a1b9a" stroke="#6a1b9a" stroke-width="1.3" points="1253.43,-191.62 1263.49,-188.3 1253.55,-184.62 1253.43,-191.62"/>
<text xml:space="preserve" text-anchor="middle" x="1214.38" y="-191.16" font-family="Helvetica,sans-Serif" font-size="10.00" fill="#37474f">∘</text>
</g>
<!-- tgt -->
<g id="node6" class="node">
<title>tgt</title>
<path fill="#c8e6c9" stroke="#2e7d32" stroke-width="1.4" d="M1654,-212.21C1654,-212.21 1519.5,-212.21 1519.5,-212.21 1513.5,-212.21 1507.5,-206.21 1507.5,-200.21 1507.5,-200.21 1507.5,-181.71 1507.5,-181.71 1507.5,-175.71 1513.5,-169.71 1519.5,-169.71 1519.5,-169.71 1654,-169.71 1654,-169.71 1660,-169.71 1666,-175.71 1666,-181.71 1666,-181.71 1666,-200.21 1666,-200.21 1666,-206.21 1660,-212.21 1654,-212.21"/>
<text xml:space="preserve" text-anchor="middle" x="1586.75" y="-194.91" font-family="Helvetica,sans-Serif" font-size="14.00" fill="#102027">target Y</text>
<text xml:space="preserve" text-anchor="middle" x="1586.75" y="-177.66" font-family="Helvetica,sans-Serif" font-size="14.00" fill="#102027">grapheme sequence</text>
</g>
<!-- lex&#45;&gt;tgt -->
<g id="edge4" class="edge">
<title>lex&#45;&gt;tgt</title>
<path fill="none" stroke="#2e7d32" stroke-width="2" d="M1456.96,-190.39C1469.33,-190.44 1481.98,-190.5 1494.3,-190.55"/>
<polygon fill="#2e7d32" stroke="#2e7d32" stroke-width="2" points="1493.93,-194.05 1503.95,-190.6 1493.97,-187.05 1493.93,-194.05"/>
<text xml:space="preserve" text-anchor="middle" x="1482" y="-193.77" font-family="Helvetica,sans-Serif" font-size="10.00" fill="#37474f">∘ Y</text>
</g>
<!-- note -->
<g id="node11" class="node">
<title>note</title>
<polygon fill="#fff59d" stroke="#f9a825" stroke-width="1.4" points="258.25,-79.84 0,-79.84 0,-20.09 264.25,-20.09 264.25,-73.84 258.25,-79.84"/>
<polyline fill="none" stroke="#f9a825" stroke-width="1.4" points="258.25,-79.84 258.25,-73.84"/>
<polyline fill="none" stroke="#f9a825" stroke-width="1.4" points="264.25,-73.84 258.25,-73.84"/>
<text xml:space="preserve" text-anchor="middle" x="132.12" y="-62.54" font-family="Helvetica,sans-Serif" font-size="14.00" fill="#102027">marginalize: sum over every valid</text>
<text xml:space="preserve" text-anchor="middle" x="132.12" y="-45.29" font-family="Helvetica,sans-Serif" font-size="14.00" fill="#102027">word&#45;piece decomposition of Y</text>
<text xml:space="preserve" text-anchor="middle" x="132.12" y="-28.04" font-family="Helvetica,sans-Serif" font-size="14.00" fill="#102027">(adaptive, task&#45;salient tokenization)</text>
</g>
<!-- lex&#45;&gt;note -->
<g id="edge13" class="edge">
<title>lex&#45;&gt;note</title>
<path fill="none" stroke="#9e9e9e" stroke-width="1.3" stroke-dasharray="1,5" d="M1326.77,-150.78C1306.28,-129.55 1278.19,-105.05 1247.75,-91.96 875.58,68.09 742.73,-28.08 337.75,-38.96 317.96,-39.49 297.11,-40.31 276.59,-41.27"/>
<polygon fill="#9e9e9e" stroke="#9e9e9e" stroke-width="1.3" points="276.68,-37.76 266.86,-41.74 277.02,-44.75 276.68,-37.76"/>
</g>
<!-- fwdA -->
<g id="node7" class="node">
<title>fwdA</title>
<path fill="#ce93d8" stroke="#4a148c" stroke-width="1.4" d="M1887.12,-221.84C1887.12,-221.84 1752.62,-221.84 1752.62,-221.84 1746.62,-221.84 1740.62,-215.84 1740.62,-209.84 1740.62,-209.84 1740.62,-174.09 1740.62,-174.09 1740.62,-168.09 1746.62,-162.09 1752.62,-162.09 1752.62,-162.09 1887.12,-162.09 1887.12,-162.09 1893.12,-162.09 1899.12,-168.09 1899.12,-174.09 1899.12,-174.09 1899.12,-209.84 1899.12,-209.84 1899.12,-215.84 1893.12,-221.84 1887.12,-221.84"/>
<text xml:space="preserve" text-anchor="middle" x="1819.88" y="-204.54" font-family="Helvetica,sans-Serif" font-size="14.00" fill="#102027">forwardScore(A)</text>
<text xml:space="preserve" text-anchor="middle" x="1819.88" y="-187.29" font-family="Helvetica,sans-Serif" font-size="14.00" fill="#102027">log&#45;sum&#45;exp over all</text>
<text xml:space="preserve" text-anchor="middle" x="1819.88" y="-170.04" font-family="Helvetica,sans-Serif" font-size="14.00" fill="#102027">aligned paths</text>
</g>
<!-- tgt&#45;&gt;fwdA -->
<g id="edge7" class="edge">
<title>tgt&#45;&gt;fwdA</title>
<path fill="none" stroke="#2e7d32" stroke-width="2" d="M1666.64,-191.3C1686.06,-191.39 1707.02,-191.48 1726.99,-191.56"/>
<polygon fill="#2e7d32" stroke="#2e7d32" stroke-width="2" points="1726.9,-195.06 1736.92,-191.61 1726.93,-188.06 1726.9,-195.06"/>
<text xml:space="preserve" text-anchor="middle" x="1702.75" y="-194.77" font-family="Helvetica,sans-Serif" font-size="10.00" fill="#37474f">forward</text>
</g>
<!-- loss -->
<g id="node9" class="node">
<title>loss</title>
<path fill="#ffe0b2" stroke="#e65100" stroke-width="1.4" d="M2219.25,-162.21C2219.25,-162.21 1966.25,-162.21 1966.25,-162.21 1960.25,-162.21 1954.25,-156.21 1954.25,-150.21 1954.25,-150.21 1954.25,-131.71 1954.25,-131.71 1954.25,-125.71 1960.25,-119.71 1966.25,-119.71 1966.25,-119.71 2219.25,-119.71 2219.25,-119.71 2225.25,-119.71 2231.25,-125.71 2231.25,-131.71 2231.25,-131.71 2231.25,-150.21 2231.25,-150.21 2231.25,-156.21 2225.25,-162.21 2219.25,-162.21"/>
<text xml:space="preserve" text-anchor="middle" x="2092.75" y="-144.91" font-family="Helvetica,sans-Serif" font-size="14.00" fill="#102027">loss = −log P(Y∣X)</text>
<text xml:space="preserve" text-anchor="middle" x="2092.75" y="-127.66" font-family="Helvetica,sans-Serif" font-size="14.00" fill="#102027">= forwardScore(Z) − forwardScore(A)</text>
</g>
<!-- fwdA&#45;&gt;loss -->
<g id="edge9" class="edge">
<title>fwdA&#45;&gt;loss</title>
<path fill="none" stroke="#2e7d32" stroke-width="2" d="M1899.59,-177.14C1919.37,-173.42 1941.12,-169.32 1962.66,-165.27"/>
<polygon fill="#2e7d32" stroke="#2e7d32" stroke-width="2" points="1963.15,-168.74 1972.33,-163.45 1961.85,-161.86 1963.15,-168.74"/>
<text xml:space="preserve" text-anchor="middle" x="1927.25" y="-175.78" font-family="Helvetica,sans-Serif" font-size="10.00" fill="#37474f">− A</text>
</g>
<!-- fwdZ&#45;&gt;loss -->
<g id="edge10" class="edge">
<title>fwdZ&#45;&gt;loss</title>
<path fill="none" stroke="#607d8b" stroke-width="1.3" d="M1900.68,-121.92C1913.73,-123.22 1927.61,-124.6 1941.7,-126"/>
<polygon fill="#607d8b" stroke="#607d8b" stroke-width="1.3" points="1941.32,-129.48 1951.61,-126.99 1942.01,-122.52 1941.32,-129.48"/>
<text xml:space="preserve" text-anchor="middle" x="1927.25" y="-128.29" font-family="Helvetica,sans-Serif" font-size="10.00" fill="#37474f">Z −</text>
</g>
<!-- grad -->
<g id="node10" class="node">
<title>grad</title>
<path fill="#ce93d8" stroke="#4a148c" stroke-width="1.4" d="M2456.5,-170.84C2456.5,-170.84 2326.5,-170.84 2326.5,-170.84 2320.5,-170.84 2314.5,-164.84 2314.5,-158.84 2314.5,-158.84 2314.5,-123.09 2314.5,-123.09 2314.5,-117.09 2320.5,-111.09 2326.5,-111.09 2326.5,-111.09 2456.5,-111.09 2456.5,-111.09 2462.5,-111.09 2468.5,-117.09 2468.5,-123.09 2468.5,-123.09 2468.5,-158.84 2468.5,-158.84 2468.5,-164.84 2462.5,-170.84 2456.5,-170.84"/>
<text xml:space="preserve" text-anchor="middle" x="2391.5" y="-153.54" font-family="Helvetica,sans-Serif" font-size="14.00" fill="#102027">∂Loss/∂E</text>
<text xml:space="preserve" text-anchor="middle" x="2391.5" y="-136.29" font-family="Helvetica,sans-Serif" font-size="14.00" fill="#102027">(arc posteriors;</text>
<text xml:space="preserve" text-anchor="middle" x="2391.5" y="-119.04" font-family="Helvetica,sans-Serif" font-size="14.00" fill="#102027">top&#45;down autograd)</text>
</g>
<!-- loss&#45;&gt;grad -->
<g id="edge11" class="edge">
<title>loss&#45;&gt;grad</title>
<path fill="none" stroke="#6a1b9a" stroke-width="1.3" d="M2231.7,-140.96C2255.69,-140.96 2280.05,-140.96 2302.25,-140.96"/>
<polygon fill="#6a1b9a" stroke="#6a1b9a" stroke-width="1.3" points="2302.02,-144.46 2312.02,-140.96 2302.02,-137.46 2302.02,-144.46"/>
<text xml:space="preserve" text-anchor="middle" x="2272.88" y="-144.21" font-family="Helvetica,sans-Serif" font-size="10.00" fill="#37474f">backward</text>
</g>
<!-- grad&#45;&gt;nn -->
<g id="edge12" class="edge">
<title>grad&#45;&gt;nn</title>
<path fill="none" stroke="#b71c1c" stroke-width="1.3" stroke-dasharray="5,2" d="M2314.16,-125.33C2287.95,-120.3 2258.38,-114.99 2231.25,-110.96 2084.87,-89.25 2048,-83.14 1900.25,-74.96 1318.25,-42.74 1171.64,-72.63 588.75,-71.96 477.19,-71.83 448.17,-56.11 337.75,-71.96 311.97,-75.66 252.7,-93.43 204.55,-108.67"/>
<polygon fill="#b71c1c" stroke="#b71c1c" stroke-width="1.3" points="203.55,-105.32 195.09,-111.68 205.68,-111.99 203.55,-105.32"/>
<text xml:space="preserve" text-anchor="middle" x="1361.12" y="-64.47" font-family="Helvetica,sans-Serif" font-size="10.00" fill="#37474f">∂Loss/∂E &#160;(gradient descent)</text>
</g>
</g>
</svg>
