<?xml version="1.0" encoding="UTF-8" standalone="no"?>
<!DOCTYPE svg PUBLIC "-//W3C//DTD SVG 1.1//EN"
 "http://www.w3.org/Graphics/SVG/1.1/DTD/svg11.dtd">
<!-- Generated by graphviz version 14.1.5 (0)
 -->
<!-- Title: fsm_mask Pages: 1 -->
<svg width="730pt" height="250pt"
 viewBox="0.00 0.00 730.00 250.00" xmlns="http://www.w3.org/2000/svg" xmlns:xlink="http://www.w3.org/1999/xlink">
<g id="graph0" class="graph" transform="scale(1 1) rotate(0) translate(4 245.98)">
<title>fsm_mask</title>
<polygon fill="#ffffff" stroke="none" points="-4,4 -4,-245.98 725.55,-245.98 725.55,4 -4,4"/>
<text xml:space="preserve" text-anchor="start" x="88.9" y="-226.63" font-family="Helvetica,sans-Serif" font-weight="bold" font-size="13.00">Compressed FSM masking a vocabulary</text>
<text xml:space="preserve" text-anchor="start" x="378.4" y="-226.63" font-family="Helvetica,sans-Serif" font-size="13.00"> — m[v] = 1 iff an arc out of q reads v</text>
<!-- __start__ -->
<g id="node1" class="node">
<title>__start__</title>
<ellipse fill="#bbdefb" stroke="#1565c0" stroke-width="1.4" cx="169.38" cy="-162.12" rx="0.36" ry="0.36"/>
</g>
<!-- q0 -->
<g id="node2" class="node">
<title>q0</title>
<ellipse fill="#bbdefb" stroke="#1565c0" stroke-width="1.4" cx="399.6" cy="-162.12" rx="23.85" ry="23.85"/>
<text xml:space="preserve" text-anchor="middle" x="399.6" y="-157.45" font-family="Helvetica,sans-Serif" font-size="14.00" fill="#102027">q0</text>
</g>
<!-- __start__&#45;&gt;q0 -->
<g id="edge1" class="edge">
<title>__start__&#45;&gt;q0</title>
<path fill="none" stroke="#607d8b" stroke-width="1.3" d="M170.54,-162.12C175.72,-162.12 301.05,-162.12 363.66,-162.12"/>
<polygon fill="#607d8b" stroke="#607d8b" stroke-width="1.3" points="363.33,-165.63 373.33,-162.13 363.33,-158.63 363.33,-165.63"/>
</g>
<!-- q1 -->
<g id="node3" class="node">
<title>q1</title>
<ellipse fill="#bbdefb" stroke="#1565c0" stroke-width="1.4" cx="496.05" cy="-162.12" rx="23.85" ry="23.85"/>
<text xml:space="preserve" text-anchor="middle" x="496.05" y="-157.45" font-family="Helvetica,sans-Serif" font-size="14.00" fill="#102027">q1</text>
</g>
<!-- q0&#45;&gt;q1 -->
<g id="edge2" class="edge">
<title>q0&#45;&gt;q1</title>
<path fill="none" stroke="#2e7d32" stroke-width="2" d="M423.95,-162.12C434.51,-162.12 447.22,-162.12 458.97,-162.12"/>
<polygon fill="#2e7d32" stroke="#2e7d32" stroke-width="2" points="458.62,-165.63 468.62,-162.13 458.62,-158.63 458.62,-165.63"/>
<text xml:space="preserve" text-anchor="middle" x="447.83" y="-165.18" font-family="Helvetica,sans-Serif" font-size="11.00" fill="#1b5e20">&#39;{&#39;</text>
</g>
<!-- mask -->
<g id="node6" class="node">
<title>mask</title>
<polygon fill="#bbdefb" stroke="none" stroke-width="1.4" points="338.75,-144.25 0,-144.25 0,0 338.75,0 338.75,-144.25"/>
<polygon fill="#fff59d" stroke="none" points="8,-4 8,-140.25 330.75,-140.25 330.75,-4 8,-4"/>
<polygon fill="none" stroke="#f9a825" points="8,-113 8,-140.25 81,-140.25 81,-113 8,-113"/>
<text xml:space="preserve" text-anchor="start" x="23.88" y="-122.95" font-family="Helvetica,sans-Serif" font-weight="bold" font-size="14.00" fill="#102027">state</text>
<polygon fill="none" stroke="#f9a825" points="81,-113 81,-140.25 145,-140.25 145,-113 81,-113"/>
<text xml:space="preserve" text-anchor="start" x="86" y="-121.75" font-family="Helvetica,sans-Serif" font-size="14.00" fill="#102027">LBRACE</text>
<polygon fill="none" stroke="#f9a825" points="145,-113 145,-140.25 176.75,-140.25 176.75,-113 145,-113"/>
<text xml:space="preserve" text-anchor="start" x="150" y="-121.75" font-family="Helvetica,sans-Serif" font-size="14.00" fill="#102027">&quot;k&quot;</text>
<polygon fill="none" stroke="#f9a825" points="176.75,-113 176.75,-140.25 198.75,-140.25 198.75,-113 176.75,-113"/>
<text xml:space="preserve" text-anchor="start" x="185.5" y="-121.75" font-family="Helvetica,sans-Serif" font-size="14.00" fill="#102027">:</text>
<polygon fill="none" stroke="#f9a825" points="198.75,-113 198.75,-140.25 265,-140.25 265,-113 198.75,-113"/>
<text xml:space="preserve" text-anchor="start" x="203.75" y="-121.75" font-family="Helvetica,sans-Serif" font-size="14.00" fill="#102027">RBRACE</text>
<polygon fill="none" stroke="#f9a825" points="265,-113 265,-140.25 293.75,-140.25 293.75,-113 265,-113"/>
<text xml:space="preserve" text-anchor="start" x="270" y="-121.75" font-family="Helvetica,sans-Serif" font-size="14.00" fill="#102027">ws</text>
<polygon fill="none" stroke="#f9a825" points="293.75,-113 293.75,-140.25 330.75,-140.25 330.75,-113 293.75,-113"/>
<text xml:space="preserve" text-anchor="start" x="298.75" y="-121.75" font-family="Helvetica,sans-Serif" font-size="14.00" fill="#102027">123</text>
<polygon fill="none" stroke="#f9a825" points="8,-85.75 8,-113 81,-113 81,-85.75 8,-85.75"/>
<text xml:space="preserve" text-anchor="start" x="35.5" y="-94.5" font-family="Helvetica,sans-Serif" font-size="14.00" fill="#102027">q0</text>
<polygon fill="none" stroke="#f9a825" points="81,-85.75 81,-113 145,-113 145,-85.75 81,-85.75"/>
<text xml:space="preserve" text-anchor="start" x="107" y="-94.5" font-family="Helvetica,sans-Serif" font-size="14.00" fill="#102027">●</text>
<polygon fill="none" stroke="#f9a825" points="145,-85.75 145,-113 176.75,-113 176.75,-85.75 145,-85.75"/>
<text xml:space="preserve" text-anchor="start" x="158.62" y="-94.5" font-family="Helvetica,sans-Serif" font-size="14.00" fill="#102027">·</text>
<polygon fill="none" stroke="#f9a825" points="176.75,-85.75 176.75,-113 198.75,-113 198.75,-85.75 176.75,-85.75"/>
<text xml:space="preserve" text-anchor="start" x="185.5" y="-94.5" font-family="Helvetica,sans-Serif" font-size="14.00" fill="#102027">·</text>
<polygon fill="none" stroke="#f9a825" points="198.75,-85.75 198.75,-113 265,-113 265,-85.75 198.75,-85.75"/>
<text xml:space="preserve" text-anchor="start" x="229.62" y="-94.5" font-family="Helvetica,sans-Serif" font-size="14.00" fill="#102027">·</text>
<polygon fill="none" stroke="#f9a825" points="265,-85.75 265,-113 293.75,-113 293.75,-85.75 265,-85.75"/>
<text xml:space="preserve" text-anchor="start" x="277.12" y="-94.5" font-family="Helvetica,sans-Serif" font-size="14.00" fill="#102027">·</text>
<polygon fill="none" stroke="#f9a825" points="293.75,-85.75 293.75,-113 330.75,-113 330.75,-85.75 293.75,-85.75"/>
<text xml:space="preserve" text-anchor="start" x="310" y="-94.5" font-family="Helvetica,sans-Serif" font-size="14.00" fill="#102027">·</text>
<polygon fill="none" stroke="#f9a825" points="8,-58.5 8,-85.75 81,-85.75 81,-58.5 8,-58.5"/>
<text xml:space="preserve" text-anchor="start" x="35.5" y="-67.25" font-family="Helvetica,sans-Serif" font-size="14.00" fill="#102027">q1</text>
<polygon fill="none" stroke="#f9a825" points="81,-58.5 81,-85.75 145,-85.75 145,-58.5 81,-58.5"/>
<text xml:space="preserve" text-anchor="start" x="110.75" y="-67.25" font-family="Helvetica,sans-Serif" font-size="14.00" fill="#102027">·</text>
<polygon fill="none" stroke="#f9a825" points="145,-58.5 145,-85.75 176.75,-85.75 176.75,-58.5 145,-58.5"/>
<text xml:space="preserve" text-anchor="start" x="154.88" y="-67.25" font-family="Helvetica,sans-Serif" font-size="14.00" fill="#102027">●</text>
<polygon fill="none" stroke="#f9a825" points="176.75,-58.5 176.75,-85.75 198.75,-85.75 198.75,-58.5 176.75,-58.5"/>
<text xml:space="preserve" text-anchor="start" x="185.5" y="-67.25" font-family="Helvetica,sans-Serif" font-size="14.00" fill="#102027">·</text>
<polygon fill="none" stroke="#f9a825" points="198.75,-58.5 198.75,-85.75 265,-85.75 265,-58.5 198.75,-58.5"/>
<text xml:space="preserve" text-anchor="start" x="229.62" y="-67.25" font-family="Helvetica,sans-Serif" font-size="14.00" fill="#102027">·</text>
<polygon fill="none" stroke="#f9a825" points="265,-58.5 265,-85.75 293.75,-85.75 293.75,-58.5 265,-58.5"/>
<text xml:space="preserve" text-anchor="start" x="273.38" y="-67.25" font-family="Helvetica,sans-Serif" font-size="14.00" fill="#102027">●</text>
<polygon fill="none" stroke="#f9a825" points="293.75,-58.5 293.75,-85.75 330.75,-85.75 330.75,-58.5 293.75,-58.5"/>
<text xml:space="preserve" text-anchor="start" x="310" y="-67.25" font-family="Helvetica,sans-Serif" font-size="14.00" fill="#102027">·</text>
<polygon fill="none" stroke="#f9a825" points="8,-31.25 8,-58.5 81,-58.5 81,-31.25 8,-31.25"/>
<text xml:space="preserve" text-anchor="start" x="35.5" y="-40" font-family="Helvetica,sans-Serif" font-size="14.00" fill="#102027">q2</text>
<polygon fill="none" stroke="#f9a825" points="81,-31.25 81,-58.5 145,-58.5 145,-31.25 81,-31.25"/>
<text xml:space="preserve" text-anchor="start" x="110.75" y="-40" font-family="Helvetica,sans-Serif" font-size="14.00" fill="#102027">·</text>
<polygon fill="none" stroke="#f9a825" points="145,-31.25 145,-58.5 176.75,-58.5 176.75,-31.25 145,-31.25"/>
<text xml:space="preserve" text-anchor="start" x="158.62" y="-40" font-family="Helvetica,sans-Serif" font-size="14.00" fill="#102027">·</text>
<polygon fill="none" stroke="#f9a825" points="176.75,-31.25 176.75,-58.5 198.75,-58.5 198.75,-31.25 176.75,-31.25"/>
<text xml:space="preserve" text-anchor="start" x="181.75" y="-40" font-family="Helvetica,sans-Serif" font-size="14.00" fill="#102027">●</text>
<polygon fill="none" stroke="#f9a825" points="198.75,-31.25 198.75,-58.5 265,-58.5 265,-31.25 198.75,-31.25"/>
<text xml:space="preserve" text-anchor="start" x="229.62" y="-40" font-family="Helvetica,sans-Serif" font-size="14.00" fill="#102027">·</text>
<polygon fill="none" stroke="#f9a825" points="265,-31.25 265,-58.5 293.75,-58.5 293.75,-31.25 265,-31.25"/>
<text xml:space="preserve" text-anchor="start" x="277.12" y="-40" font-family="Helvetica,sans-Serif" font-size="14.00" fill="#102027">·</text>
<polygon fill="none" stroke="#f9a825" points="293.75,-31.25 293.75,-58.5 330.75,-58.5 330.75,-31.25 293.75,-31.25"/>
<text xml:space="preserve" text-anchor="start" x="310" y="-40" font-family="Helvetica,sans-Serif" font-size="14.00" fill="#102027">·</text>
<polygon fill="none" stroke="#f9a825" points="8,-4 8,-31.25 81,-31.25 81,-4 8,-4"/>
<text xml:space="preserve" text-anchor="start" x="13" y="-12.75" font-family="Helvetica,sans-Serif" font-size="14.00" fill="#102027">q3 (final)</text>
<polygon fill="none" stroke="#f9a825" points="81,-4 81,-31.25 145,-31.25 145,-4 81,-4"/>
<text xml:space="preserve" text-anchor="start" x="110.75" y="-12.75" font-family="Helvetica,sans-Serif" font-size="14.00" fill="#102027">·</text>
<polygon fill="none" stroke="#f9a825" points="145,-4 145,-31.25 176.75,-31.25 176.75,-4 145,-4"/>
<text xml:space="preserve" text-anchor="start" x="158.62" y="-12.75" font-family="Helvetica,sans-Serif" font-size="14.00" fill="#102027">·</text>
<polygon fill="none" stroke="#f9a825" points="176.75,-4 176.75,-31.25 198.75,-31.25 198.75,-4 176.75,-4"/>
<text xml:space="preserve" text-anchor="start" x="185.5" y="-12.75" font-family="Helvetica,sans-Serif" font-size="14.00" fill="#102027">·</text>
<polygon fill="none" stroke="#f9a825" points="198.75,-4 198.75,-31.25 265,-31.25 265,-4 198.75,-4"/>
<text xml:space="preserve" text-anchor="start" x="229.62" y="-12.75" font-family="Helvetica,sans-Serif" font-size="14.00" fill="#102027">·</text>
<polygon fill="none" stroke="#f9a825" points="265,-4 265,-31.25 293.75,-31.25 293.75,-4 265,-4"/>
<text xml:space="preserve" text-anchor="start" x="277.12" y="-12.75" font-family="Helvetica,sans-Serif" font-size="14.00" fill="#102027">·</text>
<polygon fill="none" stroke="#f9a825" points="293.75,-4 293.75,-31.25 330.75,-31.25 330.75,-4 293.75,-4"/>
<text xml:space="preserve" text-anchor="start" x="310" y="-12.75" font-family="Helvetica,sans-Serif" font-size="14.00" fill="#102027">·</text>
</g>
<!-- q0&#45;&gt;mask -->
<g id="edge6" class="edge">
<title>q0&#45;&gt;mask</title>
<path fill="none" stroke="#9e9e9e" stroke-width="1.3" stroke-dasharray="1,5" d="M376.68,-153.48C366.47,-149.46 353.34,-144.27 338.64,-138.48"/>
</g>
<!-- q1&#45;&gt;q1 -->
<g id="edge5" class="edge">
<title>q1&#45;&gt;q1</title>
<path fill="none" stroke="#b0bec5" stroke-width="1.3" d="M487.15,-184.94C486.3,-195.15 489.27,-203.98 496.05,-203.98 499.97,-203.98 502.62,-201.02 503.99,-196.56"/>
<polygon fill="#b0bec5" stroke="#b0bec5" stroke-width="1.3" points="507.45,-197.16 504.79,-186.9 500.47,-196.58 507.45,-197.16"/>
<text xml:space="preserve" text-anchor="middle" x="496.05" y="-207.03" font-family="Helvetica,sans-Serif" font-size="11.00" fill="#37474f">ws</text>
</g>
<!-- q2 -->
<g id="node4" class="node">
<title>q2</title>
<ellipse fill="#bbdefb" stroke="#1565c0" stroke-width="1.4" cx="596.25" cy="-162.12" rx="23.85" ry="23.85"/>
<text xml:space="preserve" text-anchor="middle" x="596.25" y="-157.45" font-family="Helvetica,sans-Serif" font-size="14.00" fill="#102027">q2</text>
</g>
<!-- q1&#45;&gt;q2 -->
<g id="edge3" class="edge">
<title>q1&#45;&gt;q2</title>
<path fill="none" stroke="#2e7d32" stroke-width="2" d="M520.32,-162.12C531.86,-162.12 546.05,-162.12 558.97,-162.12"/>
<polygon fill="#2e7d32" stroke="#2e7d32" stroke-width="2" points="558.78,-165.63 568.78,-162.13 558.78,-158.63 558.78,-165.63"/>
<text xml:space="preserve" text-anchor="middle" x="546.15" y="-165.18" font-family="Helvetica,sans-Serif" font-size="11.00" fill="#1b5e20">&quot;k&quot;</text>
</g>
<!-- q1&#45;&gt;mask -->
<g id="edge7" class="edge">
<title>q1&#45;&gt;mask</title>
<path fill="none" stroke="#9e9e9e" stroke-width="1.3" stroke-dasharray="1,5" d="M474.22,-151.11C460.19,-144.04 441.08,-135.1 423.45,-129.12 396.36,-119.95 367.14,-111.82 338.52,-104.78"/>
</g>
<!-- q3 -->
<g id="node5" class="node">
<title>q3</title>
<ellipse fill="#c8e6c9" stroke="#2e7d32" stroke-width="1.4" cx="693.7" cy="-162.12" rx="23.85" ry="23.85"/>
<ellipse fill="none" stroke="#2e7d32" stroke-width="1.4" cx="693.7" cy="-162.12" rx="27.85" ry="27.85"/>
<text xml:space="preserve" text-anchor="middle" x="693.7" y="-157.45" font-family="Helvetica,sans-Serif" font-size="14.00" fill="#102027">q3</text>
</g>
<!-- q2&#45;&gt;q3 -->
<g id="edge4" class="edge">
<title>q2&#45;&gt;q3</title>
<path fill="none" stroke="#2e7d32" stroke-width="2" d="M620.36,-162.12C630.01,-162.12 641.51,-162.12 652.46,-162.12"/>
<polygon fill="#2e7d32" stroke="#2e7d32" stroke-width="2" points="652.37,-165.63 662.37,-162.13 652.37,-158.63 652.37,-165.63"/>
<text xml:space="preserve" text-anchor="middle" x="642.98" y="-165.18" font-family="Helvetica,sans-Serif" font-size="11.00" fill="#1b5e20">&#39;:&#39;</text>
</g>
<!-- q2&#45;&gt;mask -->
<g id="edge8" class="edge">
<title>q2&#45;&gt;mask</title>
<path fill="none" stroke="#9e9e9e" stroke-width="1.3" stroke-dasharray="1,5" d="M574.31,-151.41C559.46,-144.19 538.87,-134.97 519.9,-129.12 461.87,-111.26 396.61,-98.7 338.32,-90"/>
</g>
<!-- q3&#45;&gt;mask -->
<g id="edge9" class="edge">
<title>q3&#45;&gt;mask</title>
<path fill="none" stroke="#9e9e9e" stroke-width="1.3" stroke-dasharray="1,5" d="M668.42,-149.31C654.58,-142.46 636.73,-134.39 620.1,-129.12 529.59,-100.5 424.52,-86.19 338.72,-79.07"/>
</g>
</g>
</svg>
