<?xml version="1.0" encoding="UTF-8" standalone="no"?>
<!DOCTYPE svg PUBLIC "-//W3C//DTD SVG 1.1//EN"
 "http://www.w3.org/Graphics/SVG/1.1/DTD/svg11.dtd">
<!-- Generated by graphviz version 14.1.5 (0)
 -->
<!-- Title: gpu_token_recombination Pages: 1 -->
<svg width="1248pt" height="254pt"
 viewBox="0.00 0.00 1248.00 254.00" xmlns="http://www.w3.org/2000/svg" xmlns:xlink="http://www.w3.org/1999/xlink">
<g id="graph0" class="graph" transform="scale(1 1) rotate(0) translate(4 249.5)">
<title>gpu_token_recombination</title>
<polygon fill="#ffffff" stroke="none" points="-4,4 -4,-249.5 1244.25,-249.5 1244.25,4 -4,4"/>
<text xml:space="preserve" text-anchor="start" x="302.12" y="-230.15" font-family="Helvetica,sans-Serif" font-weight="bold" font-size="13.00">uint64 token recombination</text>
<text xml:space="preserve" text-anchor="start" x="504.62" y="-230.15" font-family="Helvetica,sans-Serif" font-size="13.00"> — pack (cost, arc_id), order&#45;preserving bits, atomicMin per state</text>
<g id="clust1" class="cluster">
<title>cluster_tokens</title>
<polygon fill="#ffffff" stroke="#9e9e9e" stroke-dasharray="5,2" points="0,-8 0,-213 196.75,-213 196.75,-8 0,-8"/>
<text xml:space="preserve" text-anchor="start" x="8" y="-196.25" font-family="Helvetica,sans-Serif" font-size="13.00" fill="#455a64">candidate tokens → state q</text>
</g>
<!-- t1 -->
<g id="node1" class="node">
<title>t1</title>
<path fill="#e1bee7" stroke="#6a1b9a" stroke-width="1.4" d="M145.62,-180.25C145.62,-180.25 50.12,-180.25 50.12,-180.25 44.12,-180.25 38.12,-174.25 38.12,-168.25 38.12,-168.25 38.12,-149.75 38.12,-149.75 38.12,-143.75 44.12,-137.75 50.12,-137.75 50.12,-137.75 145.62,-137.75 145.62,-137.75 151.62,-137.75 157.62,-143.75 157.62,-149.75 157.62,-149.75 157.62,-168.25 157.62,-168.25 157.62,-174.25 151.62,-180.25 145.62,-180.25"/>
<text xml:space="preserve" text-anchor="middle" x="97.88" y="-162.95" font-family="Helvetica,sans-Serif" font-size="14.00" fill="#102027">token A</text>
<text xml:space="preserve" text-anchor="middle" x="97.88" y="-145.7" font-family="Helvetica,sans-Serif" font-size="14.00" fill="#102027">cost 0.5 · arc 7</text>
</g>
<!-- pack -->
<g id="node4" class="node">
<title>pack</title>
<path fill="#d1c4e9" stroke="#6a1b9a" stroke-width="1.4" d="M237.75,-55.5C237.75,-55.5 425,-55.5 425,-55.5 431,-55.5 437,-61.5 437,-67.5 437,-67.5 437,-128.5 437,-128.5 437,-134.5 431,-140.5 425,-140.5 425,-140.5 237.75,-140.5 237.75,-140.5 231.75,-140.5 225.75,-134.5 225.75,-128.5 225.75,-128.5 225.75,-67.5 225.75,-67.5 225.75,-61.5 231.75,-55.5 237.75,-55.5"/>
<text xml:space="preserve" text-anchor="middle" x="281.75" y="-93.33" font-family="Helvetica,sans-Serif" font-size="14.00" fill="#102027">pack_cost_arc</text>
<polyline fill="none" stroke="#6a1b9a" stroke-width="1.4" points="337.75,-55.5 337.75,-140.5"/>
<text xml:space="preserve" text-anchor="middle" x="387.38" y="-123.2" font-family="Helvetica,sans-Serif" font-size="14.00" fill="#102027">cost (f32)</text>
<text xml:space="preserve" text-anchor="middle" x="387.38" y="-105.95" font-family="Helvetica,sans-Serif" font-size="14.00" fill="#102027">high 32 bits</text>
<polyline fill="none" stroke="#6a1b9a" stroke-width="1.4" points="337.75,-98 437,-98"/>
<text xml:space="preserve" text-anchor="middle" x="387.38" y="-80.7" font-family="Helvetica,sans-Serif" font-size="14.00" fill="#102027">arc_id (u32)</text>
<text xml:space="preserve" text-anchor="middle" x="387.38" y="-63.45" font-family="Helvetica,sans-Serif" font-size="14.00" fill="#102027">low 32 bits</text>
</g>
<!-- t1&#45;&gt;pack -->
<g id="edge1" class="edge">
<title>t1&#45;&gt;pack</title>
<path fill="none" stroke="#6a1b9a" stroke-width="1.3" d="M158.19,-143.37C175.33,-138.86 194.64,-133.77 213.99,-128.67"/>
<polygon fill="#6a1b9a" stroke="#6a1b9a" stroke-width="1.3" points="214.68,-132.11 223.46,-126.17 212.9,-125.34 214.68,-132.11"/>
</g>
<!-- t2 -->
<g id="node2" class="node">
<title>t2</title>
<path fill="#e1bee7" stroke="#6a1b9a" stroke-width="1.4" d="M145.62,-119.25C145.62,-119.25 50.12,-119.25 50.12,-119.25 44.12,-119.25 38.12,-113.25 38.12,-107.25 38.12,-107.25 38.12,-88.75 38.12,-88.75 38.12,-82.75 44.12,-76.75 50.12,-76.75 50.12,-76.75 145.62,-76.75 145.62,-76.75 151.62,-76.75 157.62,-82.75 157.62,-88.75 157.62,-88.75 157.62,-107.25 157.62,-107.25 157.62,-113.25 151.62,-119.25 145.62,-119.25"/>
<text xml:space="preserve" text-anchor="middle" x="97.88" y="-101.95" font-family="Helvetica,sans-Serif" font-size="14.00" fill="#102027">token B</text>
<text xml:space="preserve" text-anchor="middle" x="97.88" y="-84.7" font-family="Helvetica,sans-Serif" font-size="14.00" fill="#102027">cost 1.2 · arc 3</text>
</g>
<!-- t2&#45;&gt;pack -->
<g id="edge2" class="edge">
<title>t2&#45;&gt;pack</title>
<path fill="none" stroke="#6a1b9a" stroke-width="1.3" d="M158.19,-98C175.17,-98 194.28,-98 213.44,-98"/>
<polygon fill="#6a1b9a" stroke="#6a1b9a" stroke-width="1.3" points="213.39,-101.5 223.39,-98 213.39,-94.5 213.39,-101.5"/>
</g>
<!-- t3 -->
<g id="node3" class="node">
<title>t3</title>
<path fill="#e1bee7" stroke="#6a1b9a" stroke-width="1.4" d="M145.62,-58.25C145.62,-58.25 50.12,-58.25 50.12,-58.25 44.12,-58.25 38.12,-52.25 38.12,-46.25 38.12,-46.25 38.12,-27.75 38.12,-27.75 38.12,-21.75 44.12,-15.75 50.12,-15.75 50.12,-15.75 145.62,-15.75 145.62,-15.75 151.62,-15.75 157.62,-21.75 157.62,-27.75 157.62,-27.75 157.62,-46.25 157.62,-46.25 157.62,-52.25 151.62,-58.25 145.62,-58.25"/>
<text xml:space="preserve" text-anchor="middle" x="97.88" y="-40.95" font-family="Helvetica,sans-Serif" font-size="14.00" fill="#102027">token C</text>
<text xml:space="preserve" text-anchor="middle" x="97.88" y="-23.7" font-family="Helvetica,sans-Serif" font-size="14.00" fill="#102027">cost 0.3 · arc 9</text>
</g>
<!-- t3&#45;&gt;pack -->
<g id="edge3" class="edge">
<title>t3&#45;&gt;pack</title>
<path fill="none" stroke="#6a1b9a" stroke-width="1.3" d="M158.19,-52.63C175.33,-57.14 194.64,-62.23 213.99,-67.33"/>
<polygon fill="#6a1b9a" stroke="#6a1b9a" stroke-width="1.3" points="212.9,-70.66 223.46,-69.83 214.68,-63.89 212.9,-70.66"/>
</g>
<!-- order -->
<g id="node5" class="node">
<title>order</title>
<path fill="#f3e5f5" stroke="#6a1b9a" stroke-width="1.4" d="M711,-127.88C711,-127.88 540.5,-127.88 540.5,-127.88 534.5,-127.88 528.5,-121.88 528.5,-115.88 528.5,-115.88 528.5,-80.12 528.5,-80.12 528.5,-74.12 534.5,-68.12 540.5,-68.12 540.5,-68.12 711,-68.12 711,-68.12 717,-68.12 723,-74.12 723,-80.12 723,-80.12 723,-115.88 723,-115.88 723,-121.88 717,-127.88 711,-127.88"/>
<text xml:space="preserve" text-anchor="middle" x="625.75" y="-110.58" font-family="Helvetica,sans-Serif" font-size="14.00" fill="#102027">float→uint order</text>
<text xml:space="preserve" text-anchor="middle" x="625.75" y="-93.33" font-family="Helvetica,sans-Serif" font-size="14.00" fill="#102027">(cost⊕0x80000000 if ≥0,</text>
<text xml:space="preserve" text-anchor="middle" x="625.75" y="-76.08" font-family="Helvetica,sans-Serif" font-size="14.00" fill="#102027">else ¬cost_bits)</text>
</g>
<!-- pack&#45;&gt;order -->
<g id="edge4" class="edge">
<title>pack&#45;&gt;order</title>
<path fill="none" stroke="#6a1b9a" stroke-width="1.3" d="M437.52,-98C463.07,-98 490.45,-98 516.16,-98"/>
<polygon fill="#6a1b9a" stroke="#6a1b9a" stroke-width="1.3" points="515.87,-101.5 525.87,-98 515.87,-94.5 515.87,-101.5"/>
<text xml:space="preserve" text-anchor="middle" x="482.75" y="-101.25" font-family="Helvetica,sans-Serif" font-size="10.00" fill="#37474f">64&#45;bit word</text>
</g>
<!-- amin -->
<g id="node6" class="node">
<title>amin</title>
<path fill="#ce93d8" stroke="#4a148c" stroke-width="1.4" d="M940.75,-119.25C940.75,-119.25 829.5,-119.25 829.5,-119.25 823.5,-119.25 817.5,-113.25 817.5,-107.25 817.5,-107.25 817.5,-88.75 817.5,-88.75 817.5,-82.75 823.5,-76.75 829.5,-76.75 829.5,-76.75 940.75,-76.75 940.75,-76.75 946.75,-76.75 952.75,-82.75 952.75,-88.75 952.75,-88.75 952.75,-107.25 952.75,-107.25 952.75,-113.25 946.75,-119.25 940.75,-119.25"/>
<text xml:space="preserve" text-anchor="middle" x="885.12" y="-101.95" font-family="Helvetica,sans-Serif" font-size="14.00" fill="#102027">atomicMin</text>
<text xml:space="preserve" text-anchor="middle" x="885.12" y="-84.7" font-family="Helvetica,sans-Serif" font-size="14.00" fill="#102027">state_to_token[q]</text>
</g>
<!-- order&#45;&gt;amin -->
<g id="edge5" class="edge">
<title>order&#45;&gt;amin</title>
<path fill="none" stroke="#6a1b9a" stroke-width="1.3" d="M723.69,-98C750.5,-98 779.28,-98 804.96,-98"/>
<polygon fill="#6a1b9a" stroke="#6a1b9a" stroke-width="1.3" points="804.94,-101.5 814.94,-98 804.94,-94.5 804.94,-101.5"/>
<text xml:space="preserve" text-anchor="middle" x="770.25" y="-101.25" font-family="Helvetica,sans-Serif" font-size="10.00" fill="#37474f">ordered u64</text>
</g>
<!-- win -->
<g id="node7" class="node">
<title>win</title>
<path fill="#c8e6c9" stroke="#2e7d32" stroke-width="1.4" d="M1191.5,-150.25C1191.5,-150.25 1081.75,-150.25 1081.75,-150.25 1075.75,-150.25 1069.75,-144.25 1069.75,-138.25 1069.75,-138.25 1069.75,-119.75 1069.75,-119.75 1069.75,-113.75 1075.75,-107.75 1081.75,-107.75 1081.75,-107.75 1191.5,-107.75 1191.5,-107.75 1197.5,-107.75 1203.5,-113.75 1203.5,-119.75 1203.5,-119.75 1203.5,-138.25 1203.5,-138.25 1203.5,-144.25 1197.5,-150.25 1191.5,-150.25"/>
<text xml:space="preserve" text-anchor="middle" x="1136.62" y="-132.95" font-family="Helvetica,sans-Serif" font-size="14.00" fill="#102027">survivor: token C</text>
<text xml:space="preserve" text-anchor="middle" x="1136.62" y="-115.7" font-family="Helvetica,sans-Serif" font-size="14.00" fill="#102027">cost 0.3 · arc 9</text>
</g>
<!-- amin&#45;&gt;win -->
<g id="edge6" class="edge">
<title>amin&#45;&gt;win</title>
<path fill="none" stroke="#2e7d32" stroke-width="2" d="M953.31,-106.35C985.04,-110.29 1023.13,-115.02 1056.27,-119.14"/>
<polygon fill="#2e7d32" stroke="#2e7d32" stroke-width="2" points="1055.82,-122.61 1066.18,-120.37 1056.68,-115.66 1055.82,-122.61"/>
<text xml:space="preserve" text-anchor="middle" x="992.88" y="-116.75" font-family="Helvetica,sans-Serif" font-size="10.00" fill="#37474f">min wins</text>
</g>
<!-- buf -->
<g id="node8" class="node">
<title>buf</title>
<polygon fill="#fff59d" stroke="#f9a825" stroke-width="1.4" points="1234.25,-89.25 1033,-89.25 1033,-46.75 1240.25,-46.75 1240.25,-83.25 1234.25,-89.25"/>
<polyline fill="none" stroke="#f9a825" stroke-width="1.4" points="1234.25,-89.25 1234.25,-83.25"/>
<polyline fill="none" stroke="#f9a825" stroke-width="1.4" points="1240.25,-83.25 1234.25,-83.25"/>
<text xml:space="preserve" text-anchor="middle" x="1136.62" y="-71.95" font-family="Helvetica,sans-Serif" font-size="14.00" fill="#102027">per&#45;arc buffer[arc_id]</text>
<text xml:space="preserve" text-anchor="middle" x="1136.62" y="-54.7" font-family="Helvetica,sans-Serif" font-size="14.00" fill="#102027">← full token (no contention)</text>
</g>
<!-- amin&#45;&gt;buf -->
<g id="edge7" class="edge">
<title>amin&#45;&gt;buf</title>
<path fill="none" stroke="#6a1b9a" stroke-width="1.3" stroke-dasharray="5,2" d="M953.31,-89.92C974.18,-87.41 997.8,-84.57 1020.95,-81.79"/>
<polygon fill="#6a1b9a" stroke="#6a1b9a" stroke-width="1.3" points="1021.17,-85.29 1030.68,-80.62 1020.33,-78.34 1021.17,-85.29"/>
<text xml:space="preserve" text-anchor="middle" x="992.88" y="-90.69" font-family="Helvetica,sans-Serif" font-size="10.00" fill="#37474f">on win</text>
</g>
</g>
</svg>
