<?xml version="1.0" encoding="UTF-8" standalone="no"?>
<!DOCTYPE svg PUBLIC "-//W3C//DTD SVG 1.1//EN"
 "http://www.w3.org/Graphics/SVG/1.1/DTD/svg11.dtd">
<!-- Generated by graphviz version 14.1.5 (0)
 -->
<!-- Title: gpu_csr_layout Pages: 1 -->
<svg width="702pt" height="339pt"
 viewBox="0.00 0.00 702.00 339.00" xmlns="http://www.w3.org/2000/svg" xmlns:xlink="http://www.w3.org/1999/xlink">
<g id="graph0" class="graph" transform="scale(1 1) rotate(0) translate(4 335.15)">
<title>gpu_csr_layout</title>
<polygon fill="#ffffff" stroke="none" points="-4,4 -4,-335.15 698,-335.15 698,4 -4,4"/>
<text xml:space="preserve" text-anchor="start" x="8" y="-315.8" font-family="Helvetica,sans-Serif" font-weight="bold" font-size="13.00">CSR WFST layout</text>
<text xml:space="preserve" text-anchor="start" x="131.75" y="-315.8" font-family="Helvetica,sans-Serif" font-size="13.00"> — row offsets index contiguous arc &amp; label slices (M_fst = 12·∣Q∣ + 8·∣E∣ + 4·∣E∣)</text>
<!-- states -->
<g id="node1" class="node">
<title>states</title>
<polygon fill="#d1c4e9" stroke="#6a1b9a" stroke-width="1.4" points="98.75,-238.4 98.75,-306.15 595.25,-306.15 595.25,-238.4 98.75,-238.4"/>
<text xml:space="preserve" text-anchor="middle" x="347" y="-288.85" font-family="Helvetica,sans-Serif" font-size="14.00" fill="#102027">State array — 12 bytes/state</text>
<polyline fill="none" stroke="#6a1b9a" stroke-width="1.4" points="98.75,-280.9 595.25,-280.9"/>
<text xml:space="preserve" text-anchor="middle" x="178" y="-263.6" font-family="Helvetica,sans-Serif" font-size="14.00" fill="#102027">state 0</text>
<text xml:space="preserve" text-anchor="middle" x="178" y="-246.35" font-family="Helvetica,sans-Serif" font-size="14.00" fill="#102027">start:0 · cnt:2 · fin:∞</text>
<polyline fill="none" stroke="#6a1b9a" stroke-width="1.4" points="257.25,-238.4 257.25,-280.9"/>
<text xml:space="preserve" text-anchor="middle" x="341.75" y="-263.6" font-family="Helvetica,sans-Serif" font-size="14.00" fill="#102027">state 1</text>
<text xml:space="preserve" text-anchor="middle" x="341.75" y="-246.35" font-family="Helvetica,sans-Serif" font-size="14.00" fill="#102027">start:2 · cnt:1 · fin:0.0</text>
<polyline fill="none" stroke="#6a1b9a" stroke-width="1.4" points="426.25,-238.4 426.25,-280.9"/>
<text xml:space="preserve" text-anchor="middle" x="510.75" y="-263.6" font-family="Helvetica,sans-Serif" font-size="14.00" fill="#102027">state 2</text>
<text xml:space="preserve" text-anchor="middle" x="510.75" y="-246.35" font-family="Helvetica,sans-Serif" font-size="14.00" fill="#102027">start:3 · cnt:0 · fin:0.0</text>
</g>
<!-- arcs -->
<g id="node2" class="node">
<title>arcs</title>
<polygon fill="#e1bee7" stroke="#6a1b9a" stroke-width="1.4" points="154.5,-108.15 154.5,-175.9 373.5,-175.9 373.5,-108.15 154.5,-108.15"/>
<text xml:space="preserve" text-anchor="middle" x="264" y="-158.6" font-family="Helvetica,sans-Serif" font-size="14.00" fill="#102027">Arc array — 8 bytes/arc</text>
<polyline fill="none" stroke="#6a1b9a" stroke-width="1.4" points="154.5,-150.65 373.5,-150.65"/>
<text xml:space="preserve" text-anchor="middle" x="191" y="-133.35" font-family="Helvetica,sans-Serif" font-size="14.00" fill="#102027">arc0</text>
<text xml:space="preserve" text-anchor="middle" x="191" y="-116.1" font-family="Helvetica,sans-Serif" font-size="14.00" fill="#102027">→1 · 0.5</text>
<polyline fill="none" stroke="#6a1b9a" stroke-width="1.4" points="227.5,-108.15 227.5,-150.65"/>
<text xml:space="preserve" text-anchor="middle" x="264" y="-133.35" font-family="Helvetica,sans-Serif" font-size="14.00" fill="#102027">arc1</text>
<text xml:space="preserve" text-anchor="middle" x="264" y="-116.1" font-family="Helvetica,sans-Serif" font-size="14.00" fill="#102027">→2 · 1.2</text>
<polyline fill="none" stroke="#6a1b9a" stroke-width="1.4" points="300.5,-108.15 300.5,-150.65"/>
<text xml:space="preserve" text-anchor="middle" x="337" y="-133.35" font-family="Helvetica,sans-Serif" font-size="14.00" fill="#102027">arc2</text>
<text xml:space="preserve" text-anchor="middle" x="337" y="-116.1" font-family="Helvetica,sans-Serif" font-size="14.00" fill="#102027">→2 · 0.3</text>
</g>
<!-- states&#45;&gt;arcs -->
<g id="edge1" class="edge">
<title>states:s0&#45;&gt;arcs:a0</title>
<path fill="none" stroke="#6a1b9a" stroke-width="1.3" d="M178,-237.9C178,-193.67 118.84,-141.75 141.74,-131.29"/>
<polygon fill="#6a1b9a" stroke="#6a1b9a" stroke-width="1.3" points="142.24,-134.75 151.56,-129.71 141.13,-127.84 142.24,-134.75"/>
<text xml:space="preserve" text-anchor="middle" x="205.9" y="-210.4" font-family="Helvetica,sans-Serif" font-size="10.00" fill="#37474f">arc_start=0</text>
<text xml:space="preserve" text-anchor="middle" x="205.9" y="-197.65" font-family="Helvetica,sans-Serif" font-size="10.00" fill="#37474f">arc_count=2</text>
</g>
<!-- states&#45;&gt;arcs -->
<g id="edge2" class="edge">
<title>states:s1&#45;&gt;arcs:a2</title>
<path fill="none" stroke="#6a1b9a" stroke-width="1.3" d="M341.75,-237.9C341.75,-207.14 365.92,-206.21 373.5,-176.4 377.08,-162.32 386.27,-145.09 384.51,-135.91"/>
<polygon fill="#6a1b9a" stroke="#6a1b9a" stroke-width="1.3" points="386.44,-132.99 376.15,-130.47 382.62,-138.86 386.44,-132.99"/>
<text xml:space="preserve" text-anchor="middle" x="395.69" y="-210.4" font-family="Helvetica,sans-Serif" font-size="10.00" fill="#37474f">arc_start=2</text>
<text xml:space="preserve" text-anchor="middle" x="395.69" y="-197.65" font-family="Helvetica,sans-Serif" font-size="10.00" fill="#37474f">arc_count=1</text>
</g>
<!-- labels -->
<g id="node3" class="node">
<title>labels</title>
<polygon fill="#f3e5f5" stroke="#6a1b9a" stroke-width="1.4" points="167.12,-7.9 167.12,-58.4 360.88,-58.4 360.88,-7.9 167.12,-7.9"/>
<text xml:space="preserve" text-anchor="middle" x="264" y="-41.1" font-family="Helvetica,sans-Serif" font-size="14.00" fill="#102027">Label array — 4 bytes/arc</text>
<polyline fill="none" stroke="#6a1b9a" stroke-width="1.4" points="167.12,-33.15 360.88,-33.15"/>
<text xml:space="preserve" text-anchor="middle" x="199.38" y="-15.85" font-family="Helvetica,sans-Serif" font-size="14.00" fill="#102027">i:a</text>
<polyline fill="none" stroke="#6a1b9a" stroke-width="1.4" points="231.62,-7.9 231.62,-33.15"/>
<text xml:space="preserve" text-anchor="middle" x="264.25" y="-15.85" font-family="Helvetica,sans-Serif" font-size="14.00" fill="#102027">i:b</text>
<polyline fill="none" stroke="#6a1b9a" stroke-width="1.4" points="296.88,-7.9 296.88,-33.15"/>
<text xml:space="preserve" text-anchor="middle" x="328.75" y="-15.85" font-family="Helvetica,sans-Serif" font-size="14.00" fill="#102027">i:c</text>
</g>
<!-- arcs&#45;&gt;labels -->
<g id="edge3" class="edge">
<title>arcs:a0&#45;&gt;labels:l0</title>
<path fill="none" stroke="#6a1b9a" stroke-width="1.3" stroke-dasharray="5,2" d="M191,-107.65C191,-83.52 172.88,-82.33 167.12,-58.9 164.68,-48.93 158.64,-37.07 157.93,-29.2"/>
<polygon fill="#6a1b9a" stroke="#6a1b9a" stroke-width="1.3" points="160.45,-31.62 164.77,-21.95 155.36,-26.82 160.45,-31.62"/>
<text xml:space="preserve" text-anchor="middle" x="214.41" y="-80.15" font-family="Helvetica,sans-Serif" font-size="10.00" fill="#37474f">same index</text>
</g>
<!-- arcs&#45;&gt;labels -->
<g id="edge4" class="edge">
<title>arcs:a1&#45;&gt;labels:l1</title>
<path fill="none" stroke="#6a1b9a" stroke-width="1.3" stroke-dasharray="5,2" d="M264,-107.65C264,-80.03 293.22,-89.1 318,-76.9 336.54,-67.77 349.43,-76.11 360.88,-58.9 373.42,-40.02 376.82,-24.01 360.88,-7.9 354.95,-1.91 298.76,1.91 274.89,-1.92"/>
<polygon fill="#6a1b9a" stroke="#6a1b9a" stroke-width="1.3" points="273.61,1.34 266.03,-6.06 276.57,-5 273.61,1.34"/>
</g>
<!-- arcs&#45;&gt;labels -->
<g id="edge5" class="edge">
<title>arcs:a2&#45;&gt;labels:l2</title>
<path fill="none" stroke="#6a1b9a" stroke-width="1.3" stroke-dasharray="5,2" d="M337,-107.65C337,-83.57 354.93,-82.29 360.62,-58.9 363.05,-48.92 369.09,-37.06 369.81,-29.19"/>
<polygon fill="#6a1b9a" stroke="#6a1b9a" stroke-width="1.3" points="372.39,-26.82 362.98,-21.95 367.29,-31.63 372.39,-26.82"/>
</g>
</g>
</svg>
