<?xml version="1.0" encoding="UTF-8" standalone="no"?>
<!DOCTYPE svg PUBLIC "-//W3C//DTD SVG 1.1//EN"
 "http://www.w3.org/Graphics/SVG/1.1/DTD/svg11.dtd">
<!-- Generated by graphviz version 14.1.5 (0)
 -->
<!-- Title: simd_lanes Pages: 1 -->
<svg width="537pt" height="814pt"
 viewBox="0.00 0.00 537.00 814.00" xmlns="http://www.w3.org/2000/svg" xmlns:xlink="http://www.w3.org/1999/xlink">
<g id="graph0" class="graph" transform="scale(1 1) rotate(0) translate(4 810.41)">
<title>simd_lanes</title>
<polygon fill="#ffffff" stroke="none" points="-4,4 -4,-810.41 533,-810.41 533,4 -4,4"/>
<text xml:space="preserve" text-anchor="start" x="8" y="-791.06" font-family="Helvetica,sans-Serif" font-weight="bold" font-size="13.00">SIMD lane reduction</text>
<text xml:space="preserve" text-anchor="start" x="155" y="-791.06" font-family="Helvetica,sans-Serif" font-size="13.00"> — simd_tropical_reduce_min, AVX2 (4 lanes), ⊕ = min</text>
<!-- input -->
<g id="node1" class="node">
<title>input</title>
<polygon fill="#eceff1" stroke="#455a64" stroke-width="1.4" points="56,-730.91 56,-781.41 473,-781.41 473,-730.91 56,-730.91"/>
<text xml:space="preserve" text-anchor="middle" x="264.5" y="-764.11" font-family="Helvetica,sans-Serif" font-size="14.00" fill="#102027">input slice a[0..12]</text>
<polyline fill="none" stroke="#455a64" stroke-width="1.4" points="56,-756.16 473,-756.16"/>
<text xml:space="preserve" text-anchor="middle" x="72.62" y="-738.86" font-family="Helvetica,sans-Serif" font-size="14.00" fill="#102027">a0</text>
<polyline fill="none" stroke="#455a64" stroke-width="1.4" points="89.25,-730.91 89.25,-756.16"/>
<text xml:space="preserve" text-anchor="middle" x="105.88" y="-738.86" font-family="Helvetica,sans-Serif" font-size="14.00" fill="#102027">a1</text>
<polyline fill="none" stroke="#455a64" stroke-width="1.4" points="122.5,-730.91 122.5,-756.16"/>
<text xml:space="preserve" text-anchor="middle" x="139.12" y="-738.86" font-family="Helvetica,sans-Serif" font-size="14.00" fill="#102027">a2</text>
<polyline fill="none" stroke="#455a64" stroke-width="1.4" points="155.75,-730.91 155.75,-756.16"/>
<text xml:space="preserve" text-anchor="middle" x="172.38" y="-738.86" font-family="Helvetica,sans-Serif" font-size="14.00" fill="#102027">a3</text>
<polyline fill="none" stroke="#455a64" stroke-width="1.4" points="189,-730.91 189,-756.16"/>
<text xml:space="preserve" text-anchor="middle" x="205.62" y="-738.86" font-family="Helvetica,sans-Serif" font-size="14.00" fill="#102027">a4</text>
<polyline fill="none" stroke="#455a64" stroke-width="1.4" points="222.25,-730.91 222.25,-756.16"/>
<text xml:space="preserve" text-anchor="middle" x="238.88" y="-738.86" font-family="Helvetica,sans-Serif" font-size="14.00" fill="#102027">a5</text>
<polyline fill="none" stroke="#455a64" stroke-width="1.4" points="255.5,-730.91 255.5,-756.16"/>
<text xml:space="preserve" text-anchor="middle" x="272.12" y="-738.86" font-family="Helvetica,sans-Serif" font-size="14.00" fill="#102027">a6</text>
<polyline fill="none" stroke="#455a64" stroke-width="1.4" points="288.75,-730.91 288.75,-756.16"/>
<text xml:space="preserve" text-anchor="middle" x="305.38" y="-738.86" font-family="Helvetica,sans-Serif" font-size="14.00" fill="#102027">a7</text>
<polyline fill="none" stroke="#455a64" stroke-width="1.4" points="322,-730.91 322,-756.16"/>
<text xml:space="preserve" text-anchor="middle" x="338.62" y="-738.86" font-family="Helvetica,sans-Serif" font-size="14.00" fill="#102027">a8</text>
<polyline fill="none" stroke="#455a64" stroke-width="1.4" points="355.25,-730.91 355.25,-756.16"/>
<text xml:space="preserve" text-anchor="middle" x="371.88" y="-738.86" font-family="Helvetica,sans-Serif" font-size="14.00" fill="#102027">a9</text>
<polyline fill="none" stroke="#455a64" stroke-width="1.4" points="388.5,-730.91 388.5,-756.16"/>
<text xml:space="preserve" text-anchor="middle" x="409.62" y="-738.86" font-family="Helvetica,sans-Serif" font-size="14.00" fill="#102027">a10</text>
<polyline fill="none" stroke="#455a64" stroke-width="1.4" points="430.75,-730.91 430.75,-756.16"/>
<text xml:space="preserve" text-anchor="middle" x="451.88" y="-738.86" font-family="Helvetica,sans-Serif" font-size="14.00" fill="#102027">a11</text>
</g>
<!-- acc0 -->
<g id="node2" class="node">
<title>acc0</title>
<polygon fill="#e1bee7" stroke="#6a1b9a" stroke-width="1.4" points="191.62,-642.41 191.62,-692.91 337.38,-692.91 337.38,-642.41 191.62,-642.41"/>
<text xml:space="preserve" text-anchor="middle" x="264.5" y="-675.61" font-family="Helvetica,sans-Serif" font-size="14.00" fill="#102027">acc = (∞, ∞, ∞, ∞)</text>
<polyline fill="none" stroke="#6a1b9a" stroke-width="1.4" points="191.62,-667.66 337.38,-667.66"/>
<text xml:space="preserve" text-anchor="middle" x="209.62" y="-650.36" font-family="Helvetica,sans-Serif" font-size="14.00" fill="#102027">∞</text>
<polyline fill="none" stroke="#6a1b9a" stroke-width="1.4" points="227.62,-642.41 227.62,-667.66"/>
<text xml:space="preserve" text-anchor="middle" x="245.62" y="-650.36" font-family="Helvetica,sans-Serif" font-size="14.00" fill="#102027">∞</text>
<polyline fill="none" stroke="#6a1b9a" stroke-width="1.4" points="263.62,-642.41 263.62,-667.66"/>
<text xml:space="preserve" text-anchor="middle" x="282.12" y="-650.36" font-family="Helvetica,sans-Serif" font-size="14.00" fill="#102027">∞</text>
<polyline fill="none" stroke="#6a1b9a" stroke-width="1.4" points="300.62,-642.41 300.62,-667.66"/>
<text xml:space="preserve" text-anchor="middle" x="318.62" y="-650.36" font-family="Helvetica,sans-Serif" font-size="14.00" fill="#102027">∞</text>
</g>
<!-- input&#45;&gt;acc0 -->
<!-- acc1 -->
<g id="node3" class="node">
<title>acc1</title>
<polygon fill="#e1bee7" stroke="#6a1b9a" stroke-width="1.4" points="177,-541.41 177,-591.91 352,-591.91 352,-541.41 177,-541.41"/>
<text xml:space="preserve" text-anchor="middle" x="264.5" y="-574.61" font-family="Helvetica,sans-Serif" font-size="14.00" fill="#102027">acc ← min(acc, a[0..4])</text>
<polyline fill="none" stroke="#6a1b9a" stroke-width="1.4" points="177,-566.66 352,-566.66"/>
<text xml:space="preserve" text-anchor="middle" x="198.62" y="-549.36" font-family="Helvetica,sans-Serif" font-size="14.00" fill="#102027">a0</text>
<polyline fill="none" stroke="#6a1b9a" stroke-width="1.4" points="220.25,-541.41 220.25,-566.66"/>
<text xml:space="preserve" text-anchor="middle" x="242.38" y="-549.36" font-family="Helvetica,sans-Serif" font-size="14.00" fill="#102027">a1</text>
<polyline fill="none" stroke="#6a1b9a" stroke-width="1.4" points="264.5,-541.41 264.5,-566.66"/>
<text xml:space="preserve" text-anchor="middle" x="286.12" y="-549.36" font-family="Helvetica,sans-Serif" font-size="14.00" fill="#102027">a2</text>
<polyline fill="none" stroke="#6a1b9a" stroke-width="1.4" points="307.75,-541.41 307.75,-566.66"/>
<text xml:space="preserve" text-anchor="middle" x="329.88" y="-549.36" font-family="Helvetica,sans-Serif" font-size="14.00" fill="#102027">a3</text>
</g>
<!-- acc0&#45;&gt;acc1 -->
<g id="edge2" class="edge">
<title>acc0&#45;&gt;acc1</title>
<path fill="none" stroke="#6a1b9a" stroke-width="1.3" d="M264.5,-641.93C264.5,-630.47 264.5,-616.63 264.5,-604.01"/>
<polygon fill="#6a1b9a" stroke="#6a1b9a" stroke-width="1.3" points="268,-604.38 264.5,-594.38 261,-604.38 268,-604.38"/>
<text xml:space="preserve" text-anchor="middle" x="309.88" y="-613.46" font-family="Helvetica,sans-Serif" font-size="11.00" fill="#37474f">_mm256_min_pd</text>
</g>
<!-- acc2 -->
<g id="node4" class="node">
<title>acc2</title>
<polygon fill="#e1bee7" stroke="#6a1b9a" stroke-width="1.4" points="81,-440.41 81,-490.91 448,-490.91 448,-440.41 81,-440.41"/>
<text xml:space="preserve" text-anchor="middle" x="264.5" y="-473.61" font-family="Helvetica,sans-Serif" font-size="14.00" fill="#102027">acc ← min(acc, a[4..8])</text>
<polyline fill="none" stroke="#6a1b9a" stroke-width="1.4" points="81,-465.66 448,-465.66"/>
<text xml:space="preserve" text-anchor="middle" x="126.88" y="-448.36" font-family="Helvetica,sans-Serif" font-size="14.00" fill="#102027">min(a0,a4)</text>
<polyline fill="none" stroke="#6a1b9a" stroke-width="1.4" points="172.75,-440.41 172.75,-465.66"/>
<text xml:space="preserve" text-anchor="middle" x="218.62" y="-448.36" font-family="Helvetica,sans-Serif" font-size="14.00" fill="#102027">min(a1,a5)</text>
<polyline fill="none" stroke="#6a1b9a" stroke-width="1.4" points="264.5,-440.41 264.5,-465.66"/>
<text xml:space="preserve" text-anchor="middle" x="310.38" y="-448.36" font-family="Helvetica,sans-Serif" font-size="14.00" fill="#102027">min(a2,a6)</text>
<polyline fill="none" stroke="#6a1b9a" stroke-width="1.4" points="356.25,-440.41 356.25,-465.66"/>
<text xml:space="preserve" text-anchor="middle" x="402.12" y="-448.36" font-family="Helvetica,sans-Serif" font-size="14.00" fill="#102027">min(a3,a7)</text>
</g>
<!-- acc1&#45;&gt;acc2 -->
<g id="edge3" class="edge">
<title>acc1&#45;&gt;acc2</title>
<path fill="none" stroke="#6a1b9a" stroke-width="1.3" d="M264.5,-540.93C264.5,-529.47 264.5,-515.63 264.5,-503.01"/>
<polygon fill="#6a1b9a" stroke="#6a1b9a" stroke-width="1.3" points="268,-503.38 264.5,-493.38 261,-503.38 268,-503.38"/>
<text xml:space="preserve" text-anchor="middle" x="309.88" y="-512.46" font-family="Helvetica,sans-Serif" font-size="11.00" fill="#37474f">_mm256_min_pd</text>
</g>
<!-- acc1&#45;&gt;acc2 -->
<g id="edge7" class="edge">
<title>acc1&#45;&gt;acc2</title>
<path fill="none" stroke="#b0bec5" stroke-width="1.3" stroke-dasharray="5,2" d="M339,-540.97C345.88,-535.99 351.95,-530.03 356.5,-522.91 364.76,-509.97 358.29,-499.54 345.67,-491.35"/>
</g>
<!-- acc3 -->
<g id="node5" class="node">
<title>acc3</title>
<polygon fill="#e1bee7" stroke="#6a1b9a" stroke-width="1.4" points="172.5,-339.41 172.5,-389.91 356.5,-389.91 356.5,-339.41 172.5,-339.41"/>
<text xml:space="preserve" text-anchor="middle" x="264.5" y="-372.61" font-family="Helvetica,sans-Serif" font-size="14.00" fill="#102027">acc ← min(acc, a[8..12])</text>
<polyline fill="none" stroke="#6a1b9a" stroke-width="1.4" points="172.5,-364.66 356.5,-364.66"/>
<text xml:space="preserve" text-anchor="middle" x="195.38" y="-347.36" font-family="Helvetica,sans-Serif" font-size="14.00" fill="#102027">l0</text>
<polyline fill="none" stroke="#6a1b9a" stroke-width="1.4" points="218.25,-339.41 218.25,-364.66"/>
<text xml:space="preserve" text-anchor="middle" x="241.12" y="-347.36" font-family="Helvetica,sans-Serif" font-size="14.00" fill="#102027">l1</text>
<polyline fill="none" stroke="#6a1b9a" stroke-width="1.4" points="264,-339.41 264,-364.66"/>
<text xml:space="preserve" text-anchor="middle" x="286.88" y="-347.36" font-family="Helvetica,sans-Serif" font-size="14.00" fill="#102027">l2</text>
<polyline fill="none" stroke="#6a1b9a" stroke-width="1.4" points="309.75,-339.41 309.75,-364.66"/>
<text xml:space="preserve" text-anchor="middle" x="333.12" y="-347.36" font-family="Helvetica,sans-Serif" font-size="14.00" fill="#102027">l3</text>
</g>
<!-- acc2&#45;&gt;acc3 -->
<g id="edge4" class="edge">
<title>acc2&#45;&gt;acc3</title>
<path fill="none" stroke="#6a1b9a" stroke-width="1.3" d="M264.5,-439.93C264.5,-428.47 264.5,-414.63 264.5,-402.01"/>
<polygon fill="#6a1b9a" stroke="#6a1b9a" stroke-width="1.3" points="268,-402.38 264.5,-392.38 261,-402.38 268,-402.38"/>
<text xml:space="preserve" text-anchor="middle" x="309.88" y="-411.46" font-family="Helvetica,sans-Serif" font-size="11.00" fill="#37474f">_mm256_min_pd</text>
</g>
<!-- acc2&#45;&gt;acc3 -->
<g id="edge8" class="edge">
<title>acc2&#45;&gt;acc3</title>
<path fill="none" stroke="#b0bec5" stroke-width="1.3" stroke-dasharray="5,2" d="M339,-439.97C345.88,-434.99 351.95,-429.03 356.5,-421.91 364.76,-408.97 358.29,-398.54 345.67,-390.35"/>
</g>
<!-- fold -->
<g id="node6" class="node">
<title>fold</title>
<polygon fill="#e1bee7" stroke="#2e7d32" stroke-width="2" points="178.5,-238.41 178.5,-288.91 350.5,-288.91 350.5,-238.41 178.5,-238.41"/>
<text xml:space="preserve" text-anchor="middle" x="264.5" y="-271.61" font-family="Helvetica,sans-Serif" font-size="14.00" fill="#102027">horizontal fold (scalar)</text>
<polyline fill="none" stroke="#2e7d32" stroke-width="2" points="178.5,-263.66 350.5,-263.66"/>
<text xml:space="preserve" text-anchor="middle" x="264.5" y="-246.36" font-family="Helvetica,sans-Serif" font-size="14.00" fill="#102027">min(l0, l1, l2, l3)</text>
</g>
<!-- acc3&#45;&gt;fold -->
<g id="edge5" class="edge">
<title>acc3&#45;&gt;fold</title>
<path fill="none" stroke="#6a1b9a" stroke-width="1.3" d="M264.5,-338.93C264.5,-327.68 264.5,-314.12 264.5,-301.69"/>
<polygon fill="#6a1b9a" stroke="#6a1b9a" stroke-width="1.3" points="268,-301.72 264.5,-291.72 261,-301.72 268,-301.72"/>
<text xml:space="preserve" text-anchor="middle" x="297.12" y="-310.46" font-family="Helvetica,sans-Serif" font-size="11.00" fill="#37474f">store + min</text>
</g>
<!-- out -->
<g id="node7" class="node">
<title>out</title>
<ellipse fill="#c8e6c9" stroke="#2e7d32" stroke-width="2" cx="264.5" cy="-100.45" rx="96.45" ry="96.45"/>
<ellipse fill="none" stroke="#2e7d32" stroke-width="2" cx="264.5" cy="-100.45" rx="100.45" ry="100.45"/>
<text xml:space="preserve" text-anchor="middle" x="264.5" y="-95.78" font-family="Helvetica,sans-Serif" font-size="14.00" fill="#102027">result\nscalar f64</text>
</g>
<!-- fold&#45;&gt;out -->
<g id="edge6" class="edge">
<title>fold&#45;&gt;out</title>
<path fill="none" stroke="#6a1b9a" stroke-width="1.3" d="M264.5,-237.47C264.5,-230.39 264.5,-222.2 264.5,-213.43"/>
<polygon fill="#6a1b9a" stroke="#6a1b9a" stroke-width="1.3" points="268,-213.57 264.5,-203.57 261,-213.57 268,-213.57"/>
</g>
</g>
</svg>
