<svg xmlns="http://www.w3.org/2000/svg" xmlns:xlink="http://www.w3.org/1999/xlink" contentStyleType="text/css" data-diagram-type="ACTIVITY" height="637px" preserveAspectRatio="none" style="width:1026px;height:637px;background:#FFFFFF;" version="1.1" viewBox="0 0 1026 637" width="1026px" zoomAndPan="magnify"><?plantuml $version$?><defs/><g><g class="title" data-source-line="23"><text fill="#000000" font-family="sans-serif" font-size="14" font-weight="700" lengthAdjust="spacing" textLength="175.7833" x="424.5353" y="34.9659">SIMD ISA-dispatch ladder</text><text fill="#000000" font-family="sans-serif" font-size="11" font-style="italic" font-weight="700" lengthAdjust="spacing" textLength="455.2097" x="284.8221" y="50.8268">SimdCapability::detect() picks the widest lane width; each kernel falls through to scalar</text></g><rect fill="#FFFFCC" height="65.86" rx="2.5" ry="2.5" style="stroke:#FFDD88;stroke-width:3;" width="995.8538" x="13" y="68.0498"/><text fill="#000000" font-family="monospace" font-size="10" lengthAdjust="spacing" textLength="534" x="20" y="80.6698">This&#160;syntax&#160;is&#160;deprecated,&#160;you&#160;must&#160;add&#160;&lt;&lt;#E1BEE7&gt;&gt;&#160;at&#160;the&#160;end&#160;of&#160;the&#160;line,&#160;after&#160;the&#160;';'</text><text fill="#000000" font-family="monospace" font-size="10" lengthAdjust="spacing" textLength="534" x="20" y="104.2898">This&#160;syntax&#160;is&#160;deprecated,&#160;you&#160;must&#160;add&#160;&lt;&lt;#ECEFF1&gt;&gt;&#160;at&#160;the&#160;end&#160;of&#160;the&#160;line,&#160;after&#160;the&#160;';'</text><text fill="#000000" font-family="monospace" font-size="10" lengthAdjust="spacing" textLength="534" x="20" y="127.9098">This&#160;syntax&#160;is&#160;deprecated,&#160;you&#160;must&#160;add&#160;&lt;&lt;#C8E6C9&gt;&gt;&#160;at&#160;the&#160;end&#160;of&#160;the&#160;line,&#160;after&#160;the&#160;';'</text><ellipse cx="515.9269" cy="150.9098" fill="#222222" rx="10" ry="10" style="stroke:#222222;stroke-width:1;"/><path d="M608.1833,176.3758 L608.1833,195.0818 L588.1833,199.0818 L608.1833,203.0818 L608.1833,221.7878 A0,0 0 0 0 608.1833,221.7878 L989.7575,221.7878 A0,0 0 0 0 989.7575,221.7878 L989.7575,186.3758 L979.7575,176.3758 L608.1833,176.3758 A0,0 0 0 0 608.1833,176.3758" fill="#ECEFF1" style="stroke:#455A64;stroke-width:0.5;"/><path d="M979.7575,176.3758 L979.7575,186.3758 L989.7575,186.3758 L979.7575,176.3758" fill="#ECEFF1" style="stroke:#455A64;stroke-width:0.5;"/><text fill="#000000" font-family="sans-serif" font-size="13" lengthAdjust="spacing" textLength="222.4562" x="683.2424" y="195.2728">vector_width = f64 lanes per register</text><text fill="#000000" font-family="sans-serif" font-size="13" lengthAdjust="spacing" textLength="360.5742" x="614.1833" y="212.9788">AVX-512 &#8594; 8 &#183; AVX2 &#8594; 4 &#183; SSE4.2 &#8594; 2 &#183; NEON &#8594; 2 &#183; scalar &#8594; 1</text><rect fill="#E1BEE7" height="36.3441" rx="12.5" ry="12.5" style="stroke:#6A1B9A;stroke-width:0.5;" width="144.5129" x="443.6705" y="180.9098"/><text fill="#102027" font-family="sans-serif" font-size="12" lengthAdjust="spacing" textLength="124.5129" x="453.6705" y="203.7379">slice pair (a, b) : &amp;[f64]</text><polygon fill="#E1BEE7" points="37,241.7878,224.7466,241.7878,236.7466,253.7878,224.7466,265.7878,37,265.7878,25,253.7878,37,241.7878" style="stroke:#6A1B9A;stroke-width:0.5;stroke-linejoin:miter;stroke-miterlimit:10;"/><text fill="#000000" font-family="sans-serif" font-size="11" lengthAdjust="spacing" textLength="17.0829" x="134.8733" y="277.5468">yes</text><text fill="#102027" font-family="sans-serif" font-size="11" lengthAdjust="spacing" textLength="187.7466" x="37" y="258.0558">is_x86_feature_detected!("avx512f")?</text><rect fill="#E1BEE7" height="52.6882" rx="12.5" ry="12.5" style="stroke:#6A1B9A;stroke-width:0.5;" width="114.4527" x="73.6469" y="300.7697"/><text fill="#102027" font-family="sans-serif" font-size="12" lengthAdjust="spacing" textLength="84.8886" x="88.429" y="323.5978">AVX-512 kernel</text><text fill="#102027" font-family="sans-serif" font-size="12" lengthAdjust="spacing" textLength="94.4527" x="83.6469" y="339.9419">8 lanes / register</text><polygon fill="#E1BEE7" points="268.7466,241.7878,440.1252,241.7878,452.1252,253.7878,440.1252,265.7878,268.7466,265.7878,256.7466,253.7878,268.7466,241.7878" style="stroke:#6A1B9A;stroke-width:0.5;stroke-linejoin:miter;stroke-miterlimit:10;"/><text fill="#000000" font-family="sans-serif" font-size="11" lengthAdjust="spacing" textLength="17.0829" x="358.4359" y="277.5468">yes</text><text fill="#102027" font-family="sans-serif" font-size="11" lengthAdjust="spacing" textLength="171.3787" x="268.7466" y="258.0558">is_x86_feature_detected!("avx2")?</text><rect fill="#E1BEE7" height="52.6882" rx="12.5" ry="12.5" style="stroke:#6A1B9A;stroke-width:0.5;" width="114.4527" x="297.2095" y="300.7697"/><text fill="#102027" font-family="sans-serif" font-size="12" lengthAdjust="spacing" textLength="67.2965" x="320.7877" y="323.5978">AVX2 kernel</text><text fill="#102027" font-family="sans-serif" font-size="12" lengthAdjust="spacing" textLength="94.4527" x="307.2095" y="339.9419">4 lanes / register</text><polygon fill="#E1BEE7" points="484.1252,241.7878,663.9079,241.7878,675.9079,253.7878,663.9079,265.7878,484.1252,265.7878,472.1252,253.7878,484.1252,241.7878" style="stroke:#6A1B9A;stroke-width:0.5;stroke-linejoin:miter;stroke-miterlimit:10;"/><text fill="#000000" font-family="sans-serif" font-size="11" lengthAdjust="spacing" textLength="17.0829" x="578.0166" y="277.5468">yes</text><text fill="#102027" font-family="sans-serif" font-size="11" lengthAdjust="spacing" textLength="179.7826" x="484.1252" y="258.0558">is_x86_feature_detected!("sse4.2")?</text><rect fill="#E1BEE7" height="52.6882" rx="12.5" ry="12.5" style="stroke:#6A1B9A;stroke-width:0.5;" width="114.4527" x="516.7902" y="300.7697"/><text fill="#102027" font-family="sans-serif" font-size="12" lengthAdjust="spacing" textLength="75.3245" x="536.3543" y="323.5978">SSE4.2 kernel</text><text fill="#102027" font-family="sans-serif" font-size="12" lengthAdjust="spacing" textLength="94.4527" x="526.7902" y="339.9419">2 lanes / register</text><polygon fill="#E1BEE7" points="707.9079,241.7878,834.517,241.7878,846.517,253.7878,834.517,265.7878,707.9079,265.7878,695.9079,253.7878,707.9079,241.7878" style="stroke:#6A1B9A;stroke-width:0.5;stroke-linejoin:miter;stroke-miterlimit:10;"/><text fill="#000000" font-family="sans-serif" font-size="11" lengthAdjust="spacing" textLength="17.0829" x="775.2124" y="277.5468">yes</text><text fill="#102027" font-family="sans-serif" font-size="11" lengthAdjust="spacing" textLength="126.6091" x="707.9079" y="258.0558">target_arch = "aarch64"?</text><text fill="#000000" font-family="sans-serif" font-size="11" lengthAdjust="spacing" textLength="26.4548" x="846.517" y="250.5649">none</text><rect fill="#E1BEE7" height="52.6882" rx="12.5" ry="12.5" style="stroke:#6A1B9A;stroke-width:0.5;" width="114.4527" x="713.9861" y="300.7697"/><text fill="#102027" font-family="sans-serif" font-size="12" lengthAdjust="spacing" textLength="72.8165" x="734.8042" y="323.5978">NEON kernel</text><text fill="#102027" font-family="sans-serif" font-size="12" lengthAdjust="spacing" textLength="94.4527" x="723.9861" y="339.9419">2 lanes / register</text><rect fill="#E1BEE7" height="52.6882" rx="12.5" ry="12.5" style="stroke:#6A1B9A;stroke-width:0.5;" width="140.3369" x="866.517" y="296.2788"/><text fill="#102027" font-family="sans-serif" font-size="12" lengthAdjust="spacing" textLength="79.4766" x="896.9471" y="319.1069">scalar fallback</text><text fill="#102027" font-family="sans-serif" font-size="12" lengthAdjust="spacing" textLength="120.3369" x="876.517" y="335.451">1 lane (portable loop)</text><rect fill="#E1BEE7" height="52.6882" rx="12.5" ry="12.5" style="stroke:#6A1B9A;stroke-width:0.5;" width="190.7765" x="420.5387" y="393.458"/><text fill="#102027" font-family="sans-serif" font-size="12" lengthAdjust="spacing" textLength="170.7765" x="430.5387" y="416.286">process &#8970;n / width&#8971; full vectors</text><text fill="#102027" font-family="sans-serif" font-size="12" lengthAdjust="spacing" textLength="168.9944" x="431.4297" y="432.6302">with &#8853; (min / log-add) or &#8855; (+)</text><rect fill="#E1BEE7" height="52.6882" rx="12.5" ry="12.5" style="stroke:#6A1B9A;stroke-width:0.5;" width="208.7133" x="411.5702" y="466.1462"/><text fill="#102027" font-family="sans-serif" font-size="12" lengthAdjust="spacing" textLength="188.7133" x="421.5702" y="488.9743">handle n mod width tail elements</text><text fill="#102027" font-family="sans-serif" font-size="12" lengthAdjust="spacing" textLength="46.6563" x="492.5987" y="505.3184">in scalar</text><rect fill="#E1BEE7" height="36.3441" rx="12.5" ry="12.5" style="stroke:#6A1B9A;stroke-width:0.5;" width="145.7129" x="443.0705" y="538.8344"/><text fill="#102027" font-family="sans-serif" font-size="12" lengthAdjust="spacing" textLength="125.7129" x="453.0705" y="561.6625">return Vec&lt;f64&gt; result</text><ellipse cx="515.9269" cy="606.1785" fill="none" rx="11" ry="11" style="stroke:#222222;stroke-width:1;"/><ellipse cx="515.9269" cy="606.1785" fill="#222222" rx="6" ry="6" style="stroke:#222222;stroke-width:1;"/><line style="stroke:#6A1B9A;stroke-width:1.3;" x1="515.9269" x2="515.9269" y1="160.9098" y2="180.9098"/><polygon fill="#6A1B9A" points="511.9269,170.9098,515.9269,180.9098,519.9269,170.9098,515.9269,174.9098" style="stroke:#6A1B9A;stroke-width:1;stroke-linejoin:miter;stroke-miterlimit:10;"/><line style="stroke:#6A1B9A;stroke-width:1.3;" x1="130.8733" x2="130.8733" y1="265.7878" y2="300.7697"/><polygon fill="#6A1B9A" points="126.8733,290.7697,130.8733,300.7697,134.8733,290.7697,130.8733,294.7697" style="stroke:#6A1B9A;stroke-width:1;stroke-linejoin:miter;stroke-miterlimit:10;"/><line style="stroke:#6A1B9A;stroke-width:1.3;" x1="130.8733" x2="130.8733" y1="353.458" y2="373.458"/><polygon fill="#6A1B9A" points="126.8733,363.458,130.8733,373.458,134.8733,363.458,130.8733,367.458" style="stroke:#6A1B9A;stroke-width:1;stroke-linejoin:miter;stroke-miterlimit:10;"/><line style="stroke:#6A1B9A;stroke-width:1.3;" x1="354.4359" x2="354.4359" y1="265.7878" y2="300.7697"/><polygon fill="#6A1B9A" points="350.4359,290.7697,354.4359,300.7697,358.4359,290.7697,354.4359,294.7697" style="stroke:#6A1B9A;stroke-width:1;stroke-linejoin:miter;stroke-miterlimit:10;"/><line style="stroke:#6A1B9A;stroke-width:1.3;" x1="354.4359" x2="354.4359" y1="353.458" y2="373.458"/><polygon fill="#6A1B9A" points="350.4359,363.458,354.4359,373.458,358.4359,363.458,354.4359,367.458" style="stroke:#6A1B9A;stroke-width:1;stroke-linejoin:miter;stroke-miterlimit:10;"/><line style="stroke:#6A1B9A;stroke-width:1.3;" x1="574.0166" x2="574.0166" y1="265.7878" y2="300.7697"/><polygon fill="#6A1B9A" points="570.0166,290.7697,574.0166,300.7697,578.0166,290.7697,574.0166,294.7697" style="stroke:#6A1B9A;stroke-width:1;stroke-linejoin:miter;stroke-miterlimit:10;"/><line style="stroke:#6A1B9A;stroke-width:1.3;" x1="574.0166" x2="574.0166" y1="353.458" y2="373.458"/><polygon fill="#6A1B9A" points="570.0166,363.458,574.0166,373.458,578.0166,363.458,574.0166,367.458" style="stroke:#6A1B9A;stroke-width:1;stroke-linejoin:miter;stroke-miterlimit:10;"/><line style="stroke:#6A1B9A;stroke-width:1.3;" x1="771.2124" x2="771.2124" y1="265.7878" y2="300.7697"/><polygon fill="#6A1B9A" points="767.2124,290.7697,771.2124,300.7697,775.2124,290.7697,771.2124,294.7697" style="stroke:#6A1B9A;stroke-width:1;stroke-linejoin:miter;stroke-miterlimit:10;"/><line style="stroke:#6A1B9A;stroke-width:1.3;" x1="771.2124" x2="771.2124" y1="353.458" y2="373.458"/><polygon fill="#6A1B9A" points="767.2124,363.458,771.2124,373.458,775.2124,363.458,771.2124,367.458" style="stroke:#6A1B9A;stroke-width:1;stroke-linejoin:miter;stroke-miterlimit:10;"/><line style="stroke:#6A1B9A;stroke-width:1.3;" x1="236.7466" x2="256.7466" y1="253.7878" y2="253.7878"/><polygon fill="#6A1B9A" points="246.7466,249.7878,256.7466,253.7878,246.7466,257.7878,250.7466,253.7878" style="stroke:#6A1B9A;stroke-width:1;stroke-linejoin:miter;stroke-miterlimit:10;"/><line style="stroke:#6A1B9A;stroke-width:1.3;" x1="452.1252" x2="472.1252" y1="253.7878" y2="253.7878"/><polygon fill="#6A1B9A" points="462.1252,249.7878,472.1252,253.7878,462.1252,257.7878,466.1252,253.7878" style="stroke:#6A1B9A;stroke-width:1;stroke-linejoin:miter;stroke-miterlimit:10;"/><line style="stroke:#6A1B9A;stroke-width:1.3;" x1="675.9079" x2="695.9079" y1="253.7878" y2="253.7878"/><polygon fill="#6A1B9A" points="685.9079,249.7878,695.9079,253.7878,685.9079,257.7878,689.9079,253.7878" style="stroke:#6A1B9A;stroke-width:1;stroke-linejoin:miter;stroke-miterlimit:10;"/><line style="stroke:#6A1B9A;stroke-width:1.3;" x1="515.9269" x2="515.9269" y1="217.2539" y2="226.7878"/><line style="stroke:#6A1B9A;stroke-width:1.3;" x1="515.9269" x2="130.8733" y1="226.7878" y2="226.7878"/><line style="stroke:#6A1B9A;stroke-width:1.3;" x1="130.8733" x2="130.8733" y1="226.7878" y2="241.7878"/><polygon fill="#6A1B9A" points="126.8733,231.7878,130.8733,241.7878,134.8733,231.7878,130.8733,235.7878" style="stroke:#6A1B9A;stroke-width:1;stroke-linejoin:miter;stroke-miterlimit:10;"/><line style="stroke:#6A1B9A;stroke-width:1.3;" x1="846.517" x2="936.6854" y1="253.7878" y2="253.7878"/><line style="stroke:#6A1B9A;stroke-width:1.3;" x1="936.6854" x2="936.6854" y1="253.7878" y2="296.2788"/><polygon fill="#6A1B9A" points="932.6854,286.2788,936.6854,296.2788,940.6854,286.2788,936.6854,290.2788" style="stroke:#6A1B9A;stroke-width:1;stroke-linejoin:miter;stroke-miterlimit:10;"/><line style="stroke:#6A1B9A;stroke-width:1.3;" x1="936.6854" x2="936.6854" y1="348.967" y2="373.458"/><polygon fill="#6A1B9A" points="932.6854,363.458,936.6854,373.458,940.6854,363.458,936.6854,367.458" style="stroke:#6A1B9A;stroke-width:1;stroke-linejoin:miter;stroke-miterlimit:10;"/><line style="stroke:#6A1B9A;stroke-width:1.3;" x1="130.8733" x2="936.6854" y1="373.458" y2="373.458"/><line style="stroke:#6A1B9A;stroke-width:1.3;" x1="515.9269" x2="515.9269" y1="373.458" y2="393.458"/><polygon fill="#6A1B9A" points="511.9269,383.458,515.9269,393.458,519.9269,383.458,515.9269,387.458" style="stroke:#6A1B9A;stroke-width:1;stroke-linejoin:miter;stroke-miterlimit:10;"/><line style="stroke:#6A1B9A;stroke-width:1.3;" x1="515.9269" x2="515.9269" y1="446.1462" y2="466.1462"/><polygon fill="#6A1B9A" points="511.9269,456.1462,515.9269,466.1462,519.9269,456.1462,515.9269,460.1462" style="stroke:#6A1B9A;stroke-width:1;stroke-linejoin:miter;stroke-miterlimit:10;"/><line style="stroke:#6A1B9A;stroke-width:1.3;" x1="515.9269" x2="515.9269" y1="518.8344" y2="538.8344"/><polygon fill="#6A1B9A" points="511.9269,528.8344,515.9269,538.8344,519.9269,528.8344,515.9269,532.8344" style="stroke:#6A1B9A;stroke-width:1;stroke-linejoin:miter;stroke-miterlimit:10;"/><line style="stroke:#6A1B9A;stroke-width:1.3;" x1="515.9269" x2="515.9269" y1="575.1785" y2="595.1785"/><polygon fill="#6A1B9A" points="511.9269,585.1785,515.9269,595.1785,519.9269,585.1785,515.9269,589.1785" style="stroke:#6A1B9A;stroke-width:1;stroke-linejoin:miter;stroke-miterlimit:10;"/><?plantuml-src dLLDZnCv4BtthoW62JfQaj3PJ7ReP8CocPxL763G1X3I3egSTdN76iTksUxv077bCCjf9SHFuSvFoI_PSdVFa1q8I9j3bBBBxpsNNrNkWvH2vMqfcSfXTlJa08vcapONjc0kNO9adAFfmB52CALoOeLG6Br0i2WnTHRS4k5SSBGkk4_fgehSibgVFdi1jYmARPnz01chk6Z7w3Ad30qsPP8H_3CcqJcCWUlKThbWkM4hs_qpcHmyIJehtY7i0yIYBP4PvK7kmHy4xWGQ28lI519Ra6bJqLRNE4MZKDeXA2oTOHB2tE3bJH81rkILh0LBJw4BHyT3e2nKDr3fKbjKxHeC79gLKANj1FPKg8AHIF17SxgGubCjwTJTm-gpaM6NZEjpBvgeB6xiSCnOATrpl70JANArGkKWfIyq6raJO_Hv0pwOHFkF9hStdoz5UghGMeWwlsviijI9C-4kuMq0i7zRQ1Bj9yblVaSRUkJ_CW0SQkMQjUXXxs7FPnu8jjAARuUwJlWkOhFvBV2x3SrAEzoYTveS7aQtzVPtToU3Fa44JZY9C5gCjzbur5sCJzJ8YZSOHz5u9COpiU9JLh25a5IcEEReoDHX2megwAQtDvmz16G4sLZ2kyT-Q-bHLun7NSyq3WBhc751RAL8gNkO8Cko1x1eGGpt_ie6_TV3eBgr4VdIqVtEI8CsyxgFVWVAgEWj5EHsWxcmtY00avUlshjH3zRl_u4z-FBPBzHHtqUpMTBlr77Fnq-JuwTVeyRzFeu2LBmgV128349XvnTxWtc6p9K6vtLHaDy9TzZP1H5cEwt7BLyS1U4bsXP9QHmGNqkggtEYzXhbtHlTmu2w4dzAq_iXnrU2_lyYi1QfDDifcj9Ta_H-G49lcwERCvFwjzfX_iUWlxCDkNg4d-52gBJ2-bXb-lZMh3fHKUt8qCzMjY3VIwsBrj2_fCY28AOXdVg1iFvmfGY_yjBwmz-GbL8s1hCdwboGmzPN7o6akKPfKkTjQfKMK6Ujhpv1-0j1nakcE34eM6b-FTsPa43_07vY4GuThXKEWxlJlMGmVHGRfA8hU8dfY0myfXjQ6dL3QWPT_0i0?></g></svg>