<?xml version="1.0" encoding="UTF-8" standalone="no"?>
<!DOCTYPE svg PUBLIC "-//W3C//DTD SVG 1.1//EN"
 "http://www.w3.org/Graphics/SVG/1.1/DTD/svg11.dtd">
<!-- Generated by graphviz version 14.1.5 (0)
 -->
<!-- Title: subsequential Pages: 1 -->
<svg width="696pt" height="102pt"
 viewBox="0.00 0.00 696.00 102.00" xmlns="http://www.w3.org/2000/svg" xmlns:xlink="http://www.w3.org/1999/xlink">
<g id="graph0" class="graph" transform="scale(1 1) rotate(0) translate(4 98.37)">
<title>subsequential</title>
<polygon fill="#ffffff" stroke="none" points="-4,4 -4,-98.37 692,-98.37 692,4 -4,4"/>
<text xml:space="preserve" text-anchor="start" x="8" y="-79.02" font-family="Helvetica,sans-Serif" font-weight="bold" font-size="13.00">Subsequential transducer</text>
<text xml:space="preserve" text-anchor="start" x="195.5" y="-79.02" font-family="Helvetica,sans-Serif" font-size="13.00"> — input&#45;deterministic; final states carry a residual output (state 2 ⇒ &quot;!&quot;)</text>
<!-- __start__ -->
<g id="node1" class="node">
<title>__start__</title>
<ellipse fill="#b2dfdb" stroke="#00695c" stroke-width="1.4" cx="128.77" cy="-34.94" rx="0.36" ry="0.36"/>
</g>
<!-- s0 -->
<g id="node2" class="node">
<title>s0</title>
<ellipse fill="#b2dfdb" stroke="#00695c" stroke-width="1.4" cx="187.22" cy="-34.94" rx="21.09" ry="21.09"/>
<text xml:space="preserve" text-anchor="middle" x="187.22" y="-30.26" font-family="Helvetica,sans-Serif" font-size="14.00" fill="#102027">s0</text>
</g>
<!-- __start__&#45;&gt;s0 -->
<g id="edge1" class="edge">
<title>__start__&#45;&gt;s0</title>
<path fill="none" stroke="#00796b" stroke-width="1.3" d="M129.77,-34.94C132.4,-34.94 142.8,-34.94 153.97,-34.94"/>
<polygon fill="#00796b" stroke="#00796b" stroke-width="1.3" points="153.62,-38.44 163.62,-34.94 153.62,-31.44 153.62,-38.44"/>
</g>
<!-- s1 -->
<g id="node3" class="node">
<title>s1</title>
<ellipse fill="#b2dfdb" stroke="#00695c" stroke-width="1.4" cx="290.91" cy="-34.94" rx="21.09" ry="21.09"/>
<text xml:space="preserve" text-anchor="middle" x="290.91" y="-30.26" font-family="Helvetica,sans-Serif" font-size="14.00" fill="#102027">s1</text>
</g>
<!-- s0&#45;&gt;s1 -->
<g id="edge2" class="edge">
<title>s0&#45;&gt;s1</title>
<path fill="none" stroke="#00796b" stroke-width="1.3" d="M208.8,-34.94C222.86,-34.94 241.77,-34.94 257.8,-34.94"/>
<polygon fill="#00796b" stroke="#00796b" stroke-width="1.3" points="257.39,-38.44 267.39,-34.94 257.39,-31.44 257.39,-38.44"/>
<text xml:space="preserve" text-anchor="middle" x="239.06" y="-37.99" font-family="Helvetica,sans-Serif" font-size="11.00" fill="#37474f">a : A</text>
</g>
<!-- s2 -->
<g id="node4" class="node">
<title>s2</title>
<ellipse fill="#c8e6c9" stroke="#2e7d32" stroke-width="1.4" cx="408.44" cy="-34.94" rx="30.94" ry="30.94"/>
<ellipse fill="none" stroke="#2e7d32" stroke-width="1.4" cx="408.44" cy="-34.94" rx="34.94" ry="34.94"/>
<text xml:space="preserve" text-anchor="middle" x="408.44" y="-38.89" font-family="Helvetica,sans-Serif" font-size="14.00" fill="#102027">s2</text>
<text xml:space="preserve" text-anchor="middle" x="408.44" y="-21.64" font-family="Helvetica,sans-Serif" font-size="14.00" fill="#102027">/ &quot;!&quot;</text>
</g>
<!-- s1&#45;&gt;s2 -->
<g id="edge3" class="edge">
<title>s1&#45;&gt;s2</title>
<path fill="none" stroke="#00796b" stroke-width="1.3" d="M312.56,-34.94C326.04,-34.94 344.18,-34.94 361,-34.94"/>
<polygon fill="#00796b" stroke="#00796b" stroke-width="1.3" points="360.95,-38.44 370.95,-34.94 360.95,-31.44 360.95,-38.44"/>
<text xml:space="preserve" text-anchor="middle" x="342.75" y="-37.99" font-family="Helvetica,sans-Serif" font-size="11.00" fill="#37474f">b : B</text>
</g>
<!-- __accept__ -->
<g id="node5" class="node">
<title>__accept__</title>
<ellipse fill="#b2dfdb" stroke="#2e7d32" stroke-width="1.4" cx="559.23" cy="-34.94" rx="0.36" ry="0.36"/>
</g>
<!-- s2&#45;&gt;__accept__ -->
<g id="edge4" class="edge">
<title>s2&#45;&gt;__accept__</title>
<path fill="none" stroke="#2e7d32" stroke-width="1.3" stroke-dasharray="5,2" d="M443.72,-34.94C476.57,-34.94 524.35,-34.94 546.61,-34.94"/>
<polygon fill="#2e7d32" stroke="#2e7d32" stroke-width="1.3" points="546.45,-38.44 556.45,-34.94 546.45,-31.44 546.45,-38.44"/>
<text xml:space="preserve" text-anchor="middle" x="501.12" y="-37.99" font-family="Helvetica,sans-Serif" font-size="11.00" fill="#1b5e20">ε / residual &quot;!&quot;</text>
</g>
</g>
</svg>
