<?xml version="1.0" encoding="UTF-8" standalone="no"?>
<!DOCTYPE svg PUBLIC "-//W3C//DTD SVG 1.1//EN"
 "http://www.w3.org/Graphics/SVG/1.1/DTD/svg11.dtd">
<!-- Generated by graphviz version 14.1.5 (0)
 -->
<!-- Title: topdown_autograd Pages: 1 -->
<svg width="679pt" height="511pt"
 viewBox="0.00 0.00 679.00 511.00" xmlns="http://www.w3.org/2000/svg" xmlns:xlink="http://www.w3.org/1999/xlink">
<g id="graph0" class="graph" transform="scale(1 1) rotate(0) translate(4 506.5)">
<title>topdown_autograd</title>
<polygon fill="#ffffff" stroke="none" points="-4,4 -4,-506.5 674.51,-506.5 674.51,4 -4,4"/>
<text xml:space="preserve" text-anchor="start" x="36.38" y="-487.15" font-family="Helvetica,sans-Serif" font-weight="bold" font-size="13.00">Top&#45;down autograd (k2&#45;style)</text>
<text xml:space="preserve" text-anchor="start" x="252.38" y="-487.15" font-family="Helvetica,sans-Serif" font-size="13.00"> — same topology, arc weight → arc posterior &#160;(Z = 1.35)</text>
<g id="clust1" class="cluster">
<title>cluster_weights</title>
<path fill="#ffffff" stroke="#1565c0" d="M20,-8C20,-8 482.61,-8 482.61,-8 488.61,-8 494.61,-14 494.61,-20 494.61,-20 494.61,-223 494.61,-223 494.61,-229 488.61,-235 482.61,-235 482.61,-235 20,-235 20,-235 14,-235 8,-229 8,-223 8,-223 8,-20 8,-20 8,-14 14,-8 20,-8"/>
<text xml:space="preserve" text-anchor="start" x="104.68" y="-218.25" font-family="Helvetica,sans-Serif" font-size="13.00" fill="#0d47a1">original WFST — arc weights w (log domain)</text>
</g>
<g id="clust2" class="cluster">
<title>cluster_grads</title>
<path fill="#ffffff" stroke="#6a1b9a" d="M99.43,-243C99.43,-243 650.51,-243 650.51,-243 656.51,-243 662.51,-249 662.51,-255 662.51,-255 662.51,-458 662.51,-458 662.51,-464 656.51,-470 650.51,-470 650.51,-470 99.43,-470 99.43,-470 93.43,-470 87.43,-464 87.43,-458 87.43,-458 87.43,-255 87.43,-255 87.43,-249 93.43,-243 99.43,-243"/>
<text xml:space="preserve" text-anchor="start" x="130.47" y="-453.25" font-family="Helvetica,sans-Serif" font-size="13.00" fill="#4a148c">gradient WFST — same arcs, weight → posterior g = exp(α[s]+w+β[t]−Z)</text>
</g>
<!-- w0 -->
<g id="node1" class="node">
<title>w0</title>
<ellipse fill="#bbdefb" stroke="#1565c0" stroke-width="1.4" cx="95.79" cy="-160" rx="42.07" ry="42.07"/>
<text xml:space="preserve" text-anchor="middle" x="95.79" y="-163.95" font-family="Helvetica,sans-Serif" font-size="14.00" fill="#102027">0</text>
<text xml:space="preserve" text-anchor="middle" x="95.79" y="-146.7" font-family="Helvetica,sans-Serif" font-size="14.00" fill="#102027">α=0.0</text>
</g>
<!-- w1 -->
<g id="node2" class="node">
<title>w1</title>
<ellipse fill="#bbdefb" stroke="#1565c0" stroke-width="1.4" cx="257.55" cy="-58" rx="42.07" ry="42.07"/>
<text xml:space="preserve" text-anchor="middle" x="257.55" y="-61.95" font-family="Helvetica,sans-Serif" font-size="14.00" fill="#102027">1</text>
<text xml:space="preserve" text-anchor="middle" x="257.55" y="-44.7" font-family="Helvetica,sans-Serif" font-size="14.00" fill="#102027">α=1.0</text>
</g>
<!-- w0&#45;&gt;w1 -->
<g id="edge2" class="edge">
<title>w0&#45;&gt;w1</title>
<path fill="none" stroke="#607d8b" stroke-width="1.3" d="M131.85,-137.62C155.18,-122.72 186.06,-103.01 211.25,-86.93"/>
<polygon fill="#607d8b" stroke="#607d8b" stroke-width="1.3" points="213.1,-89.9 219.64,-81.57 209.33,-84 213.1,-89.9"/>
<text xml:space="preserve" text-anchor="middle" x="173.49" y="-124.19" font-family="Helvetica,sans-Serif" font-size="11.00" fill="#37474f">w=1.0</text>
</g>
<!-- w2 -->
<g id="node3" class="node">
<title>w2</title>
<ellipse fill="#bbdefb" stroke="#1565c0" stroke-width="1.4" cx="257.55" cy="-160" rx="42.07" ry="42.07"/>
<text xml:space="preserve" text-anchor="middle" x="257.55" y="-163.95" font-family="Helvetica,sans-Serif" font-size="14.00" fill="#102027">2</text>
<text xml:space="preserve" text-anchor="middle" x="257.55" y="-146.7" font-family="Helvetica,sans-Serif" font-size="14.00" fill="#102027">α=2.0</text>
</g>
<!-- w0&#45;&gt;w2 -->
<g id="edge3" class="edge">
<title>w0&#45;&gt;w2</title>
<path fill="none" stroke="#607d8b" stroke-width="1.3" d="M138.35,-160C158.15,-160 182.07,-160 203.19,-160"/>
<polygon fill="#607d8b" stroke="#607d8b" stroke-width="1.3" points="202.96,-163.5 212.96,-160 202.96,-156.5 202.96,-163.5"/>
<text xml:space="preserve" text-anchor="middle" x="173.49" y="-163.05" font-family="Helvetica,sans-Serif" font-size="11.00" fill="#37474f">w=2.0</text>
</g>
<!-- g0 -->
<g id="node6" class="node">
<title>g0</title>
<ellipse fill="#e1bee7" stroke="#6a1b9a" stroke-width="1.4" cx="257.55" cy="-299" rx="48.44" ry="48.44"/>
<text xml:space="preserve" text-anchor="middle" x="257.55" y="-302.95" font-family="Helvetica,sans-Serif" font-size="14.00" fill="#102027">0</text>
<text xml:space="preserve" text-anchor="middle" x="257.55" y="-285.7" font-family="Helvetica,sans-Serif" font-size="14.00" fill="#102027">β=1.35</text>
</g>
<!-- w0&#45;&gt;g0 -->
<g id="edge11" class="edge">
<title>w0&#45;&gt;g0</title>
<path fill="none" stroke="#9e9e9e" stroke-width="1.3" stroke-dasharray="1,5" d="M128.36,-187.46C152.13,-208.15 185.05,-236.79 211.58,-259.87"/>
<polygon fill="#9e9e9e" stroke="#9e9e9e" stroke-width="1.3" points="208.98,-262.25 218.82,-266.17 213.58,-256.97 208.98,-262.25"/>
<text xml:space="preserve" text-anchor="middle" x="173.49" y="-245" font-family="Helvetica,sans-Serif" font-size="11.00" fill="#37474f">∂/∂w</text>
</g>
<!-- w3 -->
<g id="node4" class="node">
<title>w3</title>
<ellipse fill="#c8e6c9" stroke="#2e7d32" stroke-width="1.4" cx="434.18" cy="-97" rx="48.44" ry="48.44"/>
<ellipse fill="none" stroke="#2e7d32" stroke-width="1.4" cx="434.18" cy="-97" rx="52.44" ry="52.44"/>
<text xml:space="preserve" text-anchor="middle" x="434.18" y="-100.95" font-family="Helvetica,sans-Serif" font-size="14.00" fill="#102027">3</text>
<text xml:space="preserve" text-anchor="middle" x="434.18" y="-83.7" font-family="Helvetica,sans-Serif" font-size="14.00" fill="#102027">α=1.35</text>
</g>
<!-- w1&#45;&gt;w3 -->
<g id="edge4" class="edge">
<title>w1&#45;&gt;w3</title>
<path fill="none" stroke="#607d8b" stroke-width="1.3" d="M299.05,-67.05C320.44,-71.82 347.15,-77.79 371.09,-83.13"/>
<polygon fill="#607d8b" stroke="#607d8b" stroke-width="1.3" points="370.14,-86.51 380.66,-85.27 371.66,-79.68 370.14,-86.51"/>
<text xml:space="preserve" text-anchor="middle" x="343.86" y="-84.04" font-family="Helvetica,sans-Serif" font-size="11.00" fill="#37474f">w=0.5</text>
</g>
<!-- w2&#45;&gt;w3 -->
<g id="edge5" class="edge">
<title>w2&#45;&gt;w3</title>
<path fill="none" stroke="#607d8b" stroke-width="1.3" d="M297.74,-145.86C319.89,-137.87 348.05,-127.71 372.95,-118.73"/>
<polygon fill="#607d8b" stroke="#607d8b" stroke-width="1.3" points="374.05,-122.05 382.27,-115.37 371.68,-115.47 374.05,-122.05"/>
<text xml:space="preserve" text-anchor="middle" x="343.86" y="-139.05" font-family="Helvetica,sans-Serif" font-size="11.00" fill="#37474f">w=0.3</text>
</g>
<!-- __ws__ -->
<g id="node5" class="node">
<title>__ws__</title>
<ellipse fill="#bbdefb" stroke="#1565c0" stroke-width="1.4" cx="16.36" cy="-160" rx="0.36" ry="0.36"/>
</g>
<!-- __ws__&#45;&gt;w0 -->
<g id="edge1" class="edge">
<title>__ws__&#45;&gt;w0</title>
<path fill="none" stroke="#607d8b" stroke-width="1.3" d="M17.22,-160C19.5,-160 29.36,-160 41.33,-160"/>
<polygon fill="#607d8b" stroke="#607d8b" stroke-width="1.3" points="41.3,-163.5 51.3,-160 41.3,-156.5 41.3,-163.5"/>
</g>
<!-- g1 -->
<g id="node7" class="node">
<title>g1</title>
<ellipse fill="#e1bee7" stroke="#6a1b9a" stroke-width="1.4" cx="434.18" cy="-293" rx="42.07" ry="42.07"/>
<text xml:space="preserve" text-anchor="middle" x="434.18" y="-296.95" font-family="Helvetica,sans-Serif" font-size="14.00" fill="#102027">1</text>
<text xml:space="preserve" text-anchor="middle" x="434.18" y="-279.7" font-family="Helvetica,sans-Serif" font-size="14.00" fill="#102027">β=0.5</text>
</g>
<!-- g0&#45;&gt;g1 -->
<g id="edge7" class="edge">
<title>g0&#45;&gt;g1</title>
<path fill="none" stroke="#2e7d32" stroke-width="2" d="M306.27,-297.36C328.66,-296.59 355.46,-295.67 378.64,-294.87"/>
<polygon fill="#2e7d32" stroke="#2e7d32" stroke-width="2" points="378.56,-298.38 388.44,-294.54 378.32,-291.38 378.56,-298.38"/>
<text xml:space="preserve" text-anchor="middle" x="343.86" y="-299.76" font-family="Helvetica,sans-Serif" font-size="11.00" fill="#1b5e20">g=0.86</text>
</g>
<!-- g2 -->
<g id="node8" class="node">
<title>g2</title>
<ellipse fill="#e1bee7" stroke="#6a1b9a" stroke-width="1.4" cx="434.18" cy="-395" rx="42.07" ry="42.07"/>
<text xml:space="preserve" text-anchor="middle" x="434.18" y="-398.95" font-family="Helvetica,sans-Serif" font-size="14.00" fill="#102027">2</text>
<text xml:space="preserve" text-anchor="middle" x="434.18" y="-381.7" font-family="Helvetica,sans-Serif" font-size="14.00" fill="#102027">β=0.3</text>
</g>
<!-- g0&#45;&gt;g2 -->
<g id="edge8" class="edge">
<title>g0&#45;&gt;g2</title>
<path fill="none" stroke="#b0bec5" stroke-width="1.3" d="M300.82,-322.24C326.67,-336.45 359.76,-354.64 386.39,-369.28"/>
<polygon fill="#b0bec5" stroke="#b0bec5" stroke-width="1.3" points="384.44,-372.2 394.89,-373.95 387.81,-366.07 384.44,-372.2"/>
<text xml:space="preserve" text-anchor="middle" x="343.86" y="-358.65" font-family="Helvetica,sans-Serif" font-size="11.00" fill="#37474f">g=0.39</text>
</g>
<!-- g3 -->
<g id="node9" class="node">
<title>g3</title>
<ellipse fill="#c8e6c9" stroke="#2e7d32" stroke-width="1.4" cx="608.44" cy="-329" rx="42.07" ry="42.07"/>
<ellipse fill="none" stroke="#2e7d32" stroke-width="1.4" cx="608.44" cy="-329" rx="46.07" ry="46.07"/>
<text xml:space="preserve" text-anchor="middle" x="608.44" y="-332.95" font-family="Helvetica,sans-Serif" font-size="14.00" fill="#102027">3</text>
<text xml:space="preserve" text-anchor="middle" x="608.44" y="-315.7" font-family="Helvetica,sans-Serif" font-size="14.00" fill="#102027">β=0.0</text>
</g>
<!-- g1&#45;&gt;g3 -->
<g id="edge9" class="edge">
<title>g1&#45;&gt;g3</title>
<path fill="none" stroke="#2e7d32" stroke-width="2" d="M476,-301.53C498.09,-306.15 525.75,-311.93 549.99,-316.99"/>
<polygon fill="#2e7d32" stroke="#2e7d32" stroke-width="2" points="549.2,-320.41 559.71,-319.03 550.64,-313.55 549.2,-320.41"/>
<text xml:space="preserve" text-anchor="middle" x="524.49" y="-318.33" font-family="Helvetica,sans-Serif" font-size="11.00" fill="#1b5e20">g=0.86</text>
</g>
<!-- g2&#45;&gt;g3 -->
<g id="edge10" class="edge">
<title>g2&#45;&gt;g3</title>
<path fill="none" stroke="#b0bec5" stroke-width="1.3" d="M473.83,-380.19C497.34,-371.18 527.7,-359.55 553.54,-349.65"/>
<polygon fill="#b0bec5" stroke="#b0bec5" stroke-width="1.3" points="554.75,-352.93 562.84,-346.09 552.25,-346.4 554.75,-352.93"/>
<text xml:space="preserve" text-anchor="middle" x="524.49" y="-370.96" font-family="Helvetica,sans-Serif" font-size="11.00" fill="#37474f">g=0.39</text>
</g>
<!-- __gs__ -->
<g id="node10" class="node">
<title>__gs__</title>
<ellipse fill="#bbdefb" stroke="#6a1b9a" stroke-width="1.4" cx="95.79" cy="-299" rx="0.36" ry="0.36"/>
</g>
<!-- __gs__&#45;&gt;g0 -->
<g id="edge6" class="edge">
<title>__gs__&#45;&gt;g0</title>
<path fill="none" stroke="#607d8b" stroke-width="1.3" d="M96.91,-299C99.7,-299 152.58,-299 196.72,-299"/>
<polygon fill="#607d8b" stroke="#607d8b" stroke-width="1.3" points="196.63,-302.5 206.63,-299 196.63,-295.5 196.63,-302.5"/>
</g>
</g>
</svg>
