<?xml version="1.0" encoding="UTF-8" standalone="no"?>
<!DOCTYPE svg PUBLIC "-//W3C//DTD SVG 1.1//EN"
 "http://www.w3.org/Graphics/SVG/1.1/DTD/svg11.dtd">
<!-- Generated by graphviz version 14.1.5 (0)
 -->
<!-- Title: code_switch Pages: 1 -->
<svg width="815pt" height="223pt"
 viewBox="0.00 0.00 815.00 223.00" xmlns="http://www.w3.org/2000/svg" xmlns:xlink="http://www.w3.org/1999/xlink">
<g id="graph0" class="graph" transform="scale(1 1) rotate(0) translate(4 219.15)">
<title>code_switch</title>
<polygon fill="#ffffff" stroke="none" points="-4,4 -4,-219.15 810.5,-219.15 810.5,4 -4,4"/>
<text xml:space="preserve" text-anchor="start" x="8" y="-199.8" font-family="Helvetica,sans-Serif" font-weight="bold" font-size="13.00">Code&#45;switching lattice</text>
<text xml:space="preserve" text-anchor="start" x="170" y="-199.8" font-family="Helvetica,sans-Serif" font-size="13.00"> for &quot;hello mundo&quot;   —   green = best path (en → switch → es); amber = language&#45;tagged arcs</text>
<!-- __start__ -->
<g id="node1" class="node">
<title>__start__</title>
<ellipse fill="#bbdefb" stroke="#1565c0" stroke-width="1.4" cx="205.12" cy="-25.2" rx="0.36" ry="0.36"/>
</g>
<!-- S -->
<g id="node2" class="node">
<title>S</title>
<ellipse fill="#eceff1" stroke="#455a64" stroke-width="1.4" cx="267.68" cy="-25.2" rx="25.2" ry="25.2"/>
<text xml:space="preserve" text-anchor="middle" x="267.68" y="-20.53" font-family="Helvetica,sans-Serif" font-size="14.00" fill="#102027">S</text>
</g>
<!-- __start__&#45;&gt;S -->
<g id="edge1" class="edge">
<title>__start__&#45;&gt;S</title>
<path fill="none" stroke="#607d8b" stroke-width="1.3" d="M206.17,-25.2C208.84,-25.2 218.94,-25.2 230.14,-25.2"/>
<polygon fill="#607d8b" stroke="#607d8b" stroke-width="1.3" points="229.98,-28.7 239.98,-25.2 229.98,-21.7 229.98,-28.7"/>
</g>
<!-- EN -->
<g id="node3" class="node">
<title>EN</title>
<ellipse fill="#c8e6c9" stroke="#2e7d32" stroke-width="1.4" cx="363.33" cy="-69.2" rx="25.2" ry="25.2"/>
<ellipse fill="none" stroke="#2e7d32" stroke-width="1.4" cx="363.33" cy="-69.2" rx="29.2" ry="29.2"/>
<text xml:space="preserve" text-anchor="middle" x="363.33" y="-64.53" font-family="Helvetica,sans-Serif" font-size="14.00" fill="#102027">en</text>
</g>
<!-- S&#45;&gt;EN -->
<g id="edge2" class="edge">
<title>S&#45;&gt;EN</title>
<path fill="none" stroke="#9e9e9e" stroke-width="1.3" stroke-dasharray="5,2" d="M290.88,-35.63C301.31,-40.53 314.03,-46.51 325.83,-52.05"/>
<polygon fill="#9e9e9e" stroke="#9e9e9e" stroke-width="1.3" points="323.99,-55.05 334.53,-56.14 326.97,-48.72 323.99,-55.05"/>
<text xml:space="preserve" text-anchor="middle" x="313.51" y="-50.45" font-family="Helvetica,sans-Serif" font-size="10.00" fill="#37474f">ε</text>
</g>
<!-- ES -->
<g id="node4" class="node">
<title>ES</title>
<ellipse fill="#fff59d" stroke="#f9a825" stroke-width="1.4" cx="561.98" cy="-42.2" rx="25.2" ry="25.2"/>
<ellipse fill="none" stroke="#f9a825" stroke-width="1.4" cx="561.98" cy="-42.2" rx="29.2" ry="29.2"/>
<text xml:space="preserve" text-anchor="middle" x="561.98" y="-37.53" font-family="Helvetica,sans-Serif" font-size="14.00" fill="#102027">es</text>
</g>
<!-- S&#45;&gt;ES -->
<g id="edge3" class="edge">
<title>S&#45;&gt;ES</title>
<path fill="none" stroke="#9e9e9e" stroke-width="1.3" stroke-dasharray="5,2" d="M293.19,-22.07C305.46,-20.66 320.56,-19.15 334.13,-18.45 414.43,-14.32 435.78,-13.26 514.78,-28.2 517.33,-28.68 519.93,-29.25 522.54,-29.88"/>
<polygon fill="#9e9e9e" stroke="#9e9e9e" stroke-width="1.3" points="521.4,-33.2 531.97,-32.41 523.22,-26.44 521.4,-33.2"/>
<text xml:space="preserve" text-anchor="middle" x="363.33" y="-21.7" font-family="Helvetica,sans-Serif" font-size="10.00" fill="#37474f">ε</text>
</g>
<!-- EN&#45;&gt;EN -->
<g id="edge4" class="edge">
<title>EN&#45;&gt;EN</title>
<path fill="none" stroke="#f9a825" stroke-width="1.3" d="M360.22,-98.7C360.22,-108.53 361.26,-116.4 363.33,-116.4 364.44,-116.4 365.25,-114.18 365.76,-110.62"/>
<polygon fill="#f9a825" stroke="#f9a825" stroke-width="1.3" points="369.26,-110.85 366.34,-100.66 362.27,-110.45 369.26,-110.85"/>
<text xml:space="preserve" text-anchor="middle" x="363.33" y="-119.65" font-family="Helvetica,sans-Serif" font-size="10.00" fill="#e65100">hello [en] / 0.5</text>
</g>
<!-- EN&#45;&gt;EN -->
<g id="edge5" class="edge">
<title>EN&#45;&gt;EN</title>
<path fill="none" stroke="#f9a825" stroke-width="1.3" d="M357.57,-98.36C356.13,-116.78 358.05,-134.4 363.33,-134.4 367.47,-134.4 369.54,-123.64 369.56,-110.16"/>
<polygon fill="#f9a825" stroke="#f9a825" stroke-width="1.3" points="373.07,-110.18 369.18,-100.33 366.07,-110.46 373.07,-110.18"/>
<text xml:space="preserve" text-anchor="middle" x="363.33" y="-137.65" font-family="Helvetica,sans-Serif" font-size="10.00" fill="#e65100">world [en] / 0.5</text>
</g>
<!-- EN&#45;&gt;EN -->
<g id="edge10" class="edge">
<title>EN&#45;&gt;EN</title>
<path fill="none" stroke="#2e7d32" stroke-width="2" d="M355.72,-97.76C351.89,-124.06 354.43,-152.4 363.33,-152.4 370.81,-152.4 373.8,-132.41 372.3,-110.43"/>
<polygon fill="#2e7d32" stroke="#2e7d32" stroke-width="2" points="375.81,-110.34 371.27,-100.77 368.85,-111.09 375.81,-110.34"/>
<text xml:space="preserve" text-anchor="middle" x="363.33" y="-155.65" font-family="Helvetica,sans-Serif" font-size="10.00" fill="#1b5e20">hello [en] / 0.5 &#160;★</text>
</g>
<!-- EN&#45;&gt;ES -->
<g id="edge8" class="edge">
<title>EN&#45;&gt;ES</title>
<path fill="none" stroke="#2e7d32" stroke-width="2" d="M393.14,-68.49C423.61,-67.32 472.95,-64.25 514.78,-56.2 516.94,-55.79 519.13,-55.31 521.33,-54.79"/>
<polygon fill="#2e7d32" stroke="#2e7d32" stroke-width="2" points="522.18,-58.19 530.93,-52.23 520.37,-51.42 522.18,-58.19"/>
<text xml:space="preserve" text-anchor="middle" x="462.66" y="-70.9" font-family="Helvetica,sans-Serif" font-size="10.00" fill="#1b5e20">mundo [es] / +switch</text>
</g>
<!-- ES&#45;&gt;EN -->
<g id="edge9" class="edge">
<title>ES&#45;&gt;EN</title>
<path fill="none" stroke="#b0bec5" stroke-width="1.3" d="M532.86,-36.75C502.13,-31.92 451.76,-27.32 410.53,-39.45 405.8,-40.84 401.09,-42.89 396.59,-45.27"/>
<polygon fill="#b0bec5" stroke="#b0bec5" stroke-width="1.3" points="395.03,-42.12 388.25,-50.25 398.62,-48.13 395.03,-42.12"/>
<text xml:space="preserve" text-anchor="middle" x="462.66" y="-42.7" font-family="Helvetica,sans-Serif" font-size="10.00" fill="#90a4ae">word &#160;[en] / +switch</text>
</g>
<!-- ES&#45;&gt;ES -->
<g id="edge6" class="edge">
<title>ES&#45;&gt;ES</title>
<path fill="none" stroke="#f9a825" stroke-width="1.3" d="M552.69,-70.3C552.39,-80.78 555.49,-89.4 561.98,-89.4 565.74,-89.4 568.36,-86.52 569.85,-82.06"/>
<polygon fill="#f9a825" stroke="#f9a825" stroke-width="1.3" points="573.31,-82.61 571.04,-72.26 566.36,-81.76 573.31,-82.61"/>
<text xml:space="preserve" text-anchor="middle" x="561.98" y="-92.65" font-family="Helvetica,sans-Serif" font-size="10.00" fill="#e65100">mundo [es] / 0.5</text>
</g>
<!-- ES&#45;&gt;ES -->
<g id="edge7" class="edge">
<title>ES&#45;&gt;ES</title>
<path fill="none" stroke="#f9a825" stroke-width="1.3" d="M545.87,-67.29C539.64,-87.09 545.01,-107.4 561.98,-107.4 575.64,-107.4 581.79,-94.25 580.42,-78.79"/>
<polygon fill="#f9a825" stroke="#f9a825" stroke-width="1.3" points="583.9,-78.33 578.49,-69.22 577.04,-79.72 583.9,-78.33"/>
<text xml:space="preserve" text-anchor="middle" x="561.98" y="-110.65" font-family="Helvetica,sans-Serif" font-size="10.00" fill="#e65100">hola &#160;[es] / 0.5</text>
</g>
</g>
</svg>
