<?xml version="1.0" encoding="UTF-8" standalone="no"?>
<!DOCTYPE svg PUBLIC "-//W3C//DTD SVG 1.1//EN"
 "http://www.w3.org/Graphics/SVG/1.1/DTD/svg11.dtd">
<!-- Generated by graphviz version 14.1.5 (0)
 -->
<!-- Title: edit_distance Pages: 1 -->
<svg width="723pt" height="448pt"
 viewBox="0.00 0.00 723.00 448.00" xmlns="http://www.w3.org/2000/svg" xmlns:xlink="http://www.w3.org/1999/xlink">
<g id="graph0" class="graph" transform="scale(1 1) rotate(0) translate(4 444.48)">
<title>edit_distance</title>
<polygon fill="#ffffff" stroke="none" points="-4,4 -4,-444.48 719,-444.48 719,4 -4,4"/>
<text xml:space="preserve" text-anchor="start" x="8" y="-425.13" font-family="Helvetica,sans-Serif" font-weight="bold" font-size="13.00">Levenshtein transducer</text>
<text xml:space="preserve" text-anchor="start" x="180.5" y="-425.13" font-family="Helvetica,sans-Serif" font-size="13.00"> for query &quot;helo&quot;, k=1   —   green = best alignment &quot;helo → hello&quot; (1 insertion)</text>
<!-- __start__ -->
<g id="node1" class="node">
<title>__start__</title>
<ellipse fill="#bbdefb" stroke="#1565c0" stroke-width="1.4" cx="235.65" cy="-372.99" rx="0.36" ry="0.36"/>
</g>
<!-- p0e0 -->
<g id="node2" class="node">
<title>p0e0</title>
<ellipse fill="#bbdefb" stroke="#1565c0" stroke-width="1.4" cx="302" cy="-372.99" rx="24.99" ry="24.99"/>
<text xml:space="preserve" text-anchor="middle" x="302" y="-368.31" font-family="Helvetica,sans-Serif" font-size="14.00" fill="#102027">0,0</text>
</g>
<!-- __start__&#45;&gt;p0e0 -->
<g id="edge1" class="edge">
<title>__start__&#45;&gt;p0e0</title>
<path fill="none" stroke="#607d8b" stroke-width="1.3" d="M236.42,-372.99C238.83,-372.99 251.37,-372.99 264.76,-372.99"/>
<polygon fill="#607d8b" stroke="#607d8b" stroke-width="1.3" points="264.55,-376.49 274.55,-372.99 264.55,-369.49 264.55,-376.49"/>
</g>
<!-- p1e0 -->
<g id="node3" class="node">
<title>p1e0</title>
<ellipse fill="#bbdefb" stroke="#1565c0" stroke-width="1.4" cx="302" cy="-287.99" rx="24.99" ry="24.99"/>
<text xml:space="preserve" text-anchor="middle" x="302" y="-283.31" font-family="Helvetica,sans-Serif" font-size="14.00" fill="#102027">1,0</text>
</g>
<!-- p0e0&#45;&gt;p1e0 -->
<g id="edge2" class="edge">
<title>p0e0&#45;&gt;p1e0</title>
<path fill="none" stroke="#607d8b" stroke-width="1.3" d="M302,-347.5C302,-340.53 302,-332.82 302,-325.33"/>
<polygon fill="#607d8b" stroke="#607d8b" stroke-width="1.3" points="305.5,-325.46 302,-315.46 298.5,-325.46 305.5,-325.46"/>
<text xml:space="preserve" text-anchor="middle" x="292.62" y="-327.36" font-family="Helvetica,sans-Serif" font-size="10.00" fill="#37474f">h:h/0</text>
</g>
<!-- p0e1 -->
<g id="node7" class="node">
<title>p0e1</title>
<ellipse fill="#bbdefb" stroke="#1565c0" stroke-width="1.4" cx="450.72" cy="-390.99" rx="24.99" ry="24.99"/>
<text xml:space="preserve" text-anchor="middle" x="450.72" y="-386.31" font-family="Helvetica,sans-Serif" font-size="14.00" fill="#102027">0,1</text>
</g>
<!-- p0e0&#45;&gt;p0e1 -->
<g id="edge12" class="edge">
<title>p0e0&#45;&gt;p0e1</title>
<path fill="none" stroke="#9e9e9e" stroke-width="1.3" stroke-dasharray="5,2" d="M327.23,-375.96C350.8,-378.85 386.9,-383.28 413.82,-386.58"/>
<polygon fill="#9e9e9e" stroke="#9e9e9e" stroke-width="1.3" points="413.15,-390.03 423.51,-387.77 414.01,-383.08 413.15,-390.03"/>
<text xml:space="preserve" text-anchor="middle" x="376.36" y="-388.42" font-family="Helvetica,sans-Serif" font-size="10.00" fill="#37474f">ε:x/1 &#160;(ins)</text>
</g>
<!-- p1e1 -->
<g id="node8" class="node">
<title>p1e1</title>
<ellipse fill="#bbdefb" stroke="#1565c0" stroke-width="1.4" cx="450.72" cy="-322.99" rx="24.99" ry="24.99"/>
<text xml:space="preserve" text-anchor="middle" x="450.72" y="-318.31" font-family="Helvetica,sans-Serif" font-size="14.00" fill="#102027">1,1</text>
</g>
<!-- p0e0&#45;&gt;p1e1 -->
<g id="edge10" class="edge">
<title>p0e0&#45;&gt;p1e1</title>
<path fill="none" stroke="#b0bec5" stroke-width="1.3" d="M326.25,-365.07C350.29,-356.87 388.08,-344 415.52,-334.64"/>
<polygon fill="#b0bec5" stroke="#b0bec5" stroke-width="1.3" points="416.38,-338.05 424.72,-331.51 414.13,-331.42 416.38,-338.05"/>
<text xml:space="preserve" text-anchor="middle" x="376.36" y="-360.07" font-family="Helvetica,sans-Serif" font-size="10.00" fill="#90a4ae">h:ε/1 &#160;(del)</text>
</g>
<!-- p2e0 -->
<g id="node4" class="node">
<title>p2e0</title>
<ellipse fill="#bbdefb" stroke="#1565c0" stroke-width="1.4" cx="302" cy="-202.99" rx="24.99" ry="24.99"/>
<text xml:space="preserve" text-anchor="middle" x="302" y="-198.31" font-family="Helvetica,sans-Serif" font-size="14.00" fill="#102027">2,0</text>
</g>
<!-- p1e0&#45;&gt;p2e0 -->
<g id="edge3" class="edge">
<title>p1e0&#45;&gt;p2e0</title>
<path fill="none" stroke="#607d8b" stroke-width="1.3" d="M302,-262.5C302,-255.53 302,-247.82 302,-240.33"/>
<polygon fill="#607d8b" stroke="#607d8b" stroke-width="1.3" points="305.5,-240.46 302,-230.46 298.5,-240.46 305.5,-240.46"/>
<text xml:space="preserve" text-anchor="middle" x="292.62" y="-242.36" font-family="Helvetica,sans-Serif" font-size="10.00" fill="#37474f">e:e/0</text>
</g>
<!-- p2e1 -->
<g id="node9" class="node">
<title>p2e1</title>
<ellipse fill="#bbdefb" stroke="#1565c0" stroke-width="1.4" cx="450.72" cy="-237.99" rx="24.99" ry="24.99"/>
<text xml:space="preserve" text-anchor="middle" x="450.72" y="-233.31" font-family="Helvetica,sans-Serif" font-size="14.00" fill="#102027">2,1</text>
</g>
<!-- p1e0&#45;&gt;p2e1 -->
<g id="edge11" class="edge">
<title>p1e0&#45;&gt;p2e1</title>
<path fill="none" stroke="#b0bec5" stroke-width="1.3" d="M326.25,-280.07C350.29,-271.87 388.08,-259 415.52,-249.64"/>
<polygon fill="#b0bec5" stroke="#b0bec5" stroke-width="1.3" points="416.38,-253.05 424.72,-246.51 414.13,-246.42 416.38,-253.05"/>
<text xml:space="preserve" text-anchor="middle" x="376.36" y="-275.07" font-family="Helvetica,sans-Serif" font-size="10.00" fill="#90a4ae">e:a/1 &#160;(sub)</text>
</g>
<!-- p3e0 -->
<g id="node5" class="node">
<title>p3e0</title>
<ellipse fill="#bbdefb" stroke="#1565c0" stroke-width="1.4" cx="302" cy="-117.99" rx="24.99" ry="24.99"/>
<text xml:space="preserve" text-anchor="middle" x="302" y="-113.31" font-family="Helvetica,sans-Serif" font-size="14.00" fill="#102027">3,0</text>
</g>
<!-- p2e0&#45;&gt;p3e0 -->
<g id="edge4" class="edge">
<title>p2e0&#45;&gt;p3e0</title>
<path fill="none" stroke="#607d8b" stroke-width="1.3" d="M302,-177.5C302,-170.53 302,-162.82 302,-155.33"/>
<polygon fill="#607d8b" stroke="#607d8b" stroke-width="1.3" points="305.5,-155.46 302,-145.46 298.5,-155.46 305.5,-155.46"/>
<text xml:space="preserve" text-anchor="middle" x="292.62" y="-157.36" font-family="Helvetica,sans-Serif" font-size="10.00" fill="#37474f">l:l/0</text>
</g>
<!-- p4e0 -->
<g id="node6" class="node">
<title>p4e0</title>
<ellipse fill="#c8e6c9" stroke="#2e7d32" stroke-width="1.4" cx="302" cy="-28.99" rx="24.99" ry="24.99"/>
<ellipse fill="none" stroke="#2e7d32" stroke-width="1.4" cx="302" cy="-28.99" rx="28.99" ry="28.99"/>
<text xml:space="preserve" text-anchor="middle" x="302" y="-24.31" font-family="Helvetica,sans-Serif" font-size="14.00" fill="#102027">4,0</text>
</g>
<!-- p3e0&#45;&gt;p4e0 -->
<g id="edge5" class="edge">
<title>p3e0&#45;&gt;p4e0</title>
<path fill="none" stroke="#607d8b" stroke-width="1.3" d="M302,-92.36C302,-85.52 302,-77.96 302,-70.51"/>
<polygon fill="#607d8b" stroke="#607d8b" stroke-width="1.3" points="305.5,-70.59 302,-60.59 298.5,-70.59 305.5,-70.59"/>
<text xml:space="preserve" text-anchor="middle" x="292.62" y="-72.36" font-family="Helvetica,sans-Serif" font-size="10.00" fill="#37474f">o:o/0</text>
</g>
<!-- p3e1 -->
<g id="node10" class="node">
<title>p3e1</title>
<ellipse fill="#bbdefb" stroke="#1565c0" stroke-width="1.4" cx="450.72" cy="-144.99" rx="24.99" ry="24.99"/>
<text xml:space="preserve" text-anchor="middle" x="450.72" y="-140.31" font-family="Helvetica,sans-Serif" font-size="14.00" fill="#102027">3,1</text>
</g>
<!-- p3e0&#45;&gt;p3e1 -->
<g id="edge9" class="edge">
<title>p3e0&#45;&gt;p3e1</title>
<path fill="none" stroke="#2e7d32" stroke-width="2" d="M327.23,-122.45C350.48,-126.73 385.93,-133.25 412.72,-138.18"/>
<polygon fill="#2e7d32" stroke="#2e7d32" stroke-width="2" points="412.01,-141.61 422.48,-139.98 413.28,-134.72 412.01,-141.61"/>
<text xml:space="preserve" text-anchor="middle" x="376.36" y="-139.51" font-family="Helvetica,sans-Serif" font-size="10.00" fill="#1b5e20">ε:l/1</text>
</g>
<!-- p1e1&#45;&gt;p2e1 -->
<g id="edge6" class="edge">
<title>p1e1&#45;&gt;p2e1</title>
<path fill="none" stroke="#607d8b" stroke-width="1.3" d="M450.72,-297.5C450.72,-290.53 450.72,-282.82 450.72,-275.33"/>
<polygon fill="#607d8b" stroke="#607d8b" stroke-width="1.3" points="454.22,-275.46 450.72,-265.46 447.22,-275.46 454.22,-275.46"/>
<text xml:space="preserve" text-anchor="middle" x="441.35" y="-277.36" font-family="Helvetica,sans-Serif" font-size="10.00" fill="#37474f">e:e/0</text>
</g>
<!-- p2e1&#45;&gt;p3e1 -->
<g id="edge7" class="edge">
<title>p2e1&#45;&gt;p3e1</title>
<path fill="none" stroke="#607d8b" stroke-width="1.3" d="M450.72,-212.61C450.72,-203.28 450.72,-192.52 450.72,-182.36"/>
<polygon fill="#607d8b" stroke="#607d8b" stroke-width="1.3" points="454.22,-182.37 450.72,-172.37 447.22,-182.37 454.22,-182.37"/>
<text xml:space="preserve" text-anchor="middle" x="441.35" y="-188.36" font-family="Helvetica,sans-Serif" font-size="10.00" fill="#37474f">l:l/0</text>
</g>
<!-- p4e1 -->
<g id="node11" class="node">
<title>p4e1</title>
<ellipse fill="#c8e6c9" stroke="#2e7d32" stroke-width="1.4" cx="450.72" cy="-55.99" rx="24.99" ry="24.99"/>
<ellipse fill="none" stroke="#2e7d32" stroke-width="1.4" cx="450.72" cy="-55.99" rx="28.99" ry="28.99"/>
<text xml:space="preserve" text-anchor="middle" x="450.72" y="-51.31" font-family="Helvetica,sans-Serif" font-size="14.00" fill="#102027">4,1</text>
</g>
<!-- p3e1&#45;&gt;p4e1 -->
<g id="edge8" class="edge">
<title>p3e1&#45;&gt;p4e1</title>
<path fill="none" stroke="#2e7d32" stroke-width="2" d="M450.72,-119.36C450.72,-112.85 450.72,-105.69 450.72,-98.59"/>
<polygon fill="#2e7d32" stroke="#2e7d32" stroke-width="2" points="454.22,-98.65 450.72,-88.65 447.22,-98.65 454.22,-98.65"/>
<text xml:space="preserve" text-anchor="middle" x="441.35" y="-99.36" font-family="Helvetica,sans-Serif" font-size="10.00" fill="#1b5e20">o:o/0</text>
</g>
</g>
</svg>
