<?xml version="1.0" encoding="UTF-8" standalone="no"?>
<!DOCTYPE svg PUBLIC "-//W3C//DTD SVG 1.1//EN"
 "http://www.w3.org/Graphics/SVG/1.1/DTD/svg11.dtd">
<!-- Generated by graphviz version 14.1.5 (0)
 -->
<!-- Title: money_fst Pages: 1 -->
<svg width="586pt" height="85pt"
 viewBox="0.00 0.00 586.00 85.00" xmlns="http://www.w3.org/2000/svg" xmlns:xlink="http://www.w3.org/1999/xlink">
<g id="graph0" class="graph" transform="scale(1 1) rotate(0) translate(4 81.21)">
<title>money_fst</title>
<polygon fill="#ffffff" stroke="none" points="-4,4 -4,-81.21 581.62,-81.21 581.62,4 -4,4"/>
<text xml:space="preserve" text-anchor="start" x="114.44" y="-61.86" font-family="Helvetica,sans-Serif" font-weight="bold" font-size="13.00">MONEY verbalizer</text>
<text xml:space="preserve" text-anchor="start" x="247.19" y="-61.86" font-family="Helvetica,sans-Serif" font-size="13.00">   τ</text>
<text xml:space="preserve" text-anchor="start" x="268.19" y="-61.86" font-family="Helvetica,sans-Serif" baseline-shift="sub" font-size="13.00">MONEY</text>
<text xml:space="preserve" text-anchor="start" x="307.19" y="-61.86" font-family="Helvetica,sans-Serif" font-size="13.00"> :   &quot;$5&quot; → &quot;five dollars&quot;</text>
<!-- __start__ -->
<g id="node1" class="node">
<title>__start__</title>
<ellipse fill="#bbdefb" stroke="#1565c0" stroke-width="1.4" cx="0.36" cy="-28.91" rx="0.36" ry="0.36"/>
</g>
<!-- q0 -->
<g id="node2" class="node">
<title>q0</title>
<ellipse fill="#bbdefb" stroke="#1565c0" stroke-width="1.4" cx="57.52" cy="-28.91" rx="19.8" ry="19.8"/>
<text xml:space="preserve" text-anchor="middle" x="57.52" y="-24.23" font-family="Helvetica,sans-Serif" font-size="14.00" fill="#102027">0</text>
</g>
<!-- __start__&#45;&gt;q0 -->
<g id="edge1" class="edge">
<title>__start__&#45;&gt;q0</title>
<path fill="none" stroke="#607d8b" stroke-width="1.3" d="M1.35,-28.91C3.95,-28.91 14.29,-28.91 25.32,-28.91"/>
<polygon fill="#607d8b" stroke="#607d8b" stroke-width="1.3" points="25.27,-32.41 35.27,-28.91 25.27,-25.41 25.27,-32.41"/>
</g>
<!-- q1 -->
<g id="node3" class="node">
<title>q1</title>
<ellipse fill="#bbdefb" stroke="#1565c0" stroke-width="1.4" cx="178.12" cy="-28.91" rx="19.8" ry="19.8"/>
<text xml:space="preserve" text-anchor="middle" x="178.12" y="-24.23" font-family="Helvetica,sans-Serif" font-size="14.00" fill="#102027">1</text>
</g>
<!-- q0&#45;&gt;q1 -->
<g id="edge2" class="edge">
<title>q0&#45;&gt;q1</title>
<path fill="none" stroke="#2e7d32" stroke-width="2" d="M77.84,-28.91C96.02,-28.91 123.58,-28.91 145.05,-28.91"/>
<polygon fill="#2e7d32" stroke="#2e7d32" stroke-width="2" points="144.78,-32.41 154.78,-28.91 144.78,-25.41 144.78,-32.41"/>
<text xml:space="preserve" text-anchor="middle" x="117.82" y="-31.96" font-family="Helvetica,sans-Serif" font-size="11.00" fill="#1b5e20">$:ε / 0.0</text>
</g>
<!-- q2 -->
<g id="node4" class="node">
<title>q2</title>
<ellipse fill="#bbdefb" stroke="#1565c0" stroke-width="1.4" cx="312.97" cy="-28.91" rx="19.8" ry="19.8"/>
<text xml:space="preserve" text-anchor="middle" x="312.97" y="-24.23" font-family="Helvetica,sans-Serif" font-size="14.00" fill="#102027">2</text>
</g>
<!-- q1&#45;&gt;q2 -->
<g id="edge3" class="edge">
<title>q1&#45;&gt;q2</title>
<path fill="none" stroke="#2e7d32" stroke-width="2" d="M198.44,-28.91C219.79,-28.91 254.52,-28.91 279.95,-28.91"/>
<polygon fill="#2e7d32" stroke="#2e7d32" stroke-width="2" points="279.6,-32.41 289.6,-28.91 279.6,-25.41 279.6,-32.41"/>
<text xml:space="preserve" text-anchor="middle" x="245.55" y="-31.96" font-family="Helvetica,sans-Serif" font-size="11.00" fill="#1b5e20">5:five / 0.0</text>
</g>
<!-- q3 -->
<g id="node5" class="node">
<title>q3</title>
<ellipse fill="#c8e6c9" stroke="#2e7d32" stroke-width="1.4" cx="553.82" cy="-28.91" rx="19.8" ry="19.8"/>
<ellipse fill="none" stroke="#2e7d32" stroke-width="1.4" cx="553.82" cy="-28.91" rx="23.8" ry="23.8"/>
<text xml:space="preserve" text-anchor="middle" x="553.82" y="-24.23" font-family="Helvetica,sans-Serif" font-size="14.00" fill="#102027">3</text>
</g>
<!-- q2&#45;&gt;q3 -->
<g id="edge4" class="edge">
<title>q2&#45;&gt;q3</title>
<path fill="none" stroke="#2e7d32" stroke-width="2" d="M333.11,-28.91C372.95,-28.91 465.31,-28.91 516.7,-28.91"/>
<polygon fill="#2e7d32" stroke="#2e7d32" stroke-width="2" points="516.39,-32.41 526.39,-28.91 516.39,-25.41 516.39,-32.41"/>
<text xml:space="preserve" text-anchor="middle" x="431.39" y="-31.96" font-family="Helvetica,sans-Serif" font-size="11.00" fill="#1b5e20">ε:dollars / 0.0</text>
</g>
<!-- q2&#45;&gt;q3 -->
<g id="edge5" class="edge">
<title>q2&#45;&gt;q3</title>
<path fill="none" stroke="#b0bec5" stroke-width="1.3" d="M330.62,-19.07C336.74,-15.98 343.87,-12.97 350.77,-11.41 420.68,4.37 441.82,3.01 512.02,-11.41 515.1,-12.04 518.23,-12.92 521.32,-13.94"/>
<polygon fill="#b0bec5" stroke="#b0bec5" stroke-width="1.3" points="519.75,-17.08 530.34,-17.43 522.27,-10.55 519.75,-17.08"/>
<text xml:space="preserve" text-anchor="middle" x="431.39" y="-14.46" font-family="Helvetica,sans-Serif" font-size="11.00" fill="#90a4ae">ε:dollar / 1.0 &#160;(if amount = 1)</text>
</g>
</g>
</svg>
