<svg xmlns="http://www.w3.org/2000/svg" xmlns:xlink="http://www.w3.org/1999/xlink" contentStyleType="text/css" data-diagram-type="ACTIVITY" height="973px" preserveAspectRatio="none" style="width:575px;height:973px;background:#FFFFFF;" version="1.1" viewBox="0 0 575 973" width="575px" zoomAndPan="magnify"><?plantuml $version$?><defs/><g><g class="title" data-source-line="21"><text fill="#000000" font-family="sans-serif" font-size="14" font-weight="700" lengthAdjust="spacing" textLength="160.5234" x="105.0902" y="34.9659">Multilingual correction</text><text fill="#000000" font-family="sans-serif" font-size="14" font-weight="700" lengthAdjust="spacing" textLength="195.0163" x="272.8935" y="34.9659">&#8212;  detect &#8594; route &#8594; rescore</text></g><rect fill="#FFFFCC" height="42.24" rx="2.5" ry="2.5" style="stroke:#FFDD88;stroke-width:3;" width="544" x="13" y="53.0679"/><text fill="#000000" font-family="monospace" font-size="10" lengthAdjust="spacing" textLength="534" x="20" y="65.6879">This&#160;syntax&#160;is&#160;deprecated,&#160;you&#160;must&#160;add&#160;&lt;&lt;#BBDEFB&gt;&gt;&#160;at&#160;the&#160;end&#160;of&#160;the&#160;line,&#160;after&#160;the&#160;';'</text><text fill="#000000" font-family="monospace" font-size="10" lengthAdjust="spacing" textLength="534" x="20" y="89.3079">This&#160;syntax&#160;is&#160;deprecated,&#160;you&#160;must&#160;add&#160;&lt;&lt;#C8E6C9&gt;&gt;&#160;at&#160;the&#160;end&#160;of&#160;the&#160;line,&#160;after&#160;the&#160;';'</text><ellipse cx="228.1601" cy="112.3079" fill="#1565C0" rx="10" ry="10" style="stroke:#222222;stroke-width:1;"/><path d="M331.1147,146.6269 L331.1147,156.4799 L311.1147,160.4799 L331.1147,164.4799 L331.1147,174.333 A0,0 0 0 0 331.1147,174.333 L507.3088,174.333 A0,0 0 0 0 507.3088,174.333 L507.3088,156.6269 L497.3088,146.6269 L331.1147,146.6269 A0,0 0 0 0 331.1147,146.6269" fill="#ECEFF1" style="stroke:#181818;stroke-width:0.5;"/><path d="M497.3088,146.6269 L497.3088,156.6269 L507.3088,156.6269 L497.3088,146.6269" fill="#ECEFF1" style="stroke:#181818;stroke-width:0.5;"/><text fill="#000000" font-family="sans-serif" font-size="13" lengthAdjust="spacing" textLength="155.1942" x="337.1147" y="165.524">words: ["hello", "mundo"]</text><rect fill="#FFF59D" height="36.3441" rx="12.5" ry="12.5" style="stroke:#F9A825;stroke-width:0.5;" width="165.9091" x="145.2056" y="142.3079"/><text fill="#102027" font-family="sans-serif" font-size="12" lengthAdjust="spacing" textLength="145.9091" x="155.2056" y="165.136">Tokenize input into words</text><rect fill="#FFF59D" height="72.0323" rx="12.5" ry="12.5" style="stroke:#F9A825;stroke-width:0.5;" width="209.1454" x="123.5875" y="198.652"/><text fill="#102027" font-family="sans-serif" font-size="12" font-weight="700" lengthAdjust="spacing" textLength="189.1454" x="133.5875" y="221.4801">LanguageDetector.detect_word</text><text fill="#102027" font-family="sans-serif" font-size="12" lengthAdjust="spacing" textLength="43.3683" x="164.6917" y="237.8242">argmax</text><text fill="#102027" font-family="sans-serif" font-size="9" lengthAdjust="spacing" textLength="4.68" x="208.06" y="241.7032">&#8467;</text><text fill="#102027" font-family="sans-serif" font-size="12" lengthAdjust="spacing" textLength="75.7685" x="215.86" y="237.8242">P(&#8467; | context)</text><text fill="#102027" font-family="sans-serif" font-size="12" lengthAdjust="spacing" textLength="89.2327" x="183.5438" y="257.1683">per word / span</text><rect fill="#FFF59D" height="52.6882" rx="12.5" ry="12.5" style="stroke:#F9A825;stroke-width:0.5;" width="166.833" x="144.7436" y="290.6843"/><text fill="#102027" font-family="sans-serif" font-size="12" lengthAdjust="spacing" textLength="120.3369" x="167.9917" y="313.5124">Code-switch present?</text><text fill="#102027" font-family="sans-serif" font-size="12" lengthAdjust="spacing" textLength="146.833" x="154.7436" y="329.8566">(more than one &#8467; argmax)</text><polygon fill="#BBDEFB" points="216.1601,363.3726,240.1601,363.3726,252.1601,375.3726,240.1601,387.3726,216.1601,387.3726,204.1601,375.3726,216.1601,363.3726" style="stroke:#1565C0;stroke-width:0.5;stroke-linejoin:miter;stroke-miterlimit:10;"/><text fill="#102027" font-family="sans-serif" font-size="11" lengthAdjust="spacing" textLength="17.0829" x="219.6187" y="379.6405">yes</text><text fill="#000000" font-family="sans-serif" font-size="11" lengthAdjust="spacing" textLength="32.8018" x="171.3584" y="372.1496">switch</text><text fill="#000000" font-family="sans-serif" font-size="11" lengthAdjust="spacing" textLength="65.4385" x="252.1601" y="372.1496">monolingual</text><rect fill="#FFF59D" height="69.0323" rx="12.5" ry="12.5" style="stroke:#F9A825;stroke-width:0.5;" width="219.0934" x="16" y="397.3726"/><text fill="#102027" font-family="sans-serif" font-size="12" font-weight="700" lengthAdjust="spacing" textLength="199.0934" x="26" y="420.2007">CodeSwitchTransducer.best_path</text><text fill="#102027" font-family="sans-serif" font-size="12" lengthAdjust="spacing" textLength="170.4012" x="40.3461" y="436.5448">Viterbi over (word &#215; language)</text><text fill="#102027" font-family="sans-serif" font-size="12" lengthAdjust="spacing" textLength="110.3528" x="70.3703" y="452.8889">with switch_penalty</text><rect fill="#FFF59D" height="52.6882" rx="12.5" ry="12.5" style="stroke:#F9A825;stroke-width:0.5;" width="212.3493" x="19.372" y="486.4049"/><text fill="#102027" font-family="sans-serif" font-size="12" lengthAdjust="spacing" textLength="168.7932" x="41.1501" y="509.233">Segment into LanguageSpans</text><text fill="#102027" font-family="sans-serif" font-size="12" lengthAdjust="spacing" textLength="192.3493" x="29.372" y="525.5771">(contiguous single-language runs)</text><rect fill="#FFF59D" height="58.1362" rx="12.5" ry="12.5" style="stroke:#F9A825;stroke-width:0.5;" width="151.3602" x="255.0934" y="397.3726"/><text fill="#102027" font-family="sans-serif" font-size="12" lengthAdjust="spacing" textLength="121.6928" x="269.9271" y="420.2007">Single LanguageSpan</text><text fill="#102027" font-family="sans-serif" font-size="16" font-weight="700" lengthAdjust="spacing" textLength="131.3602" x="265.0934" y="440.8207">whole utterance</text><polygon fill="#BBDEFB" points="228.1601,545.0931,240.1601,557.0931,228.1601,569.0931,216.1601,557.0931,228.1601,545.0931" style="stroke:#1565C0;stroke-width:0.5;stroke-linejoin:miter;stroke-miterlimit:10;"/><rect fill="#FFF59D" height="52.6882" rx="12.5" ry="12.5" style="stroke:#F9A825;stroke-width:0.5;" width="195.1652" x="130.5775" y="589.0931"/><text fill="#102027" font-family="sans-serif" font-size="12" lengthAdjust="spacing" textLength="124.4409" x="165.9397" y="611.9212">Route each span to its</text><text fill="#102027" font-family="sans-serif" font-size="12" lengthAdjust="spacing" textLength="75.8885" x="140.5775" y="628.2654">per-language</text><text fill="#102027" font-family="sans-serif" font-size="12" font-weight="700" lengthAdjust="spacing" textLength="96.1567" x="219.5861" y="628.2654">LanguageModel</text><rect fill="#555555" height="6" rx="2.5" ry="2.5" style="stroke:#555555;stroke-width:1;" width="339.6857" x="58.3173" y="661.7814"/><rect fill="#FFF59D" height="52.6882" rx="12.5" ry="12.5" style="stroke:#F9A825;stroke-width:0.5;" width="142.6768" x="72.3173" y="687.7814"/><text fill="#102027" font-family="sans-serif" font-size="12" lengthAdjust="spacing" textLength="92.4247" x="97.4434" y="710.6095">Rescore en span</text><text fill="#102027" font-family="sans-serif" font-size="12" lengthAdjust="spacing" textLength="122.6768" x="82.3173" y="726.9536">LanguageModel("en")</text><rect fill="#FFF59D" height="52.6882" rx="12.5" ry="12.5" style="stroke:#F9A825;stroke-width:0.5;" width="141.0089" x="242.9941" y="687.7814"/><text fill="#102027" font-family="sans-serif" font-size="12" lengthAdjust="spacing" textLength="90.7567" x="268.1202" y="710.6095">Rescore es span</text><text fill="#102027" font-family="sans-serif" font-size="12" lengthAdjust="spacing" textLength="121.0089" x="252.9941" y="726.9536">LanguageModel("es")</text><rect fill="#555555" height="6" rx="2.5" ry="2.5" style="stroke:#555555;stroke-width:1;" width="339.6857" x="58.3173" y="760.4696"/><rect fill="#FFF59D" height="52.6882" rx="12.5" ry="12.5" style="stroke:#F9A825;stroke-width:0.5;" width="169.0651" x="143.6276" y="786.4696"/><text fill="#102027" font-family="sans-serif" font-size="12" lengthAdjust="spacing" textLength="149.0651" x="153.6276" y="809.2977">Recombine spans into one</text><text fill="#102027" font-family="sans-serif" font-size="12" lengthAdjust="spacing" textLength="102.2767" x="177.0218" y="825.6418">scored hypothesis</text><rect fill="#FFF59D" height="52.6882" rx="12.5" ry="12.5" style="stroke:#F9A825;stroke-width:0.5;" width="239.7336" x="108.2934" y="859.1578"/><text fill="#102027" font-family="sans-serif" font-size="12" lengthAdjust="spacing" textLength="119.7968" x="168.2617" y="881.9859">Emit CodeSwitchPath</text><text fill="#102027" font-family="sans-serif" font-size="12" lengthAdjust="spacing" textLength="219.7336" x="118.2934" y="898.33">(word_languages, switch_points, score)</text><ellipse cx="228.1601" cy="942.8461" fill="none" rx="11" ry="11" style="stroke:#222222;stroke-width:1;"/><ellipse cx="228.1601" cy="942.8461" fill="#222222" rx="6" ry="6" style="stroke:#222222;stroke-width:1;"/><line style="stroke:#607D8B;stroke-width:1.3;" x1="228.1601" x2="228.1601" y1="122.3079" y2="142.3079"/><polygon fill="#607D8B" points="224.1601,132.3079,228.1601,142.3079,232.1601,132.3079,228.1601,136.3079" style="stroke:#607D8B;stroke-width:1;stroke-linejoin:miter;stroke-miterlimit:10;"/><line style="stroke:#607D8B;stroke-width:1.3;" x1="228.1601" x2="228.1601" y1="178.652" y2="198.652"/><polygon fill="#607D8B" points="224.1601,188.652,228.1601,198.652,232.1601,188.652,228.1601,192.652" style="stroke:#607D8B;stroke-width:1;stroke-linejoin:miter;stroke-miterlimit:10;"/><line style="stroke:#607D8B;stroke-width:1.3;" x1="228.1601" x2="228.1601" y1="270.6843" y2="290.6843"/><polygon fill="#607D8B" points="224.1601,280.6843,228.1601,290.6843,232.1601,280.6843,228.1601,284.6843" style="stroke:#607D8B;stroke-width:1;stroke-linejoin:miter;stroke-miterlimit:10;"/><line style="stroke:#607D8B;stroke-width:1.3;" x1="125.5467" x2="125.5467" y1="466.4049" y2="486.4049"/><polygon fill="#607D8B" points="121.5467,476.4049,125.5467,486.4049,129.5467,476.4049,125.5467,480.4049" style="stroke:#607D8B;stroke-width:1;stroke-linejoin:miter;stroke-miterlimit:10;"/><line style="stroke:#607D8B;stroke-width:1.3;" x1="204.1601" x2="125.5467" y1="375.3726" y2="375.3726"/><line style="stroke:#607D8B;stroke-width:1.3;" x1="125.5467" x2="125.5467" y1="375.3726" y2="397.3726"/><polygon fill="#607D8B" points="121.5467,387.3726,125.5467,397.3726,129.5467,387.3726,125.5467,391.3726" style="stroke:#607D8B;stroke-width:1;stroke-linejoin:miter;stroke-miterlimit:10;"/><line style="stroke:#607D8B;stroke-width:1.3;" x1="252.1601" x2="330.7736" y1="375.3726" y2="375.3726"/><line style="stroke:#607D8B;stroke-width:1.3;" x1="330.7736" x2="330.7736" y1="375.3726" y2="397.3726"/><polygon fill="#607D8B" points="326.7736,387.3726,330.7736,397.3726,334.7736,387.3726,330.7736,391.3726" style="stroke:#607D8B;stroke-width:1;stroke-linejoin:miter;stroke-miterlimit:10;"/><line style="stroke:#607D8B;stroke-width:1.3;" x1="125.5467" x2="125.5467" y1="539.0931" y2="557.0931"/><line style="stroke:#607D8B;stroke-width:1.3;" x1="125.5467" x2="216.1601" y1="557.0931" y2="557.0931"/><polygon fill="#607D8B" points="206.1601,553.0931,216.1601,557.0931,206.1601,561.0931,210.1601,557.0931" style="stroke:#607D8B;stroke-width:1;stroke-linejoin:miter;stroke-miterlimit:10;"/><line style="stroke:#607D8B;stroke-width:1.3;" x1="330.7736" x2="330.7736" y1="455.5087" y2="557.0931"/><line style="stroke:#607D8B;stroke-width:1.3;" x1="330.7736" x2="240.1601" y1="557.0931" y2="557.0931"/><polygon fill="#607D8B" points="250.1601,553.0931,240.1601,557.0931,250.1601,561.0931,246.1601,557.0931" style="stroke:#607D8B;stroke-width:1;stroke-linejoin:miter;stroke-miterlimit:10;"/><line style="stroke:#607D8B;stroke-width:1.3;" x1="228.1601" x2="228.1601" y1="343.3726" y2="363.3726"/><polygon fill="#607D8B" points="224.1601,353.3726,228.1601,363.3726,232.1601,353.3726,228.1601,357.3726" style="stroke:#607D8B;stroke-width:1;stroke-linejoin:miter;stroke-miterlimit:10;"/><line style="stroke:#607D8B;stroke-width:1.3;" x1="228.1601" x2="228.1601" y1="569.0931" y2="589.0931"/><polygon fill="#607D8B" points="224.1601,579.0931,228.1601,589.0931,232.1601,579.0931,228.1601,583.0931" style="stroke:#607D8B;stroke-width:1;stroke-linejoin:miter;stroke-miterlimit:10;"/><line style="stroke:#607D8B;stroke-width:1.3;" x1="143.6557" x2="143.6557" y1="667.7814" y2="687.7814"/><polygon fill="#607D8B" points="139.6557,677.7814,143.6557,687.7814,147.6557,677.7814,143.6557,681.7814" style="stroke:#607D8B;stroke-width:1;stroke-linejoin:miter;stroke-miterlimit:10;"/><line style="stroke:#607D8B;stroke-width:1.3;" x1="313.4986" x2="313.4986" y1="667.7814" y2="687.7814"/><polygon fill="#607D8B" points="309.4986,677.7814,313.4986,687.7814,317.4986,677.7814,313.4986,681.7814" style="stroke:#607D8B;stroke-width:1;stroke-linejoin:miter;stroke-miterlimit:10;"/><line style="stroke:#607D8B;stroke-width:1.3;" x1="143.6557" x2="143.6557" y1="740.4696" y2="760.4696"/><polygon fill="#607D8B" points="139.6557,750.4696,143.6557,760.4696,147.6557,750.4696,143.6557,754.4696" style="stroke:#607D8B;stroke-width:1;stroke-linejoin:miter;stroke-miterlimit:10;"/><line style="stroke:#607D8B;stroke-width:1.3;" x1="313.4986" x2="313.4986" y1="740.4696" y2="760.4696"/><polygon fill="#607D8B" points="309.4986,750.4696,313.4986,760.4696,317.4986,750.4696,313.4986,754.4696" style="stroke:#607D8B;stroke-width:1;stroke-linejoin:miter;stroke-miterlimit:10;"/><line style="stroke:#607D8B;stroke-width:1.3;" x1="228.1601" x2="228.1601" y1="641.7814" y2="661.7814"/><polygon fill="#607D8B" points="224.1601,651.7814,228.1601,661.7814,232.1601,651.7814,228.1601,655.7814" style="stroke:#607D8B;stroke-width:1;stroke-linejoin:miter;stroke-miterlimit:10;"/><line style="stroke:#607D8B;stroke-width:1.3;" x1="228.1601" x2="228.1601" y1="766.4696" y2="786.4696"/><polygon fill="#607D8B" points="224.1601,776.4696,228.1601,786.4696,232.1601,776.4696,228.1601,780.4696" style="stroke:#607D8B;stroke-width:1;stroke-linejoin:miter;stroke-miterlimit:10;"/><line style="stroke:#607D8B;stroke-width:1.3;" x1="228.1601" x2="228.1601" y1="839.1578" y2="859.1578"/><polygon fill="#607D8B" points="224.1601,849.1578,228.1601,859.1578,232.1601,849.1578,228.1601,853.1578" style="stroke:#607D8B;stroke-width:1;stroke-linejoin:miter;stroke-miterlimit:10;"/><line style="stroke:#607D8B;stroke-width:1.3;" x1="228.1601" x2="228.1601" y1="911.8461" y2="931.8461"/><polygon fill="#607D8B" points="224.1601,921.8461,228.1601,931.8461,232.1601,921.8461,228.1601,925.8461" style="stroke:#607D8B;stroke-width:1;stroke-linejoin:miter;stroke-miterlimit:10;"/><?plantuml-src TLJRRjj647tdLmna8960HBALo1VHTg0B1GI84yCo-b8Lmf8SaGijTudTfHMbBT2781-G5kW7zK_y9PrTIfRiE7mWoBcUkPnv2MEqc5Yu__OTjAeirbze4gKHM6Bv7RThM0YrWeNIO7E4eXAM2owpYWaWEqq1k99GyX99ZEtW9NnWJfrX7PuSIvui3J2T5Upp_Fxhtt3TTEy_A82q-Dcse4GDfcGoX95ASRhYDiblDPCchHBK59DGAN671epNGQcuj2O4PFJZF86RBVGKuZLmQrpKrs83vW7L5IKG3kOr4sWjzY5LYUcad6MQ5QPp4mt6Lr6xIA4vsjNt0Zv-k8OBO4LCK0ycaqdlR0mT-ZeRd7Px8SMRg4gcp5jVG2mgX8FXS1nDXixig7VS6ns6y14hgvdelFz4HWVHA9fCZfp-RQytE7xRQWTcoMN920d4B5bcsWKTAQ7gfFJiMPYSfMf5mu054mRtD2ak64tgbfex43oJ1KeB2RsecJkhWTPgjGb-V7WoFXq-LTxcD3g9ni1H-ysUyc4vVWy0Xiy0fUuuZT8fwgtKTuga4vhwHdPqs3tidf1ip5cXPFf3gBg3UmRx4Ukcad9gcRPFXT53a6vqCdxJ3VuC0ikjG3YFBw-Ut-FpJdm9SF_NFq0j_3avWi2uZ47_LYrHyYy8r9ZAqjigM1544mPIaO_cMMwtSoPCNjU7Nniv2g4Qhw1HKAsgyLk0CWNd4WHzWlUKGkqQpTpvEumpMRFft5Jn9N7flEC-Vk3LJ3fYEIVQCS-lODFHlkFPwosPg2pQZNSpsImSzMrEV5AIIgPeTQ9M6F05DDTeMkuEI6ZMlYqgoW5-ZhRj68sTbypcDUHVEArVp47T4QYcH_NVlx0bA84b_tn3y7c9aWcx3btyAMP-WNrxjwsPKZc64BjQULQfYcu3pLFWZlAwaeQ08t43g3AfDWFteAVU-56ucRo0LQv8Mj5Xe3eI3DrW-8AcSkENO7Tl20hT6D_XNSQzqVaxumeF0pgUIvVoPdDQgNt6ftjassoWRBHgQs0Pu_AHZ_c9Zt4-Rdjy5iA9YIfYEiNUtjHDes7EvEOuvkjIqGWDfoKz69r6nwEpVbHmktTwhsbcr5etelcsDlFgOJJ-zjAlYqV9ZLNb_m00?></g></svg>