<svg xmlns="http://www.w3.org/2000/svg" xmlns:xlink="http://www.w3.org/1999/xlink" contentStyleType="text/css" data-diagram-type="ACTIVITY" height="829px" preserveAspectRatio="none" style="width:905px;height:829px;background:#FFFFFF;" version="1.1" viewBox="0 0 905 829" width="905px" zoomAndPan="magnify"><?plantuml $version$?><defs/><g><g class="title" data-source-line="22"><text fill="#000000" font-family="sans-serif" font-size="14" font-weight="700" lengthAdjust="spacing" textLength="57.4558" x="242.6911" y="34.9659">TN / ITN</text><text fill="#000000" font-family="sans-serif" font-size="14" font-weight="700" lengthAdjust="spacing" textLength="243.7656" x="307.4269" y="34.9659">&#8212;  classify &#8594; normalize-per-class (&#964;</text><text fill="#000000" font-family="sans-serif" font-size="11" font-weight="700" lengthAdjust="spacing" textLength="5.676" x="551.1925" y="38.8449">c</text><text fill="#000000" font-family="sans-serif" font-size="14" font-weight="700" lengthAdjust="spacing" textLength="104.2001" x="556.8684" y="34.9659">) &#8594; reassemble</text></g><rect fill="#FFFFCC" height="42.24" rx="2.5" ry="2.5" style="stroke:#FFDD88;stroke-width:3;" width="874.7597" x="13" y="56.0679"/><text fill="#000000" font-family="monospace" font-size="10" lengthAdjust="spacing" textLength="534" x="20" y="68.6879">This&#160;syntax&#160;is&#160;deprecated,&#160;you&#160;must&#160;add&#160;&lt;&lt;#BBDEFB&gt;&gt;&#160;at&#160;the&#160;end&#160;of&#160;the&#160;line,&#160;after&#160;the&#160;';'</text><text fill="#000000" font-family="monospace" font-size="10" lengthAdjust="spacing" textLength="534" x="20" y="92.3079">This&#160;syntax&#160;is&#160;deprecated,&#160;you&#160;must&#160;add&#160;&lt;&lt;#C8E6C9&gt;&gt;&#160;at&#160;the&#160;end&#160;of&#160;the&#160;line,&#160;after&#160;the&#160;';'</text><ellipse cx="427.3798" cy="115.3079" fill="#1565C0" rx="10" ry="10" style="stroke:#222222;stroke-width:1;"/><rect fill="#FFF59D" height="69.0323" rx="12.5" ry="12.5" style="stroke:#F9A825;stroke-width:0.5;" width="233.3015" x="310.7291" y="145.3079"/><text fill="#102027" font-family="sans-serif" font-size="12" lengthAdjust="spacing" textLength="55.5124" x="399.6236" y="168.136">Input text</text><text fill="#102027" font-family="sans-serif" font-size="12" lengthAdjust="spacing" textLength="133.6569" x="360.5514" y="184.4801">(TN: "I have 123 apples"</text><text fill="#102027" font-family="sans-serif" font-size="12" lengthAdjust="spacing" textLength="213.3015" x="320.7291" y="200.8242">ITN: "... one hundred twenty three ...")</text><path d="M540.9004,237.2974 L540.9004,264.8564 L520.9004,268.8564 L540.9004,272.8564 L540.9004,300.4154 A0,0 0 0 0 540.9004,300.4154 L722.1528,300.4154 A0,0 0 0 0 722.1528,300.4154 L722.1528,247.2974 L712.1528,237.2974 L540.9004,237.2974 A0,0 0 0 0 540.9004,237.2974" fill="#ECEFF1" style="stroke:#181818;stroke-width:0.5;"/><path d="M712.1528,237.2974 L712.1528,247.2974 L722.1528,247.2974 L712.1528,237.2974" fill="#ECEFF1" style="stroke:#181818;stroke-width:0.5;"/><text fill="#000000" font-family="sans-serif" font-size="13" lengthAdjust="spacing" textLength="160.2524" x="546.9004" y="256.1944">c &#8712; {CARDINAL, ORDINAL,</text><text fill="#000000" font-family="sans-serif" font-size="13" lengthAdjust="spacing" textLength="126.5292" x="572.2121" y="273.9004">MONEY, TIME, DATE,</text><text fill="#000000" font-family="sans-serif" font-size="13" lengthAdjust="spacing" textLength="125.5021" x="572.7256" y="291.6064">MEASURE, &#8230;, PLAIN}</text><rect fill="#FFF59D" height="69.0323" rx="12.5" ry="12.5" style="stroke:#F9A825;stroke-width:0.5;" width="187.0412" x="333.8592" y="234.3402"/><text fill="#102027" font-family="sans-serif" font-size="12" font-weight="700" lengthAdjust="spacing" textLength="89.7126" x="382.5235" y="257.1683">Classifier WFST</text><text fill="#102027" font-family="sans-serif" font-size="12" lengthAdjust="spacing" textLength="167.0412" x="343.8592" y="273.5124">tag tokens with SemioticClass</text><text fill="#102027" font-family="sans-serif" font-size="12" lengthAdjust="spacing" textLength="152.8797" x="350.94" y="289.8566">&#8594; Vec&amp;lt;TaggedToken&amp;gt;</text><rect fill="#FFF59D" height="36.3441" rx="12.5" ry="12.5" style="stroke:#F9A825;stroke-width:0.5;" width="149.0849" x="352.8374" y="379.7167"/><text fill="#102027" font-family="sans-serif" font-size="12" lengthAdjust="spacing" textLength="129.0849" x="362.8374" y="402.5448">Which SemioticClass c?</text><line style="stroke:#607D8B;stroke-width:1.5;" x1="128.324" x2="775.9052" y1="436.0608" y2="436.0608"/><rect fill="#FFF59D" height="55.6882" rx="12.5" ry="12.5" style="stroke:#F9A825;stroke-width:0.5;" width="224.6481" x="16" y="472.5427"/><text fill="#102027" font-family="sans-serif" font-size="12" lengthAdjust="spacing" textLength="5.88" x="103.4014" y="495.3708">&#964;</text><text fill="#102027" font-family="sans-serif" font-size="9" lengthAdjust="spacing" textLength="43.9653" x="109.2814" y="499.2498">CARDINAL</text><text fill="#102027" font-family="sans-serif" font-size="12" lengthAdjust="spacing" textLength="204.6481" x="26" y="514.7149">"123" &#8596; "one hundred twenty three"</text><rect fill="#FFF59D" height="55.6882" rx="12.5" ry="12.5" style="stroke:#F9A825;stroke-width:0.5;" width="131.0835" x="250.6481" y="472.5427"/><text fill="#102027" font-family="sans-serif" font-size="12" lengthAdjust="spacing" textLength="5.88" x="297.1847" y="495.3708">&#964;</text><text fill="#102027" font-family="sans-serif" font-size="9" lengthAdjust="spacing" textLength="32.1302" x="303.0647" y="499.2498">MONEY</text><text fill="#102027" font-family="sans-serif" font-size="12" lengthAdjust="spacing" textLength="111.0835" x="260.6481" y="514.7149">"$5" &#8596; "five dollars"</text><rect fill="#FFF59D" height="39.3441" rx="12.5" ry="12.5" style="stroke:#F9A825;stroke-width:0.5;" width="152.301" x="409.7315" y="480.7148"/><text fill="#102027" font-family="sans-serif" font-size="12" lengthAdjust="spacing" textLength="5.88" x="419.7315" y="503.5428">&#964;</text><text fill="#102027" font-family="sans-serif" font-size="9" lengthAdjust="spacing" textLength="4.32" x="425.6116" y="507.4218">c</text><text fill="#102027" font-family="sans-serif" font-size="12" lengthAdjust="spacing" textLength="115.8608" x="436.1717" y="503.5428">(per-class verbalizer)</text><rect fill="#FFF59D" height="36.3441" rx="12.5" ry="12.5" style="stroke:#F9A825;stroke-width:0.5;" width="161.709" x="695.0507" y="482.2148"/><text fill="#102027" font-family="sans-serif" font-size="12" lengthAdjust="spacing" textLength="141.709" x="705.0507" y="505.0428">pass through unchanged</text><line style="stroke:#607D8B;stroke-width:1.5;" x1="128.324" x2="775.9052" y1="548.2309" y2="548.2309"/><rect fill="#FFF59D" height="36.3441" rx="12.5" ry="12.5" style="stroke:#F9A825;stroke-width:0.5;" width="146.0969" x="354.3314" y="323.3726"/><text fill="#102027" font-family="sans-serif" font-size="12" lengthAdjust="spacing" textLength="126.0969" x="364.3314" y="346.2007">for each TaggedToken</text><polygon fill="#BBDEFB" points="392.3341,568.2309,462.4256,568.2309,474.4256,580.2309,462.4256,592.2309,392.3341,592.2309,380.3341,580.2309,392.3341,568.2309" style="stroke:#1565C0;stroke-width:0.5;stroke-linejoin:miter;stroke-miterlimit:10;"/><text fill="#000000" font-family="sans-serif" font-size="11" lengthAdjust="spacing" textLength="13.4529" x="431.3798" y="603.9898">no</text><text fill="#102027" font-family="sans-serif" font-size="11" lengthAdjust="spacing" textLength="70.0915" x="392.3341" y="584.4989">more tokens?</text><text fill="#000000" font-family="sans-serif" font-size="11" lengthAdjust="spacing" textLength="17.0829" x="474.4256" y="577.0079">yes</text><rect fill="#FFF59D" height="69.0323" rx="12.5" ry="12.5" style="stroke:#F9A825;stroke-width:0.5;" width="186.4532" x="334.1532" y="625.4898"/><text fill="#102027" font-family="sans-serif" font-size="12" font-weight="700" lengthAdjust="spacing" textLength="71.4605" x="391.6496" y="648.3179">Reassemble</text><text fill="#102027" font-family="sans-serif" font-size="12" lengthAdjust="spacing" textLength="166.4532" x="344.1532" y="664.662">concatenate verbalized spans</text><text fill="#102027" font-family="sans-serif" font-size="12" lengthAdjust="spacing" textLength="91.1047" x="381.8275" y="681.0062">in original order</text><rect fill="#FFF59D" height="52.6882" rx="12.5" ry="12.5" style="stroke:#F9A825;stroke-width:0.5;" width="239.4216" x="307.6691" y="714.5222"/><text fill="#102027" font-family="sans-serif" font-size="12" lengthAdjust="spacing" textLength="149.773" x="352.4933" y="737.3503">Emit Vec&amp;lt;(String, W)&amp;gt;</text><text fill="#102027" font-family="sans-serif" font-size="12" lengthAdjust="spacing" textLength="219.4216" x="317.6691" y="753.6944">(weighted candidates for beam search)</text><ellipse cx="427.3798" cy="798.2104" fill="none" rx="11" ry="11" style="stroke:#222222;stroke-width:1;"/><ellipse cx="427.3798" cy="798.2104" fill="#222222" rx="6" ry="6" style="stroke:#222222;stroke-width:1;"/><line style="stroke:#607D8B;stroke-width:1.3;" x1="427.3798" x2="427.3798" y1="125.3079" y2="145.3079"/><polygon fill="#607D8B" points="423.3798,135.3079,427.3798,145.3079,431.3798,135.3079,427.3798,139.3079" style="stroke:#607D8B;stroke-width:1;stroke-linejoin:miter;stroke-miterlimit:10;"/><line style="stroke:#607D8B;stroke-width:1.3;" x1="427.3798" x2="427.3798" y1="214.3402" y2="234.3402"/><polygon fill="#607D8B" points="423.3798,224.3402,427.3798,234.3402,431.3798,224.3402,427.3798,228.3402" style="stroke:#607D8B;stroke-width:1;stroke-linejoin:miter;stroke-miterlimit:10;"/><line style="stroke:#607D8B;stroke-width:1.3;" x1="128.324" x2="128.324" y1="437.5608" y2="472.5427"/><polygon fill="#607D8B" points="124.324,462.5427,128.324,472.5427,132.324,462.5427,128.324,466.5427" style="stroke:#607D8B;stroke-width:1;stroke-linejoin:miter;stroke-miterlimit:10;"/><text fill="#000000" font-family="sans-serif" font-size="11" lengthAdjust="spacing" textLength="53.7346" x="132.324" y="459.3197">CARDINAL</text><line style="stroke:#607D8B;stroke-width:1.3;" x1="316.1898" x2="316.1898" y1="437.5608" y2="472.5427"/><polygon fill="#607D8B" points="312.1898,462.5427,316.1898,472.5427,320.1898,462.5427,316.1898,466.5427" style="stroke:#607D8B;stroke-width:1;stroke-linejoin:miter;stroke-miterlimit:10;"/><text fill="#000000" font-family="sans-serif" font-size="11" lengthAdjust="spacing" textLength="39.2697" x="320.1898" y="459.3197">MONEY</text><line style="stroke:#607D8B;stroke-width:1.3;" x1="485.882" x2="485.882" y1="437.5608" y2="480.7148"/><polygon fill="#607D8B" points="481.882,470.7148,485.882,480.7148,489.882,470.7148,485.882,474.7148" style="stroke:#607D8B;stroke-width:1;stroke-linejoin:miter;stroke-miterlimit:10;"/><text fill="#000000" font-family="sans-serif" font-size="11" lengthAdjust="spacing" textLength="181.1687" x="489.882" y="463.4057">TIME / DATE / MEASURE / ORDINAL</text><line style="stroke:#607D8B;stroke-width:1.3;" x1="775.9052" x2="775.9052" y1="437.5608" y2="482.2148"/><polygon fill="#607D8B" points="771.9052,472.2148,775.9052,482.2148,779.9052,472.2148,775.9052,476.2148" style="stroke:#607D8B;stroke-width:1;stroke-linejoin:miter;stroke-miterlimit:10;"/><text fill="#000000" font-family="sans-serif" font-size="11" lengthAdjust="spacing" textLength="31.5368" x="779.9052" y="464.1557">PLAIN</text><line style="stroke:#607D8B;stroke-width:1.3;" x1="128.324" x2="128.324" y1="528.2309" y2="548.2309"/><polygon fill="#607D8B" points="124.324,538.2309,128.324,548.2309,132.324,538.2309,128.324,542.2309" style="stroke:#607D8B;stroke-width:1;stroke-linejoin:miter;stroke-miterlimit:10;"/><line style="stroke:#607D8B;stroke-width:1.3;" x1="316.1898" x2="316.1898" y1="528.2309" y2="548.2309"/><polygon fill="#607D8B" points="312.1898,538.2309,316.1898,548.2309,320.1898,538.2309,316.1898,542.2309" style="stroke:#607D8B;stroke-width:1;stroke-linejoin:miter;stroke-miterlimit:10;"/><line style="stroke:#607D8B;stroke-width:1.3;" x1="485.882" x2="485.882" y1="520.0589" y2="548.2309"/><polygon fill="#607D8B" points="481.882,538.2309,485.882,548.2309,489.882,538.2309,485.882,542.2309" style="stroke:#607D8B;stroke-width:1;stroke-linejoin:miter;stroke-miterlimit:10;"/><line style="stroke:#607D8B;stroke-width:1.3;" x1="775.9052" x2="775.9052" y1="518.5589" y2="548.2309"/><polygon fill="#607D8B" points="771.9052,538.2309,775.9052,548.2309,779.9052,538.2309,775.9052,542.2309" style="stroke:#607D8B;stroke-width:1;stroke-linejoin:miter;stroke-miterlimit:10;"/><line style="stroke:#607D8B;stroke-width:1.3;" x1="427.3798" x2="427.3798" y1="416.0608" y2="436.0608"/><polygon fill="#607D8B" points="423.3798,426.0608,427.3798,436.0608,431.3798,426.0608,427.3798,430.0608" style="stroke:#607D8B;stroke-width:1;stroke-linejoin:miter;stroke-miterlimit:10;"/><line style="stroke:#607D8B;stroke-width:1.3;" x1="427.3798" x2="427.3798" y1="359.7167" y2="379.7167"/><polygon fill="#607D8B" points="423.3798,369.7167,427.3798,379.7167,431.3798,369.7167,427.3798,373.7167" style="stroke:#607D8B;stroke-width:1;stroke-linejoin:miter;stroke-miterlimit:10;"/><line style="stroke:#607D8B;stroke-width:1.3;" x1="474.4256" x2="870.7597" y1="580.2309" y2="580.2309"/><polygon fill="#607D8B" points="866.7597,464.1378,870.7597,454.1378,874.7597,464.1378,870.7597,460.1378" style="stroke:#607D8B;stroke-width:1.3;stroke-linejoin:miter;stroke-miterlimit:10;"/><line style="stroke:#607D8B;stroke-width:1.3;" x1="870.7597" x2="870.7597" y1="341.5446" y2="580.2309"/><line style="stroke:#607D8B;stroke-width:1.3;" x1="870.7597" x2="500.4283" y1="341.5446" y2="341.5446"/><polygon fill="#607D8B" points="510.4283,337.5446,500.4283,341.5446,510.4283,345.5446,506.4283,341.5446" style="stroke:#607D8B;stroke-width:1;stroke-linejoin:miter;stroke-miterlimit:10;"/><line style="stroke:#607D8B;stroke-width:1.3;" x1="427.3798" x2="427.3798" y1="549.7309" y2="568.2309"/><polygon fill="#607D8B" points="423.3798,558.2309,427.3798,568.2309,431.3798,558.2309,427.3798,562.2309" style="stroke:#607D8B;stroke-width:1;stroke-linejoin:miter;stroke-miterlimit:10;"/><line style="stroke:#607D8B;stroke-width:1.3;" x1="427.3798" x2="427.3798" y1="303.3726" y2="323.3726"/><polygon fill="#607D8B" points="423.3798,313.3726,427.3798,323.3726,431.3798,313.3726,427.3798,317.3726" style="stroke:#607D8B;stroke-width:1;stroke-linejoin:miter;stroke-miterlimit:10;"/><line style="stroke:#607D8B;stroke-width:1.3;" x1="427.3798" x2="427.3798" y1="592.2309" y2="625.4898"/><polygon fill="#607D8B" points="423.3798,615.4898,427.3798,625.4898,431.3798,615.4898,427.3798,619.4898" style="stroke:#607D8B;stroke-width:1;stroke-linejoin:miter;stroke-miterlimit:10;"/><line style="stroke:#607D8B;stroke-width:1.3;" x1="427.3798" x2="427.3798" y1="694.5222" y2="714.5222"/><polygon fill="#607D8B" points="423.3798,704.5222,427.3798,714.5222,431.3798,704.5222,427.3798,708.5222" style="stroke:#607D8B;stroke-width:1;stroke-linejoin:miter;stroke-miterlimit:10;"/><line style="stroke:#607D8B;stroke-width:1.3;" x1="427.3798" x2="427.3798" y1="767.2104" y2="787.2104"/><polygon fill="#607D8B" points="423.3798,777.2104,427.3798,787.2104,431.3798,777.2104,427.3798,781.2104" style="stroke:#607D8B;stroke-width:1;stroke-linejoin:miter;stroke-miterlimit:10;"/><?plantuml-src TLJTRjfA4BxtKup8KGeIWOI8_E0qbG4Z8IKa2ZudEXBIqM8FzYhshhMxXEPKbNfH7VMwwZFqTVeEUP8pQnj2qiGNU3qpV3FxpJVp3WOfqvel7k3nl-yWfCfOol_5lHpLNcXTXLqXdJ2RfmWiDFoUcmTOf7852waWcBJ7mQJbl0CFmXADeuBRqJG0ms8DoC84ZBn30Ijk4c0mnOnBmyCYkKk6ftJtgEP52Oe0Vttz9wJaAyKDQk06wi6a1_RJeA32T6vHNHXRS_b1rihVS25F6HTbQWqvmHEcIPHSnebB1zowc89GYf3H_vZDPPsRKYB2PaBRArwp50cy1v4CTJlYB5Oiq-qRtnjU-gqiWlf0AeL4aXIm2vEBQtWFB9iJ_iveDEgU3g5DfrFlfDDr2Myabo9YHVHxcATBX9r-V-YF-ZRie7lK7UoxuAMnf3ibcQQWM24HkJCuyOy6fpQgunyF3pkDbgFlkCWPrGDp5jx5oa8FP2hBrFHiHUY4HNB5HGmBbchSyaIuOClK1FZHU2cFHOR2G4W_r96dA4yfkQh0Z_QFXoVzbyuWuU6TG6hfGUjmoxaHq2S7eFzAeSIHzKWLeLfR2xx8EfB2LBQ3_Sv-vvXiGyuoAQBVe4eUjmAs4KjgoJarJ9cNHdy3KfBhV7OSmmt9_sn-7ao8TLBSMNj-3l3uvGUiPV_s4DL_VJtJo_bvUDQshyQBgN8SRSjmUcEHBmqOuduc2gtNnf2mUuI3pY6mF4zHrsQYa7kjrMg150W9NLcHHisAclHWzOq8vAmrNCVfKS63vqDfwvu9ciprO1H3-MmaPtQCu2yCTrFZ1YoECGfix6viNDSHqj3ay3WniECF_D7eW2WBuV7RD_Wqy6w6uubtqOIhwa2-uhcyclX_Do4ON_fD67g1_-JnlUcVDsHz_FAp2TSNtdZosK4HWKtaE0fpP0PwTjSKgsIh89SmgaRtRabmB-u1uGSReVEKcoBRtZciAtGBGwzgpDfQzcScQaHuZRhq0sflSLpRG0EBQS-i4nGNVOvUc3RGVtGhv0MdpaOoJPdIRw5PlaXlbZ1wLLJHwUgrMrJo0gY_jb0RRwGe6A-0x99ShqXOYZ1XWhYsJjkGaiYg8Qk4qq3KCwcmKjA71d3I-WFgXkqTr8Lib1AysKYzLD_MhlrjpSu4xMpQTp4NB8LYQ5sdsdSzFwFgAs7MfqRH1cl2RSCAaoPcXLQL11Go4V6esEHMDdEqAm-P2XCYGHkP_my0?></g></svg>